%TF.GenerationSoftware,KiCad,Pcbnew,7.0.7*%
%TF.CreationDate,2024-01-13T11:42:57-05:00*%
%TF.ProjectId,FinalTeensyBreakoutBoard,46696e61-6c54-4656-956e-737942726561,rev?*%
%TF.SameCoordinates,Original*%
%TF.FileFunction,Legend,Top*%
%TF.FilePolarity,Positive*%
%FSLAX46Y46*%
G04 Gerber Fmt 4.6, Leading zero omitted, Abs format (unit mm)*
G04 Created by KiCad (PCBNEW 7.0.7) date 2024-01-13 11:42:57*
%MOMM*%
%LPD*%
G01*
G04 APERTURE LIST*
%ADD10C,0.150000*%
%ADD11C,0.152400*%
%ADD12C,0.508000*%
%ADD13C,0.120000*%
%ADD14C,0.100000*%
G04 APERTURE END LIST*
D10*
X171386666Y-143074819D02*
X171053333Y-142598628D01*
X170815238Y-143074819D02*
X170815238Y-142074819D01*
X170815238Y-142074819D02*
X171196190Y-142074819D01*
X171196190Y-142074819D02*
X171291428Y-142122438D01*
X171291428Y-142122438D02*
X171339047Y-142170057D01*
X171339047Y-142170057D02*
X171386666Y-142265295D01*
X171386666Y-142265295D02*
X171386666Y-142408152D01*
X171386666Y-142408152D02*
X171339047Y-142503390D01*
X171339047Y-142503390D02*
X171291428Y-142551009D01*
X171291428Y-142551009D02*
X171196190Y-142598628D01*
X171196190Y-142598628D02*
X170815238Y-142598628D01*
X171815238Y-142551009D02*
X172148571Y-142551009D01*
X172291428Y-143074819D02*
X171815238Y-143074819D01*
X171815238Y-143074819D02*
X171815238Y-142074819D01*
X171815238Y-142074819D02*
X172291428Y-142074819D01*
X173053333Y-142551009D02*
X172720000Y-142551009D01*
X172720000Y-143074819D02*
X172720000Y-142074819D01*
X172720000Y-142074819D02*
X173196190Y-142074819D01*
X173720000Y-142074819D02*
X173720000Y-142312914D01*
X173481905Y-142217676D02*
X173720000Y-142312914D01*
X173720000Y-142312914D02*
X173958095Y-142217676D01*
X173577143Y-142503390D02*
X173720000Y-142312914D01*
X173720000Y-142312914D02*
X173862857Y-142503390D01*
X174481905Y-142074819D02*
X174481905Y-142312914D01*
X174243810Y-142217676D02*
X174481905Y-142312914D01*
X174481905Y-142312914D02*
X174720000Y-142217676D01*
X174339048Y-142503390D02*
X174481905Y-142312914D01*
X174481905Y-142312914D02*
X174624762Y-142503390D01*
X142191666Y-55404819D02*
X142191666Y-56119104D01*
X142191666Y-56119104D02*
X142144047Y-56261961D01*
X142144047Y-56261961D02*
X142048809Y-56357200D01*
X142048809Y-56357200D02*
X141905952Y-56404819D01*
X141905952Y-56404819D02*
X141810714Y-56404819D01*
X142572619Y-55404819D02*
X143239285Y-55404819D01*
X143239285Y-55404819D02*
X142810714Y-56404819D01*
X140404819Y-82098810D02*
X139928628Y-82432143D01*
X140404819Y-82670238D02*
X139404819Y-82670238D01*
X139404819Y-82670238D02*
X139404819Y-82289286D01*
X139404819Y-82289286D02*
X139452438Y-82194048D01*
X139452438Y-82194048D02*
X139500057Y-82146429D01*
X139500057Y-82146429D02*
X139595295Y-82098810D01*
X139595295Y-82098810D02*
X139738152Y-82098810D01*
X139738152Y-82098810D02*
X139833390Y-82146429D01*
X139833390Y-82146429D02*
X139881009Y-82194048D01*
X139881009Y-82194048D02*
X139928628Y-82289286D01*
X139928628Y-82289286D02*
X139928628Y-82670238D01*
X140500057Y-81908334D02*
X140500057Y-81146429D01*
X140404819Y-80908333D02*
X139404819Y-80908333D01*
X139404819Y-80908333D02*
X139404819Y-80527381D01*
X139404819Y-80527381D02*
X139452438Y-80432143D01*
X139452438Y-80432143D02*
X139500057Y-80384524D01*
X139500057Y-80384524D02*
X139595295Y-80336905D01*
X139595295Y-80336905D02*
X139738152Y-80336905D01*
X139738152Y-80336905D02*
X139833390Y-80384524D01*
X139833390Y-80384524D02*
X139881009Y-80432143D01*
X139881009Y-80432143D02*
X139928628Y-80527381D01*
X139928628Y-80527381D02*
X139928628Y-80908333D01*
X139738152Y-79479762D02*
X140404819Y-79479762D01*
X139738152Y-79908333D02*
X140261961Y-79908333D01*
X140261961Y-79908333D02*
X140357200Y-79860714D01*
X140357200Y-79860714D02*
X140404819Y-79765476D01*
X140404819Y-79765476D02*
X140404819Y-79622619D01*
X140404819Y-79622619D02*
X140357200Y-79527381D01*
X140357200Y-79527381D02*
X140309580Y-79479762D01*
X140404819Y-78860714D02*
X140357200Y-78955952D01*
X140357200Y-78955952D02*
X140261961Y-79003571D01*
X140261961Y-79003571D02*
X139404819Y-79003571D01*
X140404819Y-78336904D02*
X140357200Y-78432142D01*
X140357200Y-78432142D02*
X140261961Y-78479761D01*
X140261961Y-78479761D02*
X139404819Y-78479761D01*
X140404819Y-77955951D02*
X139404819Y-77955951D01*
X139404819Y-77955951D02*
X139404819Y-77717856D01*
X139404819Y-77717856D02*
X139452438Y-77574999D01*
X139452438Y-77574999D02*
X139547676Y-77479761D01*
X139547676Y-77479761D02*
X139642914Y-77432142D01*
X139642914Y-77432142D02*
X139833390Y-77384523D01*
X139833390Y-77384523D02*
X139976247Y-77384523D01*
X139976247Y-77384523D02*
X140166723Y-77432142D01*
X140166723Y-77432142D02*
X140261961Y-77479761D01*
X140261961Y-77479761D02*
X140357200Y-77574999D01*
X140357200Y-77574999D02*
X140404819Y-77717856D01*
X140404819Y-77717856D02*
X140404819Y-77955951D01*
X140404819Y-76813094D02*
X140357200Y-76908332D01*
X140357200Y-76908332D02*
X140309580Y-76955951D01*
X140309580Y-76955951D02*
X140214342Y-77003570D01*
X140214342Y-77003570D02*
X139928628Y-77003570D01*
X139928628Y-77003570D02*
X139833390Y-76955951D01*
X139833390Y-76955951D02*
X139785771Y-76908332D01*
X139785771Y-76908332D02*
X139738152Y-76813094D01*
X139738152Y-76813094D02*
X139738152Y-76670237D01*
X139738152Y-76670237D02*
X139785771Y-76574999D01*
X139785771Y-76574999D02*
X139833390Y-76527380D01*
X139833390Y-76527380D02*
X139928628Y-76479761D01*
X139928628Y-76479761D02*
X140214342Y-76479761D01*
X140214342Y-76479761D02*
X140309580Y-76527380D01*
X140309580Y-76527380D02*
X140357200Y-76574999D01*
X140357200Y-76574999D02*
X140404819Y-76670237D01*
X140404819Y-76670237D02*
X140404819Y-76813094D01*
X139738152Y-76146427D02*
X140404819Y-75955951D01*
X140404819Y-75955951D02*
X139928628Y-75765475D01*
X139928628Y-75765475D02*
X140404819Y-75574999D01*
X140404819Y-75574999D02*
X139738152Y-75384523D01*
X139738152Y-75003570D02*
X140404819Y-75003570D01*
X139833390Y-75003570D02*
X139785771Y-74955951D01*
X139785771Y-74955951D02*
X139738152Y-74860713D01*
X139738152Y-74860713D02*
X139738152Y-74717856D01*
X139738152Y-74717856D02*
X139785771Y-74622618D01*
X139785771Y-74622618D02*
X139881009Y-74574999D01*
X139881009Y-74574999D02*
X140404819Y-74574999D01*
X140404819Y-74098808D02*
X139404819Y-74098808D01*
X139404819Y-74098808D02*
X140119104Y-73765475D01*
X140119104Y-73765475D02*
X139404819Y-73432142D01*
X139404819Y-73432142D02*
X140404819Y-73432142D01*
X140309580Y-72384523D02*
X140357200Y-72432142D01*
X140357200Y-72432142D02*
X140404819Y-72574999D01*
X140404819Y-72574999D02*
X140404819Y-72670237D01*
X140404819Y-72670237D02*
X140357200Y-72813094D01*
X140357200Y-72813094D02*
X140261961Y-72908332D01*
X140261961Y-72908332D02*
X140166723Y-72955951D01*
X140166723Y-72955951D02*
X139976247Y-73003570D01*
X139976247Y-73003570D02*
X139833390Y-73003570D01*
X139833390Y-73003570D02*
X139642914Y-72955951D01*
X139642914Y-72955951D02*
X139547676Y-72908332D01*
X139547676Y-72908332D02*
X139452438Y-72813094D01*
X139452438Y-72813094D02*
X139404819Y-72670237D01*
X139404819Y-72670237D02*
X139404819Y-72574999D01*
X139404819Y-72574999D02*
X139452438Y-72432142D01*
X139452438Y-72432142D02*
X139500057Y-72384523D01*
X140404819Y-71432142D02*
X140404819Y-72003570D01*
X140404819Y-71717856D02*
X139404819Y-71717856D01*
X139404819Y-71717856D02*
X139547676Y-71813094D01*
X139547676Y-71813094D02*
X139642914Y-71908332D01*
X139642914Y-71908332D02*
X139690533Y-72003570D01*
X119210476Y-135954819D02*
X119210476Y-136669104D01*
X119210476Y-136669104D02*
X119162857Y-136811961D01*
X119162857Y-136811961D02*
X119067619Y-136907200D01*
X119067619Y-136907200D02*
X118924762Y-136954819D01*
X118924762Y-136954819D02*
X118829524Y-136954819D01*
X120210476Y-136954819D02*
X119639048Y-136954819D01*
X119924762Y-136954819D02*
X119924762Y-135954819D01*
X119924762Y-135954819D02*
X119829524Y-136097676D01*
X119829524Y-136097676D02*
X119734286Y-136192914D01*
X119734286Y-136192914D02*
X119639048Y-136240533D01*
X120591429Y-136050057D02*
X120639048Y-136002438D01*
X120639048Y-136002438D02*
X120734286Y-135954819D01*
X120734286Y-135954819D02*
X120972381Y-135954819D01*
X120972381Y-135954819D02*
X121067619Y-136002438D01*
X121067619Y-136002438D02*
X121115238Y-136050057D01*
X121115238Y-136050057D02*
X121162857Y-136145295D01*
X121162857Y-136145295D02*
X121162857Y-136240533D01*
X121162857Y-136240533D02*
X121115238Y-136383390D01*
X121115238Y-136383390D02*
X120543810Y-136954819D01*
X120543810Y-136954819D02*
X121162857Y-136954819D01*
X147441666Y-136429819D02*
X147441666Y-137144104D01*
X147441666Y-137144104D02*
X147394047Y-137286961D01*
X147394047Y-137286961D02*
X147298809Y-137382200D01*
X147298809Y-137382200D02*
X147155952Y-137429819D01*
X147155952Y-137429819D02*
X147060714Y-137429819D01*
X148346428Y-136429819D02*
X148155952Y-136429819D01*
X148155952Y-136429819D02*
X148060714Y-136477438D01*
X148060714Y-136477438D02*
X148013095Y-136525057D01*
X148013095Y-136525057D02*
X147917857Y-136667914D01*
X147917857Y-136667914D02*
X147870238Y-136858390D01*
X147870238Y-136858390D02*
X147870238Y-137239342D01*
X147870238Y-137239342D02*
X147917857Y-137334580D01*
X147917857Y-137334580D02*
X147965476Y-137382200D01*
X147965476Y-137382200D02*
X148060714Y-137429819D01*
X148060714Y-137429819D02*
X148251190Y-137429819D01*
X148251190Y-137429819D02*
X148346428Y-137382200D01*
X148346428Y-137382200D02*
X148394047Y-137334580D01*
X148394047Y-137334580D02*
X148441666Y-137239342D01*
X148441666Y-137239342D02*
X148441666Y-137001247D01*
X148441666Y-137001247D02*
X148394047Y-136906009D01*
X148394047Y-136906009D02*
X148346428Y-136858390D01*
X148346428Y-136858390D02*
X148251190Y-136810771D01*
X148251190Y-136810771D02*
X148060714Y-136810771D01*
X148060714Y-136810771D02*
X147965476Y-136858390D01*
X147965476Y-136858390D02*
X147917857Y-136906009D01*
X147917857Y-136906009D02*
X147870238Y-137001247D01*
X93062666Y-125945180D02*
X93395999Y-126421371D01*
X93634094Y-125945180D02*
X93634094Y-126945180D01*
X93634094Y-126945180D02*
X93253142Y-126945180D01*
X93253142Y-126945180D02*
X93157904Y-126897561D01*
X93157904Y-126897561D02*
X93110285Y-126849942D01*
X93110285Y-126849942D02*
X93062666Y-126754704D01*
X93062666Y-126754704D02*
X93062666Y-126611847D01*
X93062666Y-126611847D02*
X93110285Y-126516609D01*
X93110285Y-126516609D02*
X93157904Y-126468990D01*
X93157904Y-126468990D02*
X93253142Y-126421371D01*
X93253142Y-126421371D02*
X93634094Y-126421371D01*
X92157904Y-126945180D02*
X92634094Y-126945180D01*
X92634094Y-126945180D02*
X92681713Y-126468990D01*
X92681713Y-126468990D02*
X92634094Y-126516609D01*
X92634094Y-126516609D02*
X92538856Y-126564228D01*
X92538856Y-126564228D02*
X92300761Y-126564228D01*
X92300761Y-126564228D02*
X92205523Y-126516609D01*
X92205523Y-126516609D02*
X92157904Y-126468990D01*
X92157904Y-126468990D02*
X92110285Y-126373752D01*
X92110285Y-126373752D02*
X92110285Y-126135657D01*
X92110285Y-126135657D02*
X92157904Y-126040419D01*
X92157904Y-126040419D02*
X92205523Y-125992800D01*
X92205523Y-125992800D02*
X92300761Y-125945180D01*
X92300761Y-125945180D02*
X92538856Y-125945180D01*
X92538856Y-125945180D02*
X92634094Y-125992800D01*
X92634094Y-125992800D02*
X92681713Y-126040419D01*
X85500819Y-110224404D02*
X86310342Y-110224404D01*
X86310342Y-110224404D02*
X86405580Y-110176785D01*
X86405580Y-110176785D02*
X86453200Y-110129166D01*
X86453200Y-110129166D02*
X86500819Y-110033928D01*
X86500819Y-110033928D02*
X86500819Y-109843452D01*
X86500819Y-109843452D02*
X86453200Y-109748214D01*
X86453200Y-109748214D02*
X86405580Y-109700595D01*
X86405580Y-109700595D02*
X86310342Y-109652976D01*
X86310342Y-109652976D02*
X85500819Y-109652976D01*
X85500819Y-108700595D02*
X85500819Y-109176785D01*
X85500819Y-109176785D02*
X85977009Y-109224404D01*
X85977009Y-109224404D02*
X85929390Y-109176785D01*
X85929390Y-109176785D02*
X85881771Y-109081547D01*
X85881771Y-109081547D02*
X85881771Y-108843452D01*
X85881771Y-108843452D02*
X85929390Y-108748214D01*
X85929390Y-108748214D02*
X85977009Y-108700595D01*
X85977009Y-108700595D02*
X86072247Y-108652976D01*
X86072247Y-108652976D02*
X86310342Y-108652976D01*
X86310342Y-108652976D02*
X86405580Y-108700595D01*
X86405580Y-108700595D02*
X86453200Y-108748214D01*
X86453200Y-108748214D02*
X86500819Y-108843452D01*
X86500819Y-108843452D02*
X86500819Y-109081547D01*
X86500819Y-109081547D02*
X86453200Y-109176785D01*
X86453200Y-109176785D02*
X86405580Y-109224404D01*
X67246666Y-49094819D02*
X66913333Y-48618628D01*
X66675238Y-49094819D02*
X66675238Y-48094819D01*
X66675238Y-48094819D02*
X67056190Y-48094819D01*
X67056190Y-48094819D02*
X67151428Y-48142438D01*
X67151428Y-48142438D02*
X67199047Y-48190057D01*
X67199047Y-48190057D02*
X67246666Y-48285295D01*
X67246666Y-48285295D02*
X67246666Y-48428152D01*
X67246666Y-48428152D02*
X67199047Y-48523390D01*
X67199047Y-48523390D02*
X67151428Y-48571009D01*
X67151428Y-48571009D02*
X67056190Y-48618628D01*
X67056190Y-48618628D02*
X66675238Y-48618628D01*
X67675238Y-48571009D02*
X68008571Y-48571009D01*
X68151428Y-49094819D02*
X67675238Y-49094819D01*
X67675238Y-49094819D02*
X67675238Y-48094819D01*
X67675238Y-48094819D02*
X68151428Y-48094819D01*
X68913333Y-48571009D02*
X68580000Y-48571009D01*
X68580000Y-49094819D02*
X68580000Y-48094819D01*
X68580000Y-48094819D02*
X69056190Y-48094819D01*
X69580000Y-48094819D02*
X69580000Y-48332914D01*
X69341905Y-48237676D02*
X69580000Y-48332914D01*
X69580000Y-48332914D02*
X69818095Y-48237676D01*
X69437143Y-48523390D02*
X69580000Y-48332914D01*
X69580000Y-48332914D02*
X69722857Y-48523390D01*
X70341905Y-48094819D02*
X70341905Y-48332914D01*
X70103810Y-48237676D02*
X70341905Y-48332914D01*
X70341905Y-48332914D02*
X70580000Y-48237676D01*
X70199048Y-48523390D02*
X70341905Y-48332914D01*
X70341905Y-48332914D02*
X70484762Y-48523390D01*
X171386666Y-49094819D02*
X171053333Y-48618628D01*
X170815238Y-49094819D02*
X170815238Y-48094819D01*
X170815238Y-48094819D02*
X171196190Y-48094819D01*
X171196190Y-48094819D02*
X171291428Y-48142438D01*
X171291428Y-48142438D02*
X171339047Y-48190057D01*
X171339047Y-48190057D02*
X171386666Y-48285295D01*
X171386666Y-48285295D02*
X171386666Y-48428152D01*
X171386666Y-48428152D02*
X171339047Y-48523390D01*
X171339047Y-48523390D02*
X171291428Y-48571009D01*
X171291428Y-48571009D02*
X171196190Y-48618628D01*
X171196190Y-48618628D02*
X170815238Y-48618628D01*
X171815238Y-48571009D02*
X172148571Y-48571009D01*
X172291428Y-49094819D02*
X171815238Y-49094819D01*
X171815238Y-49094819D02*
X171815238Y-48094819D01*
X171815238Y-48094819D02*
X172291428Y-48094819D01*
X173053333Y-48571009D02*
X172720000Y-48571009D01*
X172720000Y-49094819D02*
X172720000Y-48094819D01*
X172720000Y-48094819D02*
X173196190Y-48094819D01*
X173720000Y-48094819D02*
X173720000Y-48332914D01*
X173481905Y-48237676D02*
X173720000Y-48332914D01*
X173720000Y-48332914D02*
X173958095Y-48237676D01*
X173577143Y-48523390D02*
X173720000Y-48332914D01*
X173720000Y-48332914D02*
X173862857Y-48523390D01*
X174481905Y-48094819D02*
X174481905Y-48332914D01*
X174243810Y-48237676D02*
X174481905Y-48332914D01*
X174481905Y-48332914D02*
X174720000Y-48237676D01*
X174339048Y-48523390D02*
X174481905Y-48332914D01*
X174481905Y-48332914D02*
X174624762Y-48523390D01*
X97547580Y-59190366D02*
X97595200Y-59237985D01*
X97595200Y-59237985D02*
X97642819Y-59380842D01*
X97642819Y-59380842D02*
X97642819Y-59476080D01*
X97642819Y-59476080D02*
X97595200Y-59618937D01*
X97595200Y-59618937D02*
X97499961Y-59714175D01*
X97499961Y-59714175D02*
X97404723Y-59761794D01*
X97404723Y-59761794D02*
X97214247Y-59809413D01*
X97214247Y-59809413D02*
X97071390Y-59809413D01*
X97071390Y-59809413D02*
X96880914Y-59761794D01*
X96880914Y-59761794D02*
X96785676Y-59714175D01*
X96785676Y-59714175D02*
X96690438Y-59618937D01*
X96690438Y-59618937D02*
X96642819Y-59476080D01*
X96642819Y-59476080D02*
X96642819Y-59380842D01*
X96642819Y-59380842D02*
X96690438Y-59237985D01*
X96690438Y-59237985D02*
X96738057Y-59190366D01*
X96738057Y-58809413D02*
X96690438Y-58761794D01*
X96690438Y-58761794D02*
X96642819Y-58666556D01*
X96642819Y-58666556D02*
X96642819Y-58428461D01*
X96642819Y-58428461D02*
X96690438Y-58333223D01*
X96690438Y-58333223D02*
X96738057Y-58285604D01*
X96738057Y-58285604D02*
X96833295Y-58237985D01*
X96833295Y-58237985D02*
X96928533Y-58237985D01*
X96928533Y-58237985D02*
X97071390Y-58285604D01*
X97071390Y-58285604D02*
X97642819Y-58857032D01*
X97642819Y-58857032D02*
X97642819Y-58237985D01*
X91917580Y-78570366D02*
X91965200Y-78617985D01*
X91965200Y-78617985D02*
X92012819Y-78760842D01*
X92012819Y-78760842D02*
X92012819Y-78856080D01*
X92012819Y-78856080D02*
X91965200Y-78998937D01*
X91965200Y-78998937D02*
X91869961Y-79094175D01*
X91869961Y-79094175D02*
X91774723Y-79141794D01*
X91774723Y-79141794D02*
X91584247Y-79189413D01*
X91584247Y-79189413D02*
X91441390Y-79189413D01*
X91441390Y-79189413D02*
X91250914Y-79141794D01*
X91250914Y-79141794D02*
X91155676Y-79094175D01*
X91155676Y-79094175D02*
X91060438Y-78998937D01*
X91060438Y-78998937D02*
X91012819Y-78856080D01*
X91012819Y-78856080D02*
X91012819Y-78760842D01*
X91012819Y-78760842D02*
X91060438Y-78617985D01*
X91060438Y-78617985D02*
X91108057Y-78570366D01*
X92012819Y-77617985D02*
X92012819Y-78189413D01*
X92012819Y-77903699D02*
X91012819Y-77903699D01*
X91012819Y-77903699D02*
X91155676Y-77998937D01*
X91155676Y-77998937D02*
X91250914Y-78094175D01*
X91250914Y-78094175D02*
X91298533Y-78189413D01*
X84632819Y-78998104D02*
X85442342Y-78998104D01*
X85442342Y-78998104D02*
X85537580Y-78950485D01*
X85537580Y-78950485D02*
X85585200Y-78902866D01*
X85585200Y-78902866D02*
X85632819Y-78807628D01*
X85632819Y-78807628D02*
X85632819Y-78617152D01*
X85632819Y-78617152D02*
X85585200Y-78521914D01*
X85585200Y-78521914D02*
X85537580Y-78474295D01*
X85537580Y-78474295D02*
X85442342Y-78426676D01*
X85442342Y-78426676D02*
X84632819Y-78426676D01*
X84632819Y-78045723D02*
X84632819Y-77426676D01*
X84632819Y-77426676D02*
X85013771Y-77760009D01*
X85013771Y-77760009D02*
X85013771Y-77617152D01*
X85013771Y-77617152D02*
X85061390Y-77521914D01*
X85061390Y-77521914D02*
X85109009Y-77474295D01*
X85109009Y-77474295D02*
X85204247Y-77426676D01*
X85204247Y-77426676D02*
X85442342Y-77426676D01*
X85442342Y-77426676D02*
X85537580Y-77474295D01*
X85537580Y-77474295D02*
X85585200Y-77521914D01*
X85585200Y-77521914D02*
X85632819Y-77617152D01*
X85632819Y-77617152D02*
X85632819Y-77902866D01*
X85632819Y-77902866D02*
X85585200Y-77998104D01*
X85585200Y-77998104D02*
X85537580Y-78045723D01*
X110190476Y-55334819D02*
X110190476Y-56049104D01*
X110190476Y-56049104D02*
X110142857Y-56191961D01*
X110142857Y-56191961D02*
X110047619Y-56287200D01*
X110047619Y-56287200D02*
X109904762Y-56334819D01*
X109904762Y-56334819D02*
X109809524Y-56334819D01*
X111190476Y-56334819D02*
X110619048Y-56334819D01*
X110904762Y-56334819D02*
X110904762Y-55334819D01*
X110904762Y-55334819D02*
X110809524Y-55477676D01*
X110809524Y-55477676D02*
X110714286Y-55572914D01*
X110714286Y-55572914D02*
X110619048Y-55620533D01*
X111523810Y-55334819D02*
X112142857Y-55334819D01*
X112142857Y-55334819D02*
X111809524Y-55715771D01*
X111809524Y-55715771D02*
X111952381Y-55715771D01*
X111952381Y-55715771D02*
X112047619Y-55763390D01*
X112047619Y-55763390D02*
X112095238Y-55811009D01*
X112095238Y-55811009D02*
X112142857Y-55906247D01*
X112142857Y-55906247D02*
X112142857Y-56144342D01*
X112142857Y-56144342D02*
X112095238Y-56239580D01*
X112095238Y-56239580D02*
X112047619Y-56287200D01*
X112047619Y-56287200D02*
X111952381Y-56334819D01*
X111952381Y-56334819D02*
X111666667Y-56334819D01*
X111666667Y-56334819D02*
X111571429Y-56287200D01*
X111571429Y-56287200D02*
X111523810Y-56239580D01*
X155579819Y-128383333D02*
X156294104Y-128383333D01*
X156294104Y-128383333D02*
X156436961Y-128430952D01*
X156436961Y-128430952D02*
X156532200Y-128526190D01*
X156532200Y-128526190D02*
X156579819Y-128669047D01*
X156579819Y-128669047D02*
X156579819Y-128764285D01*
X155579819Y-128002380D02*
X155579819Y-127383333D01*
X155579819Y-127383333D02*
X155960771Y-127716666D01*
X155960771Y-127716666D02*
X155960771Y-127573809D01*
X155960771Y-127573809D02*
X156008390Y-127478571D01*
X156008390Y-127478571D02*
X156056009Y-127430952D01*
X156056009Y-127430952D02*
X156151247Y-127383333D01*
X156151247Y-127383333D02*
X156389342Y-127383333D01*
X156389342Y-127383333D02*
X156484580Y-127430952D01*
X156484580Y-127430952D02*
X156532200Y-127478571D01*
X156532200Y-127478571D02*
X156579819Y-127573809D01*
X156579819Y-127573809D02*
X156579819Y-127859523D01*
X156579819Y-127859523D02*
X156532200Y-127954761D01*
X156532200Y-127954761D02*
X156484580Y-128002380D01*
X137165475Y-101629819D02*
X136689285Y-101629819D01*
X136689285Y-101629819D02*
X136689285Y-100629819D01*
X137879761Y-101582200D02*
X137784523Y-101629819D01*
X137784523Y-101629819D02*
X137594047Y-101629819D01*
X137594047Y-101629819D02*
X137498809Y-101582200D01*
X137498809Y-101582200D02*
X137451190Y-101486961D01*
X137451190Y-101486961D02*
X137451190Y-101106009D01*
X137451190Y-101106009D02*
X137498809Y-101010771D01*
X137498809Y-101010771D02*
X137594047Y-100963152D01*
X137594047Y-100963152D02*
X137784523Y-100963152D01*
X137784523Y-100963152D02*
X137879761Y-101010771D01*
X137879761Y-101010771D02*
X137927380Y-101106009D01*
X137927380Y-101106009D02*
X137927380Y-101201247D01*
X137927380Y-101201247D02*
X137451190Y-101296485D01*
X138260714Y-100963152D02*
X138498809Y-101629819D01*
X138498809Y-101629819D02*
X138736904Y-100963152D01*
X139498809Y-101582200D02*
X139403571Y-101629819D01*
X139403571Y-101629819D02*
X139213095Y-101629819D01*
X139213095Y-101629819D02*
X139117857Y-101582200D01*
X139117857Y-101582200D02*
X139070238Y-101486961D01*
X139070238Y-101486961D02*
X139070238Y-101106009D01*
X139070238Y-101106009D02*
X139117857Y-101010771D01*
X139117857Y-101010771D02*
X139213095Y-100963152D01*
X139213095Y-100963152D02*
X139403571Y-100963152D01*
X139403571Y-100963152D02*
X139498809Y-101010771D01*
X139498809Y-101010771D02*
X139546428Y-101106009D01*
X139546428Y-101106009D02*
X139546428Y-101201247D01*
X139546428Y-101201247D02*
X139070238Y-101296485D01*
X140117857Y-101629819D02*
X140022619Y-101582200D01*
X140022619Y-101582200D02*
X139975000Y-101486961D01*
X139975000Y-101486961D02*
X139975000Y-100629819D01*
X140451191Y-101582200D02*
X140594048Y-101629819D01*
X140594048Y-101629819D02*
X140832143Y-101629819D01*
X140832143Y-101629819D02*
X140927381Y-101582200D01*
X140927381Y-101582200D02*
X140975000Y-101534580D01*
X140975000Y-101534580D02*
X141022619Y-101439342D01*
X141022619Y-101439342D02*
X141022619Y-101344104D01*
X141022619Y-101344104D02*
X140975000Y-101248866D01*
X140975000Y-101248866D02*
X140927381Y-101201247D01*
X140927381Y-101201247D02*
X140832143Y-101153628D01*
X140832143Y-101153628D02*
X140641667Y-101106009D01*
X140641667Y-101106009D02*
X140546429Y-101058390D01*
X140546429Y-101058390D02*
X140498810Y-101010771D01*
X140498810Y-101010771D02*
X140451191Y-100915533D01*
X140451191Y-100915533D02*
X140451191Y-100820295D01*
X140451191Y-100820295D02*
X140498810Y-100725057D01*
X140498810Y-100725057D02*
X140546429Y-100677438D01*
X140546429Y-100677438D02*
X140641667Y-100629819D01*
X140641667Y-100629819D02*
X140879762Y-100629819D01*
X140879762Y-100629819D02*
X141022619Y-100677438D01*
X141451191Y-101629819D02*
X141451191Y-100629819D01*
X141879762Y-101629819D02*
X141879762Y-101106009D01*
X141879762Y-101106009D02*
X141832143Y-101010771D01*
X141832143Y-101010771D02*
X141736905Y-100963152D01*
X141736905Y-100963152D02*
X141594048Y-100963152D01*
X141594048Y-100963152D02*
X141498810Y-101010771D01*
X141498810Y-101010771D02*
X141451191Y-101058390D01*
X142355953Y-101629819D02*
X142355953Y-100963152D01*
X142355953Y-100629819D02*
X142308334Y-100677438D01*
X142308334Y-100677438D02*
X142355953Y-100725057D01*
X142355953Y-100725057D02*
X142403572Y-100677438D01*
X142403572Y-100677438D02*
X142355953Y-100629819D01*
X142355953Y-100629819D02*
X142355953Y-100725057D01*
X142689286Y-100963152D02*
X143070238Y-100963152D01*
X142832143Y-101629819D02*
X142832143Y-100772676D01*
X142832143Y-100772676D02*
X142879762Y-100677438D01*
X142879762Y-100677438D02*
X142975000Y-100629819D01*
X142975000Y-100629819D02*
X143070238Y-100629819D01*
X143260715Y-100963152D02*
X143641667Y-100963152D01*
X143403572Y-100629819D02*
X143403572Y-101486961D01*
X143403572Y-101486961D02*
X143451191Y-101582200D01*
X143451191Y-101582200D02*
X143546429Y-101629819D01*
X143546429Y-101629819D02*
X143641667Y-101629819D01*
X144355953Y-101582200D02*
X144260715Y-101629819D01*
X144260715Y-101629819D02*
X144070239Y-101629819D01*
X144070239Y-101629819D02*
X143975001Y-101582200D01*
X143975001Y-101582200D02*
X143927382Y-101486961D01*
X143927382Y-101486961D02*
X143927382Y-101106009D01*
X143927382Y-101106009D02*
X143975001Y-101010771D01*
X143975001Y-101010771D02*
X144070239Y-100963152D01*
X144070239Y-100963152D02*
X144260715Y-100963152D01*
X144260715Y-100963152D02*
X144355953Y-101010771D01*
X144355953Y-101010771D02*
X144403572Y-101106009D01*
X144403572Y-101106009D02*
X144403572Y-101201247D01*
X144403572Y-101201247D02*
X143927382Y-101296485D01*
X144832144Y-101629819D02*
X144832144Y-100963152D01*
X144832144Y-101153628D02*
X144879763Y-101058390D01*
X144879763Y-101058390D02*
X144927382Y-101010771D01*
X144927382Y-101010771D02*
X145022620Y-100963152D01*
X145022620Y-100963152D02*
X145117858Y-100963152D01*
X145451192Y-100629819D02*
X145451192Y-101439342D01*
X145451192Y-101439342D02*
X145498811Y-101534580D01*
X145498811Y-101534580D02*
X145546430Y-101582200D01*
X145546430Y-101582200D02*
X145641668Y-101629819D01*
X145641668Y-101629819D02*
X145832144Y-101629819D01*
X145832144Y-101629819D02*
X145927382Y-101582200D01*
X145927382Y-101582200D02*
X145975001Y-101534580D01*
X145975001Y-101534580D02*
X146022620Y-101439342D01*
X146022620Y-101439342D02*
X146022620Y-100629819D01*
X146403573Y-100629819D02*
X146641668Y-101629819D01*
X146641668Y-101629819D02*
X146832144Y-100915533D01*
X146832144Y-100915533D02*
X147022620Y-101629819D01*
X147022620Y-101629819D02*
X147260716Y-100629819D01*
X147975001Y-101106009D02*
X148117858Y-101153628D01*
X148117858Y-101153628D02*
X148165477Y-101201247D01*
X148165477Y-101201247D02*
X148213096Y-101296485D01*
X148213096Y-101296485D02*
X148213096Y-101439342D01*
X148213096Y-101439342D02*
X148165477Y-101534580D01*
X148165477Y-101534580D02*
X148117858Y-101582200D01*
X148117858Y-101582200D02*
X148022620Y-101629819D01*
X148022620Y-101629819D02*
X147641668Y-101629819D01*
X147641668Y-101629819D02*
X147641668Y-100629819D01*
X147641668Y-100629819D02*
X147975001Y-100629819D01*
X147975001Y-100629819D02*
X148070239Y-100677438D01*
X148070239Y-100677438D02*
X148117858Y-100725057D01*
X148117858Y-100725057D02*
X148165477Y-100820295D01*
X148165477Y-100820295D02*
X148165477Y-100915533D01*
X148165477Y-100915533D02*
X148117858Y-101010771D01*
X148117858Y-101010771D02*
X148070239Y-101058390D01*
X148070239Y-101058390D02*
X147975001Y-101106009D01*
X147975001Y-101106009D02*
X147641668Y-101106009D01*
X148927382Y-102010771D02*
X148879763Y-101963152D01*
X148879763Y-101963152D02*
X148784525Y-101820295D01*
X148784525Y-101820295D02*
X148736906Y-101725057D01*
X148736906Y-101725057D02*
X148689287Y-101582200D01*
X148689287Y-101582200D02*
X148641668Y-101344104D01*
X148641668Y-101344104D02*
X148641668Y-101153628D01*
X148641668Y-101153628D02*
X148689287Y-100915533D01*
X148689287Y-100915533D02*
X148736906Y-100772676D01*
X148736906Y-100772676D02*
X148784525Y-100677438D01*
X148784525Y-100677438D02*
X148879763Y-100534580D01*
X148879763Y-100534580D02*
X148927382Y-100486961D01*
X149784525Y-100629819D02*
X149308335Y-100629819D01*
X149308335Y-100629819D02*
X149260716Y-101106009D01*
X149260716Y-101106009D02*
X149308335Y-101058390D01*
X149308335Y-101058390D02*
X149403573Y-101010771D01*
X149403573Y-101010771D02*
X149641668Y-101010771D01*
X149641668Y-101010771D02*
X149736906Y-101058390D01*
X149736906Y-101058390D02*
X149784525Y-101106009D01*
X149784525Y-101106009D02*
X149832144Y-101201247D01*
X149832144Y-101201247D02*
X149832144Y-101439342D01*
X149832144Y-101439342D02*
X149784525Y-101534580D01*
X149784525Y-101534580D02*
X149736906Y-101582200D01*
X149736906Y-101582200D02*
X149641668Y-101629819D01*
X149641668Y-101629819D02*
X149403573Y-101629819D01*
X149403573Y-101629819D02*
X149308335Y-101582200D01*
X149308335Y-101582200D02*
X149260716Y-101534580D01*
X150260716Y-101248866D02*
X151022621Y-101248866D01*
X151498811Y-100963152D02*
X152260716Y-101248866D01*
X152260716Y-101248866D02*
X151498811Y-101534580D01*
X152641668Y-100629819D02*
X153260715Y-100629819D01*
X153260715Y-100629819D02*
X152927382Y-101010771D01*
X152927382Y-101010771D02*
X153070239Y-101010771D01*
X153070239Y-101010771D02*
X153165477Y-101058390D01*
X153165477Y-101058390D02*
X153213096Y-101106009D01*
X153213096Y-101106009D02*
X153260715Y-101201247D01*
X153260715Y-101201247D02*
X153260715Y-101439342D01*
X153260715Y-101439342D02*
X153213096Y-101534580D01*
X153213096Y-101534580D02*
X153165477Y-101582200D01*
X153165477Y-101582200D02*
X153070239Y-101629819D01*
X153070239Y-101629819D02*
X152784525Y-101629819D01*
X152784525Y-101629819D02*
X152689287Y-101582200D01*
X152689287Y-101582200D02*
X152641668Y-101534580D01*
X153689287Y-101534580D02*
X153736906Y-101582200D01*
X153736906Y-101582200D02*
X153689287Y-101629819D01*
X153689287Y-101629819D02*
X153641668Y-101582200D01*
X153641668Y-101582200D02*
X153689287Y-101534580D01*
X153689287Y-101534580D02*
X153689287Y-101629819D01*
X154070239Y-100629819D02*
X154689286Y-100629819D01*
X154689286Y-100629819D02*
X154355953Y-101010771D01*
X154355953Y-101010771D02*
X154498810Y-101010771D01*
X154498810Y-101010771D02*
X154594048Y-101058390D01*
X154594048Y-101058390D02*
X154641667Y-101106009D01*
X154641667Y-101106009D02*
X154689286Y-101201247D01*
X154689286Y-101201247D02*
X154689286Y-101439342D01*
X154689286Y-101439342D02*
X154641667Y-101534580D01*
X154641667Y-101534580D02*
X154594048Y-101582200D01*
X154594048Y-101582200D02*
X154498810Y-101629819D01*
X154498810Y-101629819D02*
X154213096Y-101629819D01*
X154213096Y-101629819D02*
X154117858Y-101582200D01*
X154117858Y-101582200D02*
X154070239Y-101534580D01*
X155022620Y-102010771D02*
X155070239Y-101963152D01*
X155070239Y-101963152D02*
X155165477Y-101820295D01*
X155165477Y-101820295D02*
X155213096Y-101725057D01*
X155213096Y-101725057D02*
X155260715Y-101582200D01*
X155260715Y-101582200D02*
X155308334Y-101344104D01*
X155308334Y-101344104D02*
X155308334Y-101153628D01*
X155308334Y-101153628D02*
X155260715Y-100915533D01*
X155260715Y-100915533D02*
X155213096Y-100772676D01*
X155213096Y-100772676D02*
X155165477Y-100677438D01*
X155165477Y-100677438D02*
X155070239Y-100534580D01*
X155070239Y-100534580D02*
X155022620Y-100486961D01*
X156308334Y-101629819D02*
X155736906Y-101629819D01*
X156022620Y-101629819D02*
X156022620Y-100629819D01*
X156022620Y-100629819D02*
X155927382Y-100772676D01*
X155927382Y-100772676D02*
X155832144Y-100867914D01*
X155832144Y-100867914D02*
X155736906Y-100915533D01*
X146429819Y-82410715D02*
X146429819Y-82886905D01*
X146429819Y-82886905D02*
X145429819Y-82886905D01*
X146382200Y-81696429D02*
X146429819Y-81791667D01*
X146429819Y-81791667D02*
X146429819Y-81982143D01*
X146429819Y-81982143D02*
X146382200Y-82077381D01*
X146382200Y-82077381D02*
X146286961Y-82125000D01*
X146286961Y-82125000D02*
X145906009Y-82125000D01*
X145906009Y-82125000D02*
X145810771Y-82077381D01*
X145810771Y-82077381D02*
X145763152Y-81982143D01*
X145763152Y-81982143D02*
X145763152Y-81791667D01*
X145763152Y-81791667D02*
X145810771Y-81696429D01*
X145810771Y-81696429D02*
X145906009Y-81648810D01*
X145906009Y-81648810D02*
X146001247Y-81648810D01*
X146001247Y-81648810D02*
X146096485Y-82125000D01*
X145763152Y-81315476D02*
X146429819Y-81077381D01*
X146429819Y-81077381D02*
X145763152Y-80839286D01*
X146382200Y-80077381D02*
X146429819Y-80172619D01*
X146429819Y-80172619D02*
X146429819Y-80363095D01*
X146429819Y-80363095D02*
X146382200Y-80458333D01*
X146382200Y-80458333D02*
X146286961Y-80505952D01*
X146286961Y-80505952D02*
X145906009Y-80505952D01*
X145906009Y-80505952D02*
X145810771Y-80458333D01*
X145810771Y-80458333D02*
X145763152Y-80363095D01*
X145763152Y-80363095D02*
X145763152Y-80172619D01*
X145763152Y-80172619D02*
X145810771Y-80077381D01*
X145810771Y-80077381D02*
X145906009Y-80029762D01*
X145906009Y-80029762D02*
X146001247Y-80029762D01*
X146001247Y-80029762D02*
X146096485Y-80505952D01*
X146429819Y-79458333D02*
X146382200Y-79553571D01*
X146382200Y-79553571D02*
X146286961Y-79601190D01*
X146286961Y-79601190D02*
X145429819Y-79601190D01*
X146382200Y-79124999D02*
X146429819Y-78982142D01*
X146429819Y-78982142D02*
X146429819Y-78744047D01*
X146429819Y-78744047D02*
X146382200Y-78648809D01*
X146382200Y-78648809D02*
X146334580Y-78601190D01*
X146334580Y-78601190D02*
X146239342Y-78553571D01*
X146239342Y-78553571D02*
X146144104Y-78553571D01*
X146144104Y-78553571D02*
X146048866Y-78601190D01*
X146048866Y-78601190D02*
X146001247Y-78648809D01*
X146001247Y-78648809D02*
X145953628Y-78744047D01*
X145953628Y-78744047D02*
X145906009Y-78934523D01*
X145906009Y-78934523D02*
X145858390Y-79029761D01*
X145858390Y-79029761D02*
X145810771Y-79077380D01*
X145810771Y-79077380D02*
X145715533Y-79124999D01*
X145715533Y-79124999D02*
X145620295Y-79124999D01*
X145620295Y-79124999D02*
X145525057Y-79077380D01*
X145525057Y-79077380D02*
X145477438Y-79029761D01*
X145477438Y-79029761D02*
X145429819Y-78934523D01*
X145429819Y-78934523D02*
X145429819Y-78696428D01*
X145429819Y-78696428D02*
X145477438Y-78553571D01*
X146429819Y-78124999D02*
X145429819Y-78124999D01*
X146429819Y-77696428D02*
X145906009Y-77696428D01*
X145906009Y-77696428D02*
X145810771Y-77744047D01*
X145810771Y-77744047D02*
X145763152Y-77839285D01*
X145763152Y-77839285D02*
X145763152Y-77982142D01*
X145763152Y-77982142D02*
X145810771Y-78077380D01*
X145810771Y-78077380D02*
X145858390Y-78124999D01*
X146429819Y-77220237D02*
X145763152Y-77220237D01*
X145429819Y-77220237D02*
X145477438Y-77267856D01*
X145477438Y-77267856D02*
X145525057Y-77220237D01*
X145525057Y-77220237D02*
X145477438Y-77172618D01*
X145477438Y-77172618D02*
X145429819Y-77220237D01*
X145429819Y-77220237D02*
X145525057Y-77220237D01*
X145763152Y-76886904D02*
X145763152Y-76505952D01*
X146429819Y-76744047D02*
X145572676Y-76744047D01*
X145572676Y-76744047D02*
X145477438Y-76696428D01*
X145477438Y-76696428D02*
X145429819Y-76601190D01*
X145429819Y-76601190D02*
X145429819Y-76505952D01*
X145763152Y-76315475D02*
X145763152Y-75934523D01*
X145429819Y-76172618D02*
X146286961Y-76172618D01*
X146286961Y-76172618D02*
X146382200Y-76124999D01*
X146382200Y-76124999D02*
X146429819Y-76029761D01*
X146429819Y-76029761D02*
X146429819Y-75934523D01*
X146382200Y-75220237D02*
X146429819Y-75315475D01*
X146429819Y-75315475D02*
X146429819Y-75505951D01*
X146429819Y-75505951D02*
X146382200Y-75601189D01*
X146382200Y-75601189D02*
X146286961Y-75648808D01*
X146286961Y-75648808D02*
X145906009Y-75648808D01*
X145906009Y-75648808D02*
X145810771Y-75601189D01*
X145810771Y-75601189D02*
X145763152Y-75505951D01*
X145763152Y-75505951D02*
X145763152Y-75315475D01*
X145763152Y-75315475D02*
X145810771Y-75220237D01*
X145810771Y-75220237D02*
X145906009Y-75172618D01*
X145906009Y-75172618D02*
X146001247Y-75172618D01*
X146001247Y-75172618D02*
X146096485Y-75648808D01*
X146429819Y-74744046D02*
X145763152Y-74744046D01*
X145953628Y-74744046D02*
X145858390Y-74696427D01*
X145858390Y-74696427D02*
X145810771Y-74648808D01*
X145810771Y-74648808D02*
X145763152Y-74553570D01*
X145763152Y-74553570D02*
X145763152Y-74458332D01*
X146429819Y-74124998D02*
X145429819Y-74124998D01*
X145429819Y-74124998D02*
X146144104Y-73791665D01*
X146144104Y-73791665D02*
X145429819Y-73458332D01*
X145429819Y-73458332D02*
X146429819Y-73458332D01*
X146334580Y-72410713D02*
X146382200Y-72458332D01*
X146382200Y-72458332D02*
X146429819Y-72601189D01*
X146429819Y-72601189D02*
X146429819Y-72696427D01*
X146429819Y-72696427D02*
X146382200Y-72839284D01*
X146382200Y-72839284D02*
X146286961Y-72934522D01*
X146286961Y-72934522D02*
X146191723Y-72982141D01*
X146191723Y-72982141D02*
X146001247Y-73029760D01*
X146001247Y-73029760D02*
X145858390Y-73029760D01*
X145858390Y-73029760D02*
X145667914Y-72982141D01*
X145667914Y-72982141D02*
X145572676Y-72934522D01*
X145572676Y-72934522D02*
X145477438Y-72839284D01*
X145477438Y-72839284D02*
X145429819Y-72696427D01*
X145429819Y-72696427D02*
X145429819Y-72601189D01*
X145429819Y-72601189D02*
X145477438Y-72458332D01*
X145477438Y-72458332D02*
X145525057Y-72410713D01*
X146810771Y-71696427D02*
X146763152Y-71744046D01*
X146763152Y-71744046D02*
X146620295Y-71839284D01*
X146620295Y-71839284D02*
X146525057Y-71886903D01*
X146525057Y-71886903D02*
X146382200Y-71934522D01*
X146382200Y-71934522D02*
X146144104Y-71982141D01*
X146144104Y-71982141D02*
X145953628Y-71982141D01*
X145953628Y-71982141D02*
X145715533Y-71934522D01*
X145715533Y-71934522D02*
X145572676Y-71886903D01*
X145572676Y-71886903D02*
X145477438Y-71839284D01*
X145477438Y-71839284D02*
X145334580Y-71744046D01*
X145334580Y-71744046D02*
X145286961Y-71696427D01*
X145429819Y-70839284D02*
X145429819Y-71315474D01*
X145429819Y-71315474D02*
X145906009Y-71363093D01*
X145906009Y-71363093D02*
X145858390Y-71315474D01*
X145858390Y-71315474D02*
X145810771Y-71220236D01*
X145810771Y-71220236D02*
X145810771Y-70982141D01*
X145810771Y-70982141D02*
X145858390Y-70886903D01*
X145858390Y-70886903D02*
X145906009Y-70839284D01*
X145906009Y-70839284D02*
X146001247Y-70791665D01*
X146001247Y-70791665D02*
X146239342Y-70791665D01*
X146239342Y-70791665D02*
X146334580Y-70839284D01*
X146334580Y-70839284D02*
X146382200Y-70886903D01*
X146382200Y-70886903D02*
X146429819Y-70982141D01*
X146429819Y-70982141D02*
X146429819Y-71220236D01*
X146429819Y-71220236D02*
X146382200Y-71315474D01*
X146382200Y-71315474D02*
X146334580Y-71363093D01*
X146048866Y-70363093D02*
X146048866Y-69601189D01*
X145763152Y-69124998D02*
X146048866Y-68363094D01*
X146048866Y-68363094D02*
X146334580Y-69124998D01*
X145429819Y-67982141D02*
X145429819Y-67363094D01*
X145429819Y-67363094D02*
X145810771Y-67696427D01*
X145810771Y-67696427D02*
X145810771Y-67553570D01*
X145810771Y-67553570D02*
X145858390Y-67458332D01*
X145858390Y-67458332D02*
X145906009Y-67410713D01*
X145906009Y-67410713D02*
X146001247Y-67363094D01*
X146001247Y-67363094D02*
X146239342Y-67363094D01*
X146239342Y-67363094D02*
X146334580Y-67410713D01*
X146334580Y-67410713D02*
X146382200Y-67458332D01*
X146382200Y-67458332D02*
X146429819Y-67553570D01*
X146429819Y-67553570D02*
X146429819Y-67839284D01*
X146429819Y-67839284D02*
X146382200Y-67934522D01*
X146382200Y-67934522D02*
X146334580Y-67982141D01*
X146334580Y-66934522D02*
X146382200Y-66886903D01*
X146382200Y-66886903D02*
X146429819Y-66934522D01*
X146429819Y-66934522D02*
X146382200Y-66982141D01*
X146382200Y-66982141D02*
X146334580Y-66934522D01*
X146334580Y-66934522D02*
X146429819Y-66934522D01*
X145429819Y-66553570D02*
X145429819Y-65934523D01*
X145429819Y-65934523D02*
X145810771Y-66267856D01*
X145810771Y-66267856D02*
X145810771Y-66124999D01*
X145810771Y-66124999D02*
X145858390Y-66029761D01*
X145858390Y-66029761D02*
X145906009Y-65982142D01*
X145906009Y-65982142D02*
X146001247Y-65934523D01*
X146001247Y-65934523D02*
X146239342Y-65934523D01*
X146239342Y-65934523D02*
X146334580Y-65982142D01*
X146334580Y-65982142D02*
X146382200Y-66029761D01*
X146382200Y-66029761D02*
X146429819Y-66124999D01*
X146429819Y-66124999D02*
X146429819Y-66410713D01*
X146429819Y-66410713D02*
X146382200Y-66505951D01*
X146382200Y-66505951D02*
X146334580Y-66553570D01*
X146810771Y-65601189D02*
X146763152Y-65553570D01*
X146763152Y-65553570D02*
X146620295Y-65458332D01*
X146620295Y-65458332D02*
X146525057Y-65410713D01*
X146525057Y-65410713D02*
X146382200Y-65363094D01*
X146382200Y-65363094D02*
X146144104Y-65315475D01*
X146144104Y-65315475D02*
X145953628Y-65315475D01*
X145953628Y-65315475D02*
X145715533Y-65363094D01*
X145715533Y-65363094D02*
X145572676Y-65410713D01*
X145572676Y-65410713D02*
X145477438Y-65458332D01*
X145477438Y-65458332D02*
X145334580Y-65553570D01*
X145334580Y-65553570D02*
X145286961Y-65601189D01*
X146429819Y-64315475D02*
X146429819Y-64886903D01*
X146429819Y-64601189D02*
X145429819Y-64601189D01*
X145429819Y-64601189D02*
X145572676Y-64696427D01*
X145572676Y-64696427D02*
X145667914Y-64791665D01*
X145667914Y-64791665D02*
X145715533Y-64886903D01*
X68895180Y-128940476D02*
X68180895Y-128940476D01*
X68180895Y-128940476D02*
X68038038Y-128892857D01*
X68038038Y-128892857D02*
X67942800Y-128797619D01*
X67942800Y-128797619D02*
X67895180Y-128654762D01*
X67895180Y-128654762D02*
X67895180Y-128559524D01*
X67895180Y-129940476D02*
X67895180Y-129369048D01*
X67895180Y-129654762D02*
X68895180Y-129654762D01*
X68895180Y-129654762D02*
X68752323Y-129559524D01*
X68752323Y-129559524D02*
X68657085Y-129464286D01*
X68657085Y-129464286D02*
X68609466Y-129369048D01*
X68895180Y-130559524D02*
X68895180Y-130654762D01*
X68895180Y-130654762D02*
X68847561Y-130750000D01*
X68847561Y-130750000D02*
X68799942Y-130797619D01*
X68799942Y-130797619D02*
X68704704Y-130845238D01*
X68704704Y-130845238D02*
X68514228Y-130892857D01*
X68514228Y-130892857D02*
X68276133Y-130892857D01*
X68276133Y-130892857D02*
X68085657Y-130845238D01*
X68085657Y-130845238D02*
X67990419Y-130797619D01*
X67990419Y-130797619D02*
X67942800Y-130750000D01*
X67942800Y-130750000D02*
X67895180Y-130654762D01*
X67895180Y-130654762D02*
X67895180Y-130559524D01*
X67895180Y-130559524D02*
X67942800Y-130464286D01*
X67942800Y-130464286D02*
X67990419Y-130416667D01*
X67990419Y-130416667D02*
X68085657Y-130369048D01*
X68085657Y-130369048D02*
X68276133Y-130321429D01*
X68276133Y-130321429D02*
X68514228Y-130321429D01*
X68514228Y-130321429D02*
X68704704Y-130369048D01*
X68704704Y-130369048D02*
X68799942Y-130416667D01*
X68799942Y-130416667D02*
X68847561Y-130464286D01*
X68847561Y-130464286D02*
X68895180Y-130559524D01*
X93114666Y-132345180D02*
X93447999Y-132821371D01*
X93686094Y-132345180D02*
X93686094Y-133345180D01*
X93686094Y-133345180D02*
X93305142Y-133345180D01*
X93305142Y-133345180D02*
X93209904Y-133297561D01*
X93209904Y-133297561D02*
X93162285Y-133249942D01*
X93162285Y-133249942D02*
X93114666Y-133154704D01*
X93114666Y-133154704D02*
X93114666Y-133011847D01*
X93114666Y-133011847D02*
X93162285Y-132916609D01*
X93162285Y-132916609D02*
X93209904Y-132868990D01*
X93209904Y-132868990D02*
X93305142Y-132821371D01*
X93305142Y-132821371D02*
X93686094Y-132821371D01*
X92257523Y-133345180D02*
X92447999Y-133345180D01*
X92447999Y-133345180D02*
X92543237Y-133297561D01*
X92543237Y-133297561D02*
X92590856Y-133249942D01*
X92590856Y-133249942D02*
X92686094Y-133107085D01*
X92686094Y-133107085D02*
X92733713Y-132916609D01*
X92733713Y-132916609D02*
X92733713Y-132535657D01*
X92733713Y-132535657D02*
X92686094Y-132440419D01*
X92686094Y-132440419D02*
X92638475Y-132392800D01*
X92638475Y-132392800D02*
X92543237Y-132345180D01*
X92543237Y-132345180D02*
X92352761Y-132345180D01*
X92352761Y-132345180D02*
X92257523Y-132392800D01*
X92257523Y-132392800D02*
X92209904Y-132440419D01*
X92209904Y-132440419D02*
X92162285Y-132535657D01*
X92162285Y-132535657D02*
X92162285Y-132773752D01*
X92162285Y-132773752D02*
X92209904Y-132868990D01*
X92209904Y-132868990D02*
X92257523Y-132916609D01*
X92257523Y-132916609D02*
X92352761Y-132964228D01*
X92352761Y-132964228D02*
X92543237Y-132964228D01*
X92543237Y-132964228D02*
X92638475Y-132916609D01*
X92638475Y-132916609D02*
X92686094Y-132868990D01*
X92686094Y-132868990D02*
X92733713Y-132773752D01*
X91504666Y-71128880D02*
X91837999Y-71605071D01*
X92076094Y-71128880D02*
X92076094Y-72128880D01*
X92076094Y-72128880D02*
X91695142Y-72128880D01*
X91695142Y-72128880D02*
X91599904Y-72081261D01*
X91599904Y-72081261D02*
X91552285Y-72033642D01*
X91552285Y-72033642D02*
X91504666Y-71938404D01*
X91504666Y-71938404D02*
X91504666Y-71795547D01*
X91504666Y-71795547D02*
X91552285Y-71700309D01*
X91552285Y-71700309D02*
X91599904Y-71652690D01*
X91599904Y-71652690D02*
X91695142Y-71605071D01*
X91695142Y-71605071D02*
X92076094Y-71605071D01*
X91123713Y-72033642D02*
X91076094Y-72081261D01*
X91076094Y-72081261D02*
X90980856Y-72128880D01*
X90980856Y-72128880D02*
X90742761Y-72128880D01*
X90742761Y-72128880D02*
X90647523Y-72081261D01*
X90647523Y-72081261D02*
X90599904Y-72033642D01*
X90599904Y-72033642D02*
X90552285Y-71938404D01*
X90552285Y-71938404D02*
X90552285Y-71843166D01*
X90552285Y-71843166D02*
X90599904Y-71700309D01*
X90599904Y-71700309D02*
X91171332Y-71128880D01*
X91171332Y-71128880D02*
X90552285Y-71128880D01*
X107890476Y-136484819D02*
X107890476Y-137199104D01*
X107890476Y-137199104D02*
X107842857Y-137341961D01*
X107842857Y-137341961D02*
X107747619Y-137437200D01*
X107747619Y-137437200D02*
X107604762Y-137484819D01*
X107604762Y-137484819D02*
X107509524Y-137484819D01*
X108890476Y-137484819D02*
X108319048Y-137484819D01*
X108604762Y-137484819D02*
X108604762Y-136484819D01*
X108604762Y-136484819D02*
X108509524Y-136627676D01*
X108509524Y-136627676D02*
X108414286Y-136722914D01*
X108414286Y-136722914D02*
X108319048Y-136770533D01*
X109842857Y-137484819D02*
X109271429Y-137484819D01*
X109557143Y-137484819D02*
X109557143Y-136484819D01*
X109557143Y-136484819D02*
X109461905Y-136627676D01*
X109461905Y-136627676D02*
X109366667Y-136722914D01*
X109366667Y-136722914D02*
X109271429Y-136770533D01*
X84402819Y-59775604D02*
X85212342Y-59775604D01*
X85212342Y-59775604D02*
X85307580Y-59727985D01*
X85307580Y-59727985D02*
X85355200Y-59680366D01*
X85355200Y-59680366D02*
X85402819Y-59585128D01*
X85402819Y-59585128D02*
X85402819Y-59394652D01*
X85402819Y-59394652D02*
X85355200Y-59299414D01*
X85355200Y-59299414D02*
X85307580Y-59251795D01*
X85307580Y-59251795D02*
X85212342Y-59204176D01*
X85212342Y-59204176D02*
X84402819Y-59204176D01*
X84498057Y-58775604D02*
X84450438Y-58727985D01*
X84450438Y-58727985D02*
X84402819Y-58632747D01*
X84402819Y-58632747D02*
X84402819Y-58394652D01*
X84402819Y-58394652D02*
X84450438Y-58299414D01*
X84450438Y-58299414D02*
X84498057Y-58251795D01*
X84498057Y-58251795D02*
X84593295Y-58204176D01*
X84593295Y-58204176D02*
X84688533Y-58204176D01*
X84688533Y-58204176D02*
X84831390Y-58251795D01*
X84831390Y-58251795D02*
X85402819Y-58823223D01*
X85402819Y-58823223D02*
X85402819Y-58204176D01*
X91536419Y-87633333D02*
X91488800Y-87585714D01*
X91488800Y-87585714D02*
X91441180Y-87442857D01*
X91441180Y-87442857D02*
X91441180Y-87347619D01*
X91441180Y-87347619D02*
X91488800Y-87204762D01*
X91488800Y-87204762D02*
X91584038Y-87109524D01*
X91584038Y-87109524D02*
X91679276Y-87061905D01*
X91679276Y-87061905D02*
X91869752Y-87014286D01*
X91869752Y-87014286D02*
X92012609Y-87014286D01*
X92012609Y-87014286D02*
X92203085Y-87061905D01*
X92203085Y-87061905D02*
X92298323Y-87109524D01*
X92298323Y-87109524D02*
X92393561Y-87204762D01*
X92393561Y-87204762D02*
X92441180Y-87347619D01*
X92441180Y-87347619D02*
X92441180Y-87442857D01*
X92441180Y-87442857D02*
X92393561Y-87585714D01*
X92393561Y-87585714D02*
X92345942Y-87633333D01*
X92441180Y-87966667D02*
X92441180Y-88585714D01*
X92441180Y-88585714D02*
X92060228Y-88252381D01*
X92060228Y-88252381D02*
X92060228Y-88395238D01*
X92060228Y-88395238D02*
X92012609Y-88490476D01*
X92012609Y-88490476D02*
X91964990Y-88538095D01*
X91964990Y-88538095D02*
X91869752Y-88585714D01*
X91869752Y-88585714D02*
X91631657Y-88585714D01*
X91631657Y-88585714D02*
X91536419Y-88538095D01*
X91536419Y-88538095D02*
X91488800Y-88490476D01*
X91488800Y-88490476D02*
X91441180Y-88395238D01*
X91441180Y-88395238D02*
X91441180Y-88109524D01*
X91441180Y-88109524D02*
X91488800Y-88014286D01*
X91488800Y-88014286D02*
X91536419Y-87966667D01*
X155254819Y-113808333D02*
X155969104Y-113808333D01*
X155969104Y-113808333D02*
X156111961Y-113855952D01*
X156111961Y-113855952D02*
X156207200Y-113951190D01*
X156207200Y-113951190D02*
X156254819Y-114094047D01*
X156254819Y-114094047D02*
X156254819Y-114189285D01*
X155350057Y-113379761D02*
X155302438Y-113332142D01*
X155302438Y-113332142D02*
X155254819Y-113236904D01*
X155254819Y-113236904D02*
X155254819Y-112998809D01*
X155254819Y-112998809D02*
X155302438Y-112903571D01*
X155302438Y-112903571D02*
X155350057Y-112855952D01*
X155350057Y-112855952D02*
X155445295Y-112808333D01*
X155445295Y-112808333D02*
X155540533Y-112808333D01*
X155540533Y-112808333D02*
X155683390Y-112855952D01*
X155683390Y-112855952D02*
X156254819Y-113427380D01*
X156254819Y-113427380D02*
X156254819Y-112808333D01*
X155479819Y-83733333D02*
X156194104Y-83733333D01*
X156194104Y-83733333D02*
X156336961Y-83780952D01*
X156336961Y-83780952D02*
X156432200Y-83876190D01*
X156432200Y-83876190D02*
X156479819Y-84019047D01*
X156479819Y-84019047D02*
X156479819Y-84114285D01*
X155479819Y-82780952D02*
X155479819Y-83257142D01*
X155479819Y-83257142D02*
X155956009Y-83304761D01*
X155956009Y-83304761D02*
X155908390Y-83257142D01*
X155908390Y-83257142D02*
X155860771Y-83161904D01*
X155860771Y-83161904D02*
X155860771Y-82923809D01*
X155860771Y-82923809D02*
X155908390Y-82828571D01*
X155908390Y-82828571D02*
X155956009Y-82780952D01*
X155956009Y-82780952D02*
X156051247Y-82733333D01*
X156051247Y-82733333D02*
X156289342Y-82733333D01*
X156289342Y-82733333D02*
X156384580Y-82780952D01*
X156384580Y-82780952D02*
X156432200Y-82828571D01*
X156432200Y-82828571D02*
X156479819Y-82923809D01*
X156479819Y-82923809D02*
X156479819Y-83161904D01*
X156479819Y-83161904D02*
X156432200Y-83257142D01*
X156432200Y-83257142D02*
X156384580Y-83304761D01*
X86202819Y-120361904D02*
X87012342Y-120361904D01*
X87012342Y-120361904D02*
X87107580Y-120314285D01*
X87107580Y-120314285D02*
X87155200Y-120266666D01*
X87155200Y-120266666D02*
X87202819Y-120171428D01*
X87202819Y-120171428D02*
X87202819Y-119980952D01*
X87202819Y-119980952D02*
X87155200Y-119885714D01*
X87155200Y-119885714D02*
X87107580Y-119838095D01*
X87107580Y-119838095D02*
X87012342Y-119790476D01*
X87012342Y-119790476D02*
X86202819Y-119790476D01*
X86202819Y-118885714D02*
X86202819Y-119076190D01*
X86202819Y-119076190D02*
X86250438Y-119171428D01*
X86250438Y-119171428D02*
X86298057Y-119219047D01*
X86298057Y-119219047D02*
X86440914Y-119314285D01*
X86440914Y-119314285D02*
X86631390Y-119361904D01*
X86631390Y-119361904D02*
X87012342Y-119361904D01*
X87012342Y-119361904D02*
X87107580Y-119314285D01*
X87107580Y-119314285D02*
X87155200Y-119266666D01*
X87155200Y-119266666D02*
X87202819Y-119171428D01*
X87202819Y-119171428D02*
X87202819Y-118980952D01*
X87202819Y-118980952D02*
X87155200Y-118885714D01*
X87155200Y-118885714D02*
X87107580Y-118838095D01*
X87107580Y-118838095D02*
X87012342Y-118790476D01*
X87012342Y-118790476D02*
X86774247Y-118790476D01*
X86774247Y-118790476D02*
X86679009Y-118838095D01*
X86679009Y-118838095D02*
X86631390Y-118885714D01*
X86631390Y-118885714D02*
X86583771Y-118980952D01*
X86583771Y-118980952D02*
X86583771Y-119171428D01*
X86583771Y-119171428D02*
X86631390Y-119266666D01*
X86631390Y-119266666D02*
X86679009Y-119314285D01*
X86679009Y-119314285D02*
X86774247Y-119361904D01*
X155254819Y-98933333D02*
X155969104Y-98933333D01*
X155969104Y-98933333D02*
X156111961Y-98980952D01*
X156111961Y-98980952D02*
X156207200Y-99076190D01*
X156207200Y-99076190D02*
X156254819Y-99219047D01*
X156254819Y-99219047D02*
X156254819Y-99314285D01*
X155588152Y-98028571D02*
X156254819Y-98028571D01*
X155207200Y-98266666D02*
X155921485Y-98504761D01*
X155921485Y-98504761D02*
X155921485Y-97885714D01*
X67246666Y-143074819D02*
X66913333Y-142598628D01*
X66675238Y-143074819D02*
X66675238Y-142074819D01*
X66675238Y-142074819D02*
X67056190Y-142074819D01*
X67056190Y-142074819D02*
X67151428Y-142122438D01*
X67151428Y-142122438D02*
X67199047Y-142170057D01*
X67199047Y-142170057D02*
X67246666Y-142265295D01*
X67246666Y-142265295D02*
X67246666Y-142408152D01*
X67246666Y-142408152D02*
X67199047Y-142503390D01*
X67199047Y-142503390D02*
X67151428Y-142551009D01*
X67151428Y-142551009D02*
X67056190Y-142598628D01*
X67056190Y-142598628D02*
X66675238Y-142598628D01*
X67675238Y-142551009D02*
X68008571Y-142551009D01*
X68151428Y-143074819D02*
X67675238Y-143074819D01*
X67675238Y-143074819D02*
X67675238Y-142074819D01*
X67675238Y-142074819D02*
X68151428Y-142074819D01*
X68913333Y-142551009D02*
X68580000Y-142551009D01*
X68580000Y-143074819D02*
X68580000Y-142074819D01*
X68580000Y-142074819D02*
X69056190Y-142074819D01*
X69580000Y-142074819D02*
X69580000Y-142312914D01*
X69341905Y-142217676D02*
X69580000Y-142312914D01*
X69580000Y-142312914D02*
X69818095Y-142217676D01*
X69437143Y-142503390D02*
X69580000Y-142312914D01*
X69580000Y-142312914D02*
X69722857Y-142503390D01*
X70341905Y-142074819D02*
X70341905Y-142312914D01*
X70103810Y-142217676D02*
X70341905Y-142312914D01*
X70341905Y-142312914D02*
X70580000Y-142217676D01*
X70199048Y-142503390D02*
X70341905Y-142312914D01*
X70341905Y-142312914D02*
X70484762Y-142503390D01*
X98507580Y-139966666D02*
X98555200Y-140014285D01*
X98555200Y-140014285D02*
X98602819Y-140157142D01*
X98602819Y-140157142D02*
X98602819Y-140252380D01*
X98602819Y-140252380D02*
X98555200Y-140395237D01*
X98555200Y-140395237D02*
X98459961Y-140490475D01*
X98459961Y-140490475D02*
X98364723Y-140538094D01*
X98364723Y-140538094D02*
X98174247Y-140585713D01*
X98174247Y-140585713D02*
X98031390Y-140585713D01*
X98031390Y-140585713D02*
X97840914Y-140538094D01*
X97840914Y-140538094D02*
X97745676Y-140490475D01*
X97745676Y-140490475D02*
X97650438Y-140395237D01*
X97650438Y-140395237D02*
X97602819Y-140252380D01*
X97602819Y-140252380D02*
X97602819Y-140157142D01*
X97602819Y-140157142D02*
X97650438Y-140014285D01*
X97650438Y-140014285D02*
X97698057Y-139966666D01*
X97602819Y-139109523D02*
X97602819Y-139299999D01*
X97602819Y-139299999D02*
X97650438Y-139395237D01*
X97650438Y-139395237D02*
X97698057Y-139442856D01*
X97698057Y-139442856D02*
X97840914Y-139538094D01*
X97840914Y-139538094D02*
X98031390Y-139585713D01*
X98031390Y-139585713D02*
X98412342Y-139585713D01*
X98412342Y-139585713D02*
X98507580Y-139538094D01*
X98507580Y-139538094D02*
X98555200Y-139490475D01*
X98555200Y-139490475D02*
X98602819Y-139395237D01*
X98602819Y-139395237D02*
X98602819Y-139204761D01*
X98602819Y-139204761D02*
X98555200Y-139109523D01*
X98555200Y-139109523D02*
X98507580Y-139061904D01*
X98507580Y-139061904D02*
X98412342Y-139014285D01*
X98412342Y-139014285D02*
X98174247Y-139014285D01*
X98174247Y-139014285D02*
X98079009Y-139061904D01*
X98079009Y-139061904D02*
X98031390Y-139109523D01*
X98031390Y-139109523D02*
X97983771Y-139204761D01*
X97983771Y-139204761D02*
X97983771Y-139395237D01*
X97983771Y-139395237D02*
X98031390Y-139490475D01*
X98031390Y-139490475D02*
X98079009Y-139538094D01*
X98079009Y-139538094D02*
X98174247Y-139585713D01*
X131641666Y-136179819D02*
X131641666Y-136894104D01*
X131641666Y-136894104D02*
X131594047Y-137036961D01*
X131594047Y-137036961D02*
X131498809Y-137132200D01*
X131498809Y-137132200D02*
X131355952Y-137179819D01*
X131355952Y-137179819D02*
X131260714Y-137179819D01*
X132641666Y-137179819D02*
X132070238Y-137179819D01*
X132355952Y-137179819D02*
X132355952Y-136179819D01*
X132355952Y-136179819D02*
X132260714Y-136322676D01*
X132260714Y-136322676D02*
X132165476Y-136417914D01*
X132165476Y-136417914D02*
X132070238Y-136465533D01*
X86002819Y-140761904D02*
X86812342Y-140761904D01*
X86812342Y-140761904D02*
X86907580Y-140714285D01*
X86907580Y-140714285D02*
X86955200Y-140666666D01*
X86955200Y-140666666D02*
X87002819Y-140571428D01*
X87002819Y-140571428D02*
X87002819Y-140380952D01*
X87002819Y-140380952D02*
X86955200Y-140285714D01*
X86955200Y-140285714D02*
X86907580Y-140238095D01*
X86907580Y-140238095D02*
X86812342Y-140190476D01*
X86812342Y-140190476D02*
X86002819Y-140190476D01*
X86002819Y-139809523D02*
X86002819Y-139142857D01*
X86002819Y-139142857D02*
X87002819Y-139571428D01*
X68995180Y-98491666D02*
X68280895Y-98491666D01*
X68280895Y-98491666D02*
X68138038Y-98444047D01*
X68138038Y-98444047D02*
X68042800Y-98348809D01*
X68042800Y-98348809D02*
X67995180Y-98205952D01*
X67995180Y-98205952D02*
X67995180Y-98110714D01*
X67995180Y-99015476D02*
X67995180Y-99205952D01*
X67995180Y-99205952D02*
X68042800Y-99301190D01*
X68042800Y-99301190D02*
X68090419Y-99348809D01*
X68090419Y-99348809D02*
X68233276Y-99444047D01*
X68233276Y-99444047D02*
X68423752Y-99491666D01*
X68423752Y-99491666D02*
X68804704Y-99491666D01*
X68804704Y-99491666D02*
X68899942Y-99444047D01*
X68899942Y-99444047D02*
X68947561Y-99396428D01*
X68947561Y-99396428D02*
X68995180Y-99301190D01*
X68995180Y-99301190D02*
X68995180Y-99110714D01*
X68995180Y-99110714D02*
X68947561Y-99015476D01*
X68947561Y-99015476D02*
X68899942Y-98967857D01*
X68899942Y-98967857D02*
X68804704Y-98920238D01*
X68804704Y-98920238D02*
X68566609Y-98920238D01*
X68566609Y-98920238D02*
X68471371Y-98967857D01*
X68471371Y-98967857D02*
X68423752Y-99015476D01*
X68423752Y-99015476D02*
X68376133Y-99110714D01*
X68376133Y-99110714D02*
X68376133Y-99301190D01*
X68376133Y-99301190D02*
X68423752Y-99396428D01*
X68423752Y-99396428D02*
X68471371Y-99444047D01*
X68471371Y-99444047D02*
X68566609Y-99491666D01*
X91610666Y-95145180D02*
X91943999Y-95621371D01*
X92182094Y-95145180D02*
X92182094Y-96145180D01*
X92182094Y-96145180D02*
X91801142Y-96145180D01*
X91801142Y-96145180D02*
X91705904Y-96097561D01*
X91705904Y-96097561D02*
X91658285Y-96049942D01*
X91658285Y-96049942D02*
X91610666Y-95954704D01*
X91610666Y-95954704D02*
X91610666Y-95811847D01*
X91610666Y-95811847D02*
X91658285Y-95716609D01*
X91658285Y-95716609D02*
X91705904Y-95668990D01*
X91705904Y-95668990D02*
X91801142Y-95621371D01*
X91801142Y-95621371D02*
X92182094Y-95621371D01*
X91277332Y-96145180D02*
X90658285Y-96145180D01*
X90658285Y-96145180D02*
X90991618Y-95764228D01*
X90991618Y-95764228D02*
X90848761Y-95764228D01*
X90848761Y-95764228D02*
X90753523Y-95716609D01*
X90753523Y-95716609D02*
X90705904Y-95668990D01*
X90705904Y-95668990D02*
X90658285Y-95573752D01*
X90658285Y-95573752D02*
X90658285Y-95335657D01*
X90658285Y-95335657D02*
X90705904Y-95240419D01*
X90705904Y-95240419D02*
X90753523Y-95192800D01*
X90753523Y-95192800D02*
X90848761Y-95145180D01*
X90848761Y-95145180D02*
X91134475Y-95145180D01*
X91134475Y-95145180D02*
X91229713Y-95192800D01*
X91229713Y-95192800D02*
X91277332Y-95240419D01*
X84750819Y-88499404D02*
X85560342Y-88499404D01*
X85560342Y-88499404D02*
X85655580Y-88451785D01*
X85655580Y-88451785D02*
X85703200Y-88404166D01*
X85703200Y-88404166D02*
X85750819Y-88308928D01*
X85750819Y-88308928D02*
X85750819Y-88118452D01*
X85750819Y-88118452D02*
X85703200Y-88023214D01*
X85703200Y-88023214D02*
X85655580Y-87975595D01*
X85655580Y-87975595D02*
X85560342Y-87927976D01*
X85560342Y-87927976D02*
X84750819Y-87927976D01*
X85084152Y-87023214D02*
X85750819Y-87023214D01*
X84703200Y-87261309D02*
X85417485Y-87499404D01*
X85417485Y-87499404D02*
X85417485Y-86880357D01*
X91502666Y-64968880D02*
X91835999Y-65445071D01*
X92074094Y-64968880D02*
X92074094Y-65968880D01*
X92074094Y-65968880D02*
X91693142Y-65968880D01*
X91693142Y-65968880D02*
X91597904Y-65921261D01*
X91597904Y-65921261D02*
X91550285Y-65873642D01*
X91550285Y-65873642D02*
X91502666Y-65778404D01*
X91502666Y-65778404D02*
X91502666Y-65635547D01*
X91502666Y-65635547D02*
X91550285Y-65540309D01*
X91550285Y-65540309D02*
X91597904Y-65492690D01*
X91597904Y-65492690D02*
X91693142Y-65445071D01*
X91693142Y-65445071D02*
X92074094Y-65445071D01*
X90550285Y-64968880D02*
X91121713Y-64968880D01*
X90835999Y-64968880D02*
X90835999Y-65968880D01*
X90835999Y-65968880D02*
X90931237Y-65826023D01*
X90931237Y-65826023D02*
X91026475Y-65730785D01*
X91026475Y-65730785D02*
X91121713Y-65683166D01*
X91462666Y-101145180D02*
X91795999Y-101621371D01*
X92034094Y-101145180D02*
X92034094Y-102145180D01*
X92034094Y-102145180D02*
X91653142Y-102145180D01*
X91653142Y-102145180D02*
X91557904Y-102097561D01*
X91557904Y-102097561D02*
X91510285Y-102049942D01*
X91510285Y-102049942D02*
X91462666Y-101954704D01*
X91462666Y-101954704D02*
X91462666Y-101811847D01*
X91462666Y-101811847D02*
X91510285Y-101716609D01*
X91510285Y-101716609D02*
X91557904Y-101668990D01*
X91557904Y-101668990D02*
X91653142Y-101621371D01*
X91653142Y-101621371D02*
X92034094Y-101621371D01*
X90605523Y-101811847D02*
X90605523Y-101145180D01*
X90843618Y-102192800D02*
X91081713Y-101478514D01*
X91081713Y-101478514D02*
X90462666Y-101478514D01*
X97909580Y-109716666D02*
X97957200Y-109764285D01*
X97957200Y-109764285D02*
X98004819Y-109907142D01*
X98004819Y-109907142D02*
X98004819Y-110002380D01*
X98004819Y-110002380D02*
X97957200Y-110145237D01*
X97957200Y-110145237D02*
X97861961Y-110240475D01*
X97861961Y-110240475D02*
X97766723Y-110288094D01*
X97766723Y-110288094D02*
X97576247Y-110335713D01*
X97576247Y-110335713D02*
X97433390Y-110335713D01*
X97433390Y-110335713D02*
X97242914Y-110288094D01*
X97242914Y-110288094D02*
X97147676Y-110240475D01*
X97147676Y-110240475D02*
X97052438Y-110145237D01*
X97052438Y-110145237D02*
X97004819Y-110002380D01*
X97004819Y-110002380D02*
X97004819Y-109907142D01*
X97004819Y-109907142D02*
X97052438Y-109764285D01*
X97052438Y-109764285D02*
X97100057Y-109716666D01*
X97338152Y-108859523D02*
X98004819Y-108859523D01*
X96957200Y-109097618D02*
X97671485Y-109335713D01*
X97671485Y-109335713D02*
X97671485Y-108716666D01*
X99707580Y-119566666D02*
X99755200Y-119614285D01*
X99755200Y-119614285D02*
X99802819Y-119757142D01*
X99802819Y-119757142D02*
X99802819Y-119852380D01*
X99802819Y-119852380D02*
X99755200Y-119995237D01*
X99755200Y-119995237D02*
X99659961Y-120090475D01*
X99659961Y-120090475D02*
X99564723Y-120138094D01*
X99564723Y-120138094D02*
X99374247Y-120185713D01*
X99374247Y-120185713D02*
X99231390Y-120185713D01*
X99231390Y-120185713D02*
X99040914Y-120138094D01*
X99040914Y-120138094D02*
X98945676Y-120090475D01*
X98945676Y-120090475D02*
X98850438Y-119995237D01*
X98850438Y-119995237D02*
X98802819Y-119852380D01*
X98802819Y-119852380D02*
X98802819Y-119757142D01*
X98802819Y-119757142D02*
X98850438Y-119614285D01*
X98850438Y-119614285D02*
X98898057Y-119566666D01*
X98802819Y-118661904D02*
X98802819Y-119138094D01*
X98802819Y-119138094D02*
X99279009Y-119185713D01*
X99279009Y-119185713D02*
X99231390Y-119138094D01*
X99231390Y-119138094D02*
X99183771Y-119042856D01*
X99183771Y-119042856D02*
X99183771Y-118804761D01*
X99183771Y-118804761D02*
X99231390Y-118709523D01*
X99231390Y-118709523D02*
X99279009Y-118661904D01*
X99279009Y-118661904D02*
X99374247Y-118614285D01*
X99374247Y-118614285D02*
X99612342Y-118614285D01*
X99612342Y-118614285D02*
X99707580Y-118661904D01*
X99707580Y-118661904D02*
X99755200Y-118709523D01*
X99755200Y-118709523D02*
X99802819Y-118804761D01*
X99802819Y-118804761D02*
X99802819Y-119042856D01*
X99802819Y-119042856D02*
X99755200Y-119138094D01*
X99755200Y-119138094D02*
X99707580Y-119185713D01*
X70545180Y-68916666D02*
X69830895Y-68916666D01*
X69830895Y-68916666D02*
X69688038Y-68869047D01*
X69688038Y-68869047D02*
X69592800Y-68773809D01*
X69592800Y-68773809D02*
X69545180Y-68630952D01*
X69545180Y-68630952D02*
X69545180Y-68535714D01*
X70116609Y-69535714D02*
X70164228Y-69440476D01*
X70164228Y-69440476D02*
X70211847Y-69392857D01*
X70211847Y-69392857D02*
X70307085Y-69345238D01*
X70307085Y-69345238D02*
X70354704Y-69345238D01*
X70354704Y-69345238D02*
X70449942Y-69392857D01*
X70449942Y-69392857D02*
X70497561Y-69440476D01*
X70497561Y-69440476D02*
X70545180Y-69535714D01*
X70545180Y-69535714D02*
X70545180Y-69726190D01*
X70545180Y-69726190D02*
X70497561Y-69821428D01*
X70497561Y-69821428D02*
X70449942Y-69869047D01*
X70449942Y-69869047D02*
X70354704Y-69916666D01*
X70354704Y-69916666D02*
X70307085Y-69916666D01*
X70307085Y-69916666D02*
X70211847Y-69869047D01*
X70211847Y-69869047D02*
X70164228Y-69821428D01*
X70164228Y-69821428D02*
X70116609Y-69726190D01*
X70116609Y-69726190D02*
X70116609Y-69535714D01*
X70116609Y-69535714D02*
X70068990Y-69440476D01*
X70068990Y-69440476D02*
X70021371Y-69392857D01*
X70021371Y-69392857D02*
X69926133Y-69345238D01*
X69926133Y-69345238D02*
X69735657Y-69345238D01*
X69735657Y-69345238D02*
X69640419Y-69392857D01*
X69640419Y-69392857D02*
X69592800Y-69440476D01*
X69592800Y-69440476D02*
X69545180Y-69535714D01*
X69545180Y-69535714D02*
X69545180Y-69726190D01*
X69545180Y-69726190D02*
X69592800Y-69821428D01*
X69592800Y-69821428D02*
X69640419Y-69869047D01*
X69640419Y-69869047D02*
X69735657Y-69916666D01*
X69735657Y-69916666D02*
X69926133Y-69916666D01*
X69926133Y-69916666D02*
X70021371Y-69869047D01*
X70021371Y-69869047D02*
X70068990Y-69821428D01*
X70068990Y-69821428D02*
X70116609Y-69726190D01*
X151347619Y-89445180D02*
X151680952Y-89921371D01*
X151919047Y-89445180D02*
X151919047Y-90445180D01*
X151919047Y-90445180D02*
X151538095Y-90445180D01*
X151538095Y-90445180D02*
X151442857Y-90397561D01*
X151442857Y-90397561D02*
X151395238Y-90349942D01*
X151395238Y-90349942D02*
X151347619Y-90254704D01*
X151347619Y-90254704D02*
X151347619Y-90111847D01*
X151347619Y-90111847D02*
X151395238Y-90016609D01*
X151395238Y-90016609D02*
X151442857Y-89968990D01*
X151442857Y-89968990D02*
X151538095Y-89921371D01*
X151538095Y-89921371D02*
X151919047Y-89921371D01*
X151157143Y-89349942D02*
X150395238Y-89349942D01*
X150157142Y-89445180D02*
X150157142Y-90445180D01*
X150157142Y-90445180D02*
X149776190Y-90445180D01*
X149776190Y-90445180D02*
X149680952Y-90397561D01*
X149680952Y-90397561D02*
X149633333Y-90349942D01*
X149633333Y-90349942D02*
X149585714Y-90254704D01*
X149585714Y-90254704D02*
X149585714Y-90111847D01*
X149585714Y-90111847D02*
X149633333Y-90016609D01*
X149633333Y-90016609D02*
X149680952Y-89968990D01*
X149680952Y-89968990D02*
X149776190Y-89921371D01*
X149776190Y-89921371D02*
X150157142Y-89921371D01*
X148728571Y-90111847D02*
X148728571Y-89445180D01*
X149157142Y-90111847D02*
X149157142Y-89588038D01*
X149157142Y-89588038D02*
X149109523Y-89492800D01*
X149109523Y-89492800D02*
X149014285Y-89445180D01*
X149014285Y-89445180D02*
X148871428Y-89445180D01*
X148871428Y-89445180D02*
X148776190Y-89492800D01*
X148776190Y-89492800D02*
X148728571Y-89540419D01*
X148109523Y-89445180D02*
X148204761Y-89492800D01*
X148204761Y-89492800D02*
X148252380Y-89588038D01*
X148252380Y-89588038D02*
X148252380Y-90445180D01*
X147585713Y-89445180D02*
X147680951Y-89492800D01*
X147680951Y-89492800D02*
X147728570Y-89588038D01*
X147728570Y-89588038D02*
X147728570Y-90445180D01*
X147204760Y-89445180D02*
X147204760Y-90445180D01*
X147204760Y-90445180D02*
X146966665Y-90445180D01*
X146966665Y-90445180D02*
X146823808Y-90397561D01*
X146823808Y-90397561D02*
X146728570Y-90302323D01*
X146728570Y-90302323D02*
X146680951Y-90207085D01*
X146680951Y-90207085D02*
X146633332Y-90016609D01*
X146633332Y-90016609D02*
X146633332Y-89873752D01*
X146633332Y-89873752D02*
X146680951Y-89683276D01*
X146680951Y-89683276D02*
X146728570Y-89588038D01*
X146728570Y-89588038D02*
X146823808Y-89492800D01*
X146823808Y-89492800D02*
X146966665Y-89445180D01*
X146966665Y-89445180D02*
X147204760Y-89445180D01*
X146061903Y-89445180D02*
X146157141Y-89492800D01*
X146157141Y-89492800D02*
X146204760Y-89540419D01*
X146204760Y-89540419D02*
X146252379Y-89635657D01*
X146252379Y-89635657D02*
X146252379Y-89921371D01*
X146252379Y-89921371D02*
X146204760Y-90016609D01*
X146204760Y-90016609D02*
X146157141Y-90064228D01*
X146157141Y-90064228D02*
X146061903Y-90111847D01*
X146061903Y-90111847D02*
X145919046Y-90111847D01*
X145919046Y-90111847D02*
X145823808Y-90064228D01*
X145823808Y-90064228D02*
X145776189Y-90016609D01*
X145776189Y-90016609D02*
X145728570Y-89921371D01*
X145728570Y-89921371D02*
X145728570Y-89635657D01*
X145728570Y-89635657D02*
X145776189Y-89540419D01*
X145776189Y-89540419D02*
X145823808Y-89492800D01*
X145823808Y-89492800D02*
X145919046Y-89445180D01*
X145919046Y-89445180D02*
X146061903Y-89445180D01*
X145395236Y-90111847D02*
X145204760Y-89445180D01*
X145204760Y-89445180D02*
X145014284Y-89921371D01*
X145014284Y-89921371D02*
X144823808Y-89445180D01*
X144823808Y-89445180D02*
X144633332Y-90111847D01*
X144252379Y-90111847D02*
X144252379Y-89445180D01*
X144252379Y-90016609D02*
X144204760Y-90064228D01*
X144204760Y-90064228D02*
X144109522Y-90111847D01*
X144109522Y-90111847D02*
X143966665Y-90111847D01*
X143966665Y-90111847D02*
X143871427Y-90064228D01*
X143871427Y-90064228D02*
X143823808Y-89968990D01*
X143823808Y-89968990D02*
X143823808Y-89445180D01*
X143347617Y-90445180D02*
X143347617Y-89635657D01*
X143347617Y-89635657D02*
X143299998Y-89540419D01*
X143299998Y-89540419D02*
X143252379Y-89492800D01*
X143252379Y-89492800D02*
X143157141Y-89445180D01*
X143157141Y-89445180D02*
X142966665Y-89445180D01*
X142966665Y-89445180D02*
X142871427Y-89492800D01*
X142871427Y-89492800D02*
X142823808Y-89540419D01*
X142823808Y-89540419D02*
X142776189Y-89635657D01*
X142776189Y-89635657D02*
X142776189Y-90445180D01*
X142395236Y-90445180D02*
X142157141Y-89445180D01*
X142157141Y-89445180D02*
X141966665Y-90159466D01*
X141966665Y-90159466D02*
X141776189Y-89445180D01*
X141776189Y-89445180D02*
X141538094Y-90445180D01*
X140823808Y-89968990D02*
X140680951Y-89921371D01*
X140680951Y-89921371D02*
X140633332Y-89873752D01*
X140633332Y-89873752D02*
X140585713Y-89778514D01*
X140585713Y-89778514D02*
X140585713Y-89635657D01*
X140585713Y-89635657D02*
X140633332Y-89540419D01*
X140633332Y-89540419D02*
X140680951Y-89492800D01*
X140680951Y-89492800D02*
X140776189Y-89445180D01*
X140776189Y-89445180D02*
X141157141Y-89445180D01*
X141157141Y-89445180D02*
X141157141Y-90445180D01*
X141157141Y-90445180D02*
X140823808Y-90445180D01*
X140823808Y-90445180D02*
X140728570Y-90397561D01*
X140728570Y-90397561D02*
X140680951Y-90349942D01*
X140680951Y-90349942D02*
X140633332Y-90254704D01*
X140633332Y-90254704D02*
X140633332Y-90159466D01*
X140633332Y-90159466D02*
X140680951Y-90064228D01*
X140680951Y-90064228D02*
X140728570Y-90016609D01*
X140728570Y-90016609D02*
X140823808Y-89968990D01*
X140823808Y-89968990D02*
X141157141Y-89968990D01*
X139633332Y-89445180D02*
X140204760Y-89445180D01*
X139919046Y-89445180D02*
X139919046Y-90445180D01*
X139919046Y-90445180D02*
X140014284Y-90302323D01*
X140014284Y-90302323D02*
X140109522Y-90207085D01*
X140109522Y-90207085D02*
X140204760Y-90159466D01*
X136614819Y-97281904D02*
X137424342Y-97281904D01*
X137424342Y-97281904D02*
X137519580Y-97234285D01*
X137519580Y-97234285D02*
X137567200Y-97186666D01*
X137567200Y-97186666D02*
X137614819Y-97091428D01*
X137614819Y-97091428D02*
X137614819Y-96900952D01*
X137614819Y-96900952D02*
X137567200Y-96805714D01*
X137567200Y-96805714D02*
X137519580Y-96758095D01*
X137519580Y-96758095D02*
X137424342Y-96710476D01*
X137424342Y-96710476D02*
X136614819Y-96710476D01*
X137614819Y-95710476D02*
X137614819Y-96281904D01*
X137614819Y-95996190D02*
X136614819Y-95996190D01*
X136614819Y-95996190D02*
X136757676Y-96091428D01*
X136757676Y-96091428D02*
X136852914Y-96186666D01*
X136852914Y-96186666D02*
X136900533Y-96281904D01*
X123916666Y-95612295D02*
X123916666Y-94812295D01*
X123916666Y-94812295D02*
X124150000Y-95383723D01*
X124150000Y-95383723D02*
X124383333Y-94812295D01*
X124383333Y-94812295D02*
X124383333Y-95612295D01*
X124716666Y-95612295D02*
X124716666Y-94812295D01*
X125049999Y-95612295D02*
X125049999Y-94812295D01*
X125049999Y-94812295D02*
X125283333Y-95383723D01*
X125283333Y-95383723D02*
X125516666Y-94812295D01*
X125516666Y-94812295D02*
X125516666Y-95612295D01*
X125783333Y-94812295D02*
X126249999Y-95612295D01*
X126249999Y-94812295D02*
X125783333Y-95612295D01*
X126916666Y-95612295D02*
X126683333Y-95231342D01*
X126516666Y-95612295D02*
X126516666Y-94812295D01*
X126516666Y-94812295D02*
X126783333Y-94812295D01*
X126783333Y-94812295D02*
X126850000Y-94850390D01*
X126850000Y-94850390D02*
X126883333Y-94888485D01*
X126883333Y-94888485D02*
X126916666Y-94964676D01*
X126916666Y-94964676D02*
X126916666Y-95078961D01*
X126916666Y-95078961D02*
X126883333Y-95155152D01*
X126883333Y-95155152D02*
X126850000Y-95193247D01*
X126850000Y-95193247D02*
X126783333Y-95231342D01*
X126783333Y-95231342D02*
X126516666Y-95231342D01*
X127116666Y-94812295D02*
X127516666Y-94812295D01*
X127316666Y-95612295D02*
X127316666Y-94812295D01*
X128116666Y-95612295D02*
X127716666Y-95612295D01*
X127916666Y-95612295D02*
X127916666Y-94812295D01*
X127916666Y-94812295D02*
X127849999Y-94926580D01*
X127849999Y-94926580D02*
X127783333Y-95002771D01*
X127783333Y-95002771D02*
X127716666Y-95040866D01*
X128550000Y-94812295D02*
X128616666Y-94812295D01*
X128616666Y-94812295D02*
X128683333Y-94850390D01*
X128683333Y-94850390D02*
X128716666Y-94888485D01*
X128716666Y-94888485D02*
X128750000Y-94964676D01*
X128750000Y-94964676D02*
X128783333Y-95117057D01*
X128783333Y-95117057D02*
X128783333Y-95307533D01*
X128783333Y-95307533D02*
X128750000Y-95459914D01*
X128750000Y-95459914D02*
X128716666Y-95536104D01*
X128716666Y-95536104D02*
X128683333Y-95574200D01*
X128683333Y-95574200D02*
X128616666Y-95612295D01*
X128616666Y-95612295D02*
X128550000Y-95612295D01*
X128550000Y-95612295D02*
X128483333Y-95574200D01*
X128483333Y-95574200D02*
X128450000Y-95536104D01*
X128450000Y-95536104D02*
X128416666Y-95459914D01*
X128416666Y-95459914D02*
X128383333Y-95307533D01*
X128383333Y-95307533D02*
X128383333Y-95117057D01*
X128383333Y-95117057D02*
X128416666Y-94964676D01*
X128416666Y-94964676D02*
X128450000Y-94888485D01*
X128450000Y-94888485D02*
X128483333Y-94850390D01*
X128483333Y-94850390D02*
X128550000Y-94812295D01*
X129383333Y-94812295D02*
X129250000Y-94812295D01*
X129250000Y-94812295D02*
X129183333Y-94850390D01*
X129183333Y-94850390D02*
X129150000Y-94888485D01*
X129150000Y-94888485D02*
X129083333Y-95002771D01*
X129083333Y-95002771D02*
X129050000Y-95155152D01*
X129050000Y-95155152D02*
X129050000Y-95459914D01*
X129050000Y-95459914D02*
X129083333Y-95536104D01*
X129083333Y-95536104D02*
X129116667Y-95574200D01*
X129116667Y-95574200D02*
X129183333Y-95612295D01*
X129183333Y-95612295D02*
X129316667Y-95612295D01*
X129316667Y-95612295D02*
X129383333Y-95574200D01*
X129383333Y-95574200D02*
X129416667Y-95536104D01*
X129416667Y-95536104D02*
X129450000Y-95459914D01*
X129450000Y-95459914D02*
X129450000Y-95269438D01*
X129450000Y-95269438D02*
X129416667Y-95193247D01*
X129416667Y-95193247D02*
X129383333Y-95155152D01*
X129383333Y-95155152D02*
X129316667Y-95117057D01*
X129316667Y-95117057D02*
X129183333Y-95117057D01*
X129183333Y-95117057D02*
X129116667Y-95155152D01*
X129116667Y-95155152D02*
X129083333Y-95193247D01*
X129083333Y-95193247D02*
X129050000Y-95269438D01*
X129716667Y-94888485D02*
X129750000Y-94850390D01*
X129750000Y-94850390D02*
X129816667Y-94812295D01*
X129816667Y-94812295D02*
X129983334Y-94812295D01*
X129983334Y-94812295D02*
X130050000Y-94850390D01*
X130050000Y-94850390D02*
X130083334Y-94888485D01*
X130083334Y-94888485D02*
X130116667Y-94964676D01*
X130116667Y-94964676D02*
X130116667Y-95040866D01*
X130116667Y-95040866D02*
X130083334Y-95155152D01*
X130083334Y-95155152D02*
X129683334Y-95612295D01*
X129683334Y-95612295D02*
X130116667Y-95612295D01*
X125796666Y-94342295D02*
X125796666Y-93542295D01*
X125796666Y-93542295D02*
X125963333Y-93542295D01*
X125963333Y-93542295D02*
X126063333Y-93580390D01*
X126063333Y-93580390D02*
X126130000Y-93656580D01*
X126130000Y-93656580D02*
X126163333Y-93732771D01*
X126163333Y-93732771D02*
X126196666Y-93885152D01*
X126196666Y-93885152D02*
X126196666Y-93999438D01*
X126196666Y-93999438D02*
X126163333Y-94151819D01*
X126163333Y-94151819D02*
X126130000Y-94228009D01*
X126130000Y-94228009D02*
X126063333Y-94304200D01*
X126063333Y-94304200D02*
X125963333Y-94342295D01*
X125963333Y-94342295D02*
X125796666Y-94342295D01*
X126396666Y-93542295D02*
X126630000Y-94342295D01*
X126630000Y-94342295D02*
X126863333Y-93542295D01*
X127296666Y-93542295D02*
X127296666Y-94113723D01*
X127296666Y-94113723D02*
X127263333Y-94228009D01*
X127263333Y-94228009D02*
X127196666Y-94304200D01*
X127196666Y-94304200D02*
X127096666Y-94342295D01*
X127096666Y-94342295D02*
X127030000Y-94342295D01*
X127929999Y-93542295D02*
X127796666Y-93542295D01*
X127796666Y-93542295D02*
X127729999Y-93580390D01*
X127729999Y-93580390D02*
X127696666Y-93618485D01*
X127696666Y-93618485D02*
X127629999Y-93732771D01*
X127629999Y-93732771D02*
X127596666Y-93885152D01*
X127596666Y-93885152D02*
X127596666Y-94189914D01*
X127596666Y-94189914D02*
X127629999Y-94266104D01*
X127629999Y-94266104D02*
X127663333Y-94304200D01*
X127663333Y-94304200D02*
X127729999Y-94342295D01*
X127729999Y-94342295D02*
X127863333Y-94342295D01*
X127863333Y-94342295D02*
X127929999Y-94304200D01*
X127929999Y-94304200D02*
X127963333Y-94266104D01*
X127963333Y-94266104D02*
X127996666Y-94189914D01*
X127996666Y-94189914D02*
X127996666Y-93999438D01*
X127996666Y-93999438D02*
X127963333Y-93923247D01*
X127963333Y-93923247D02*
X127929999Y-93885152D01*
X127929999Y-93885152D02*
X127863333Y-93847057D01*
X127863333Y-93847057D02*
X127729999Y-93847057D01*
X127729999Y-93847057D02*
X127663333Y-93885152D01*
X127663333Y-93885152D02*
X127629999Y-93923247D01*
X127629999Y-93923247D02*
X127596666Y-93999438D01*
X128263333Y-94113723D02*
X128596666Y-94113723D01*
X128196666Y-94342295D02*
X128430000Y-93542295D01*
X128430000Y-93542295D02*
X128663333Y-94342295D01*
X125738095Y-69304819D02*
X125738095Y-70114342D01*
X125738095Y-70114342D02*
X125785714Y-70209580D01*
X125785714Y-70209580D02*
X125833333Y-70257200D01*
X125833333Y-70257200D02*
X125928571Y-70304819D01*
X125928571Y-70304819D02*
X126119047Y-70304819D01*
X126119047Y-70304819D02*
X126214285Y-70257200D01*
X126214285Y-70257200D02*
X126261904Y-70209580D01*
X126261904Y-70209580D02*
X126309523Y-70114342D01*
X126309523Y-70114342D02*
X126309523Y-69304819D01*
X126738095Y-70257200D02*
X126880952Y-70304819D01*
X126880952Y-70304819D02*
X127119047Y-70304819D01*
X127119047Y-70304819D02*
X127214285Y-70257200D01*
X127214285Y-70257200D02*
X127261904Y-70209580D01*
X127261904Y-70209580D02*
X127309523Y-70114342D01*
X127309523Y-70114342D02*
X127309523Y-70019104D01*
X127309523Y-70019104D02*
X127261904Y-69923866D01*
X127261904Y-69923866D02*
X127214285Y-69876247D01*
X127214285Y-69876247D02*
X127119047Y-69828628D01*
X127119047Y-69828628D02*
X126928571Y-69781009D01*
X126928571Y-69781009D02*
X126833333Y-69733390D01*
X126833333Y-69733390D02*
X126785714Y-69685771D01*
X126785714Y-69685771D02*
X126738095Y-69590533D01*
X126738095Y-69590533D02*
X126738095Y-69495295D01*
X126738095Y-69495295D02*
X126785714Y-69400057D01*
X126785714Y-69400057D02*
X126833333Y-69352438D01*
X126833333Y-69352438D02*
X126928571Y-69304819D01*
X126928571Y-69304819D02*
X127166666Y-69304819D01*
X127166666Y-69304819D02*
X127309523Y-69352438D01*
X128071428Y-69781009D02*
X128214285Y-69828628D01*
X128214285Y-69828628D02*
X128261904Y-69876247D01*
X128261904Y-69876247D02*
X128309523Y-69971485D01*
X128309523Y-69971485D02*
X128309523Y-70114342D01*
X128309523Y-70114342D02*
X128261904Y-70209580D01*
X128261904Y-70209580D02*
X128214285Y-70257200D01*
X128214285Y-70257200D02*
X128119047Y-70304819D01*
X128119047Y-70304819D02*
X127738095Y-70304819D01*
X127738095Y-70304819D02*
X127738095Y-69304819D01*
X127738095Y-69304819D02*
X128071428Y-69304819D01*
X128071428Y-69304819D02*
X128166666Y-69352438D01*
X128166666Y-69352438D02*
X128214285Y-69400057D01*
X128214285Y-69400057D02*
X128261904Y-69495295D01*
X128261904Y-69495295D02*
X128261904Y-69590533D01*
X128261904Y-69590533D02*
X128214285Y-69685771D01*
X128214285Y-69685771D02*
X128166666Y-69733390D01*
X128166666Y-69733390D02*
X128071428Y-69781009D01*
X128071428Y-69781009D02*
X127738095Y-69781009D01*
X123965619Y-81363723D02*
X124775142Y-81363723D01*
X124775142Y-81363723D02*
X124870380Y-81316104D01*
X124870380Y-81316104D02*
X124918000Y-81268485D01*
X124918000Y-81268485D02*
X124965619Y-81173247D01*
X124965619Y-81173247D02*
X124965619Y-80982771D01*
X124965619Y-80982771D02*
X124918000Y-80887533D01*
X124918000Y-80887533D02*
X124870380Y-80839914D01*
X124870380Y-80839914D02*
X124775142Y-80792295D01*
X124775142Y-80792295D02*
X123965619Y-80792295D01*
X124918000Y-80363723D02*
X124965619Y-80220866D01*
X124965619Y-80220866D02*
X124965619Y-79982771D01*
X124965619Y-79982771D02*
X124918000Y-79887533D01*
X124918000Y-79887533D02*
X124870380Y-79839914D01*
X124870380Y-79839914D02*
X124775142Y-79792295D01*
X124775142Y-79792295D02*
X124679904Y-79792295D01*
X124679904Y-79792295D02*
X124584666Y-79839914D01*
X124584666Y-79839914D02*
X124537047Y-79887533D01*
X124537047Y-79887533D02*
X124489428Y-79982771D01*
X124489428Y-79982771D02*
X124441809Y-80173247D01*
X124441809Y-80173247D02*
X124394190Y-80268485D01*
X124394190Y-80268485D02*
X124346571Y-80316104D01*
X124346571Y-80316104D02*
X124251333Y-80363723D01*
X124251333Y-80363723D02*
X124156095Y-80363723D01*
X124156095Y-80363723D02*
X124060857Y-80316104D01*
X124060857Y-80316104D02*
X124013238Y-80268485D01*
X124013238Y-80268485D02*
X123965619Y-80173247D01*
X123965619Y-80173247D02*
X123965619Y-79935152D01*
X123965619Y-79935152D02*
X124013238Y-79792295D01*
X124441809Y-79030390D02*
X124489428Y-78887533D01*
X124489428Y-78887533D02*
X124537047Y-78839914D01*
X124537047Y-78839914D02*
X124632285Y-78792295D01*
X124632285Y-78792295D02*
X124775142Y-78792295D01*
X124775142Y-78792295D02*
X124870380Y-78839914D01*
X124870380Y-78839914D02*
X124918000Y-78887533D01*
X124918000Y-78887533D02*
X124965619Y-78982771D01*
X124965619Y-78982771D02*
X124965619Y-79363723D01*
X124965619Y-79363723D02*
X123965619Y-79363723D01*
X123965619Y-79363723D02*
X123965619Y-79030390D01*
X123965619Y-79030390D02*
X124013238Y-78935152D01*
X124013238Y-78935152D02*
X124060857Y-78887533D01*
X124060857Y-78887533D02*
X124156095Y-78839914D01*
X124156095Y-78839914D02*
X124251333Y-78839914D01*
X124251333Y-78839914D02*
X124346571Y-78887533D01*
X124346571Y-78887533D02*
X124394190Y-78935152D01*
X124394190Y-78935152D02*
X124441809Y-79030390D01*
X124441809Y-79030390D02*
X124441809Y-79363723D01*
X124965619Y-77601818D02*
X123965619Y-77601818D01*
X124441809Y-77601818D02*
X124441809Y-77030390D01*
X124965619Y-77030390D02*
X123965619Y-77030390D01*
X124965619Y-76411342D02*
X124918000Y-76506580D01*
X124918000Y-76506580D02*
X124870380Y-76554199D01*
X124870380Y-76554199D02*
X124775142Y-76601818D01*
X124775142Y-76601818D02*
X124489428Y-76601818D01*
X124489428Y-76601818D02*
X124394190Y-76554199D01*
X124394190Y-76554199D02*
X124346571Y-76506580D01*
X124346571Y-76506580D02*
X124298952Y-76411342D01*
X124298952Y-76411342D02*
X124298952Y-76268485D01*
X124298952Y-76268485D02*
X124346571Y-76173247D01*
X124346571Y-76173247D02*
X124394190Y-76125628D01*
X124394190Y-76125628D02*
X124489428Y-76078009D01*
X124489428Y-76078009D02*
X124775142Y-76078009D01*
X124775142Y-76078009D02*
X124870380Y-76125628D01*
X124870380Y-76125628D02*
X124918000Y-76173247D01*
X124918000Y-76173247D02*
X124965619Y-76268485D01*
X124965619Y-76268485D02*
X124965619Y-76411342D01*
X124918000Y-75697056D02*
X124965619Y-75601818D01*
X124965619Y-75601818D02*
X124965619Y-75411342D01*
X124965619Y-75411342D02*
X124918000Y-75316104D01*
X124918000Y-75316104D02*
X124822761Y-75268485D01*
X124822761Y-75268485D02*
X124775142Y-75268485D01*
X124775142Y-75268485D02*
X124679904Y-75316104D01*
X124679904Y-75316104D02*
X124632285Y-75411342D01*
X124632285Y-75411342D02*
X124632285Y-75554199D01*
X124632285Y-75554199D02*
X124584666Y-75649437D01*
X124584666Y-75649437D02*
X124489428Y-75697056D01*
X124489428Y-75697056D02*
X124441809Y-75697056D01*
X124441809Y-75697056D02*
X124346571Y-75649437D01*
X124346571Y-75649437D02*
X124298952Y-75554199D01*
X124298952Y-75554199D02*
X124298952Y-75411342D01*
X124298952Y-75411342D02*
X124346571Y-75316104D01*
X124298952Y-74982770D02*
X124298952Y-74601818D01*
X123965619Y-74839913D02*
X124822761Y-74839913D01*
X124822761Y-74839913D02*
X124918000Y-74792294D01*
X124918000Y-74792294D02*
X124965619Y-74697056D01*
X124965619Y-74697056D02*
X124965619Y-74601818D01*
X127454819Y-123769047D02*
X126454819Y-123769047D01*
X126454819Y-123769047D02*
X127169104Y-123435714D01*
X127169104Y-123435714D02*
X126454819Y-123102381D01*
X126454819Y-123102381D02*
X127454819Y-123102381D01*
X127454819Y-122626190D02*
X126788152Y-122626190D01*
X126454819Y-122626190D02*
X126502438Y-122673809D01*
X126502438Y-122673809D02*
X126550057Y-122626190D01*
X126550057Y-122626190D02*
X126502438Y-122578571D01*
X126502438Y-122578571D02*
X126454819Y-122626190D01*
X126454819Y-122626190D02*
X126550057Y-122626190D01*
X127407200Y-121721429D02*
X127454819Y-121816667D01*
X127454819Y-121816667D02*
X127454819Y-122007143D01*
X127454819Y-122007143D02*
X127407200Y-122102381D01*
X127407200Y-122102381D02*
X127359580Y-122150000D01*
X127359580Y-122150000D02*
X127264342Y-122197619D01*
X127264342Y-122197619D02*
X126978628Y-122197619D01*
X126978628Y-122197619D02*
X126883390Y-122150000D01*
X126883390Y-122150000D02*
X126835771Y-122102381D01*
X126835771Y-122102381D02*
X126788152Y-122007143D01*
X126788152Y-122007143D02*
X126788152Y-121816667D01*
X126788152Y-121816667D02*
X126835771Y-121721429D01*
X127454819Y-121292857D02*
X126788152Y-121292857D01*
X126978628Y-121292857D02*
X126883390Y-121245238D01*
X126883390Y-121245238D02*
X126835771Y-121197619D01*
X126835771Y-121197619D02*
X126788152Y-121102381D01*
X126788152Y-121102381D02*
X126788152Y-121007143D01*
X127454819Y-120530952D02*
X127407200Y-120626190D01*
X127407200Y-120626190D02*
X127359580Y-120673809D01*
X127359580Y-120673809D02*
X127264342Y-120721428D01*
X127264342Y-120721428D02*
X126978628Y-120721428D01*
X126978628Y-120721428D02*
X126883390Y-120673809D01*
X126883390Y-120673809D02*
X126835771Y-120626190D01*
X126835771Y-120626190D02*
X126788152Y-120530952D01*
X126788152Y-120530952D02*
X126788152Y-120388095D01*
X126788152Y-120388095D02*
X126835771Y-120292857D01*
X126835771Y-120292857D02*
X126883390Y-120245238D01*
X126883390Y-120245238D02*
X126978628Y-120197619D01*
X126978628Y-120197619D02*
X127264342Y-120197619D01*
X127264342Y-120197619D02*
X127359580Y-120245238D01*
X127359580Y-120245238D02*
X127407200Y-120292857D01*
X127407200Y-120292857D02*
X127454819Y-120388095D01*
X127454819Y-120388095D02*
X127454819Y-120530952D01*
X127407200Y-119054761D02*
X127454819Y-118911904D01*
X127454819Y-118911904D02*
X127454819Y-118673809D01*
X127454819Y-118673809D02*
X127407200Y-118578571D01*
X127407200Y-118578571D02*
X127359580Y-118530952D01*
X127359580Y-118530952D02*
X127264342Y-118483333D01*
X127264342Y-118483333D02*
X127169104Y-118483333D01*
X127169104Y-118483333D02*
X127073866Y-118530952D01*
X127073866Y-118530952D02*
X127026247Y-118578571D01*
X127026247Y-118578571D02*
X126978628Y-118673809D01*
X126978628Y-118673809D02*
X126931009Y-118864285D01*
X126931009Y-118864285D02*
X126883390Y-118959523D01*
X126883390Y-118959523D02*
X126835771Y-119007142D01*
X126835771Y-119007142D02*
X126740533Y-119054761D01*
X126740533Y-119054761D02*
X126645295Y-119054761D01*
X126645295Y-119054761D02*
X126550057Y-119007142D01*
X126550057Y-119007142D02*
X126502438Y-118959523D01*
X126502438Y-118959523D02*
X126454819Y-118864285D01*
X126454819Y-118864285D02*
X126454819Y-118626190D01*
X126454819Y-118626190D02*
X126502438Y-118483333D01*
X127454819Y-118054761D02*
X126454819Y-118054761D01*
X126454819Y-118054761D02*
X126454819Y-117816666D01*
X126454819Y-117816666D02*
X126502438Y-117673809D01*
X126502438Y-117673809D02*
X126597676Y-117578571D01*
X126597676Y-117578571D02*
X126692914Y-117530952D01*
X126692914Y-117530952D02*
X126883390Y-117483333D01*
X126883390Y-117483333D02*
X127026247Y-117483333D01*
X127026247Y-117483333D02*
X127216723Y-117530952D01*
X127216723Y-117530952D02*
X127311961Y-117578571D01*
X127311961Y-117578571D02*
X127407200Y-117673809D01*
X127407200Y-117673809D02*
X127454819Y-117816666D01*
X127454819Y-117816666D02*
X127454819Y-118054761D01*
X127419456Y-84386009D02*
X127752789Y-84386009D01*
X127895646Y-84909819D02*
X127419456Y-84909819D01*
X127419456Y-84909819D02*
X127419456Y-83909819D01*
X127419456Y-83909819D02*
X127895646Y-83909819D01*
X128181361Y-84243152D02*
X128562313Y-84243152D01*
X128324218Y-83909819D02*
X128324218Y-84766961D01*
X128324218Y-84766961D02*
X128371837Y-84862200D01*
X128371837Y-84862200D02*
X128467075Y-84909819D01*
X128467075Y-84909819D02*
X128562313Y-84909819D01*
X128895647Y-84909819D02*
X128895647Y-83909819D01*
X129324218Y-84909819D02*
X129324218Y-84386009D01*
X129324218Y-84386009D02*
X129276599Y-84290771D01*
X129276599Y-84290771D02*
X129181361Y-84243152D01*
X129181361Y-84243152D02*
X129038504Y-84243152D01*
X129038504Y-84243152D02*
X128943266Y-84290771D01*
X128943266Y-84290771D02*
X128895647Y-84338390D01*
X130181361Y-84862200D02*
X130086123Y-84909819D01*
X130086123Y-84909819D02*
X129895647Y-84909819D01*
X129895647Y-84909819D02*
X129800409Y-84862200D01*
X129800409Y-84862200D02*
X129752790Y-84766961D01*
X129752790Y-84766961D02*
X129752790Y-84386009D01*
X129752790Y-84386009D02*
X129800409Y-84290771D01*
X129800409Y-84290771D02*
X129895647Y-84243152D01*
X129895647Y-84243152D02*
X130086123Y-84243152D01*
X130086123Y-84243152D02*
X130181361Y-84290771D01*
X130181361Y-84290771D02*
X130228980Y-84386009D01*
X130228980Y-84386009D02*
X130228980Y-84481247D01*
X130228980Y-84481247D02*
X129752790Y-84576485D01*
X130657552Y-84909819D02*
X130657552Y-84243152D01*
X130657552Y-84433628D02*
X130705171Y-84338390D01*
X130705171Y-84338390D02*
X130752790Y-84290771D01*
X130752790Y-84290771D02*
X130848028Y-84243152D01*
X130848028Y-84243152D02*
X130943266Y-84243152D01*
X131276600Y-84243152D02*
X131276600Y-84909819D01*
X131276600Y-84338390D02*
X131324219Y-84290771D01*
X131324219Y-84290771D02*
X131419457Y-84243152D01*
X131419457Y-84243152D02*
X131562314Y-84243152D01*
X131562314Y-84243152D02*
X131657552Y-84290771D01*
X131657552Y-84290771D02*
X131705171Y-84386009D01*
X131705171Y-84386009D02*
X131705171Y-84909819D01*
X132562314Y-84862200D02*
X132467076Y-84909819D01*
X132467076Y-84909819D02*
X132276600Y-84909819D01*
X132276600Y-84909819D02*
X132181362Y-84862200D01*
X132181362Y-84862200D02*
X132133743Y-84766961D01*
X132133743Y-84766961D02*
X132133743Y-84386009D01*
X132133743Y-84386009D02*
X132181362Y-84290771D01*
X132181362Y-84290771D02*
X132276600Y-84243152D01*
X132276600Y-84243152D02*
X132467076Y-84243152D01*
X132467076Y-84243152D02*
X132562314Y-84290771D01*
X132562314Y-84290771D02*
X132609933Y-84386009D01*
X132609933Y-84386009D02*
X132609933Y-84481247D01*
X132609933Y-84481247D02*
X132133743Y-84576485D01*
X132895648Y-84243152D02*
X133276600Y-84243152D01*
X133038505Y-83909819D02*
X133038505Y-84766961D01*
X133038505Y-84766961D02*
X133086124Y-84862200D01*
X133086124Y-84862200D02*
X133181362Y-84909819D01*
X133181362Y-84909819D02*
X133276600Y-84909819D01*
D11*
%TO.C,J7*%
X136250400Y-57447999D02*
X136250400Y-63442399D01*
X136250400Y-63442399D02*
X148899600Y-63442399D01*
X148899600Y-57447999D02*
X136250400Y-57447999D01*
X148899600Y-63442399D02*
X148899600Y-57447999D01*
D12*
X135996400Y-60975000D02*
G75*
G03*
X135996400Y-60975000I-381000J0D01*
G01*
D11*
%TO.C,R_PullDownMC1*%
X141189900Y-80401600D02*
X144060100Y-80401600D01*
X144060100Y-80401600D02*
X144060100Y-73848400D01*
X141189900Y-73848400D02*
X141189900Y-80401600D01*
X144060100Y-73848400D02*
X141189900Y-73848400D01*
%TO.C,J12*%
X115923000Y-138272999D02*
X115923000Y-144267399D01*
X115923000Y-144267399D02*
X123577000Y-144267399D01*
X123577000Y-138272999D02*
X115923000Y-138272999D01*
X123577000Y-144267399D02*
X123577000Y-138272999D01*
D12*
X114526000Y-141800000D02*
G75*
G03*
X114526000Y-141800000I-381000J0D01*
G01*
D11*
%TO.C,J6*%
X154024600Y-144227001D02*
X154024600Y-138232601D01*
X154024600Y-138232601D02*
X141375400Y-138232601D01*
X141375400Y-144227001D02*
X154024600Y-144227001D01*
X141375400Y-138232601D02*
X141375400Y-144227001D01*
D12*
X155040600Y-140700000D02*
G75*
G03*
X155040600Y-140700000I-381000J0D01*
G01*
D11*
%TO.C,R5*%
X99271400Y-129079700D02*
X99271400Y-123720300D01*
X99271400Y-123720300D02*
X86520600Y-123720300D01*
X86520600Y-129079700D02*
X99271400Y-129079700D01*
X86520600Y-123720300D02*
X86520600Y-129079700D01*
D13*
%TO.C,U5*%
X90206000Y-109462500D02*
X90206000Y-107662500D01*
X90206000Y-109462500D02*
X90206000Y-110262500D01*
X87086000Y-109462500D02*
X87086000Y-108662500D01*
X87086000Y-109462500D02*
X87086000Y-110262500D01*
D11*
%TO.C,C2*%
X95858900Y-60446100D02*
X95858900Y-59941793D01*
X95858900Y-58105607D02*
X95858900Y-57601300D01*
X91617100Y-60446100D02*
X95858900Y-60446100D01*
X91617100Y-60446100D02*
X91617100Y-59501047D01*
X91617100Y-58546353D02*
X91617100Y-57601300D01*
X91617100Y-57601300D02*
X95858900Y-57601300D01*
%TO.C,C1*%
X97008900Y-79756100D02*
X97008900Y-79251793D01*
X97008900Y-77415607D02*
X97008900Y-76911300D01*
X92767100Y-79756100D02*
X97008900Y-79756100D01*
X92767100Y-79756100D02*
X92767100Y-78811047D01*
X92767100Y-77856353D02*
X92767100Y-76911300D01*
X92767100Y-76911300D02*
X97008900Y-76911300D01*
D13*
%TO.C,U3*%
X89338000Y-78216200D02*
X89338000Y-76416200D01*
X89338000Y-78216200D02*
X89338000Y-79016200D01*
X86218000Y-78216200D02*
X86218000Y-77416200D01*
X86218000Y-78216200D02*
X86218000Y-79016200D01*
D11*
%TO.C,J13*%
X106220000Y-57272999D02*
X106220000Y-63267399D01*
X106220000Y-63267399D02*
X116380000Y-63267399D01*
X116380000Y-57272999D02*
X106220000Y-57272999D01*
X116380000Y-63267399D02*
X116380000Y-57272999D01*
D12*
X104823000Y-60800000D02*
G75*
G03*
X104823000Y-60800000I-381000J0D01*
G01*
D11*
%TO.C,J3*%
X157142800Y-133555100D02*
X163137200Y-133555100D01*
X163137200Y-133555100D02*
X163137200Y-123395100D01*
X157142800Y-123395100D02*
X157142800Y-133555100D01*
X163137200Y-123395100D02*
X157142800Y-123395100D01*
D12*
X161050801Y-135333100D02*
G75*
G03*
X161050801Y-135333100I-381000J0D01*
G01*
D13*
%TO.C,LevelShifterUWB(5->3.3)1*%
X145320000Y-100220000D02*
X146995000Y-100220000D01*
X145320000Y-100220000D02*
X144670000Y-100220000D01*
X145320000Y-97100000D02*
X145970000Y-97100000D01*
X145320000Y-97100000D02*
X144670000Y-97100000D01*
%TO.C,LevelShifterMC(5->3.3)1*%
X150360000Y-72282500D02*
X150360000Y-70607500D01*
X150360000Y-72282500D02*
X150360000Y-72932500D01*
X147240000Y-72282500D02*
X147240000Y-71632500D01*
X147240000Y-72282500D02*
X147240000Y-72932500D01*
D11*
%TO.C,J10*%
X75875001Y-123725400D02*
X69880601Y-123725400D01*
X69880601Y-123725400D02*
X69880601Y-136374600D01*
X75875001Y-136374600D02*
X75875001Y-123725400D01*
X69880601Y-136374600D02*
X75875001Y-136374600D01*
D12*
X72729000Y-123090400D02*
G75*
G03*
X72729000Y-123090400I-381000J0D01*
G01*
D11*
%TO.C,R6*%
X99323400Y-135479700D02*
X99323400Y-130120300D01*
X99323400Y-130120300D02*
X86572600Y-130120300D01*
X86572600Y-135479700D02*
X99323400Y-135479700D01*
X86572600Y-130120300D02*
X86572600Y-135479700D01*
%TO.C,R2*%
X97713400Y-74263400D02*
X97713400Y-68904000D01*
X97713400Y-68904000D02*
X84962600Y-68904000D01*
X84962600Y-74263400D02*
X97713400Y-74263400D01*
X84962600Y-68904000D02*
X84962600Y-74263400D01*
%TO.C,J11*%
X104923000Y-138292999D02*
X104923000Y-144287399D01*
X104923000Y-144287399D02*
X112577000Y-144287399D01*
X112577000Y-138292999D02*
X104923000Y-138292999D01*
X112577000Y-144287399D02*
X112577000Y-138292999D01*
D12*
X103526000Y-141820000D02*
G75*
G03*
X103526000Y-141820000I-381000J0D01*
G01*
D13*
%TO.C,U2*%
X89148000Y-58873700D02*
X89148000Y-57073700D01*
X89148000Y-58873700D02*
X89148000Y-59673700D01*
X86028000Y-58873700D02*
X86028000Y-58073700D01*
X86028000Y-58873700D02*
X86028000Y-59673700D01*
D11*
%TO.C,C3*%
X97416900Y-89222400D02*
X97416900Y-88718093D01*
X97416900Y-86881907D02*
X97416900Y-86377600D01*
X93175100Y-89222400D02*
X97416900Y-89222400D01*
X93175100Y-89222400D02*
X93175100Y-88277347D01*
X93175100Y-87322653D02*
X93175100Y-86377600D01*
X93175100Y-86377600D02*
X97416900Y-86377600D01*
%TO.C,J2*%
X157092999Y-118860000D02*
X163087399Y-118860000D01*
X163087399Y-118860000D02*
X163087399Y-108700000D01*
X157092999Y-108700000D02*
X157092999Y-118860000D01*
X163087399Y-108700000D02*
X157092999Y-108700000D01*
D12*
X161001000Y-120638000D02*
G75*
G03*
X161001000Y-120638000I-381000J0D01*
G01*
D13*
%TO.C,J5*%
X157340000Y-90060000D02*
X157340000Y-88640000D01*
X169060000Y-90060000D02*
X157340000Y-90060000D01*
X157340000Y-88640000D02*
X161840000Y-88640000D01*
X161840000Y-88640000D02*
X161840000Y-83750000D01*
X157650000Y-87800000D02*
X157650000Y-87200000D01*
X162950000Y-87750000D02*
X168450000Y-87750000D01*
X168450000Y-87750000D02*
X168450000Y-87250000D01*
X158250000Y-87500000D02*
X157650000Y-87800000D01*
X162950000Y-87250000D02*
X162950000Y-87750000D01*
X168450000Y-87250000D02*
X162950000Y-87250000D01*
X157650000Y-87200000D02*
X158250000Y-87500000D01*
X162950000Y-85250000D02*
X168450000Y-85250000D01*
X168450000Y-85250000D02*
X168450000Y-84750000D01*
X162950000Y-84750000D02*
X162950000Y-85250000D01*
X168450000Y-84750000D02*
X162950000Y-84750000D01*
X169060000Y-83750000D02*
X169060000Y-90060000D01*
X169060000Y-83750000D02*
X169060000Y-77440000D01*
X162950000Y-82750000D02*
X168450000Y-82750000D01*
X168450000Y-82750000D02*
X168450000Y-82250000D01*
X162950000Y-82250000D02*
X162950000Y-82750000D01*
X168450000Y-82250000D02*
X162950000Y-82250000D01*
X162950000Y-80250000D02*
X168450000Y-80250000D01*
X168450000Y-80250000D02*
X168450000Y-79750000D01*
X162950000Y-79750000D02*
X162950000Y-80250000D01*
X168450000Y-79750000D02*
X162950000Y-79750000D01*
X157340000Y-78860000D02*
X161840000Y-78860000D01*
X161840000Y-78860000D02*
X161840000Y-83750000D01*
X157340000Y-77440000D02*
X157340000Y-78860000D01*
X169060000Y-77440000D02*
X157340000Y-77440000D01*
%TO.C,U6*%
X90908000Y-119600000D02*
X90908000Y-117800000D01*
X90908000Y-119600000D02*
X90908000Y-120400000D01*
X87788000Y-119600000D02*
X87788000Y-118800000D01*
X87788000Y-119600000D02*
X87788000Y-120400000D01*
D11*
%TO.C,J4*%
X156942999Y-103660000D02*
X162937399Y-103660000D01*
X162937399Y-103660000D02*
X162937399Y-93500000D01*
X156942999Y-93500000D02*
X156942999Y-103660000D01*
X162937399Y-93500000D02*
X156942999Y-93500000D01*
D12*
X160851000Y-105438000D02*
G75*
G03*
X160851000Y-105438000I-381000J0D01*
G01*
D11*
%TO.C,C6*%
X92827100Y-138377600D02*
X92827100Y-138881907D01*
X92827100Y-140718093D02*
X92827100Y-141222400D01*
X97068900Y-138377600D02*
X92827100Y-138377600D01*
X97068900Y-138377600D02*
X97068900Y-139322653D01*
X97068900Y-140277347D02*
X97068900Y-141222400D01*
X97068900Y-141222400D02*
X92827100Y-141222400D01*
%TO.C,J1*%
X128377900Y-138272999D02*
X128377900Y-144267399D01*
X128377900Y-144267399D02*
X136031900Y-144267399D01*
X136031900Y-138272999D02*
X128377900Y-138272999D01*
X136031900Y-144267399D02*
X136031900Y-138272999D01*
D12*
X126980900Y-141800000D02*
G75*
G03*
X126980900Y-141800000I-381000J0D01*
G01*
D13*
%TO.C,U7*%
X90508000Y-139937500D02*
X90508000Y-138137500D01*
X90508000Y-139937500D02*
X90508000Y-140737500D01*
X87388000Y-139937500D02*
X87388000Y-139137500D01*
X87388000Y-139937500D02*
X87388000Y-140737500D01*
D11*
%TO.C,J9*%
X75695001Y-92525400D02*
X69700601Y-92525400D01*
X69700601Y-92525400D02*
X69700601Y-105174600D01*
X75695001Y-105174600D02*
X75695001Y-92525400D01*
X69700601Y-105174600D02*
X75695001Y-105174600D01*
D12*
X72549000Y-91890400D02*
G75*
G03*
X72549000Y-91890400I-381000J0D01*
G01*
D11*
%TO.C,R3*%
X97819400Y-98279700D02*
X97819400Y-92920300D01*
X97819400Y-92920300D02*
X85068600Y-92920300D01*
X85068600Y-98279700D02*
X97819400Y-98279700D01*
X85068600Y-92920300D02*
X85068600Y-98279700D01*
D13*
%TO.C,U4*%
X89406000Y-87737500D02*
X89406000Y-85937500D01*
X89406000Y-87737500D02*
X89406000Y-88537500D01*
X86286000Y-87737500D02*
X86286000Y-86937500D01*
X86286000Y-87737500D02*
X86286000Y-88537500D01*
D11*
%TO.C,R1*%
X97711400Y-68103400D02*
X97711400Y-62744000D01*
X97711400Y-62744000D02*
X84960600Y-62744000D01*
X84960600Y-68103400D02*
X97711400Y-68103400D01*
X84960600Y-62744000D02*
X84960600Y-68103400D01*
%TO.C,R4*%
X97671400Y-104279700D02*
X97671400Y-98920300D01*
X97671400Y-98920300D02*
X84920600Y-98920300D01*
X84920600Y-104279700D02*
X97671400Y-104279700D01*
X84920600Y-98920300D02*
X84920600Y-104279700D01*
%TO.C,C4*%
X96566900Y-111022400D02*
X96566900Y-110518093D01*
X96566900Y-108681907D02*
X96566900Y-108177600D01*
X92325100Y-111022400D02*
X96566900Y-111022400D01*
X92325100Y-111022400D02*
X92325100Y-110077347D01*
X92325100Y-109122653D02*
X92325100Y-108177600D01*
X92325100Y-108177600D02*
X96566900Y-108177600D01*
%TO.C,C5*%
X98268900Y-120822400D02*
X98268900Y-120318093D01*
X98268900Y-118481907D02*
X98268900Y-117977600D01*
X94027100Y-120822400D02*
X98268900Y-120822400D01*
X94027100Y-120822400D02*
X94027100Y-119877347D01*
X94027100Y-118922653D02*
X94027100Y-117977600D01*
X94027100Y-117977600D02*
X98268900Y-117977600D01*
%TO.C,J8*%
X77335001Y-63349100D02*
X71340601Y-63349100D01*
X71340601Y-63349100D02*
X71340601Y-75998300D01*
X77335001Y-75998300D02*
X77335001Y-63349100D01*
X71340601Y-75998300D02*
X77335001Y-75998300D01*
D12*
X74189000Y-62714100D02*
G75*
G03*
X74189000Y-62714100I-381000J0D01*
G01*
D11*
%TO.C,R_PullDownUWB1*%
X149066600Y-94165100D02*
X149066600Y-91294900D01*
X149066600Y-91294900D02*
X142513400Y-91294900D01*
X142513400Y-94165100D02*
X149066600Y-94165100D01*
X142513400Y-91294900D02*
X142513400Y-94165100D01*
D10*
%TO.C,U1*%
X130810000Y-64770000D02*
X130810000Y-66040000D01*
X123190000Y-64770000D02*
X130810000Y-64770000D01*
X135890000Y-66040000D02*
X135890000Y-127000000D01*
X123190000Y-66040000D02*
X123190000Y-64770000D01*
X118110000Y-66040000D02*
X135890000Y-66040000D01*
X130810000Y-71120000D02*
X130810000Y-66040000D01*
X123190000Y-71120000D02*
X123190000Y-66040000D01*
X123190000Y-71120000D02*
X130810000Y-71120000D01*
X123700800Y-72339200D02*
X123700800Y-74879200D01*
X123700800Y-72339200D02*
X123700800Y-85039200D01*
X121160800Y-72339200D02*
X123700800Y-72339200D01*
X123700800Y-74879200D02*
X121160800Y-74879200D01*
X133351600Y-79270000D02*
X133101600Y-79270000D01*
X133101600Y-79270000D02*
X127101600Y-79270000D01*
X127101600Y-79270000D02*
X127101600Y-83270000D01*
X133351600Y-83270000D02*
X133351600Y-79270000D01*
X127101600Y-83270000D02*
X133351600Y-83270000D01*
X123700800Y-85039200D02*
X121160800Y-85039200D01*
X121160800Y-85039200D02*
X121160800Y-72339200D01*
X133350000Y-88900000D02*
X120650000Y-88900000D01*
X120650000Y-88900000D02*
X120650000Y-101600000D01*
X133350000Y-101600000D02*
X133350000Y-88900000D01*
X120650000Y-101600000D02*
X133350000Y-101600000D01*
X128270000Y-106680000D02*
X128270000Y-110490000D01*
X125730000Y-106680000D02*
X128270000Y-106680000D01*
X128270000Y-110490000D02*
X125730000Y-110490000D01*
X125730000Y-110490000D02*
X125730000Y-106680000D01*
X133350000Y-114300000D02*
X120650000Y-114300000D01*
X120650000Y-114300000D02*
X120650000Y-127000000D01*
X132080000Y-125730000D02*
X121920000Y-125730000D01*
X121920000Y-125730000D02*
X121920000Y-127000000D01*
X135890000Y-127000000D02*
X118110000Y-127000000D01*
X133350000Y-127000000D02*
X133350000Y-114300000D01*
X132080000Y-127000000D02*
X132080000Y-125730000D01*
X118110000Y-127000000D02*
X118110000Y-66040000D01*
X127898026Y-108585000D02*
G75*
G03*
X127898026Y-108585000I-898026J0D01*
G01*
D14*
X128069000Y-97177000D02*
X127688000Y-97431000D01*
X127434000Y-97177000D01*
X127815000Y-96923000D01*
X128069000Y-97177000D01*
G36*
X128069000Y-97177000D02*
G01*
X127688000Y-97431000D01*
X127434000Y-97177000D01*
X127815000Y-96923000D01*
X128069000Y-97177000D01*
G37*
X127561000Y-97558000D02*
X127180000Y-97812000D01*
X126926000Y-97558000D01*
X127307000Y-97304000D01*
X127561000Y-97558000D01*
G36*
X127561000Y-97558000D02*
G01*
X127180000Y-97812000D01*
X126926000Y-97558000D01*
X127307000Y-97304000D01*
X127561000Y-97558000D01*
G37*
X127942000Y-97939000D02*
X127561000Y-98193000D01*
X127307000Y-97939000D01*
X127688000Y-97685000D01*
X127942000Y-97939000D01*
G36*
X127942000Y-97939000D02*
G01*
X127561000Y-98193000D01*
X127307000Y-97939000D01*
X127688000Y-97685000D01*
X127942000Y-97939000D01*
G37*
X127053000Y-97939000D02*
X126672000Y-98193000D01*
X126418000Y-97939000D01*
X126799000Y-97685000D01*
X127053000Y-97939000D01*
G36*
X127053000Y-97939000D02*
G01*
X126672000Y-98193000D01*
X126418000Y-97939000D01*
X126799000Y-97685000D01*
X127053000Y-97939000D01*
G37*
X127434000Y-98320000D02*
X127053000Y-98574000D01*
X126799000Y-98320000D01*
X127180000Y-98066000D01*
X127434000Y-98320000D01*
G36*
X127434000Y-98320000D02*
G01*
X127053000Y-98574000D01*
X126799000Y-98320000D01*
X127180000Y-98066000D01*
X127434000Y-98320000D01*
G37*
X126926000Y-98701000D02*
X126545000Y-98955000D01*
X126291000Y-98701000D01*
X126672000Y-98447000D01*
X126926000Y-98701000D01*
G36*
X126926000Y-98701000D02*
G01*
X126545000Y-98955000D01*
X126291000Y-98701000D01*
X126672000Y-98447000D01*
X126926000Y-98701000D01*
G37*
X127307000Y-99082000D02*
X126926000Y-99336000D01*
X126672000Y-99082000D01*
X127053000Y-98828000D01*
X127307000Y-99082000D01*
G36*
X127307000Y-99082000D02*
G01*
X126926000Y-99336000D01*
X126672000Y-99082000D01*
X127053000Y-98828000D01*
X127307000Y-99082000D01*
G37*
X127688000Y-99463000D02*
X127307000Y-99717000D01*
X127053000Y-99463000D01*
X127434000Y-99209000D01*
X127688000Y-99463000D01*
G36*
X127688000Y-99463000D02*
G01*
X127307000Y-99717000D01*
X127053000Y-99463000D01*
X127434000Y-99209000D01*
X127688000Y-99463000D01*
G37*
%TD*%
M02*
