%TF.GenerationSoftware,KiCad,Pcbnew,7.0.7*%
%TF.CreationDate,2024-01-12T22:42:28-05:00*%
%TF.ProjectId,FinalTeensyBreakoutBoard,46696e61-6c54-4656-956e-737942726561,rev?*%
%TF.SameCoordinates,Original*%
%TF.FileFunction,Soldermask,Top*%
%TF.FilePolarity,Negative*%
%FSLAX46Y46*%
G04 Gerber Fmt 4.6, Leading zero omitted, Abs format (unit mm)*
G04 Created by KiCad (PCBNEW 7.0.7) date 2024-01-12 22:42:28*
%MOMM*%
%LPD*%
G01*
G04 APERTURE LIST*
G04 Aperture macros list*
%AMRoundRect*
0 Rectangle with rounded corners*
0 $1 Rounding radius*
0 $2 $3 $4 $5 $6 $7 $8 $9 X,Y pos of 4 corners*
0 Add a 4 corners polygon primitive as box body*
4,1,4,$2,$3,$4,$5,$6,$7,$8,$9,$2,$3,0*
0 Add four circle primitives for the rounded corners*
1,1,$1+$1,$2,$3*
1,1,$1+$1,$4,$5*
1,1,$1+$1,$6,$7*
1,1,$1+$1,$8,$9*
0 Add four rect primitives between the rounded corners*
20,1,$1+$1,$2,$3,$4,$5,0*
20,1,$1+$1,$4,$5,$6,$7,0*
20,1,$1+$1,$6,$7,$8,$9,0*
20,1,$1+$1,$8,$9,$2,$3,0*%
G04 Aperture macros list end*
%ADD10C,1.752600*%
%ADD11C,7.400000*%
%ADD12C,1.397000*%
%ADD13R,1.397000X1.397000*%
%ADD14C,1.498600*%
%ADD15R,1.625600X1.625600*%
%ADD16C,1.625600*%
%ADD17RoundRect,0.150000X-0.150000X0.512500X-0.150000X-0.512500X0.150000X-0.512500X0.150000X0.512500X0*%
%ADD18R,1.320800X1.320800*%
%ADD19C,1.320800*%
%ADD20RoundRect,0.150000X0.587500X0.150000X-0.587500X0.150000X-0.587500X-0.150000X0.587500X-0.150000X0*%
%ADD21RoundRect,0.150000X-0.150000X0.587500X-0.150000X-0.587500X0.150000X-0.587500X0.150000X0.587500X0*%
%ADD22RoundRect,0.250000X0.725000X-0.600000X0.725000X0.600000X-0.725000X0.600000X-0.725000X-0.600000X0*%
%ADD23O,1.950000X1.700000*%
%ADD24R,1.600000X1.600000*%
%ADD25C,1.600000*%
%ADD26R,1.300000X1.300000*%
%ADD27C,1.300000*%
G04 APERTURE END LIST*
D10*
%TO.C,J7*%
X138825000Y-60975000D03*
X141325000Y-60975000D03*
X143825000Y-60975000D03*
X146325000Y-60975000D03*
%TD*%
D11*
%TO.C,REF\u002A\u002A*%
X68580000Y-147320000D03*
%TD*%
%TO.C,REF\u002A\u002A*%
X172720000Y-147320000D03*
%TD*%
%TO.C,REF\u002A\u002A*%
X172720000Y-53340000D03*
%TD*%
%TO.C,REF\u002A\u002A*%
X68580000Y-53340000D03*
%TD*%
D12*
%TO.C,R_PullDownMC1*%
X142625000Y-71410000D03*
D13*
X142625000Y-82840000D03*
%TD*%
D14*
%TO.C,J12*%
X118500000Y-141800000D03*
X121000000Y-141800000D03*
%TD*%
D10*
%TO.C,J6*%
X151450000Y-140700000D03*
X148950000Y-140700000D03*
X146450000Y-140700000D03*
X143950000Y-140700000D03*
%TD*%
D15*
%TO.C,R5*%
X102548000Y-126400000D03*
D16*
X83244000Y-126400000D03*
%TD*%
D17*
%TO.C,U5*%
X89596000Y-110600000D03*
X88646000Y-110600000D03*
X87696000Y-110600000D03*
X87696000Y-108325000D03*
X88646000Y-108325000D03*
X89596000Y-108325000D03*
%TD*%
D18*
%TO.C,C2*%
X94988000Y-59023700D03*
D19*
X92488000Y-59023700D03*
%TD*%
D18*
%TO.C,C1*%
X96138000Y-78333700D03*
D19*
X93638000Y-78333700D03*
%TD*%
D17*
%TO.C,U3*%
X88728000Y-77078700D03*
X87778000Y-77078700D03*
X86828000Y-77078700D03*
X86828000Y-79353700D03*
X87778000Y-79353700D03*
X88728000Y-79353700D03*
%TD*%
D14*
%TO.C,J13*%
X108800000Y-60800000D03*
X111300000Y-60800000D03*
X113800000Y-60800000D03*
%TD*%
%TO.C,J3*%
X160669801Y-130975100D03*
X160669801Y-128475100D03*
X160669801Y-125975100D03*
%TD*%
D20*
%TO.C,LevelShifterUWB(5->3.3)1*%
X146257500Y-99610000D03*
X146257500Y-97710000D03*
X144382500Y-98660000D03*
%TD*%
D21*
%TO.C,LevelShifterMC(5->3.3)1*%
X149750000Y-71345000D03*
X147850000Y-71345000D03*
X148800000Y-73220000D03*
%TD*%
D10*
%TO.C,J10*%
X72348000Y-126300000D03*
X72348000Y-128800000D03*
X72348000Y-131300000D03*
X72348000Y-133800000D03*
%TD*%
D15*
%TO.C,R6*%
X102600000Y-132800000D03*
D16*
X83296000Y-132800000D03*
%TD*%
D15*
%TO.C,R2*%
X100990000Y-71583700D03*
D16*
X81686000Y-71583700D03*
%TD*%
D14*
%TO.C,J11*%
X107500000Y-141820000D03*
X110000000Y-141820000D03*
%TD*%
D17*
%TO.C,U2*%
X88538000Y-57736200D03*
X87588000Y-57736200D03*
X86638000Y-57736200D03*
X86638000Y-60011200D03*
X87588000Y-60011200D03*
X88538000Y-60011200D03*
%TD*%
D18*
%TO.C,C3*%
X96546000Y-87800000D03*
D19*
X94046000Y-87800000D03*
%TD*%
D14*
%TO.C,J2*%
X160620000Y-116280000D03*
X160620000Y-113780000D03*
X160620000Y-111280000D03*
%TD*%
D22*
%TO.C,J5*%
X159750000Y-87500000D03*
D23*
X159750000Y-85000000D03*
X159750000Y-82500000D03*
X159750000Y-80000000D03*
%TD*%
D17*
%TO.C,U6*%
X90298000Y-118462500D03*
X89348000Y-118462500D03*
X88398000Y-118462500D03*
X88398000Y-120737500D03*
X89348000Y-120737500D03*
X90298000Y-120737500D03*
%TD*%
D14*
%TO.C,J4*%
X160470000Y-101080000D03*
X160470000Y-98580000D03*
X160470000Y-96080000D03*
%TD*%
D18*
%TO.C,C6*%
X93698000Y-139800000D03*
D19*
X96198000Y-139800000D03*
%TD*%
D14*
%TO.C,J1*%
X130954900Y-141800000D03*
X133454900Y-141800000D03*
%TD*%
D17*
%TO.C,U7*%
X89898000Y-138800000D03*
X88948000Y-138800000D03*
X87998000Y-138800000D03*
X87998000Y-141075000D03*
X88948000Y-141075000D03*
X89898000Y-141075000D03*
%TD*%
D10*
%TO.C,J9*%
X72168000Y-95100000D03*
X72168000Y-97600000D03*
X72168000Y-100100000D03*
X72168000Y-102600000D03*
%TD*%
D16*
%TO.C,R3*%
X81792000Y-95600000D03*
D15*
X101096000Y-95600000D03*
%TD*%
D17*
%TO.C,U4*%
X88796000Y-86600000D03*
X87846000Y-86600000D03*
X86896000Y-86600000D03*
X86896000Y-88875000D03*
X87846000Y-88875000D03*
X88796000Y-88875000D03*
%TD*%
D15*
%TO.C,R1*%
X100988000Y-65423700D03*
D16*
X81684000Y-65423700D03*
%TD*%
%TO.C,R4*%
X81644000Y-101600000D03*
D15*
X100948000Y-101600000D03*
%TD*%
D18*
%TO.C,C4*%
X95696000Y-109600000D03*
D19*
X93196000Y-109600000D03*
%TD*%
D18*
%TO.C,C5*%
X97398000Y-119400000D03*
D19*
X94898000Y-119400000D03*
%TD*%
D10*
%TO.C,J8*%
X73808000Y-65923700D03*
X73808000Y-68423700D03*
X73808000Y-70923700D03*
X73808000Y-73423700D03*
%TD*%
D12*
%TO.C,R_PullDownUWB1*%
X140075000Y-92730000D03*
D13*
X151505000Y-92730000D03*
%TD*%
D24*
%TO.C,U1*%
X119380000Y-67310000D03*
D25*
X119380000Y-69850000D03*
X119380000Y-72390000D03*
X119380000Y-74930000D03*
X119380000Y-77470000D03*
X119380000Y-80010000D03*
X119380000Y-82550000D03*
X119380000Y-85090000D03*
X119380000Y-87630000D03*
X119380000Y-90170000D03*
X119380000Y-92710000D03*
X119380000Y-95250000D03*
X119380000Y-97790000D03*
X119380000Y-100330000D03*
X119380000Y-102870000D03*
X119380000Y-105410000D03*
X119380000Y-107950000D03*
X119380000Y-110490000D03*
X119380000Y-113030000D03*
X119380000Y-115570000D03*
X119380000Y-118110000D03*
X119380000Y-120650000D03*
X119380000Y-123190000D03*
X119380000Y-125730000D03*
X134620000Y-125730000D03*
X134620000Y-123190000D03*
X134620000Y-120650000D03*
X134620000Y-118110000D03*
X134620000Y-115570000D03*
X134620000Y-113030000D03*
X134620000Y-110490000D03*
X134620000Y-107950000D03*
X134620000Y-105410000D03*
X134620000Y-102870000D03*
X134620000Y-100330000D03*
X134620000Y-97790000D03*
X134620000Y-95250000D03*
X134620000Y-92710000D03*
X134620000Y-90170000D03*
X134620000Y-87630000D03*
X134620000Y-85090000D03*
X134620000Y-82550000D03*
X134620000Y-80010000D03*
X134620000Y-77470000D03*
X134620000Y-74930000D03*
X134620000Y-72390000D03*
X134620000Y-69850000D03*
X134620000Y-67310000D03*
X132080000Y-69850000D03*
X121920000Y-113030000D03*
X124460000Y-113030000D03*
X127000000Y-113030000D03*
X129540000Y-113030000D03*
X132080000Y-113030000D03*
D24*
X122430800Y-73609200D03*
D25*
X122430800Y-76149200D03*
X122430800Y-78689200D03*
X122430800Y-81229200D03*
X122430800Y-83769200D03*
D26*
X132181600Y-80280000D03*
D27*
X130181600Y-80280000D03*
X128181600Y-80280000D03*
X128181600Y-82280000D03*
X130181600Y-82280000D03*
X132181600Y-82280000D03*
X128270000Y-68040000D03*
X125730000Y-68040000D03*
%TD*%
M02*
