%TF.GenerationSoftware,KiCad,Pcbnew,7.0.7*%
%TF.CreationDate,2024-01-13T11:42:57-05:00*%
%TF.ProjectId,FinalTeensyBreakoutBoard,46696e61-6c54-4656-956e-737942726561,rev?*%
%TF.SameCoordinates,Original*%
%TF.FileFunction,Paste,Top*%
%TF.FilePolarity,Positive*%
%FSLAX46Y46*%
G04 Gerber Fmt 4.6, Leading zero omitted, Abs format (unit mm)*
G04 Created by KiCad (PCBNEW 7.0.7) date 2024-01-13 11:42:57*
%MOMM*%
%LPD*%
G01*
G04 APERTURE LIST*
G04 Aperture macros list*
%AMRoundRect*
0 Rectangle with rounded corners*
0 $1 Rounding radius*
0 $2 $3 $4 $5 $6 $7 $8 $9 X,Y pos of 4 corners*
0 Add a 4 corners polygon primitive as box body*
4,1,4,$2,$3,$4,$5,$6,$7,$8,$9,$2,$3,0*
0 Add four circle primitives for the rounded corners*
1,1,$1+$1,$2,$3*
1,1,$1+$1,$4,$5*
1,1,$1+$1,$6,$7*
1,1,$1+$1,$8,$9*
0 Add four rect primitives between the rounded corners*
20,1,$1+$1,$2,$3,$4,$5,0*
20,1,$1+$1,$4,$5,$6,$7,0*
20,1,$1+$1,$6,$7,$8,$9,0*
20,1,$1+$1,$8,$9,$2,$3,0*%
G04 Aperture macros list end*
%ADD10RoundRect,0.150000X-0.150000X0.512500X-0.150000X-0.512500X0.150000X-0.512500X0.150000X0.512500X0*%
%ADD11RoundRect,0.150000X0.587500X0.150000X-0.587500X0.150000X-0.587500X-0.150000X0.587500X-0.150000X0*%
%ADD12RoundRect,0.150000X-0.150000X0.587500X-0.150000X-0.587500X0.150000X-0.587500X0.150000X0.587500X0*%
G04 APERTURE END LIST*
D10*
%TO.C,U5*%
X89596000Y-108325000D03*
X88646000Y-108325000D03*
X87696000Y-108325000D03*
X87696000Y-110600000D03*
X88646000Y-110600000D03*
X89596000Y-110600000D03*
%TD*%
%TO.C,U3*%
X88728000Y-77078700D03*
X87778000Y-77078700D03*
X86828000Y-77078700D03*
X86828000Y-79353700D03*
X87778000Y-79353700D03*
X88728000Y-79353700D03*
%TD*%
D11*
%TO.C,LevelShifterUWB(5->3.3)1*%
X146257500Y-99610000D03*
X146257500Y-97710000D03*
X144382500Y-98660000D03*
%TD*%
D12*
%TO.C,LevelShifterMC(5->3.3)1*%
X149750000Y-71345000D03*
X147850000Y-71345000D03*
X148800000Y-73220000D03*
%TD*%
D10*
%TO.C,U2*%
X88538000Y-57736200D03*
X87588000Y-57736200D03*
X86638000Y-57736200D03*
X86638000Y-60011200D03*
X87588000Y-60011200D03*
X88538000Y-60011200D03*
%TD*%
%TO.C,U6*%
X90298000Y-118462500D03*
X89348000Y-118462500D03*
X88398000Y-118462500D03*
X88398000Y-120737500D03*
X89348000Y-120737500D03*
X90298000Y-120737500D03*
%TD*%
%TO.C,U7*%
X89898000Y-138800000D03*
X88948000Y-138800000D03*
X87998000Y-138800000D03*
X87998000Y-141075000D03*
X88948000Y-141075000D03*
X89898000Y-141075000D03*
%TD*%
%TO.C,U4*%
X88796000Y-86600000D03*
X87846000Y-86600000D03*
X86896000Y-86600000D03*
X86896000Y-88875000D03*
X87846000Y-88875000D03*
X88796000Y-88875000D03*
%TD*%
M02*
