M48
; DRILL file {KiCad 7.0.7} date Sat Jan 13 11:42:53 2024
; FORMAT={-:-/ absolute / inch / decimal}
; #@! TF.CreationDate,2024-01-13T11:42:53-05:00
; #@! TF.GenerationSoftware,Kicad,Pcbnew,7.0.7
; #@! TF.FileFunction,Plated,1,2,PTH
FMAT,2
INCH
; #@! TA.AperFunction,Plated,PTH,ViaDrill
T1C0.0157
; #@! TA.AperFunction,Plated,PTH,ComponentDrill
T2C0.0315
; #@! TA.AperFunction,Plated,PTH,ComponentDrill
T3C0.0320
; #@! TA.AperFunction,Plated,PTH,ComponentDrill
T4C0.0350
; #@! TA.AperFunction,Plated,PTH,ComponentDrill
T5C0.0374
; #@! TA.AperFunction,Plated,PTH,ComponentDrill
T6C0.0390
; #@! TA.AperFunction,Plated,PTH,ComponentDrill
T7C0.0433
; #@! TA.AperFunction,Plated,PTH,ComponentDrill
T8C0.0440
; #@! TA.AperFunction,Plated,PTH,ComponentDrill
T9C0.0490
; #@! TA.AperFunction,Plated,PTH,ComponentDrill
T10C0.1457
%
G90
G05
T1
X3.3858Y-4.4094
X3.4488Y-2.4331
X3.4563Y-5.6037
X3.5197Y-3.5984
X3.5197Y-4.8268
X3.5512Y-3.0787
X5.5984Y-3.8898
X5.9213Y-2.9764
T2
X4.95Y-2.6787
X5.0465Y-3.1606
X5.0465Y-3.2394
X5.05Y-2.6787
X5.1253Y-3.1606
X5.1253Y-3.2394
X5.204Y-3.1606
X5.204Y-3.2394
T3
X3.6413Y-2.3238
X3.6691Y-4.315
X3.6865Y-3.084
X3.6889Y-5.5039
X3.7026Y-3.4567
X3.7361Y-4.7008
X3.7397Y-2.3238
X3.7676Y-4.315
X3.785Y-3.084
X3.7873Y-5.5039
X3.801Y-3.4567
X3.8346Y-4.7008
T4
X5.5148Y-3.6508
X5.6152Y-2.8114
X5.6152Y-3.2614
X5.9648Y-3.6508
T5
X6.2894Y-3.1496
X6.2894Y-3.248
X6.2894Y-3.3465
X6.2894Y-3.4449
T6
X4.2323Y-5.5835
X4.2835Y-2.3937
X4.3307Y-5.5835
X4.3819Y-2.3937
X4.4803Y-2.3937
X4.6654Y-5.5827
X4.7638Y-5.5827
X5.1557Y-5.5827
X5.2541Y-5.5827
X6.3177Y-3.7827
X6.3177Y-3.8811
X6.3177Y-3.9795
X6.3236Y-4.3811
X6.3236Y-4.4795
X6.3236Y-4.578
X6.3256Y-4.9596
X6.3256Y-5.0581
X6.3256Y-5.1565
T7
X4.7Y-2.65
X4.7Y-2.75
X4.7Y-2.85
X4.7Y-2.95
X4.7Y-3.05
X4.7Y-3.15
X4.7Y-3.25
X4.7Y-3.35
X4.7Y-3.45
X4.7Y-3.55
X4.7Y-3.65
X4.7Y-3.75
X4.7Y-3.85
X4.7Y-3.95
X4.7Y-4.05
X4.7Y-4.15
X4.7Y-4.25
X4.7Y-4.35
X4.7Y-4.45
X4.7Y-4.55
X4.7Y-4.65
X4.7Y-4.75
X4.7Y-4.85
X4.7Y-4.95
X4.8Y-4.45
X4.8201Y-2.898
X4.8201Y-2.998
X4.8201Y-3.098
X4.8201Y-3.198
X4.8201Y-3.298
X4.9Y-4.45
X5.0Y-4.45
X5.1Y-4.45
X5.2Y-2.75
X5.2Y-4.45
X5.3Y-2.65
X5.3Y-2.75
X5.3Y-2.85
X5.3Y-2.95
X5.3Y-3.05
X5.3Y-3.15
X5.3Y-3.25
X5.3Y-3.35
X5.3Y-3.45
X5.3Y-3.55
X5.3Y-3.65
X5.3Y-3.75
X5.3Y-3.85
X5.3Y-3.95
X5.3Y-4.05
X5.3Y-4.15
X5.3Y-4.25
X5.3Y-4.35
X5.3Y-4.45
X5.3Y-4.55
X5.3Y-4.65
X5.3Y-4.75
X5.3Y-4.85
X5.3Y-4.95
T8
X3.2143Y-4.0
X3.2159Y-2.5757
X3.216Y-2.8183
X3.2202Y-3.7638
X3.2773Y-4.9764
X3.2794Y-5.2283
X3.9743Y-4.0
X3.9759Y-2.5757
X3.976Y-2.8183
X3.9802Y-3.7638
X4.0373Y-4.9764
X4.0394Y-5.2283
T9
X2.8413Y-3.7441
X2.8413Y-3.8425
X2.8413Y-3.9409
X2.8413Y-4.0394
X2.8483Y-4.9724
X2.8483Y-5.0709
X2.8483Y-5.1693
X2.8483Y-5.2677
X2.9058Y-2.5954
X2.9058Y-2.6938
X2.9058Y-2.7923
X2.9058Y-2.8907
X5.4656Y-2.4006
X5.564Y-2.4006
X5.6624Y-2.4006
X5.6673Y-5.5394
X5.7608Y-2.4006
X5.7657Y-5.5394
X5.8642Y-5.5394
X5.9626Y-5.5394
T10
X2.7Y-2.1
X2.7Y-5.8
X6.8Y-2.1
X6.8Y-5.8
T0
M30
