%TF.GenerationSoftware,KiCad,Pcbnew,7.0.7*%
%TF.CreationDate,2024-01-13T11:42:56-05:00*%
%TF.ProjectId,FinalTeensyBreakoutBoard,46696e61-6c54-4656-956e-737942726561,rev?*%
%TF.SameCoordinates,Original*%
%TF.FileFunction,Copper,L1,Top*%
%TF.FilePolarity,Positive*%
%FSLAX46Y46*%
G04 Gerber Fmt 4.6, Leading zero omitted, Abs format (unit mm)*
G04 Created by KiCad (PCBNEW 7.0.7) date 2024-01-13 11:42:56*
%MOMM*%
%LPD*%
G01*
G04 APERTURE LIST*
G04 Aperture macros list*
%AMRoundRect*
0 Rectangle with rounded corners*
0 $1 Rounding radius*
0 $2 $3 $4 $5 $6 $7 $8 $9 X,Y pos of 4 corners*
0 Add a 4 corners polygon primitive as box body*
4,1,4,$2,$3,$4,$5,$6,$7,$8,$9,$2,$3,0*
0 Add four circle primitives for the rounded corners*
1,1,$1+$1,$2,$3*
1,1,$1+$1,$4,$5*
1,1,$1+$1,$6,$7*
1,1,$1+$1,$8,$9*
0 Add four rect primitives between the rounded corners*
20,1,$1+$1,$2,$3,$4,$5,0*
20,1,$1+$1,$4,$5,$6,$7,0*
20,1,$1+$1,$6,$7,$8,$9,0*
20,1,$1+$1,$8,$9,$2,$3,0*%
G04 Aperture macros list end*
%TA.AperFunction,ComponentPad*%
%ADD10C,7.400000*%
%TD*%
%TA.AperFunction,ComponentPad*%
%ADD11C,1.752600*%
%TD*%
%TA.AperFunction,ComponentPad*%
%ADD12R,1.397000X1.397000*%
%TD*%
%TA.AperFunction,ComponentPad*%
%ADD13C,1.397000*%
%TD*%
%TA.AperFunction,ComponentPad*%
%ADD14C,1.498600*%
%TD*%
%TA.AperFunction,ComponentPad*%
%ADD15R,1.625600X1.625600*%
%TD*%
%TA.AperFunction,ComponentPad*%
%ADD16C,1.625600*%
%TD*%
%TA.AperFunction,SMDPad,CuDef*%
%ADD17RoundRect,0.150000X-0.150000X0.512500X-0.150000X-0.512500X0.150000X-0.512500X0.150000X0.512500X0*%
%TD*%
%TA.AperFunction,ComponentPad*%
%ADD18R,1.320800X1.320800*%
%TD*%
%TA.AperFunction,ComponentPad*%
%ADD19C,1.320800*%
%TD*%
%TA.AperFunction,SMDPad,CuDef*%
%ADD20RoundRect,0.150000X0.587500X0.150000X-0.587500X0.150000X-0.587500X-0.150000X0.587500X-0.150000X0*%
%TD*%
%TA.AperFunction,SMDPad,CuDef*%
%ADD21RoundRect,0.150000X-0.150000X0.587500X-0.150000X-0.587500X0.150000X-0.587500X0.150000X0.587500X0*%
%TD*%
%TA.AperFunction,ComponentPad*%
%ADD22RoundRect,0.250000X0.725000X-0.600000X0.725000X0.600000X-0.725000X0.600000X-0.725000X-0.600000X0*%
%TD*%
%TA.AperFunction,ComponentPad*%
%ADD23O,1.950000X1.700000*%
%TD*%
%TA.AperFunction,ComponentPad*%
%ADD24R,1.600000X1.600000*%
%TD*%
%TA.AperFunction,ComponentPad*%
%ADD25C,1.600000*%
%TD*%
%TA.AperFunction,ComponentPad*%
%ADD26R,1.300000X1.300000*%
%TD*%
%TA.AperFunction,ComponentPad*%
%ADD27C,1.300000*%
%TD*%
%TA.AperFunction,ViaPad*%
%ADD28C,0.800000*%
%TD*%
%TA.AperFunction,Conductor*%
%ADD29C,0.250000*%
%TD*%
G04 APERTURE END LIST*
D10*
%TO.P,REF\u002A\u002A,1*%
%TO.N,N/C*%
X172720000Y-147320000D03*
%TD*%
D11*
%TO.P,J7,1,Pin_1*%
%TO.N,GND*%
X138825000Y-60975000D03*
%TO.P,J7,2,Pin_2*%
X141325000Y-60975000D03*
%TO.P,J7,3,Pin_3*%
X143825000Y-60975000D03*
%TO.P,J7,4,Pin_4*%
X146325000Y-60975000D03*
%TD*%
D12*
%TO.P,R_PullDownMC1,1*%
%TO.N,GND*%
X142625000Y-82840000D03*
D13*
%TO.P,R_PullDownMC1,2*%
%TO.N,Net-(LevelShifterMC(5->3.3)1-S)*%
X142625000Y-71410000D03*
%TD*%
D14*
%TO.P,J12,1,Pin_1*%
%TO.N,/WCLK2*%
X118500000Y-141800000D03*
%TO.P,J12,2,Pin_2*%
%TO.N,/WDAT2*%
X121000000Y-141800000D03*
%TD*%
D11*
%TO.P,J6,1,Pin_1*%
%TO.N,GND*%
X151450000Y-140700000D03*
%TO.P,J6,2,Pin_2*%
%TO.N,+5V*%
X148950000Y-140700000D03*
%TO.P,J6,3,Pin_3*%
%TO.N,/RX1*%
X146450000Y-140700000D03*
%TO.P,J6,4,Pin_4*%
%TO.N,/TX1*%
X143950000Y-140700000D03*
%TD*%
D15*
%TO.P,R5,1*%
%TO.N,/A2*%
X102548000Y-126400000D03*
D16*
%TO.P,R5,2*%
%TO.N,/A2'*%
X83244000Y-126400000D03*
%TD*%
D17*
%TO.P,U5,1,VCC*%
%TO.N,+5V*%
X89596000Y-108325000D03*
%TO.P,U5,2,GND*%
%TO.N,GND*%
X88646000Y-108325000D03*
%TO.P,U5,3,RO*%
%TO.N,/Enc1B*%
X87696000Y-108325000D03*
%TO.P,U5,4,B*%
%TO.N,/B1'*%
X87696000Y-110600000D03*
%TO.P,U5,5,VL*%
%TO.N,+3.3V*%
X88646000Y-110600000D03*
%TO.P,U5,6,A*%
%TO.N,/B1*%
X89596000Y-110600000D03*
%TD*%
D10*
%TO.P,REF\u002A\u002A,1*%
%TO.N,N/C*%
X68580000Y-53340000D03*
%TD*%
%TO.P,REF\u002A\u002A,1*%
%TO.N,N/C*%
X172720000Y-53340000D03*
%TD*%
D18*
%TO.P,C2,1*%
%TO.N,GND*%
X94988000Y-59023700D03*
D19*
%TO.P,C2,2*%
%TO.N,+5V*%
X92488000Y-59023700D03*
%TD*%
D18*
%TO.P,C1,1*%
%TO.N,GND*%
X96138000Y-78333700D03*
D19*
%TO.P,C1,2*%
%TO.N,+5V*%
X93638000Y-78333700D03*
%TD*%
D17*
%TO.P,U3,1,VCC*%
%TO.N,+5V*%
X88728000Y-77078700D03*
%TO.P,U3,2,GND*%
%TO.N,GND*%
X87778000Y-77078700D03*
%TO.P,U3,3,RO*%
%TO.N,/EncB*%
X86828000Y-77078700D03*
%TO.P,U3,4,B*%
%TO.N,/B'*%
X86828000Y-79353700D03*
%TO.P,U3,5,VL*%
%TO.N,+3.3V*%
X87778000Y-79353700D03*
%TO.P,U3,6,A*%
%TO.N,/B*%
X88728000Y-79353700D03*
%TD*%
D14*
%TO.P,J13,1,Pin_1*%
%TO.N,+5V*%
X108800000Y-60800000D03*
%TO.P,J13,2,Pin_2*%
X111300000Y-60800000D03*
%TO.P,J13,3,Pin_3*%
X113800000Y-60800000D03*
%TD*%
%TO.P,J3,1,Pin_1*%
%TO.N,/RX*%
X160669801Y-130975100D03*
%TO.P,J3,2,Pin_2*%
%TO.N,/TX*%
X160669801Y-128475100D03*
%TO.P,J3,3,Pin_3*%
%TO.N,GND*%
X160669801Y-125975100D03*
%TD*%
D20*
%TO.P,LevelShifterUWB(5->3.3)1,1,G*%
%TO.N,/RX1*%
X146257500Y-99610000D03*
%TO.P,LevelShifterUWB(5->3.3)1,2,S*%
%TO.N,Net-(LevelShifterUWB(5->3.3)1-S)*%
X146257500Y-97710000D03*
%TO.P,LevelShifterUWB(5->3.3)1,3,D*%
%TO.N,+3.3V*%
X144382500Y-98660000D03*
%TD*%
D21*
%TO.P,LevelShifterMC(5->3.3)1,1,G*%
%TO.N,/RX*%
X149750000Y-71345000D03*
%TO.P,LevelShifterMC(5->3.3)1,2,S*%
%TO.N,Net-(LevelShifterMC(5->3.3)1-S)*%
X147850000Y-71345000D03*
%TO.P,LevelShifterMC(5->3.3)1,3,D*%
%TO.N,+3.3V*%
X148800000Y-73220000D03*
%TD*%
D11*
%TO.P,J10,1,Pin_1*%
%TO.N,/A2*%
X72348000Y-126300000D03*
%TO.P,J10,2,Pin_2*%
%TO.N,/A2'*%
X72348000Y-128800000D03*
%TO.P,J10,3,Pin_3*%
%TO.N,/B2*%
X72348000Y-131300000D03*
%TO.P,J10,4,Pin_4*%
%TO.N,/B2'*%
X72348000Y-133800000D03*
%TD*%
D15*
%TO.P,R6,1*%
%TO.N,/B2*%
X102600000Y-132800000D03*
D16*
%TO.P,R6,2*%
%TO.N,/B2'*%
X83296000Y-132800000D03*
%TD*%
D15*
%TO.P,R2,1*%
%TO.N,/B*%
X100990000Y-71583700D03*
D16*
%TO.P,R2,2*%
%TO.N,/B'*%
X81686000Y-71583700D03*
%TD*%
D14*
%TO.P,J11,1,Pin_1*%
%TO.N,/WCLK1*%
X107500000Y-141820000D03*
%TO.P,J11,2,Pin_2*%
%TO.N,/WDAT1*%
X110000000Y-141820000D03*
%TD*%
D17*
%TO.P,U2,1,VCC*%
%TO.N,+5V*%
X88538000Y-57736200D03*
%TO.P,U2,2,GND*%
%TO.N,GND*%
X87588000Y-57736200D03*
%TO.P,U2,3,RO*%
%TO.N,/EncA*%
X86638000Y-57736200D03*
%TO.P,U2,4,B*%
%TO.N,/A'*%
X86638000Y-60011200D03*
%TO.P,U2,5,VL*%
%TO.N,+3.3V*%
X87588000Y-60011200D03*
%TO.P,U2,6,A*%
%TO.N,/A*%
X88538000Y-60011200D03*
%TD*%
D18*
%TO.P,C3,1*%
%TO.N,GND*%
X96546000Y-87800000D03*
D19*
%TO.P,C3,2*%
%TO.N,+5V*%
X94046000Y-87800000D03*
%TD*%
D14*
%TO.P,J2,1,Pin_1*%
%TO.N,/RX*%
X160620000Y-116280000D03*
%TO.P,J2,2,Pin_2*%
%TO.N,/TX*%
X160620000Y-113780000D03*
%TO.P,J2,3,Pin_3*%
%TO.N,GND*%
X160620000Y-111280000D03*
%TD*%
D22*
%TO.P,J5,1,Pin_1*%
%TO.N,/SDA*%
X159750000Y-87500000D03*
D23*
%TO.P,J5,2,Pin_2*%
%TO.N,/SCL*%
X159750000Y-85000000D03*
%TO.P,J5,3,Pin_3*%
%TO.N,+3.3V*%
X159750000Y-82500000D03*
%TO.P,J5,4,Pin_4*%
%TO.N,GND*%
X159750000Y-80000000D03*
%TD*%
D17*
%TO.P,U6,1,VCC*%
%TO.N,+5V*%
X90298000Y-118462500D03*
%TO.P,U6,2,GND*%
%TO.N,GND*%
X89348000Y-118462500D03*
%TO.P,U6,3,RO*%
%TO.N,/Enc2A*%
X88398000Y-118462500D03*
%TO.P,U6,4,B*%
%TO.N,/A2'*%
X88398000Y-120737500D03*
%TO.P,U6,5,VL*%
%TO.N,+3.3V*%
X89348000Y-120737500D03*
%TO.P,U6,6,A*%
%TO.N,/A2*%
X90298000Y-120737500D03*
%TD*%
D14*
%TO.P,J4,1,Pin_1*%
%TO.N,/RX*%
X160470000Y-101080000D03*
%TO.P,J4,2,Pin_2*%
%TO.N,/TX*%
X160470000Y-98580000D03*
%TO.P,J4,3,Pin_3*%
%TO.N,GND*%
X160470000Y-96080000D03*
%TD*%
D10*
%TO.P,REF\u002A\u002A,1*%
%TO.N,N/C*%
X68580000Y-147320000D03*
%TD*%
D18*
%TO.P,C6,1*%
%TO.N,+5V*%
X93698000Y-139800000D03*
D19*
%TO.P,C6,2*%
%TO.N,GND*%
X96198000Y-139800000D03*
%TD*%
D14*
%TO.P,J1,1,Pin_1*%
%TO.N,+5V*%
X130954900Y-141800000D03*
%TO.P,J1,2,Pin_2*%
%TO.N,GND*%
X133454900Y-141800000D03*
%TD*%
D17*
%TO.P,U7,1,VCC*%
%TO.N,+5V*%
X89898000Y-138800000D03*
%TO.P,U7,2,GND*%
%TO.N,GND*%
X88948000Y-138800000D03*
%TO.P,U7,3,RO*%
%TO.N,/Enc2B*%
X87998000Y-138800000D03*
%TO.P,U7,4,B*%
%TO.N,/B2'*%
X87998000Y-141075000D03*
%TO.P,U7,5,VL*%
%TO.N,+3.3V*%
X88948000Y-141075000D03*
%TO.P,U7,6,A*%
%TO.N,/B2*%
X89898000Y-141075000D03*
%TD*%
D11*
%TO.P,J9,1,Pin_1*%
%TO.N,/A1*%
X72168000Y-95100000D03*
%TO.P,J9,2,Pin_2*%
%TO.N,/A1'*%
X72168000Y-97600000D03*
%TO.P,J9,3,Pin_3*%
%TO.N,/B1*%
X72168000Y-100100000D03*
%TO.P,J9,4,Pin_4*%
%TO.N,/B1'*%
X72168000Y-102600000D03*
%TD*%
D15*
%TO.P,R3,1*%
%TO.N,/A1*%
X101096000Y-95600000D03*
D16*
%TO.P,R3,2*%
%TO.N,/A1'*%
X81792000Y-95600000D03*
%TD*%
D17*
%TO.P,U4,1,VCC*%
%TO.N,+5V*%
X88796000Y-86600000D03*
%TO.P,U4,2,GND*%
%TO.N,GND*%
X87846000Y-86600000D03*
%TO.P,U4,3,RO*%
%TO.N,/Enc1A*%
X86896000Y-86600000D03*
%TO.P,U4,4,B*%
%TO.N,/A1'*%
X86896000Y-88875000D03*
%TO.P,U4,5,VL*%
%TO.N,+3.3V*%
X87846000Y-88875000D03*
%TO.P,U4,6,A*%
%TO.N,/A1*%
X88796000Y-88875000D03*
%TD*%
D15*
%TO.P,R1,1*%
%TO.N,/A*%
X100988000Y-65423700D03*
D16*
%TO.P,R1,2*%
%TO.N,/A'*%
X81684000Y-65423700D03*
%TD*%
D15*
%TO.P,R4,1*%
%TO.N,/B1*%
X100948000Y-101600000D03*
D16*
%TO.P,R4,2*%
%TO.N,/B1'*%
X81644000Y-101600000D03*
%TD*%
D18*
%TO.P,C4,1*%
%TO.N,GND*%
X95696000Y-109600000D03*
D19*
%TO.P,C4,2*%
%TO.N,+5V*%
X93196000Y-109600000D03*
%TD*%
D18*
%TO.P,C5,1*%
%TO.N,GND*%
X97398000Y-119400000D03*
D19*
%TO.P,C5,2*%
%TO.N,+5V*%
X94898000Y-119400000D03*
%TD*%
D11*
%TO.P,J8,1,Pin_1*%
%TO.N,/A*%
X73808000Y-65923700D03*
%TO.P,J8,2,Pin_2*%
%TO.N,/A'*%
X73808000Y-68423700D03*
%TO.P,J8,3,Pin_3*%
%TO.N,/B*%
X73808000Y-70923700D03*
%TO.P,J8,4,Pin_4*%
%TO.N,/B'*%
X73808000Y-73423700D03*
%TD*%
D12*
%TO.P,R_PullDownUWB1,1*%
%TO.N,GND*%
X151505000Y-92730000D03*
D13*
%TO.P,R_PullDownUWB1,2*%
%TO.N,Net-(LevelShifterUWB(5->3.3)1-S)*%
X140075000Y-92730000D03*
%TD*%
D24*
%TO.P,U1,1,GND*%
%TO.N,GND*%
X119380000Y-67310000D03*
D25*
%TO.P,U1,2,0_RX1_CRX2_CS1*%
%TO.N,Net-(LevelShifterMC(5->3.3)1-S)*%
X119380000Y-69850000D03*
%TO.P,U1,3,1_TX1_CTX2_MISO1*%
%TO.N,/TX*%
X119380000Y-72390000D03*
%TO.P,U1,4,2_OUT2*%
%TO.N,/EncA*%
X119380000Y-74930000D03*
%TO.P,U1,5,3_LRCLK2*%
%TO.N,/EncB*%
X119380000Y-77470000D03*
%TO.P,U1,6,4_BCLK2*%
%TO.N,/Enc1A*%
X119380000Y-80010000D03*
%TO.P,U1,7,5_IN2*%
%TO.N,/Enc1B*%
X119380000Y-82550000D03*
%TO.P,U1,8,6_OUT1D*%
%TO.N,/Enc2A*%
X119380000Y-85090000D03*
%TO.P,U1,9,7_RX2_OUT1A*%
%TO.N,/Enc2B*%
X119380000Y-87630000D03*
%TO.P,U1,10,8_TX2_IN1*%
%TO.N,unconnected-(U1-8_TX2_IN1-Pad10)*%
X119380000Y-90170000D03*
%TO.P,U1,11,9_OUT1C*%
%TO.N,unconnected-(U1-9_OUT1C-Pad11)*%
X119380000Y-92710000D03*
%TO.P,U1,12,10_CS_MQSR*%
%TO.N,unconnected-(U1-10_CS_MQSR-Pad12)*%
X119380000Y-95250000D03*
%TO.P,U1,13,11_MOSI_CTX1*%
%TO.N,/MOSI*%
X119380000Y-97790000D03*
%TO.P,U1,14,12_MISO_MQSL*%
%TO.N,/MISO*%
X119380000Y-100330000D03*
%TO.P,U1,15,3V3*%
%TO.N,+3.3V*%
X119380000Y-102870000D03*
%TO.P,U1,16,24_A10_TX6_SCL2*%
%TO.N,unconnected-(U1-24_A10_TX6_SCL2-Pad16)*%
X119380000Y-105410000D03*
%TO.P,U1,17,25_A11_RX6_SDA2*%
%TO.N,unconnected-(U1-25_A11_RX6_SDA2-Pad17)*%
X119380000Y-107950000D03*
%TO.P,U1,18,26_A12_MOSI1*%
%TO.N,/WCLK1*%
X119380000Y-110490000D03*
%TO.P,U1,19,27_A13_SCK1*%
%TO.N,/WDAT1*%
X119380000Y-113030000D03*
%TO.P,U1,20,28_RX7*%
%TO.N,/WCLK2*%
X119380000Y-115570000D03*
%TO.P,U1,21,29_TX7*%
%TO.N,/WDAT2*%
X119380000Y-118110000D03*
%TO.P,U1,22,30_CRX3*%
%TO.N,unconnected-(U1-30_CRX3-Pad22)*%
X119380000Y-120650000D03*
%TO.P,U1,23,31_CTX3*%
%TO.N,unconnected-(U1-31_CTX3-Pad23)*%
X119380000Y-123190000D03*
%TO.P,U1,24,32_OUT1B*%
%TO.N,unconnected-(U1-32_OUT1B-Pad24)*%
X119380000Y-125730000D03*
%TO.P,U1,25,33_MCLK2*%
%TO.N,unconnected-(U1-33_MCLK2-Pad25)*%
X134620000Y-125730000D03*
%TO.P,U1,26,34_RX8*%
%TO.N,unconnected-(U1-34_RX8-Pad26)*%
X134620000Y-123190000D03*
%TO.P,U1,27,35_TX8*%
%TO.N,unconnected-(U1-35_TX8-Pad27)*%
X134620000Y-120650000D03*
%TO.P,U1,28,36_CS*%
%TO.N,unconnected-(U1-36_CS-Pad28)*%
X134620000Y-118110000D03*
%TO.P,U1,29,37_CS*%
%TO.N,unconnected-(U1-37_CS-Pad29)*%
X134620000Y-115570000D03*
%TO.P,U1,30,38_CS1_IN1*%
%TO.N,unconnected-(U1-38_CS1_IN1-Pad30)*%
X134620000Y-113030000D03*
%TO.P,U1,31,39_MISO1_OUT1A*%
%TO.N,unconnected-(U1-39_MISO1_OUT1A-Pad31)*%
X134620000Y-110490000D03*
%TO.P,U1,32,40_A16*%
%TO.N,unconnected-(U1-40_A16-Pad32)*%
X134620000Y-107950000D03*
%TO.P,U1,33,41_A17*%
%TO.N,unconnected-(U1-41_A17-Pad33)*%
X134620000Y-105410000D03*
%TO.P,U1,34,GND*%
%TO.N,GND*%
X134620000Y-102870000D03*
%TO.P,U1,35,13_SCK_LED*%
%TO.N,/SCK*%
X134620000Y-100330000D03*
%TO.P,U1,36,14_A0_TX3_SPDIF_OUT*%
%TO.N,unconnected-(U1-14_A0_TX3_SPDIF_OUT-Pad36)*%
X134620000Y-97790000D03*
%TO.P,U1,37,15_A1_RX3_SPDIF_IN*%
%TO.N,unconnected-(U1-15_A1_RX3_SPDIF_IN-Pad37)*%
X134620000Y-95250000D03*
%TO.P,U1,38,16_A2_RX4_SCL1*%
%TO.N,Net-(LevelShifterUWB(5->3.3)1-S)*%
X134620000Y-92710000D03*
%TO.P,U1,39,17_A3_TX4_SDA1*%
%TO.N,/TX1*%
X134620000Y-90170000D03*
%TO.P,U1,40,18_A4_SDA*%
%TO.N,/SDA*%
X134620000Y-87630000D03*
%TO.P,U1,41,19_A5_SCL*%
%TO.N,/SCL*%
X134620000Y-85090000D03*
%TO.P,U1,42,20_A6_TX5_LRCLK1*%
%TO.N,unconnected-(U1-20_A6_TX5_LRCLK1-Pad42)*%
X134620000Y-82550000D03*
%TO.P,U1,43,21_A7_RX5_BCLK1*%
%TO.N,unconnected-(U1-21_A7_RX5_BCLK1-Pad43)*%
X134620000Y-80010000D03*
%TO.P,U1,44,22_A8_CTX1*%
%TO.N,unconnected-(U1-22_A8_CTX1-Pad44)*%
X134620000Y-77470000D03*
%TO.P,U1,45,23_A9_CRX1_MCLK1*%
%TO.N,unconnected-(U1-23_A9_CRX1_MCLK1-Pad45)*%
X134620000Y-74930000D03*
%TO.P,U1,46,3V3*%
%TO.N,unconnected-(U1-3V3-Pad46)*%
X134620000Y-72390000D03*
%TO.P,U1,47,GND*%
%TO.N,+3.3V*%
X134620000Y-69850000D03*
%TO.P,U1,48,VIN*%
%TO.N,GND*%
X134620000Y-67310000D03*
%TO.P,U1,49,VUSB*%
%TO.N,unconnected-(U1-VUSB-Pad49)*%
X132080000Y-69850000D03*
%TO.P,U1,50,VBAT*%
%TO.N,unconnected-(U1-VBAT-Pad50)*%
X121920000Y-113030000D03*
%TO.P,U1,51,3V3*%
%TO.N,unconnected-(U1-3V3-Pad51)*%
X124460000Y-113030000D03*
%TO.P,U1,52,GND*%
%TO.N,unconnected-(U1-GND-Pad52)*%
X127000000Y-113030000D03*
%TO.P,U1,53,PROGRAM*%
%TO.N,unconnected-(U1-PROGRAM-Pad53)*%
X129540000Y-113030000D03*
%TO.P,U1,54,ON_OFF*%
%TO.N,unconnected-(U1-ON_OFF-Pad54)*%
X132080000Y-113030000D03*
D24*
%TO.P,U1,55,5V*%
%TO.N,unconnected-(U1-5V-Pad55)*%
X122430800Y-73609200D03*
D25*
%TO.P,U1,56,D-*%
%TO.N,unconnected-(U1-D--Pad56)*%
X122430800Y-76149200D03*
%TO.P,U1,57,D+*%
%TO.N,unconnected-(U1-D+-Pad57)*%
X122430800Y-78689200D03*
%TO.P,U1,58,GND*%
%TO.N,unconnected-(U1-GND-Pad58)*%
X122430800Y-81229200D03*
%TO.P,U1,59,GND*%
%TO.N,unconnected-(U1-GND-Pad59)*%
X122430800Y-83769200D03*
D26*
%TO.P,U1,60,R+*%
%TO.N,unconnected-(U1-R+-Pad60)*%
X132181600Y-80280000D03*
D27*
%TO.P,U1,61,LED*%
%TO.N,unconnected-(U1-LED-Pad61)*%
X130181600Y-80280000D03*
%TO.P,U1,62,T-*%
%TO.N,unconnected-(U1-T--Pad62)*%
X128181600Y-80280000D03*
%TO.P,U1,63,T+*%
%TO.N,unconnected-(U1-T+-Pad63)*%
X128181600Y-82280000D03*
%TO.P,U1,64,GND*%
%TO.N,unconnected-(U1-GND-Pad64)*%
X130181600Y-82280000D03*
%TO.P,U1,65,R-*%
%TO.N,unconnected-(U1-R--Pad65)*%
X132181600Y-82280000D03*
%TO.P,U1,66,D-*%
%TO.N,unconnected-(U1-D--Pad66)*%
X128270000Y-68040000D03*
%TO.P,U1,67,D+*%
%TO.N,unconnected-(U1-D+-Pad67)*%
X125730000Y-68040000D03*
%TD*%
D28*
%TO.N,+3.3V*%
X89400000Y-122600000D03*
X90200000Y-78200000D03*
X89400000Y-91400000D03*
X86000000Y-112000000D03*
X87789443Y-142334710D03*
X150400000Y-75600000D03*
X142200000Y-98800000D03*
X87600000Y-61800000D03*
%TD*%
D29*
%TO.N,+3.3V*%
X87846000Y-89846000D02*
X87846000Y-88875000D01*
X87630251Y-112000000D02*
X88646000Y-110984251D01*
X87600000Y-60023200D02*
X87588000Y-60011200D01*
X148800000Y-70885749D02*
X147764251Y-69850000D01*
X89400000Y-91400000D02*
X87846000Y-89846000D01*
X147764251Y-69850000D02*
X134620000Y-69850000D01*
X142200000Y-98800000D02*
X144242500Y-98800000D01*
X86000000Y-112000000D02*
X87630251Y-112000000D01*
X89400000Y-122600000D02*
X89400000Y-120789500D01*
X150400000Y-75600000D02*
X150400000Y-74820000D01*
X87778000Y-78969449D02*
X88547449Y-78200000D01*
X87600000Y-61800000D02*
X87600000Y-60023200D01*
X148800000Y-73220000D02*
X148800000Y-70885749D01*
X87789443Y-142334710D02*
X88072541Y-142334710D01*
X88646000Y-110984251D02*
X88646000Y-110600000D01*
X88948000Y-141459251D02*
X88948000Y-141075000D01*
X88072541Y-142334710D02*
X88948000Y-141459251D01*
X87778000Y-79353700D02*
X87778000Y-78969449D01*
X150400000Y-74820000D02*
X148800000Y-73220000D01*
X88547449Y-78200000D02*
X90200000Y-78200000D01*
X144242500Y-98800000D02*
X144382500Y-98660000D01*
X89400000Y-120789500D02*
X89348000Y-120737500D01*
%TO.N,+5V*%
X90898000Y-139800000D02*
X93698000Y-139800000D01*
X88538000Y-57736200D02*
X91200500Y-57736200D01*
X94046000Y-87800000D02*
X89996000Y-87800000D01*
X93196000Y-109600000D02*
X91921000Y-108325000D01*
X89996000Y-87800000D02*
X88796000Y-86600000D01*
X91921000Y-108325000D02*
X89596000Y-108325000D01*
X91235500Y-119400000D02*
X90298000Y-118462500D01*
X88538000Y-58120451D02*
X88538000Y-57736200D01*
X111300000Y-60800000D02*
X108800000Y-60800000D01*
X91200500Y-57736200D02*
X92488000Y-59023700D01*
X93638000Y-78333700D02*
X92383000Y-77078700D01*
X92383000Y-77078700D02*
X88728000Y-77078700D01*
X108800000Y-60800000D02*
X94264300Y-60800000D01*
X94898000Y-119400000D02*
X91235500Y-119400000D01*
X94264300Y-60800000D02*
X92488000Y-59023700D01*
X113800000Y-60800000D02*
X111300000Y-60800000D01*
X89898000Y-138800000D02*
X90898000Y-139800000D01*
%TO.N,GND*%
X94988000Y-59023700D02*
X92188000Y-56223700D01*
X88716249Y-56223700D02*
X87588000Y-57351949D01*
X88861749Y-85200000D02*
X87846000Y-86215749D01*
X93178000Y-75373700D02*
X89098749Y-75373700D01*
X87846000Y-86215749D02*
X87846000Y-86600000D01*
X89348000Y-117800000D02*
X89348000Y-118462500D01*
X95473000Y-117475000D02*
X89673000Y-117475000D01*
X96138000Y-78333700D02*
X93178000Y-75373700D01*
X93946000Y-85200000D02*
X88861749Y-85200000D01*
X89098749Y-75373700D02*
X87778000Y-76694449D01*
X92188000Y-56223700D02*
X88716249Y-56223700D01*
X93296000Y-107200000D02*
X89386749Y-107200000D01*
X88948000Y-138415749D02*
X89551249Y-137812500D01*
X95696000Y-109600000D02*
X93296000Y-107200000D01*
X87588000Y-57351949D02*
X87588000Y-57736200D01*
X88948000Y-138800000D02*
X88948000Y-138415749D01*
X87778000Y-76694449D02*
X87778000Y-77078700D01*
X94210500Y-137812500D02*
X96198000Y-139800000D01*
X89386749Y-107200000D02*
X88646000Y-107940749D01*
X89673000Y-117475000D02*
X89348000Y-117800000D01*
X89551249Y-137812500D02*
X94210500Y-137812500D01*
X88646000Y-107940749D02*
X88646000Y-108325000D01*
X97398000Y-119400000D02*
X95473000Y-117475000D01*
X96546000Y-87800000D02*
X93946000Y-85200000D01*
%TO.N,/A*%
X73808000Y-65923700D02*
X74684300Y-66800000D01*
X93950500Y-65423700D02*
X100988000Y-65423700D01*
X88538000Y-59626949D02*
X88538000Y-60011200D01*
X99611700Y-66800000D02*
X100988000Y-65423700D01*
X88538000Y-60011200D02*
X93950500Y-65423700D01*
X74684300Y-66800000D02*
X99611700Y-66800000D01*
%TO.N,/A'*%
X72988000Y-63823700D02*
X80084000Y-63823700D01*
X80084000Y-63823700D02*
X81684000Y-65423700D01*
X86638000Y-60011200D02*
X86638000Y-60469700D01*
X71788000Y-65023700D02*
X72988000Y-63823700D01*
X73808000Y-68423700D02*
X71788000Y-66403700D01*
X86638000Y-60469700D02*
X81684000Y-65423700D01*
X71788000Y-66403700D02*
X71788000Y-65023700D01*
%TO.N,/B*%
X72188000Y-74423700D02*
X78388000Y-80623700D01*
X73808000Y-70923700D02*
X72188000Y-72543700D01*
X88728000Y-79737951D02*
X88728000Y-79353700D01*
X78388000Y-80623700D02*
X87842251Y-80623700D01*
X88728000Y-79353700D02*
X90018000Y-80643700D01*
X72188000Y-72543700D02*
X72188000Y-74423700D01*
X100990000Y-77791700D02*
X100990000Y-71583700D01*
X90018000Y-80643700D02*
X98138000Y-80643700D01*
X98138000Y-80643700D02*
X100990000Y-77791700D01*
X87842251Y-80623700D02*
X88728000Y-79737951D01*
%TO.N,/B'*%
X81686000Y-74211700D02*
X81686000Y-71583700D01*
X79846000Y-73423700D02*
X81686000Y-71583700D01*
X73808000Y-73423700D02*
X79846000Y-73423700D01*
X86828000Y-79353700D02*
X81686000Y-74211700D01*
%TO.N,/A1*%
X72168000Y-95100000D02*
X79380500Y-87887500D01*
X88192751Y-87887500D02*
X88796000Y-88490749D01*
X95521000Y-95600000D02*
X101096000Y-95600000D01*
X88796000Y-88875000D02*
X95521000Y-95600000D01*
X79380500Y-87887500D02*
X88192751Y-87887500D01*
X88796000Y-88490749D02*
X88796000Y-88875000D01*
%TO.N,/A1'*%
X81792000Y-93979000D02*
X81792000Y-95600000D01*
X81792000Y-95600000D02*
X74168000Y-95600000D01*
X86896000Y-88875000D02*
X81792000Y-93979000D01*
X74168000Y-95600000D02*
X72168000Y-97600000D01*
%TO.N,/B1*%
X70948000Y-101320000D02*
X70948000Y-107800000D01*
X96948000Y-111600000D02*
X100948000Y-107600000D01*
X90596000Y-111600000D02*
X96948000Y-111600000D01*
X72168000Y-100100000D02*
X70948000Y-101320000D01*
X76548000Y-113400000D02*
X87180251Y-113400000D01*
X87180251Y-113400000D02*
X89596000Y-110984251D01*
X89596000Y-110600000D02*
X90596000Y-111600000D01*
X70948000Y-107800000D02*
X76548000Y-113400000D01*
X89596000Y-110984251D02*
X89596000Y-110600000D01*
X100948000Y-107600000D02*
X100948000Y-101600000D01*
%TO.N,/B1'*%
X80644000Y-102600000D02*
X81644000Y-101600000D01*
X87696000Y-110600000D02*
X81644000Y-104548000D01*
X72168000Y-102600000D02*
X80644000Y-102600000D01*
X81644000Y-104548000D02*
X81644000Y-101600000D01*
%TO.N,/A2*%
X90298000Y-120737500D02*
X95960500Y-126400000D01*
X90298000Y-120353249D02*
X89544751Y-119600000D01*
X79048000Y-119600000D02*
X72348000Y-126300000D01*
X90298000Y-120737500D02*
X90298000Y-120353249D01*
X89544751Y-119600000D02*
X79048000Y-119600000D01*
X95960500Y-126400000D02*
X102548000Y-126400000D01*
%TO.N,/A2'*%
X88398000Y-121246000D02*
X83244000Y-126400000D01*
X74748000Y-126400000D02*
X72348000Y-128800000D01*
X88398000Y-120737500D02*
X88398000Y-121246000D01*
X83244000Y-126400000D02*
X74748000Y-126400000D01*
%TO.N,/B2*%
X89898000Y-141075000D02*
X97473000Y-141075000D01*
X97473000Y-141075000D02*
X102600000Y-135948000D01*
X70548000Y-135800000D02*
X70548000Y-133100000D01*
X70548000Y-133100000D02*
X72348000Y-131300000D01*
X77948000Y-143200000D02*
X70548000Y-135800000D01*
X89000000Y-143200000D02*
X77948000Y-143200000D01*
X102600000Y-135948000D02*
X102600000Y-132800000D01*
X89898000Y-142302000D02*
X89000000Y-143200000D01*
X89898000Y-141075000D02*
X89898000Y-142302000D01*
%TO.N,/B2'*%
X83296000Y-132800000D02*
X73348000Y-132800000D01*
X87998000Y-141075000D02*
X83296000Y-136373000D01*
X73348000Y-132800000D02*
X72348000Y-133800000D01*
X83296000Y-136373000D02*
X83296000Y-132800000D01*
%TO.N,/RX*%
X160669801Y-130975100D02*
X161744101Y-129900800D01*
X161694300Y-115205700D02*
X161694300Y-102304300D01*
X161544300Y-100005700D02*
X161544300Y-80007599D01*
X160470000Y-101080000D02*
X161544300Y-100005700D01*
X161744101Y-129900800D02*
X161744101Y-117404101D01*
X161694300Y-102304300D02*
X160470000Y-101080000D01*
X161744101Y-117404101D02*
X160620000Y-116280000D01*
X160620000Y-116280000D02*
X161694300Y-115205700D01*
X161544300Y-80007599D02*
X152881701Y-71345000D01*
X152881701Y-71345000D02*
X149750000Y-71345000D01*
%TO.N,/TX*%
X160470000Y-98580000D02*
X150690000Y-88800000D01*
X160620000Y-113780000D02*
X159395700Y-112555700D01*
X132400000Y-88800000D02*
X125600000Y-82000000D01*
X125600000Y-74400000D02*
X123590000Y-72390000D01*
X160669801Y-128475100D02*
X159545700Y-127350999D01*
X159395700Y-99654300D02*
X160470000Y-98580000D01*
X159545700Y-127350999D02*
X159545700Y-114854300D01*
X123590000Y-72390000D02*
X119380000Y-72390000D01*
X150690000Y-88800000D02*
X132400000Y-88800000D01*
X125600000Y-82000000D02*
X125600000Y-74400000D01*
X159545700Y-114854300D02*
X160620000Y-113780000D01*
X159395700Y-112555700D02*
X159395700Y-99654300D01*
%TO.N,/SDA*%
X134620000Y-87630000D02*
X159620000Y-87630000D01*
X159620000Y-87630000D02*
X159750000Y-87500000D01*
%TO.N,/SCL*%
X134710000Y-85000000D02*
X134620000Y-85090000D01*
X159750000Y-85000000D02*
X134710000Y-85000000D01*
%TO.N,/RX1*%
X146450000Y-99802500D02*
X146450000Y-140700000D01*
X146257500Y-99610000D02*
X146450000Y-99802500D01*
%TO.N,/TX1*%
X134154009Y-96375000D02*
X133400000Y-95620991D01*
X138400000Y-135150000D02*
X138400000Y-99200000D01*
X133400000Y-95620991D02*
X133400000Y-91390000D01*
X135575000Y-96375000D02*
X134154009Y-96375000D01*
X133400000Y-91390000D02*
X134620000Y-90170000D01*
X138400000Y-99200000D02*
X135575000Y-96375000D01*
X143950000Y-140700000D02*
X138400000Y-135150000D01*
%TO.N,Net-(LevelShifterMC(5->3.3)1-S)*%
X120795000Y-71265000D02*
X119380000Y-69850000D01*
X147785000Y-71410000D02*
X147850000Y-71345000D01*
X142480000Y-71265000D02*
X120795000Y-71265000D01*
X119320000Y-69910000D02*
X119380000Y-69850000D01*
X142625000Y-71410000D02*
X142480000Y-71265000D01*
X142625000Y-71410000D02*
X147785000Y-71410000D01*
%TO.N,Net-(LevelShifterUWB(5->3.3)1-S)*%
X145055000Y-97710000D02*
X140075000Y-92730000D01*
X146257500Y-97710000D02*
X145055000Y-97710000D01*
X140075000Y-92730000D02*
X134640000Y-92730000D01*
X134640000Y-92730000D02*
X134620000Y-92710000D01*
%TO.N,/WCLK1*%
X107500000Y-122370000D02*
X107500000Y-141820000D01*
X119380000Y-110490000D02*
X107500000Y-122370000D01*
%TO.N,/WDAT1*%
X119380000Y-113030000D02*
X110000000Y-122410000D01*
X110000000Y-122410000D02*
X110000000Y-141820000D01*
%TO.N,/WCLK2*%
X116800000Y-118150000D02*
X119380000Y-115570000D01*
X118500000Y-141800000D02*
X116800000Y-140100000D01*
X116800000Y-140100000D02*
X116800000Y-118150000D01*
%TO.N,/WDAT2*%
X121600000Y-141200000D02*
X121600000Y-120330000D01*
X121000000Y-141800000D02*
X121600000Y-141200000D01*
X121600000Y-120330000D02*
X119380000Y-118110000D01*
%TO.N,/EncA*%
X86638000Y-58120451D02*
X87517549Y-59000000D01*
X90000000Y-59000000D02*
X94000000Y-63000000D01*
X86638000Y-57736200D02*
X86638000Y-58120451D01*
X107450000Y-63000000D02*
X119380000Y-74930000D01*
X94000000Y-63000000D02*
X107450000Y-63000000D01*
X87517549Y-59000000D02*
X90000000Y-59000000D01*
%TO.N,/EncB*%
X104800000Y-69200000D02*
X113070000Y-77470000D01*
X86828000Y-77078700D02*
X86828000Y-76694449D01*
X113070000Y-77470000D02*
X119380000Y-77470000D01*
X86828000Y-76694449D02*
X94322449Y-69200000D01*
X94322449Y-69200000D02*
X104800000Y-69200000D01*
%TO.N,/Enc1A*%
X115790000Y-83600000D02*
X119380000Y-80010000D01*
X86896000Y-84104000D02*
X87400000Y-83600000D01*
X86896000Y-86600000D02*
X86896000Y-84104000D01*
X87400000Y-83600000D02*
X115790000Y-83600000D01*
%TO.N,/Enc1B*%
X97036749Y-98600000D02*
X103330000Y-98600000D01*
X87696000Y-107940749D02*
X97036749Y-98600000D01*
X103330000Y-98600000D02*
X119380000Y-82550000D01*
X87696000Y-108325000D02*
X87696000Y-107940749D01*
%TO.N,/Enc2A*%
X91676249Y-114800000D02*
X101200000Y-114800000D01*
X113000000Y-103000000D02*
X113000000Y-91470000D01*
X88398000Y-118462500D02*
X88398000Y-118078249D01*
X113000000Y-91470000D02*
X119380000Y-85090000D01*
X101200000Y-114800000D02*
X113000000Y-103000000D01*
X88398000Y-118078249D02*
X91676249Y-114800000D01*
%TO.N,/Enc2B*%
X115600000Y-91410000D02*
X119380000Y-87630000D01*
X105400000Y-119600000D02*
X115600000Y-109400000D01*
X103600000Y-129800000D02*
X105400000Y-128000000D01*
X115600000Y-109400000D02*
X115600000Y-91410000D01*
X96613749Y-129800000D02*
X103600000Y-129800000D01*
X105400000Y-128000000D02*
X105400000Y-119600000D01*
X87998000Y-138415749D02*
X96613749Y-129800000D01*
X87998000Y-138800000D02*
X87998000Y-138415749D01*
%TD*%
M02*
