%TF.GenerationSoftware,KiCad,Pcbnew,7.0.7*%
%TF.CreationDate,2024-01-13T11:42:56-05:00*%
%TF.ProjectId,FinalTeensyBreakoutBoard,46696e61-6c54-4656-956e-737942726561,rev?*%
%TF.SameCoordinates,Original*%
%TF.FileFunction,Copper,L2,Bot*%
%TF.FilePolarity,Positive*%
%FSLAX46Y46*%
G04 Gerber Fmt 4.6, Leading zero omitted, Abs format (unit mm)*
G04 Created by KiCad (PCBNEW 7.0.7) date 2024-01-13 11:42:56*
%MOMM*%
%LPD*%
G01*
G04 APERTURE LIST*
G04 Aperture macros list*
%AMRoundRect*
0 Rectangle with rounded corners*
0 $1 Rounding radius*
0 $2 $3 $4 $5 $6 $7 $8 $9 X,Y pos of 4 corners*
0 Add a 4 corners polygon primitive as box body*
4,1,4,$2,$3,$4,$5,$6,$7,$8,$9,$2,$3,0*
0 Add four circle primitives for the rounded corners*
1,1,$1+$1,$2,$3*
1,1,$1+$1,$4,$5*
1,1,$1+$1,$6,$7*
1,1,$1+$1,$8,$9*
0 Add four rect primitives between the rounded corners*
20,1,$1+$1,$2,$3,$4,$5,0*
20,1,$1+$1,$4,$5,$6,$7,0*
20,1,$1+$1,$6,$7,$8,$9,0*
20,1,$1+$1,$8,$9,$2,$3,0*%
G04 Aperture macros list end*
%TA.AperFunction,ComponentPad*%
%ADD10C,7.400000*%
%TD*%
%TA.AperFunction,ComponentPad*%
%ADD11C,1.752600*%
%TD*%
%TA.AperFunction,ComponentPad*%
%ADD12R,1.397000X1.397000*%
%TD*%
%TA.AperFunction,ComponentPad*%
%ADD13C,1.397000*%
%TD*%
%TA.AperFunction,ComponentPad*%
%ADD14C,1.498600*%
%TD*%
%TA.AperFunction,ComponentPad*%
%ADD15R,1.625600X1.625600*%
%TD*%
%TA.AperFunction,ComponentPad*%
%ADD16C,1.625600*%
%TD*%
%TA.AperFunction,ComponentPad*%
%ADD17R,1.320800X1.320800*%
%TD*%
%TA.AperFunction,ComponentPad*%
%ADD18C,1.320800*%
%TD*%
%TA.AperFunction,ComponentPad*%
%ADD19RoundRect,0.250000X0.725000X-0.600000X0.725000X0.600000X-0.725000X0.600000X-0.725000X-0.600000X0*%
%TD*%
%TA.AperFunction,ComponentPad*%
%ADD20O,1.950000X1.700000*%
%TD*%
%TA.AperFunction,ComponentPad*%
%ADD21R,1.600000X1.600000*%
%TD*%
%TA.AperFunction,ComponentPad*%
%ADD22C,1.600000*%
%TD*%
%TA.AperFunction,ComponentPad*%
%ADD23R,1.300000X1.300000*%
%TD*%
%TA.AperFunction,ComponentPad*%
%ADD24C,1.300000*%
%TD*%
%TA.AperFunction,ViaPad*%
%ADD25C,0.800000*%
%TD*%
%TA.AperFunction,Conductor*%
%ADD26C,0.250000*%
%TD*%
G04 APERTURE END LIST*
D10*
%TO.P,REF\u002A\u002A,1*%
%TO.N,N/C*%
X172720000Y-147320000D03*
%TD*%
D11*
%TO.P,J7,1,Pin_1*%
%TO.N,GND*%
X138825000Y-60975000D03*
%TO.P,J7,2,Pin_2*%
X141325000Y-60975000D03*
%TO.P,J7,3,Pin_3*%
X143825000Y-60975000D03*
%TO.P,J7,4,Pin_4*%
X146325000Y-60975000D03*
%TD*%
D12*
%TO.P,R_PullDownMC1,1*%
%TO.N,GND*%
X142625000Y-82840000D03*
D13*
%TO.P,R_PullDownMC1,2*%
%TO.N,Net-(LevelShifterMC(5->3.3)1-S)*%
X142625000Y-71410000D03*
%TD*%
D14*
%TO.P,J12,1,Pin_1*%
%TO.N,/WCLK2*%
X118500000Y-141800000D03*
%TO.P,J12,2,Pin_2*%
%TO.N,/WDAT2*%
X121000000Y-141800000D03*
%TD*%
D11*
%TO.P,J6,1,Pin_1*%
%TO.N,GND*%
X151450000Y-140700000D03*
%TO.P,J6,2,Pin_2*%
%TO.N,+5V*%
X148950000Y-140700000D03*
%TO.P,J6,3,Pin_3*%
%TO.N,/RX1*%
X146450000Y-140700000D03*
%TO.P,J6,4,Pin_4*%
%TO.N,/TX1*%
X143950000Y-140700000D03*
%TD*%
D15*
%TO.P,R5,1*%
%TO.N,/A2*%
X102548000Y-126400000D03*
D16*
%TO.P,R5,2*%
%TO.N,/A2'*%
X83244000Y-126400000D03*
%TD*%
D10*
%TO.P,REF\u002A\u002A,1*%
%TO.N,N/C*%
X68580000Y-53340000D03*
%TD*%
%TO.P,REF\u002A\u002A,1*%
%TO.N,N/C*%
X172720000Y-53340000D03*
%TD*%
D17*
%TO.P,C2,1*%
%TO.N,GND*%
X94988000Y-59023700D03*
D18*
%TO.P,C2,2*%
%TO.N,+5V*%
X92488000Y-59023700D03*
%TD*%
D17*
%TO.P,C1,1*%
%TO.N,GND*%
X96138000Y-78333700D03*
D18*
%TO.P,C1,2*%
%TO.N,+5V*%
X93638000Y-78333700D03*
%TD*%
D14*
%TO.P,J13,1,Pin_1*%
%TO.N,+5V*%
X108800000Y-60800000D03*
%TO.P,J13,2,Pin_2*%
X111300000Y-60800000D03*
%TO.P,J13,3,Pin_3*%
X113800000Y-60800000D03*
%TD*%
%TO.P,J3,1,Pin_1*%
%TO.N,/RX*%
X160669801Y-130975100D03*
%TO.P,J3,2,Pin_2*%
%TO.N,/TX*%
X160669801Y-128475100D03*
%TO.P,J3,3,Pin_3*%
%TO.N,GND*%
X160669801Y-125975100D03*
%TD*%
D11*
%TO.P,J10,1,Pin_1*%
%TO.N,/A2*%
X72348000Y-126300000D03*
%TO.P,J10,2,Pin_2*%
%TO.N,/A2'*%
X72348000Y-128800000D03*
%TO.P,J10,3,Pin_3*%
%TO.N,/B2*%
X72348000Y-131300000D03*
%TO.P,J10,4,Pin_4*%
%TO.N,/B2'*%
X72348000Y-133800000D03*
%TD*%
D15*
%TO.P,R6,1*%
%TO.N,/B2*%
X102600000Y-132800000D03*
D16*
%TO.P,R6,2*%
%TO.N,/B2'*%
X83296000Y-132800000D03*
%TD*%
D15*
%TO.P,R2,1*%
%TO.N,/B*%
X100990000Y-71583700D03*
D16*
%TO.P,R2,2*%
%TO.N,/B'*%
X81686000Y-71583700D03*
%TD*%
D14*
%TO.P,J11,1,Pin_1*%
%TO.N,/WCLK1*%
X107500000Y-141820000D03*
%TO.P,J11,2,Pin_2*%
%TO.N,/WDAT1*%
X110000000Y-141820000D03*
%TD*%
D17*
%TO.P,C3,1*%
%TO.N,GND*%
X96546000Y-87800000D03*
D18*
%TO.P,C3,2*%
%TO.N,+5V*%
X94046000Y-87800000D03*
%TD*%
D14*
%TO.P,J2,1,Pin_1*%
%TO.N,/RX*%
X160620000Y-116280000D03*
%TO.P,J2,2,Pin_2*%
%TO.N,/TX*%
X160620000Y-113780000D03*
%TO.P,J2,3,Pin_3*%
%TO.N,GND*%
X160620000Y-111280000D03*
%TD*%
D19*
%TO.P,J5,1,Pin_1*%
%TO.N,/SDA*%
X159750000Y-87500000D03*
D20*
%TO.P,J5,2,Pin_2*%
%TO.N,/SCL*%
X159750000Y-85000000D03*
%TO.P,J5,3,Pin_3*%
%TO.N,+3.3V*%
X159750000Y-82500000D03*
%TO.P,J5,4,Pin_4*%
%TO.N,GND*%
X159750000Y-80000000D03*
%TD*%
D14*
%TO.P,J4,1,Pin_1*%
%TO.N,/RX*%
X160470000Y-101080000D03*
%TO.P,J4,2,Pin_2*%
%TO.N,/TX*%
X160470000Y-98580000D03*
%TO.P,J4,3,Pin_3*%
%TO.N,GND*%
X160470000Y-96080000D03*
%TD*%
D10*
%TO.P,REF\u002A\u002A,1*%
%TO.N,N/C*%
X68580000Y-147320000D03*
%TD*%
D17*
%TO.P,C6,1*%
%TO.N,+5V*%
X93698000Y-139800000D03*
D18*
%TO.P,C6,2*%
%TO.N,GND*%
X96198000Y-139800000D03*
%TD*%
D14*
%TO.P,J1,1,Pin_1*%
%TO.N,+5V*%
X130954900Y-141800000D03*
%TO.P,J1,2,Pin_2*%
%TO.N,GND*%
X133454900Y-141800000D03*
%TD*%
D11*
%TO.P,J9,1,Pin_1*%
%TO.N,/A1*%
X72168000Y-95100000D03*
%TO.P,J9,2,Pin_2*%
%TO.N,/A1'*%
X72168000Y-97600000D03*
%TO.P,J9,3,Pin_3*%
%TO.N,/B1*%
X72168000Y-100100000D03*
%TO.P,J9,4,Pin_4*%
%TO.N,/B1'*%
X72168000Y-102600000D03*
%TD*%
D15*
%TO.P,R3,1*%
%TO.N,/A1*%
X101096000Y-95600000D03*
D16*
%TO.P,R3,2*%
%TO.N,/A1'*%
X81792000Y-95600000D03*
%TD*%
D15*
%TO.P,R1,1*%
%TO.N,/A*%
X100988000Y-65423700D03*
D16*
%TO.P,R1,2*%
%TO.N,/A'*%
X81684000Y-65423700D03*
%TD*%
D15*
%TO.P,R4,1*%
%TO.N,/B1*%
X100948000Y-101600000D03*
D16*
%TO.P,R4,2*%
%TO.N,/B1'*%
X81644000Y-101600000D03*
%TD*%
D17*
%TO.P,C4,1*%
%TO.N,GND*%
X95696000Y-109600000D03*
D18*
%TO.P,C4,2*%
%TO.N,+5V*%
X93196000Y-109600000D03*
%TD*%
D17*
%TO.P,C5,1*%
%TO.N,GND*%
X97398000Y-119400000D03*
D18*
%TO.P,C5,2*%
%TO.N,+5V*%
X94898000Y-119400000D03*
%TD*%
D11*
%TO.P,J8,1,Pin_1*%
%TO.N,/A*%
X73808000Y-65923700D03*
%TO.P,J8,2,Pin_2*%
%TO.N,/A'*%
X73808000Y-68423700D03*
%TO.P,J8,3,Pin_3*%
%TO.N,/B*%
X73808000Y-70923700D03*
%TO.P,J8,4,Pin_4*%
%TO.N,/B'*%
X73808000Y-73423700D03*
%TD*%
D12*
%TO.P,R_PullDownUWB1,1*%
%TO.N,GND*%
X151505000Y-92730000D03*
D13*
%TO.P,R_PullDownUWB1,2*%
%TO.N,Net-(LevelShifterUWB(5->3.3)1-S)*%
X140075000Y-92730000D03*
%TD*%
D21*
%TO.P,U1,1,GND*%
%TO.N,GND*%
X119380000Y-67310000D03*
D22*
%TO.P,U1,2,0_RX1_CRX2_CS1*%
%TO.N,Net-(LevelShifterMC(5->3.3)1-S)*%
X119380000Y-69850000D03*
%TO.P,U1,3,1_TX1_CTX2_MISO1*%
%TO.N,/TX*%
X119380000Y-72390000D03*
%TO.P,U1,4,2_OUT2*%
%TO.N,/EncA*%
X119380000Y-74930000D03*
%TO.P,U1,5,3_LRCLK2*%
%TO.N,/EncB*%
X119380000Y-77470000D03*
%TO.P,U1,6,4_BCLK2*%
%TO.N,/Enc1A*%
X119380000Y-80010000D03*
%TO.P,U1,7,5_IN2*%
%TO.N,/Enc1B*%
X119380000Y-82550000D03*
%TO.P,U1,8,6_OUT1D*%
%TO.N,/Enc2A*%
X119380000Y-85090000D03*
%TO.P,U1,9,7_RX2_OUT1A*%
%TO.N,/Enc2B*%
X119380000Y-87630000D03*
%TO.P,U1,10,8_TX2_IN1*%
%TO.N,unconnected-(U1-8_TX2_IN1-Pad10)*%
X119380000Y-90170000D03*
%TO.P,U1,11,9_OUT1C*%
%TO.N,unconnected-(U1-9_OUT1C-Pad11)*%
X119380000Y-92710000D03*
%TO.P,U1,12,10_CS_MQSR*%
%TO.N,unconnected-(U1-10_CS_MQSR-Pad12)*%
X119380000Y-95250000D03*
%TO.P,U1,13,11_MOSI_CTX1*%
%TO.N,/MOSI*%
X119380000Y-97790000D03*
%TO.P,U1,14,12_MISO_MQSL*%
%TO.N,/MISO*%
X119380000Y-100330000D03*
%TO.P,U1,15,3V3*%
%TO.N,+3.3V*%
X119380000Y-102870000D03*
%TO.P,U1,16,24_A10_TX6_SCL2*%
%TO.N,unconnected-(U1-24_A10_TX6_SCL2-Pad16)*%
X119380000Y-105410000D03*
%TO.P,U1,17,25_A11_RX6_SDA2*%
%TO.N,unconnected-(U1-25_A11_RX6_SDA2-Pad17)*%
X119380000Y-107950000D03*
%TO.P,U1,18,26_A12_MOSI1*%
%TO.N,/WCLK1*%
X119380000Y-110490000D03*
%TO.P,U1,19,27_A13_SCK1*%
%TO.N,/WDAT1*%
X119380000Y-113030000D03*
%TO.P,U1,20,28_RX7*%
%TO.N,/WCLK2*%
X119380000Y-115570000D03*
%TO.P,U1,21,29_TX7*%
%TO.N,/WDAT2*%
X119380000Y-118110000D03*
%TO.P,U1,22,30_CRX3*%
%TO.N,unconnected-(U1-30_CRX3-Pad22)*%
X119380000Y-120650000D03*
%TO.P,U1,23,31_CTX3*%
%TO.N,unconnected-(U1-31_CTX3-Pad23)*%
X119380000Y-123190000D03*
%TO.P,U1,24,32_OUT1B*%
%TO.N,unconnected-(U1-32_OUT1B-Pad24)*%
X119380000Y-125730000D03*
%TO.P,U1,25,33_MCLK2*%
%TO.N,unconnected-(U1-33_MCLK2-Pad25)*%
X134620000Y-125730000D03*
%TO.P,U1,26,34_RX8*%
%TO.N,unconnected-(U1-34_RX8-Pad26)*%
X134620000Y-123190000D03*
%TO.P,U1,27,35_TX8*%
%TO.N,unconnected-(U1-35_TX8-Pad27)*%
X134620000Y-120650000D03*
%TO.P,U1,28,36_CS*%
%TO.N,unconnected-(U1-36_CS-Pad28)*%
X134620000Y-118110000D03*
%TO.P,U1,29,37_CS*%
%TO.N,unconnected-(U1-37_CS-Pad29)*%
X134620000Y-115570000D03*
%TO.P,U1,30,38_CS1_IN1*%
%TO.N,unconnected-(U1-38_CS1_IN1-Pad30)*%
X134620000Y-113030000D03*
%TO.P,U1,31,39_MISO1_OUT1A*%
%TO.N,unconnected-(U1-39_MISO1_OUT1A-Pad31)*%
X134620000Y-110490000D03*
%TO.P,U1,32,40_A16*%
%TO.N,unconnected-(U1-40_A16-Pad32)*%
X134620000Y-107950000D03*
%TO.P,U1,33,41_A17*%
%TO.N,unconnected-(U1-41_A17-Pad33)*%
X134620000Y-105410000D03*
%TO.P,U1,34,GND*%
%TO.N,GND*%
X134620000Y-102870000D03*
%TO.P,U1,35,13_SCK_LED*%
%TO.N,/SCK*%
X134620000Y-100330000D03*
%TO.P,U1,36,14_A0_TX3_SPDIF_OUT*%
%TO.N,unconnected-(U1-14_A0_TX3_SPDIF_OUT-Pad36)*%
X134620000Y-97790000D03*
%TO.P,U1,37,15_A1_RX3_SPDIF_IN*%
%TO.N,unconnected-(U1-15_A1_RX3_SPDIF_IN-Pad37)*%
X134620000Y-95250000D03*
%TO.P,U1,38,16_A2_RX4_SCL1*%
%TO.N,Net-(LevelShifterUWB(5->3.3)1-S)*%
X134620000Y-92710000D03*
%TO.P,U1,39,17_A3_TX4_SDA1*%
%TO.N,/TX1*%
X134620000Y-90170000D03*
%TO.P,U1,40,18_A4_SDA*%
%TO.N,/SDA*%
X134620000Y-87630000D03*
%TO.P,U1,41,19_A5_SCL*%
%TO.N,/SCL*%
X134620000Y-85090000D03*
%TO.P,U1,42,20_A6_TX5_LRCLK1*%
%TO.N,unconnected-(U1-20_A6_TX5_LRCLK1-Pad42)*%
X134620000Y-82550000D03*
%TO.P,U1,43,21_A7_RX5_BCLK1*%
%TO.N,unconnected-(U1-21_A7_RX5_BCLK1-Pad43)*%
X134620000Y-80010000D03*
%TO.P,U1,44,22_A8_CTX1*%
%TO.N,unconnected-(U1-22_A8_CTX1-Pad44)*%
X134620000Y-77470000D03*
%TO.P,U1,45,23_A9_CRX1_MCLK1*%
%TO.N,unconnected-(U1-23_A9_CRX1_MCLK1-Pad45)*%
X134620000Y-74930000D03*
%TO.P,U1,46,3V3*%
%TO.N,unconnected-(U1-3V3-Pad46)*%
X134620000Y-72390000D03*
%TO.P,U1,47,GND*%
%TO.N,+3.3V*%
X134620000Y-69850000D03*
%TO.P,U1,48,VIN*%
%TO.N,GND*%
X134620000Y-67310000D03*
%TO.P,U1,49,VUSB*%
%TO.N,unconnected-(U1-VUSB-Pad49)*%
X132080000Y-69850000D03*
%TO.P,U1,50,VBAT*%
%TO.N,unconnected-(U1-VBAT-Pad50)*%
X121920000Y-113030000D03*
%TO.P,U1,51,3V3*%
%TO.N,unconnected-(U1-3V3-Pad51)*%
X124460000Y-113030000D03*
%TO.P,U1,52,GND*%
%TO.N,unconnected-(U1-GND-Pad52)*%
X127000000Y-113030000D03*
%TO.P,U1,53,PROGRAM*%
%TO.N,unconnected-(U1-PROGRAM-Pad53)*%
X129540000Y-113030000D03*
%TO.P,U1,54,ON_OFF*%
%TO.N,unconnected-(U1-ON_OFF-Pad54)*%
X132080000Y-113030000D03*
D21*
%TO.P,U1,55,5V*%
%TO.N,unconnected-(U1-5V-Pad55)*%
X122430800Y-73609200D03*
D22*
%TO.P,U1,56,D-*%
%TO.N,unconnected-(U1-D--Pad56)*%
X122430800Y-76149200D03*
%TO.P,U1,57,D+*%
%TO.N,unconnected-(U1-D+-Pad57)*%
X122430800Y-78689200D03*
%TO.P,U1,58,GND*%
%TO.N,unconnected-(U1-GND-Pad58)*%
X122430800Y-81229200D03*
%TO.P,U1,59,GND*%
%TO.N,unconnected-(U1-GND-Pad59)*%
X122430800Y-83769200D03*
D23*
%TO.P,U1,60,R+*%
%TO.N,unconnected-(U1-R+-Pad60)*%
X132181600Y-80280000D03*
D24*
%TO.P,U1,61,LED*%
%TO.N,unconnected-(U1-LED-Pad61)*%
X130181600Y-80280000D03*
%TO.P,U1,62,T-*%
%TO.N,unconnected-(U1-T--Pad62)*%
X128181600Y-80280000D03*
%TO.P,U1,63,T+*%
%TO.N,unconnected-(U1-T+-Pad63)*%
X128181600Y-82280000D03*
%TO.P,U1,64,GND*%
%TO.N,unconnected-(U1-GND-Pad64)*%
X130181600Y-82280000D03*
%TO.P,U1,65,R-*%
%TO.N,unconnected-(U1-R--Pad65)*%
X132181600Y-82280000D03*
%TO.P,U1,66,D-*%
%TO.N,unconnected-(U1-D--Pad66)*%
X128270000Y-68040000D03*
%TO.P,U1,67,D+*%
%TO.N,unconnected-(U1-D+-Pad67)*%
X125730000Y-68040000D03*
%TD*%
D25*
%TO.N,+3.3V*%
X89400000Y-122600000D03*
X90200000Y-78200000D03*
X89400000Y-91400000D03*
X86000000Y-112000000D03*
X87789443Y-142334710D03*
X150400000Y-75600000D03*
X142200000Y-98800000D03*
X87600000Y-61800000D03*
%TD*%
D26*
%TO.N,+3.3V*%
X90200000Y-90600000D02*
X89400000Y-91400000D01*
X89400000Y-140724153D02*
X87789443Y-142334710D01*
X96200000Y-57200000D02*
X92200000Y-57200000D01*
X89400000Y-91400000D02*
X89400000Y-103400000D01*
X134795991Y-101745000D02*
X120505000Y-101745000D01*
X120505000Y-101745000D02*
X119380000Y-102870000D01*
X89400000Y-122600000D02*
X89400000Y-140724153D01*
X90200000Y-78200000D02*
X90200000Y-64400000D01*
X86000000Y-112000000D02*
X86000000Y-119200000D01*
X119380000Y-102870000D02*
X118255000Y-101745000D01*
X159750000Y-82500000D02*
X157300000Y-82500000D01*
X90200000Y-64400000D02*
X87600000Y-61800000D01*
X92200000Y-57200000D02*
X87600000Y-61800000D01*
X86000000Y-119200000D02*
X89400000Y-122600000D01*
X89400000Y-103400000D02*
X86000000Y-106800000D01*
X118255000Y-101745000D02*
X118255000Y-79255000D01*
X142200000Y-98800000D02*
X137740991Y-98800000D01*
X118255000Y-79255000D02*
X96200000Y-57200000D01*
X86000000Y-106800000D02*
X86000000Y-112000000D01*
X159750000Y-82500000D02*
X158500000Y-82500000D01*
X157300000Y-82500000D02*
X150400000Y-75600000D01*
X137740991Y-98800000D02*
X134795991Y-101745000D01*
X158500000Y-82500000D02*
X142200000Y-98800000D01*
X90200000Y-78200000D02*
X90200000Y-90600000D01*
%TO.N,+5V*%
X96792300Y-142894300D02*
X93698000Y-139800000D01*
X148950000Y-140700000D02*
X146775700Y-142874300D01*
X93638000Y-60173700D02*
X93638000Y-78333700D01*
X130954900Y-141800000D02*
X129860600Y-142894300D01*
X93638000Y-87392000D02*
X94046000Y-87800000D01*
X146775700Y-142874300D02*
X132029200Y-142874300D01*
X94898000Y-119400000D02*
X94898000Y-138600000D01*
X94046000Y-108750000D02*
X93196000Y-109600000D01*
X132029200Y-142874300D02*
X130954900Y-141800000D01*
X92488000Y-59023700D02*
X93638000Y-60173700D01*
X129860600Y-142894300D02*
X96792300Y-142894300D01*
X94898000Y-138600000D02*
X93698000Y-139800000D01*
X93196000Y-109600000D02*
X93196000Y-117698000D01*
X93196000Y-117698000D02*
X94898000Y-119400000D01*
X94046000Y-87800000D02*
X94046000Y-108750000D01*
X93638000Y-78333700D02*
X93638000Y-87392000D01*
%TD*%
%TA.AperFunction,Conductor*%
%TO.N,GND*%
G36*
X169253790Y-50740185D02*
G01*
X169299545Y-50792989D01*
X169309489Y-50862147D01*
X169286349Y-50918367D01*
X169223198Y-51003515D01*
X169011024Y-51357506D01*
X168834562Y-51730604D01*
X168834555Y-51730620D01*
X168695527Y-52119178D01*
X168595244Y-52519528D01*
X168595242Y-52519535D01*
X168595243Y-52519535D01*
X168534685Y-52927782D01*
X168514434Y-53340000D01*
X168534685Y-53752218D01*
X168534685Y-53752223D01*
X168534686Y-53752227D01*
X168595244Y-54160471D01*
X168695527Y-54560821D01*
X168834555Y-54949379D01*
X168834562Y-54949395D01*
X168834564Y-54949400D01*
X169011022Y-55322490D01*
X169011024Y-55322493D01*
X169223198Y-55676484D01*
X169469058Y-56007988D01*
X169746215Y-56313784D01*
X170052011Y-56590941D01*
X170052017Y-56590946D01*
X170383513Y-56836800D01*
X170737510Y-57048978D01*
X171110600Y-57225436D01*
X171110609Y-57225439D01*
X171110620Y-57225444D01*
X171471738Y-57354654D01*
X171499189Y-57364476D01*
X171899535Y-57464757D01*
X172307782Y-57525315D01*
X172720000Y-57545566D01*
X173132218Y-57525315D01*
X173540465Y-57464757D01*
X173940811Y-57364476D01*
X174121380Y-57299866D01*
X174329379Y-57225444D01*
X174329385Y-57225441D01*
X174329400Y-57225436D01*
X174702490Y-57048978D01*
X175056487Y-56836800D01*
X175141633Y-56773650D01*
X175207206Y-56749527D01*
X175275412Y-56764683D01*
X175324596Y-56814308D01*
X175339500Y-56873249D01*
X175339500Y-143786750D01*
X175319815Y-143853789D01*
X175267011Y-143899544D01*
X175197853Y-143909488D01*
X175141634Y-143886348D01*
X175056490Y-143823201D01*
X174702493Y-143611024D01*
X174702494Y-143611024D01*
X174702490Y-143611022D01*
X174329400Y-143434564D01*
X174329396Y-143434562D01*
X174329395Y-143434562D01*
X174329379Y-143434555D01*
X173940821Y-143295527D01*
X173940815Y-143295525D01*
X173940811Y-143295524D01*
X173700023Y-143235210D01*
X173540471Y-143195244D01*
X173540466Y-143195243D01*
X173540465Y-143195243D01*
X173439577Y-143180277D01*
X173132227Y-143134686D01*
X173132223Y-143134685D01*
X173132218Y-143134685D01*
X172720000Y-143114434D01*
X172307782Y-143134685D01*
X172307776Y-143134685D01*
X172307772Y-143134686D01*
X171899528Y-143195244D01*
X171610006Y-143267766D01*
X171499189Y-143295524D01*
X171499186Y-143295524D01*
X171499178Y-143295527D01*
X171110620Y-143434555D01*
X171110604Y-143434562D01*
X170737506Y-143611024D01*
X170383515Y-143823198D01*
X170052011Y-144069058D01*
X169746215Y-144346215D01*
X169469058Y-144652011D01*
X169223198Y-144983515D01*
X169011024Y-145337506D01*
X168834562Y-145710604D01*
X168834555Y-145710620D01*
X168695527Y-146099178D01*
X168595244Y-146499528D01*
X168595242Y-146499535D01*
X168595243Y-146499535D01*
X168534685Y-146907782D01*
X168514434Y-147320000D01*
X168534685Y-147732218D01*
X168534685Y-147732223D01*
X168534686Y-147732227D01*
X168595244Y-148140471D01*
X168695527Y-148540821D01*
X168834555Y-148929379D01*
X168834562Y-148929395D01*
X168834564Y-148929400D01*
X169011022Y-149302490D01*
X169011024Y-149302493D01*
X169223198Y-149656484D01*
X169286349Y-149741633D01*
X169310473Y-149807206D01*
X169295317Y-149875412D01*
X169245692Y-149924596D01*
X169186751Y-149939500D01*
X72113249Y-149939500D01*
X72046210Y-149919815D01*
X72000455Y-149867011D01*
X71990511Y-149797853D01*
X72013651Y-149741633D01*
X72076800Y-149656487D01*
X72288978Y-149302490D01*
X72465436Y-148929400D01*
X72604476Y-148540811D01*
X72704757Y-148140465D01*
X72765315Y-147732218D01*
X72785566Y-147320000D01*
X72765315Y-146907782D01*
X72704757Y-146499535D01*
X72604476Y-146099189D01*
X72594654Y-146071738D01*
X72465444Y-145710620D01*
X72465437Y-145710604D01*
X72465436Y-145710600D01*
X72288978Y-145337510D01*
X72076800Y-144983513D01*
X71830946Y-144652017D01*
X71830941Y-144652011D01*
X71553784Y-144346215D01*
X71247988Y-144069058D01*
X71034159Y-143910472D01*
X70916487Y-143823200D01*
X70562490Y-143611022D01*
X70189400Y-143434564D01*
X70189396Y-143434562D01*
X70189395Y-143434562D01*
X70189379Y-143434555D01*
X69800821Y-143295527D01*
X69800815Y-143295525D01*
X69800811Y-143295524D01*
X69560023Y-143235210D01*
X69400471Y-143195244D01*
X69400466Y-143195243D01*
X69400465Y-143195243D01*
X69299577Y-143180277D01*
X68992227Y-143134686D01*
X68992223Y-143134685D01*
X68992218Y-143134685D01*
X68580000Y-143114434D01*
X68579999Y-143114434D01*
X68543696Y-143116217D01*
X68167782Y-143134685D01*
X68167776Y-143134685D01*
X68167772Y-143134686D01*
X67759528Y-143195244D01*
X67470006Y-143267766D01*
X67359189Y-143295524D01*
X67359186Y-143295524D01*
X67359178Y-143295527D01*
X66970620Y-143434555D01*
X66970604Y-143434562D01*
X66597506Y-143611024D01*
X66243509Y-143823201D01*
X66158366Y-143886348D01*
X66092793Y-143910472D01*
X66024587Y-143895316D01*
X65975403Y-143845690D01*
X65960500Y-143786750D01*
X65960500Y-133800005D01*
X70966481Y-133800005D01*
X70985321Y-134027383D01*
X70985323Y-134027391D01*
X71041335Y-134248577D01*
X71132989Y-134457529D01*
X71257787Y-134648548D01*
X71412319Y-134816413D01*
X71412323Y-134816417D01*
X71592381Y-134956561D01*
X71793050Y-135065158D01*
X72008857Y-135139245D01*
X72233915Y-135176800D01*
X72462085Y-135176800D01*
X72687143Y-135139245D01*
X72902950Y-135065158D01*
X73103619Y-134956561D01*
X73283677Y-134816417D01*
X73438213Y-134648547D01*
X73563010Y-134457530D01*
X73654664Y-134248578D01*
X73710677Y-134027391D01*
X73717778Y-133941695D01*
X73729519Y-133800005D01*
X73729519Y-133799994D01*
X73710678Y-133572616D01*
X73710677Y-133572613D01*
X73710677Y-133572609D01*
X73654664Y-133351422D01*
X73563010Y-133142470D01*
X73488830Y-133028928D01*
X73438212Y-132951451D01*
X73298791Y-132800001D01*
X81977683Y-132800001D01*
X81997710Y-133028917D01*
X81997712Y-133028928D01*
X82057184Y-133250883D01*
X82057186Y-133250887D01*
X82057187Y-133250891D01*
X82154304Y-133459159D01*
X82286111Y-133647398D01*
X82448602Y-133809889D01*
X82636841Y-133941696D01*
X82845109Y-134038813D01*
X83067077Y-134098289D01*
X83230593Y-134112594D01*
X83295998Y-134118317D01*
X83296000Y-134118317D01*
X83296002Y-134118317D01*
X83353368Y-134113298D01*
X83524923Y-134098289D01*
X83746891Y-134038813D01*
X83955159Y-133941696D01*
X84143398Y-133809889D01*
X84305889Y-133647398D01*
X84437696Y-133459159D01*
X84534813Y-133250891D01*
X84594289Y-133028923D01*
X84614317Y-132800000D01*
X84594289Y-132571077D01*
X84534813Y-132349109D01*
X84437696Y-132140842D01*
X84382205Y-132061593D01*
X84305892Y-131952606D01*
X84305887Y-131952600D01*
X84143398Y-131790111D01*
X83955165Y-131658308D01*
X83955159Y-131658304D01*
X83893719Y-131629654D01*
X83746891Y-131561187D01*
X83746887Y-131561186D01*
X83746883Y-131561184D01*
X83524928Y-131501712D01*
X83524924Y-131501711D01*
X83524923Y-131501711D01*
X83524922Y-131501710D01*
X83524917Y-131501710D01*
X83296002Y-131481683D01*
X83295998Y-131481683D01*
X83067082Y-131501710D01*
X83067071Y-131501712D01*
X82845116Y-131561184D01*
X82845107Y-131561188D01*
X82636842Y-131658303D01*
X82636840Y-131658304D01*
X82448606Y-131790107D01*
X82448600Y-131790112D01*
X82286112Y-131952600D01*
X82286107Y-131952606D01*
X82154304Y-132140840D01*
X82154303Y-132140842D01*
X82057188Y-132349107D01*
X82057184Y-132349116D01*
X81997712Y-132571071D01*
X81997710Y-132571082D01*
X81977683Y-132799998D01*
X81977683Y-132800001D01*
X73298791Y-132800001D01*
X73283680Y-132783586D01*
X73283676Y-132783582D01*
X73109291Y-132647854D01*
X73068478Y-132591143D01*
X73064803Y-132521370D01*
X73099434Y-132460687D01*
X73109291Y-132452146D01*
X73283677Y-132316417D01*
X73438213Y-132148547D01*
X73563010Y-131957530D01*
X73654664Y-131748578D01*
X73710677Y-131527391D01*
X73714049Y-131486700D01*
X73729519Y-131300005D01*
X73729519Y-131299994D01*
X73710678Y-131072616D01*
X73710677Y-131072613D01*
X73710677Y-131072609D01*
X73654664Y-130851422D01*
X73563010Y-130642470D01*
X73563009Y-130642469D01*
X73438212Y-130451451D01*
X73283680Y-130283586D01*
X73283676Y-130283582D01*
X73109291Y-130147854D01*
X73068478Y-130091143D01*
X73064803Y-130021370D01*
X73099434Y-129960687D01*
X73109291Y-129952146D01*
X73190925Y-129888608D01*
X73283677Y-129816417D01*
X73438213Y-129648547D01*
X73563010Y-129457530D01*
X73654664Y-129248578D01*
X73710677Y-129027391D01*
X73720886Y-128904190D01*
X73729519Y-128800005D01*
X73729519Y-128799994D01*
X73710678Y-128572616D01*
X73710677Y-128572613D01*
X73710677Y-128572609D01*
X73654664Y-128351422D01*
X73563010Y-128142470D01*
X73563009Y-128142470D01*
X73438212Y-127951451D01*
X73283680Y-127783586D01*
X73283676Y-127783582D01*
X73193374Y-127713298D01*
X73109290Y-127647853D01*
X73068478Y-127591143D01*
X73064803Y-127521370D01*
X73099434Y-127460687D01*
X73109291Y-127452146D01*
X73283677Y-127316417D01*
X73438213Y-127148547D01*
X73563010Y-126957530D01*
X73654664Y-126748578D01*
X73710677Y-126527391D01*
X73721233Y-126400001D01*
X81925683Y-126400001D01*
X81945710Y-126628917D01*
X81945712Y-126628928D01*
X82005184Y-126850883D01*
X82005186Y-126850887D01*
X82005187Y-126850891D01*
X82102304Y-127059159D01*
X82234111Y-127247398D01*
X82396602Y-127409889D01*
X82584841Y-127541696D01*
X82793109Y-127638813D01*
X82793115Y-127638814D01*
X82793116Y-127638815D01*
X82846539Y-127653129D01*
X83015077Y-127698289D01*
X83178593Y-127712594D01*
X83243998Y-127718317D01*
X83244000Y-127718317D01*
X83244002Y-127718317D01*
X83301368Y-127713298D01*
X83472923Y-127698289D01*
X83694891Y-127638813D01*
X83903159Y-127541696D01*
X84091398Y-127409889D01*
X84253889Y-127247398D01*
X84385696Y-127059159D01*
X84482813Y-126850891D01*
X84542289Y-126628923D01*
X84562317Y-126400000D01*
X84560806Y-126382734D01*
X84542289Y-126171082D01*
X84542289Y-126171077D01*
X84482813Y-125949109D01*
X84385696Y-125740842D01*
X84378104Y-125730000D01*
X84253892Y-125552606D01*
X84253887Y-125552600D01*
X84091398Y-125390111D01*
X83903165Y-125258308D01*
X83903159Y-125258304D01*
X83841719Y-125229654D01*
X83694891Y-125161187D01*
X83694887Y-125161186D01*
X83694883Y-125161184D01*
X83472928Y-125101712D01*
X83472924Y-125101711D01*
X83472923Y-125101711D01*
X83472922Y-125101710D01*
X83472917Y-125101710D01*
X83244002Y-125081683D01*
X83243998Y-125081683D01*
X83015082Y-125101710D01*
X83015071Y-125101712D01*
X82793116Y-125161184D01*
X82793107Y-125161188D01*
X82584842Y-125258303D01*
X82584840Y-125258304D01*
X82396606Y-125390107D01*
X82396600Y-125390112D01*
X82234112Y-125552600D01*
X82234107Y-125552606D01*
X82102304Y-125740840D01*
X82102303Y-125740842D01*
X82005188Y-125949107D01*
X82005184Y-125949116D01*
X81945712Y-126171071D01*
X81945710Y-126171082D01*
X81925683Y-126399998D01*
X81925683Y-126400001D01*
X73721233Y-126400001D01*
X73729519Y-126300000D01*
X73719285Y-126176497D01*
X73710678Y-126072616D01*
X73710677Y-126072613D01*
X73710677Y-126072609D01*
X73654664Y-125851422D01*
X73563010Y-125642470D01*
X73495621Y-125539323D01*
X73438212Y-125451451D01*
X73283680Y-125283586D01*
X73283676Y-125283582D01*
X73103620Y-125143440D01*
X73103619Y-125143439D01*
X72902950Y-125034842D01*
X72902942Y-125034839D01*
X72687145Y-124960755D01*
X72462085Y-124923200D01*
X72233915Y-124923200D01*
X72008854Y-124960755D01*
X71793057Y-125034839D01*
X71793049Y-125034842D01*
X71592379Y-125143440D01*
X71412323Y-125283582D01*
X71412319Y-125283586D01*
X71257787Y-125451451D01*
X71132989Y-125642470D01*
X71041335Y-125851422D01*
X70985323Y-126072608D01*
X70985321Y-126072616D01*
X70966481Y-126299994D01*
X70966481Y-126300005D01*
X70985321Y-126527383D01*
X70985323Y-126527391D01*
X71041335Y-126748577D01*
X71132989Y-126957529D01*
X71257787Y-127148548D01*
X71412319Y-127316413D01*
X71412330Y-127316424D01*
X71586708Y-127452147D01*
X71627521Y-127508857D01*
X71631196Y-127578630D01*
X71596564Y-127639313D01*
X71586708Y-127647853D01*
X71412330Y-127783575D01*
X71412319Y-127783586D01*
X71257787Y-127951451D01*
X71132989Y-128142470D01*
X71041335Y-128351422D01*
X70985323Y-128572608D01*
X70985321Y-128572616D01*
X70966481Y-128799994D01*
X70966481Y-128800005D01*
X70985321Y-129027383D01*
X70985323Y-129027391D01*
X71041335Y-129248577D01*
X71132989Y-129457529D01*
X71257787Y-129648548D01*
X71412319Y-129816413D01*
X71412330Y-129816424D01*
X71586708Y-129952147D01*
X71627521Y-130008857D01*
X71631196Y-130078630D01*
X71596564Y-130139313D01*
X71586708Y-130147853D01*
X71412330Y-130283575D01*
X71412319Y-130283586D01*
X71257787Y-130451451D01*
X71132989Y-130642470D01*
X71041335Y-130851422D01*
X70985323Y-131072608D01*
X70985321Y-131072616D01*
X70966481Y-131299994D01*
X70966481Y-131300005D01*
X70985321Y-131527383D01*
X70985323Y-131527391D01*
X71041335Y-131748577D01*
X71132989Y-131957529D01*
X71257787Y-132148548D01*
X71412319Y-132316413D01*
X71412330Y-132316424D01*
X71586708Y-132452147D01*
X71627521Y-132508857D01*
X71631196Y-132578630D01*
X71596564Y-132639313D01*
X71586708Y-132647853D01*
X71412330Y-132783575D01*
X71412319Y-132783586D01*
X71257787Y-132951451D01*
X71132989Y-133142470D01*
X71041335Y-133351422D01*
X70985323Y-133572608D01*
X70985321Y-133572616D01*
X70966481Y-133799994D01*
X70966481Y-133800005D01*
X65960500Y-133800005D01*
X65960500Y-112000000D01*
X85094540Y-112000000D01*
X85114326Y-112188256D01*
X85114327Y-112188259D01*
X85172818Y-112368277D01*
X85172821Y-112368284D01*
X85267467Y-112532216D01*
X85310772Y-112580310D01*
X85342650Y-112615715D01*
X85372880Y-112678706D01*
X85374500Y-112698687D01*
X85374500Y-119117255D01*
X85372775Y-119132872D01*
X85373061Y-119132899D01*
X85372326Y-119140665D01*
X85374500Y-119209814D01*
X85374500Y-119239343D01*
X85374501Y-119239360D01*
X85375368Y-119246231D01*
X85375826Y-119252050D01*
X85377290Y-119298624D01*
X85377291Y-119298627D01*
X85382880Y-119317867D01*
X85386824Y-119336911D01*
X85389336Y-119356792D01*
X85398914Y-119380984D01*
X85406490Y-119400119D01*
X85408382Y-119405647D01*
X85421381Y-119450388D01*
X85431580Y-119467634D01*
X85440138Y-119485103D01*
X85447514Y-119503732D01*
X85474898Y-119541423D01*
X85478106Y-119546307D01*
X85501827Y-119586416D01*
X85501833Y-119586424D01*
X85515990Y-119600580D01*
X85528628Y-119615376D01*
X85540405Y-119631586D01*
X85540406Y-119631587D01*
X85576309Y-119661288D01*
X85580620Y-119665210D01*
X87767544Y-121852135D01*
X88461038Y-122545629D01*
X88494523Y-122606952D01*
X88496678Y-122620348D01*
X88504968Y-122699227D01*
X88514326Y-122788256D01*
X88514327Y-122788259D01*
X88572818Y-122968277D01*
X88572821Y-122968284D01*
X88667466Y-123132215D01*
X88742649Y-123215715D01*
X88772879Y-123278707D01*
X88774499Y-123298687D01*
X88774499Y-140413700D01*
X88754814Y-140480739D01*
X88738180Y-140501381D01*
X87841671Y-141397891D01*
X87780348Y-141431376D01*
X87753990Y-141434210D01*
X87694797Y-141434210D01*
X87662340Y-141441108D01*
X87509640Y-141473565D01*
X87509635Y-141473567D01*
X87336713Y-141550558D01*
X87336708Y-141550561D01*
X87183572Y-141661821D01*
X87056909Y-141802495D01*
X86962264Y-141966425D01*
X86962261Y-141966432D01*
X86914931Y-142112100D01*
X86903769Y-142146454D01*
X86883983Y-142334710D01*
X86903769Y-142522966D01*
X86903770Y-142522969D01*
X86962261Y-142702987D01*
X86962264Y-142702994D01*
X87056910Y-142866926D01*
X87183387Y-143007393D01*
X87183572Y-143007598D01*
X87336708Y-143118858D01*
X87336713Y-143118861D01*
X87509635Y-143195852D01*
X87509640Y-143195854D01*
X87694797Y-143235210D01*
X87694798Y-143235210D01*
X87884087Y-143235210D01*
X87884089Y-143235210D01*
X88069246Y-143195854D01*
X88242173Y-143118861D01*
X88395314Y-143007598D01*
X88521976Y-142866926D01*
X88616622Y-142702994D01*
X88675117Y-142522966D01*
X88692764Y-142355055D01*
X88719348Y-142290442D01*
X88728395Y-142280346D01*
X89783786Y-141224955D01*
X89796048Y-141215133D01*
X89795865Y-141214912D01*
X89801867Y-141209945D01*
X89801877Y-141209939D01*
X89849241Y-141159501D01*
X89870120Y-141138623D01*
X89874373Y-141133139D01*
X89878150Y-141128716D01*
X89910062Y-141094735D01*
X89919714Y-141077176D01*
X89930389Y-141060925D01*
X89942674Y-141045089D01*
X89961182Y-141002313D01*
X89963746Y-140997080D01*
X89986197Y-140956245D01*
X89991181Y-140936831D01*
X89997479Y-140918440D01*
X90005438Y-140900048D01*
X90012726Y-140854026D01*
X90013908Y-140848315D01*
X90025500Y-140803172D01*
X90025500Y-140783136D01*
X90027027Y-140763735D01*
X90030160Y-140743957D01*
X90025775Y-140697568D01*
X90025500Y-140691730D01*
X90025500Y-123298687D01*
X90045185Y-123231648D01*
X90057350Y-123215715D01*
X90075891Y-123195122D01*
X90132533Y-123132216D01*
X90227179Y-122968284D01*
X90285674Y-122788256D01*
X90305460Y-122600000D01*
X90285674Y-122411744D01*
X90227179Y-122231716D01*
X90132533Y-122067784D01*
X90005871Y-121927112D01*
X90005870Y-121927111D01*
X89852734Y-121815851D01*
X89852729Y-121815848D01*
X89679807Y-121738857D01*
X89679802Y-121738855D01*
X89534000Y-121707865D01*
X89494646Y-121699500D01*
X89494645Y-121699500D01*
X89435453Y-121699500D01*
X89368414Y-121679815D01*
X89347772Y-121663181D01*
X86661819Y-118977228D01*
X86628334Y-118915905D01*
X86625500Y-118889547D01*
X86625500Y-112698687D01*
X86645185Y-112631648D01*
X86657350Y-112615715D01*
X86686346Y-112583511D01*
X86732533Y-112532216D01*
X86827179Y-112368284D01*
X86885674Y-112188256D01*
X86905460Y-112000000D01*
X86885674Y-111811744D01*
X86827179Y-111631716D01*
X86732533Y-111467784D01*
X86732532Y-111467784D01*
X86657350Y-111384284D01*
X86627120Y-111321292D01*
X86625500Y-111301312D01*
X86625500Y-107110452D01*
X86645185Y-107043413D01*
X86661819Y-107022771D01*
X88047904Y-105636686D01*
X89783788Y-103900801D01*
X89796042Y-103890986D01*
X89795859Y-103890764D01*
X89801866Y-103885792D01*
X89801877Y-103885786D01*
X89832775Y-103852882D01*
X89849227Y-103835364D01*
X89859671Y-103824918D01*
X89870120Y-103814471D01*
X89874379Y-103808978D01*
X89878152Y-103804561D01*
X89910062Y-103770582D01*
X89919713Y-103753024D01*
X89930396Y-103736761D01*
X89942673Y-103720936D01*
X89961185Y-103678153D01*
X89963738Y-103672941D01*
X89986197Y-103632092D01*
X89991180Y-103612680D01*
X89997481Y-103594280D01*
X90005437Y-103575896D01*
X90012729Y-103529852D01*
X90013906Y-103524171D01*
X90025500Y-103479019D01*
X90025500Y-103458982D01*
X90027027Y-103439582D01*
X90030160Y-103419804D01*
X90025775Y-103373415D01*
X90025500Y-103367577D01*
X90025500Y-92098687D01*
X90045185Y-92031648D01*
X90057350Y-92015715D01*
X90075891Y-91995122D01*
X90132533Y-91932216D01*
X90227179Y-91768284D01*
X90285674Y-91588256D01*
X90303321Y-91420344D01*
X90329904Y-91355734D01*
X90338951Y-91345638D01*
X90583788Y-91100801D01*
X90596042Y-91090986D01*
X90595859Y-91090764D01*
X90601866Y-91085792D01*
X90601877Y-91085786D01*
X90632775Y-91052882D01*
X90649227Y-91035364D01*
X90659671Y-91024918D01*
X90670120Y-91014471D01*
X90674379Y-91008978D01*
X90678152Y-91004561D01*
X90710062Y-90970582D01*
X90719715Y-90953020D01*
X90730389Y-90936770D01*
X90742673Y-90920936D01*
X90761180Y-90878167D01*
X90763749Y-90872924D01*
X90786196Y-90832093D01*
X90786197Y-90832092D01*
X90791177Y-90812691D01*
X90797478Y-90794288D01*
X90805438Y-90775896D01*
X90812730Y-90729849D01*
X90813911Y-90724152D01*
X90825500Y-90679019D01*
X90825500Y-90658982D01*
X90827027Y-90639582D01*
X90830160Y-90619804D01*
X90825775Y-90573415D01*
X90825500Y-90567577D01*
X90825500Y-78898687D01*
X90845185Y-78831648D01*
X90857350Y-78815715D01*
X90886571Y-78783261D01*
X90932533Y-78732216D01*
X91027179Y-78568284D01*
X91085674Y-78388256D01*
X91105460Y-78200000D01*
X91085674Y-78011744D01*
X91027179Y-77831716D01*
X90932533Y-77667784D01*
X90857350Y-77584284D01*
X90827120Y-77521292D01*
X90825500Y-77501312D01*
X90825500Y-64482737D01*
X90827224Y-64467123D01*
X90826938Y-64467096D01*
X90827672Y-64459333D01*
X90825500Y-64390203D01*
X90825500Y-64360651D01*
X90825500Y-64360650D01*
X90824629Y-64353759D01*
X90824172Y-64347945D01*
X90822709Y-64301372D01*
X90817122Y-64282144D01*
X90813174Y-64263084D01*
X90810664Y-64243208D01*
X90793507Y-64199875D01*
X90791619Y-64194359D01*
X90778619Y-64149612D01*
X90768418Y-64132363D01*
X90759860Y-64114894D01*
X90752486Y-64096268D01*
X90752483Y-64096264D01*
X90752483Y-64096263D01*
X90725098Y-64058571D01*
X90721890Y-64053687D01*
X90698172Y-64013582D01*
X90698163Y-64013571D01*
X90684005Y-63999413D01*
X90671370Y-63984620D01*
X90659593Y-63968412D01*
X90623693Y-63938713D01*
X90619381Y-63934790D01*
X88572271Y-61887680D01*
X88538786Y-61826357D01*
X88543770Y-61756665D01*
X88572271Y-61712318D01*
X89826796Y-60457793D01*
X91130155Y-59154433D01*
X91191476Y-59120950D01*
X91261168Y-59125934D01*
X91317101Y-59167806D01*
X91341304Y-59230667D01*
X91341976Y-59237921D01*
X91341977Y-59237927D01*
X91400855Y-59444859D01*
X91400860Y-59444872D01*
X91496751Y-59637446D01*
X91496753Y-59637449D01*
X91496755Y-59637453D01*
X91626409Y-59809144D01*
X91626412Y-59809146D01*
X91626414Y-59809149D01*
X91785402Y-59954085D01*
X91785404Y-59954086D01*
X91785405Y-59954087D01*
X91968326Y-60067347D01*
X92168944Y-60145067D01*
X92380427Y-60184600D01*
X92380429Y-60184600D01*
X92595572Y-60184600D01*
X92595573Y-60184600D01*
X92673487Y-60170035D01*
X92743001Y-60177065D01*
X92783950Y-60204240D01*
X92913437Y-60333726D01*
X92976181Y-60396470D01*
X93009666Y-60457793D01*
X93012500Y-60484151D01*
X93012500Y-77286510D01*
X92992815Y-77353549D01*
X92953778Y-77391937D01*
X92935403Y-77403314D01*
X92776414Y-77548250D01*
X92776407Y-77548258D01*
X92646760Y-77719939D01*
X92646751Y-77719953D01*
X92550860Y-77912527D01*
X92550855Y-77912540D01*
X92491977Y-78119471D01*
X92472127Y-78333699D01*
X92472127Y-78333700D01*
X92491977Y-78547928D01*
X92550855Y-78754859D01*
X92550860Y-78754872D01*
X92646751Y-78947446D01*
X92646753Y-78947449D01*
X92646755Y-78947453D01*
X92776409Y-79119144D01*
X92776412Y-79119146D01*
X92776414Y-79119149D01*
X92935401Y-79264084D01*
X92935403Y-79264085D01*
X92935405Y-79264087D01*
X92953777Y-79275462D01*
X93000412Y-79327487D01*
X93012500Y-79380889D01*
X93012500Y-87241942D01*
X92999500Y-87297214D01*
X92958860Y-87378827D01*
X92958855Y-87378840D01*
X92899977Y-87585771D01*
X92880127Y-87799999D01*
X92880127Y-87800000D01*
X92899977Y-88014228D01*
X92958855Y-88221159D01*
X92958860Y-88221172D01*
X93054751Y-88413746D01*
X93054753Y-88413749D01*
X93054755Y-88413753D01*
X93054758Y-88413757D01*
X93054760Y-88413760D01*
X93058971Y-88419336D01*
X93184409Y-88585444D01*
X93184412Y-88585446D01*
X93184414Y-88585449D01*
X93343401Y-88730384D01*
X93343403Y-88730385D01*
X93343405Y-88730387D01*
X93361777Y-88741762D01*
X93408412Y-88793787D01*
X93420500Y-88847189D01*
X93420500Y-108315100D01*
X93400815Y-108382139D01*
X93348011Y-108427894D01*
X93296500Y-108439100D01*
X93088427Y-108439100D01*
X92876944Y-108478633D01*
X92750075Y-108527782D01*
X92676328Y-108556352D01*
X92676327Y-108556352D01*
X92493402Y-108669614D01*
X92334414Y-108814550D01*
X92334407Y-108814558D01*
X92204760Y-108986239D01*
X92204751Y-108986253D01*
X92108860Y-109178827D01*
X92108855Y-109178840D01*
X92049977Y-109385771D01*
X92030127Y-109599999D01*
X92030127Y-109600000D01*
X92049977Y-109814228D01*
X92108855Y-110021159D01*
X92108860Y-110021172D01*
X92204751Y-110213746D01*
X92204753Y-110213749D01*
X92204755Y-110213753D01*
X92334409Y-110385444D01*
X92334412Y-110385446D01*
X92334414Y-110385449D01*
X92493401Y-110530384D01*
X92493403Y-110530385D01*
X92493405Y-110530387D01*
X92511777Y-110541762D01*
X92558412Y-110593787D01*
X92570500Y-110647189D01*
X92570500Y-117615255D01*
X92568775Y-117630872D01*
X92569061Y-117630899D01*
X92568326Y-117638665D01*
X92570500Y-117707814D01*
X92570500Y-117737343D01*
X92570501Y-117737360D01*
X92571368Y-117744231D01*
X92571826Y-117750050D01*
X92573290Y-117796624D01*
X92573291Y-117796627D01*
X92578880Y-117815867D01*
X92582824Y-117834911D01*
X92585336Y-117854791D01*
X92602490Y-117898119D01*
X92604382Y-117903647D01*
X92617381Y-117948388D01*
X92627580Y-117965634D01*
X92636138Y-117983103D01*
X92643514Y-118001732D01*
X92670898Y-118039423D01*
X92674106Y-118044307D01*
X92697827Y-118084416D01*
X92697833Y-118084424D01*
X92711990Y-118098580D01*
X92724628Y-118113376D01*
X92736405Y-118129586D01*
X92736406Y-118129587D01*
X92772309Y-118159288D01*
X92776620Y-118163210D01*
X93502956Y-118889547D01*
X93714820Y-119101411D01*
X93748305Y-119162734D01*
X93750610Y-119200533D01*
X93732127Y-119399999D01*
X93732127Y-119400000D01*
X93751977Y-119614228D01*
X93810855Y-119821159D01*
X93810860Y-119821172D01*
X93906751Y-120013746D01*
X93906753Y-120013749D01*
X93906755Y-120013753D01*
X94036409Y-120185444D01*
X94195405Y-120330387D01*
X94213777Y-120341763D01*
X94260412Y-120393789D01*
X94272499Y-120447189D01*
X94272499Y-138289546D01*
X94252814Y-138356585D01*
X94236180Y-138377227D01*
X94010627Y-138602781D01*
X93949304Y-138636266D01*
X93922946Y-138639100D01*
X92989729Y-138639100D01*
X92989723Y-138639101D01*
X92930116Y-138645508D01*
X92795271Y-138695802D01*
X92795264Y-138695806D01*
X92680055Y-138782052D01*
X92680052Y-138782055D01*
X92593806Y-138897264D01*
X92593802Y-138897271D01*
X92543508Y-139032117D01*
X92537101Y-139091716D01*
X92537100Y-139091735D01*
X92537100Y-140508270D01*
X92537101Y-140508276D01*
X92543508Y-140567883D01*
X92593802Y-140702728D01*
X92593806Y-140702735D01*
X92680052Y-140817944D01*
X92680055Y-140817947D01*
X92795264Y-140904193D01*
X92795271Y-140904197D01*
X92930117Y-140954491D01*
X92930116Y-140954491D01*
X92937044Y-140955235D01*
X92989727Y-140960900D01*
X93922947Y-140960899D01*
X93989986Y-140980583D01*
X94010627Y-140997217D01*
X95159859Y-142146450D01*
X96291497Y-143278088D01*
X96301322Y-143290351D01*
X96301543Y-143290169D01*
X96306514Y-143296178D01*
X96327343Y-143315737D01*
X96356935Y-143343526D01*
X96377829Y-143364420D01*
X96383311Y-143368673D01*
X96387743Y-143372457D01*
X96421718Y-143404362D01*
X96439276Y-143414014D01*
X96455533Y-143424693D01*
X96471364Y-143436973D01*
X96491037Y-143445486D01*
X96514133Y-143455482D01*
X96519377Y-143458050D01*
X96560208Y-143480497D01*
X96572823Y-143483735D01*
X96579605Y-143485477D01*
X96598019Y-143491781D01*
X96616404Y-143499738D01*
X96662457Y-143507032D01*
X96668126Y-143508206D01*
X96713281Y-143519800D01*
X96733316Y-143519800D01*
X96752713Y-143521326D01*
X96772496Y-143524460D01*
X96818883Y-143520075D01*
X96824722Y-143519800D01*
X129777857Y-143519800D01*
X129793477Y-143521524D01*
X129793504Y-143521239D01*
X129801260Y-143521971D01*
X129801267Y-143521973D01*
X129870414Y-143519800D01*
X129899950Y-143519800D01*
X129906828Y-143518930D01*
X129912641Y-143518472D01*
X129959227Y-143517009D01*
X129978469Y-143511417D01*
X129997512Y-143507474D01*
X130017392Y-143504964D01*
X130060722Y-143487807D01*
X130066246Y-143485917D01*
X130069996Y-143484827D01*
X130110990Y-143472918D01*
X130128229Y-143462722D01*
X130145703Y-143454162D01*
X130164327Y-143446788D01*
X130164327Y-143446787D01*
X130164332Y-143446786D01*
X130202049Y-143419382D01*
X130206905Y-143416192D01*
X130247020Y-143392470D01*
X130261189Y-143378299D01*
X130275979Y-143365668D01*
X130292187Y-143353894D01*
X130321899Y-143317976D01*
X130325812Y-143313676D01*
X130581477Y-143058012D01*
X130642796Y-143024530D01*
X130701248Y-143025921D01*
X130737046Y-143035514D01*
X130911329Y-143050761D01*
X130954899Y-143054574D01*
X130954900Y-143054574D01*
X130954901Y-143054574D01*
X130991208Y-143051397D01*
X131172754Y-143035514D01*
X131208551Y-143025922D01*
X131278397Y-143027583D01*
X131328325Y-143058015D01*
X131528394Y-143258084D01*
X131538219Y-143270348D01*
X131538440Y-143270166D01*
X131543410Y-143276173D01*
X131543413Y-143276176D01*
X131543414Y-143276177D01*
X131593851Y-143323541D01*
X131614730Y-143344420D01*
X131620204Y-143348666D01*
X131624642Y-143352456D01*
X131658618Y-143384362D01*
X131658622Y-143384364D01*
X131676173Y-143394013D01*
X131692431Y-143404692D01*
X131708264Y-143416974D01*
X131726107Y-143424695D01*
X131751037Y-143435483D01*
X131756281Y-143438052D01*
X131797108Y-143460497D01*
X131816512Y-143465479D01*
X131834910Y-143471778D01*
X131853305Y-143479738D01*
X131899329Y-143487026D01*
X131905032Y-143488207D01*
X131950181Y-143499800D01*
X131970216Y-143499800D01*
X131989613Y-143501326D01*
X132009396Y-143504460D01*
X132055783Y-143500075D01*
X132061622Y-143499800D01*
X146692957Y-143499800D01*
X146708577Y-143501524D01*
X146708604Y-143501239D01*
X146716360Y-143501971D01*
X146716367Y-143501973D01*
X146785514Y-143499800D01*
X146815050Y-143499800D01*
X146821928Y-143498930D01*
X146827741Y-143498472D01*
X146874327Y-143497009D01*
X146893569Y-143491417D01*
X146912612Y-143487474D01*
X146932492Y-143484964D01*
X146975822Y-143467807D01*
X146981346Y-143465917D01*
X146985096Y-143464827D01*
X147026090Y-143452918D01*
X147043329Y-143442722D01*
X147060803Y-143434162D01*
X147079427Y-143426788D01*
X147079427Y-143426787D01*
X147079432Y-143426786D01*
X147117149Y-143399382D01*
X147122005Y-143396192D01*
X147162120Y-143372470D01*
X147176289Y-143358299D01*
X147191079Y-143345668D01*
X147207287Y-143333894D01*
X147236999Y-143297976D01*
X147240912Y-143293676D01*
X148470133Y-142064455D01*
X148531454Y-142030972D01*
X148598078Y-142034858D01*
X148610857Y-142039245D01*
X148835915Y-142076800D01*
X149064085Y-142076800D01*
X149289143Y-142039245D01*
X149504950Y-141965158D01*
X149705619Y-141856561D01*
X149885677Y-141716417D01*
X150040213Y-141548547D01*
X150165010Y-141357530D01*
X150256664Y-141148578D01*
X150312677Y-140927391D01*
X150312678Y-140927383D01*
X150331519Y-140700005D01*
X150331519Y-140699994D01*
X150312678Y-140472616D01*
X150312677Y-140472613D01*
X150312677Y-140472609D01*
X150256664Y-140251422D01*
X150165010Y-140042470D01*
X150040213Y-139851453D01*
X150040212Y-139851451D01*
X149885680Y-139683586D01*
X149885676Y-139683582D01*
X149705620Y-139543440D01*
X149705619Y-139543439D01*
X149504950Y-139434842D01*
X149504942Y-139434839D01*
X149289145Y-139360755D01*
X149064085Y-139323200D01*
X148835915Y-139323200D01*
X148610854Y-139360755D01*
X148395057Y-139434839D01*
X148395049Y-139434842D01*
X148194379Y-139543440D01*
X148014323Y-139683582D01*
X148014319Y-139683586D01*
X147859789Y-139851449D01*
X147803809Y-139937134D01*
X147750662Y-139982490D01*
X147681431Y-139991914D01*
X147618095Y-139962412D01*
X147596191Y-139937134D01*
X147540210Y-139851449D01*
X147385680Y-139683586D01*
X147385676Y-139683582D01*
X147205620Y-139543440D01*
X147205619Y-139543439D01*
X147004950Y-139434842D01*
X147004942Y-139434839D01*
X146789145Y-139360755D01*
X146564085Y-139323200D01*
X146335915Y-139323200D01*
X146110854Y-139360755D01*
X145895057Y-139434839D01*
X145895049Y-139434842D01*
X145694379Y-139543440D01*
X145514323Y-139683582D01*
X145514319Y-139683586D01*
X145359789Y-139851449D01*
X145303809Y-139937134D01*
X145250662Y-139982490D01*
X145181431Y-139991914D01*
X145118095Y-139962412D01*
X145096191Y-139937134D01*
X145040210Y-139851449D01*
X144885680Y-139683586D01*
X144885676Y-139683582D01*
X144705620Y-139543440D01*
X144705619Y-139543439D01*
X144504950Y-139434842D01*
X144504942Y-139434839D01*
X144289145Y-139360755D01*
X144064085Y-139323200D01*
X143835915Y-139323200D01*
X143610854Y-139360755D01*
X143395057Y-139434839D01*
X143395049Y-139434842D01*
X143194379Y-139543440D01*
X143014323Y-139683582D01*
X143014319Y-139683586D01*
X142859787Y-139851451D01*
X142734989Y-140042470D01*
X142643335Y-140251422D01*
X142587323Y-140472608D01*
X142587321Y-140472616D01*
X142568481Y-140699994D01*
X142568481Y-140700005D01*
X142587321Y-140927383D01*
X142587323Y-140927391D01*
X142643335Y-141148577D01*
X142734989Y-141357529D01*
X142859787Y-141548548D01*
X143014319Y-141716413D01*
X143014323Y-141716417D01*
X143194381Y-141856561D01*
X143395050Y-141965158D01*
X143444225Y-141982040D01*
X143518441Y-142007519D01*
X143575456Y-142047905D01*
X143601587Y-142112704D01*
X143588535Y-142181344D01*
X143540446Y-142232032D01*
X143478178Y-142248800D01*
X132339653Y-142248800D01*
X132272614Y-142229115D01*
X132251971Y-142212480D01*
X132212915Y-142173423D01*
X132179430Y-142112100D01*
X132180821Y-142053651D01*
X132190414Y-142017854D01*
X132209474Y-141800000D01*
X132190414Y-141582146D01*
X132143775Y-141408085D01*
X132133816Y-141370917D01*
X132133815Y-141370916D01*
X132133814Y-141370910D01*
X132041393Y-141172713D01*
X131915959Y-140993575D01*
X131761325Y-140838941D01*
X131610750Y-140733507D01*
X131582186Y-140713506D01*
X131426882Y-140641087D01*
X131383990Y-140621086D01*
X131383986Y-140621085D01*
X131383982Y-140621083D01*
X131172759Y-140564487D01*
X131172749Y-140564485D01*
X130954901Y-140545426D01*
X130954899Y-140545426D01*
X130737050Y-140564485D01*
X130737040Y-140564487D01*
X130525817Y-140621083D01*
X130525808Y-140621087D01*
X130327613Y-140713506D01*
X130208101Y-140797190D01*
X130148475Y-140838941D01*
X130148473Y-140838942D01*
X130148470Y-140838945D01*
X129993845Y-140993570D01*
X129993842Y-140993573D01*
X129993841Y-140993575D01*
X129952090Y-141053201D01*
X129868406Y-141172713D01*
X129775987Y-141370908D01*
X129775983Y-141370917D01*
X129719387Y-141582140D01*
X129719385Y-141582150D01*
X129700326Y-141799999D01*
X129700326Y-141800000D01*
X129719385Y-142017849D01*
X129719388Y-142017862D01*
X129728977Y-142053651D01*
X129727314Y-142123501D01*
X129696884Y-142173423D01*
X129637828Y-142232480D01*
X129576505Y-142265966D01*
X129550146Y-142268800D01*
X122329874Y-142268800D01*
X122262835Y-142249115D01*
X122217080Y-142196311D01*
X122207136Y-142127153D01*
X122210099Y-142112707D01*
X122229782Y-142039245D01*
X122235514Y-142017854D01*
X122254574Y-141800000D01*
X122235514Y-141582146D01*
X122188875Y-141408085D01*
X122178916Y-141370917D01*
X122178915Y-141370916D01*
X122178914Y-141370910D01*
X122086493Y-141172713D01*
X121961059Y-140993575D01*
X121806425Y-140838941D01*
X121655850Y-140733507D01*
X121627286Y-140713506D01*
X121471982Y-140641087D01*
X121429090Y-140621086D01*
X121429086Y-140621085D01*
X121429082Y-140621083D01*
X121217859Y-140564487D01*
X121217849Y-140564485D01*
X121000001Y-140545426D01*
X120999999Y-140545426D01*
X120782150Y-140564485D01*
X120782140Y-140564487D01*
X120570917Y-140621083D01*
X120570908Y-140621087D01*
X120372713Y-140713506D01*
X120253201Y-140797190D01*
X120193575Y-140838941D01*
X120193573Y-140838942D01*
X120193570Y-140838945D01*
X120038945Y-140993570D01*
X120038942Y-140993573D01*
X120038941Y-140993575D01*
X119997190Y-141053201D01*
X119913506Y-141172713D01*
X119862382Y-141282351D01*
X119816210Y-141334790D01*
X119749016Y-141353942D01*
X119682135Y-141333726D01*
X119637618Y-141282351D01*
X119606340Y-141215276D01*
X119586493Y-141172713D01*
X119461059Y-140993575D01*
X119306425Y-140838941D01*
X119155850Y-140733507D01*
X119127286Y-140713506D01*
X118971982Y-140641087D01*
X118929090Y-140621086D01*
X118929086Y-140621085D01*
X118929082Y-140621083D01*
X118717859Y-140564487D01*
X118717849Y-140564485D01*
X118500001Y-140545426D01*
X118499999Y-140545426D01*
X118282150Y-140564485D01*
X118282140Y-140564487D01*
X118070917Y-140621083D01*
X118070908Y-140621087D01*
X117872713Y-140713506D01*
X117753201Y-140797190D01*
X117693575Y-140838941D01*
X117693573Y-140838942D01*
X117693570Y-140838945D01*
X117538945Y-140993570D01*
X117538942Y-140993573D01*
X117538941Y-140993575D01*
X117497190Y-141053201D01*
X117413506Y-141172713D01*
X117321087Y-141370908D01*
X117321083Y-141370917D01*
X117264487Y-141582140D01*
X117264485Y-141582150D01*
X117245426Y-141799999D01*
X117245426Y-141800000D01*
X117264485Y-142017849D01*
X117264487Y-142017859D01*
X117289901Y-142112707D01*
X117288238Y-142182557D01*
X117249075Y-142240420D01*
X117184846Y-142267923D01*
X117170126Y-142268800D01*
X111335232Y-142268800D01*
X111268193Y-142249115D01*
X111222438Y-142196311D01*
X111212494Y-142127153D01*
X111215457Y-142112707D01*
X111235514Y-142037854D01*
X111254574Y-141820000D01*
X111253042Y-141802495D01*
X111248250Y-141747719D01*
X111235514Y-141602146D01*
X111178914Y-141390910D01*
X111086493Y-141192713D01*
X110961059Y-141013575D01*
X110806425Y-140858941D01*
X110627287Y-140733507D01*
X110627288Y-140733507D01*
X110627286Y-140733506D01*
X110528188Y-140687296D01*
X110429090Y-140641086D01*
X110429086Y-140641085D01*
X110429082Y-140641083D01*
X110217859Y-140584487D01*
X110217849Y-140584485D01*
X110000001Y-140565426D01*
X109999999Y-140565426D01*
X109782150Y-140584485D01*
X109782140Y-140584487D01*
X109570917Y-140641083D01*
X109570908Y-140641087D01*
X109372713Y-140733506D01*
X109273224Y-140803170D01*
X109193575Y-140858941D01*
X109193573Y-140858942D01*
X109193570Y-140858945D01*
X109038945Y-141013570D01*
X109038942Y-141013573D01*
X109038941Y-141013575D01*
X109016875Y-141045089D01*
X108913506Y-141192713D01*
X108862382Y-141302351D01*
X108816210Y-141354790D01*
X108749016Y-141373942D01*
X108682135Y-141353726D01*
X108637618Y-141302351D01*
X108586493Y-141192713D01*
X108572489Y-141172713D01*
X108461059Y-141013575D01*
X108306425Y-140858941D01*
X108127287Y-140733507D01*
X108127288Y-140733507D01*
X108127286Y-140733506D01*
X108028188Y-140687296D01*
X107929090Y-140641086D01*
X107929086Y-140641085D01*
X107929082Y-140641083D01*
X107717859Y-140584487D01*
X107717849Y-140584485D01*
X107500001Y-140565426D01*
X107499999Y-140565426D01*
X107282150Y-140584485D01*
X107282140Y-140584487D01*
X107070917Y-140641083D01*
X107070908Y-140641087D01*
X106872713Y-140733506D01*
X106773224Y-140803170D01*
X106693575Y-140858941D01*
X106693573Y-140858942D01*
X106693570Y-140858945D01*
X106538945Y-141013570D01*
X106538942Y-141013573D01*
X106538941Y-141013575D01*
X106516875Y-141045089D01*
X106413506Y-141192713D01*
X106321087Y-141390908D01*
X106321083Y-141390917D01*
X106264487Y-141602140D01*
X106264485Y-141602150D01*
X106245426Y-141819999D01*
X106245426Y-141820000D01*
X106264485Y-142037849D01*
X106264486Y-142037855D01*
X106268718Y-142053648D01*
X106284543Y-142112707D01*
X106282880Y-142182556D01*
X106243718Y-142240419D01*
X106179489Y-142267923D01*
X106164768Y-142268800D01*
X97102752Y-142268800D01*
X97035713Y-142249115D01*
X97015071Y-142232481D01*
X94895218Y-140112627D01*
X94861733Y-140051304D01*
X94858899Y-140024946D01*
X94858899Y-139575053D01*
X94878584Y-139508014D01*
X94895218Y-139487372D01*
X95059390Y-139323200D01*
X95281788Y-139100801D01*
X95294042Y-139090986D01*
X95293859Y-139090764D01*
X95299866Y-139085792D01*
X95299877Y-139085786D01*
X95330775Y-139052882D01*
X95347227Y-139035364D01*
X95357671Y-139024918D01*
X95368120Y-139014471D01*
X95372379Y-139008978D01*
X95376152Y-139004561D01*
X95408062Y-138970582D01*
X95417713Y-138953024D01*
X95428396Y-138936761D01*
X95440673Y-138920936D01*
X95459185Y-138878153D01*
X95461738Y-138872941D01*
X95484197Y-138832092D01*
X95489180Y-138812680D01*
X95495481Y-138794280D01*
X95503437Y-138775896D01*
X95510729Y-138729852D01*
X95511906Y-138724171D01*
X95523500Y-138679019D01*
X95523500Y-138658982D01*
X95525027Y-138639582D01*
X95528160Y-138619804D01*
X95523775Y-138573415D01*
X95523500Y-138567577D01*
X95523500Y-133660670D01*
X101286700Y-133660670D01*
X101286701Y-133660676D01*
X101293108Y-133720283D01*
X101343402Y-133855128D01*
X101343406Y-133855135D01*
X101429652Y-133970344D01*
X101429655Y-133970347D01*
X101544864Y-134056593D01*
X101544871Y-134056597D01*
X101679717Y-134106891D01*
X101679716Y-134106891D01*
X101686644Y-134107635D01*
X101739327Y-134113300D01*
X103460672Y-134113299D01*
X103520283Y-134106891D01*
X103655131Y-134056596D01*
X103770346Y-133970346D01*
X103856596Y-133855131D01*
X103906891Y-133720283D01*
X103913300Y-133660673D01*
X103913299Y-131939328D01*
X103906891Y-131879717D01*
X103870269Y-131781529D01*
X103856597Y-131744871D01*
X103856593Y-131744864D01*
X103770347Y-131629655D01*
X103770344Y-131629652D01*
X103655135Y-131543406D01*
X103655128Y-131543402D01*
X103520282Y-131493108D01*
X103520283Y-131493108D01*
X103460683Y-131486701D01*
X103460681Y-131486700D01*
X103460673Y-131486700D01*
X103460664Y-131486700D01*
X101739329Y-131486700D01*
X101739323Y-131486701D01*
X101679716Y-131493108D01*
X101544871Y-131543402D01*
X101544864Y-131543406D01*
X101429655Y-131629652D01*
X101429652Y-131629655D01*
X101343406Y-131744864D01*
X101343402Y-131744871D01*
X101293108Y-131879717D01*
X101286701Y-131939316D01*
X101286701Y-131939323D01*
X101286700Y-131939335D01*
X101286700Y-133660670D01*
X95523500Y-133660670D01*
X95523500Y-130975100D01*
X159415227Y-130975100D01*
X159434286Y-131192949D01*
X159434288Y-131192959D01*
X159490884Y-131404182D01*
X159490886Y-131404186D01*
X159490887Y-131404190D01*
X159527023Y-131481683D01*
X159583307Y-131602386D01*
X159583308Y-131602387D01*
X159708742Y-131781525D01*
X159863376Y-131936159D01*
X160042514Y-132061593D01*
X160240711Y-132154014D01*
X160451947Y-132210614D01*
X160626230Y-132225862D01*
X160669800Y-132229674D01*
X160669801Y-132229674D01*
X160669802Y-132229674D01*
X160706109Y-132226497D01*
X160887655Y-132210614D01*
X161098891Y-132154014D01*
X161297088Y-132061593D01*
X161476226Y-131936159D01*
X161630860Y-131781525D01*
X161756294Y-131602387D01*
X161848715Y-131404190D01*
X161905315Y-131192954D01*
X161924375Y-130975100D01*
X161905315Y-130757246D01*
X161848715Y-130546010D01*
X161756294Y-130347813D01*
X161630860Y-130168675D01*
X161476226Y-130014041D01*
X161332915Y-129913693D01*
X161297087Y-129888606D01*
X161187449Y-129837481D01*
X161135010Y-129791308D01*
X161115858Y-129724115D01*
X161136074Y-129657234D01*
X161187444Y-129612720D01*
X161297088Y-129561593D01*
X161476226Y-129436159D01*
X161630860Y-129281525D01*
X161756294Y-129102387D01*
X161848715Y-128904190D01*
X161905315Y-128692954D01*
X161924375Y-128475100D01*
X161905315Y-128257246D01*
X161848715Y-128046010D01*
X161756294Y-127847813D01*
X161630860Y-127668675D01*
X161476226Y-127514041D01*
X161297088Y-127388607D01*
X161297089Y-127388607D01*
X161297087Y-127388606D01*
X161150567Y-127320283D01*
X161098891Y-127296186D01*
X161098887Y-127296185D01*
X161098883Y-127296183D01*
X160887660Y-127239587D01*
X160887650Y-127239585D01*
X160669802Y-127220526D01*
X160669800Y-127220526D01*
X160451951Y-127239585D01*
X160451941Y-127239587D01*
X160240718Y-127296183D01*
X160240709Y-127296187D01*
X160042514Y-127388606D01*
X159947512Y-127455128D01*
X159863376Y-127514041D01*
X159863374Y-127514042D01*
X159863371Y-127514045D01*
X159708746Y-127668670D01*
X159708743Y-127668673D01*
X159708742Y-127668675D01*
X159688006Y-127698289D01*
X159583307Y-127847813D01*
X159490888Y-128046008D01*
X159490884Y-128046017D01*
X159434288Y-128257240D01*
X159434286Y-128257250D01*
X159415227Y-128475099D01*
X159415227Y-128475100D01*
X159434286Y-128692949D01*
X159434288Y-128692959D01*
X159490884Y-128904182D01*
X159490886Y-128904186D01*
X159490887Y-128904190D01*
X159537097Y-129003288D01*
X159583307Y-129102386D01*
X159583308Y-129102387D01*
X159708742Y-129281525D01*
X159863376Y-129436159D01*
X160042514Y-129561593D01*
X160152152Y-129612718D01*
X160204591Y-129658889D01*
X160223743Y-129726082D01*
X160203528Y-129792963D01*
X160152153Y-129837481D01*
X160042512Y-129888608D01*
X159962755Y-129944454D01*
X159863376Y-130014041D01*
X159863374Y-130014042D01*
X159863371Y-130014045D01*
X159708746Y-130168670D01*
X159583307Y-130347813D01*
X159490888Y-130546008D01*
X159490884Y-130546017D01*
X159434288Y-130757240D01*
X159434286Y-130757250D01*
X159415227Y-130975099D01*
X159415227Y-130975100D01*
X95523500Y-130975100D01*
X95523500Y-127260670D01*
X101234700Y-127260670D01*
X101234701Y-127260676D01*
X101241108Y-127320283D01*
X101291402Y-127455128D01*
X101291406Y-127455135D01*
X101377652Y-127570344D01*
X101377655Y-127570347D01*
X101492864Y-127656593D01*
X101492871Y-127656597D01*
X101627717Y-127706891D01*
X101627716Y-127706891D01*
X101634644Y-127707635D01*
X101687327Y-127713300D01*
X103408672Y-127713299D01*
X103468283Y-127706891D01*
X103603131Y-127656596D01*
X103718346Y-127570346D01*
X103804596Y-127455131D01*
X103854891Y-127320283D01*
X103861300Y-127260673D01*
X103861299Y-125539328D01*
X103854891Y-125479717D01*
X103844349Y-125451453D01*
X103804597Y-125344871D01*
X103804593Y-125344864D01*
X103718347Y-125229655D01*
X103718344Y-125229652D01*
X103603135Y-125143406D01*
X103603128Y-125143402D01*
X103468282Y-125093108D01*
X103468283Y-125093108D01*
X103408683Y-125086701D01*
X103408681Y-125086700D01*
X103408673Y-125086700D01*
X103408664Y-125086700D01*
X101687329Y-125086700D01*
X101687323Y-125086701D01*
X101627716Y-125093108D01*
X101492871Y-125143402D01*
X101492864Y-125143406D01*
X101377655Y-125229652D01*
X101377652Y-125229655D01*
X101291406Y-125344864D01*
X101291402Y-125344871D01*
X101241108Y-125479717D01*
X101234701Y-125539316D01*
X101234701Y-125539323D01*
X101234700Y-125539335D01*
X101234700Y-127260670D01*
X95523500Y-127260670D01*
X95523500Y-120447189D01*
X95543185Y-120380150D01*
X95582221Y-120341763D01*
X95600595Y-120330387D01*
X95759591Y-120185444D01*
X95889245Y-120013753D01*
X95985144Y-119821162D01*
X96044022Y-119614229D01*
X96063873Y-119400000D01*
X96044022Y-119185771D01*
X95985144Y-118978838D01*
X95984342Y-118977228D01*
X95889248Y-118786253D01*
X95889247Y-118786252D01*
X95889245Y-118786247D01*
X95759591Y-118614556D01*
X95759587Y-118614552D01*
X95759585Y-118614550D01*
X95600597Y-118469614D01*
X95560811Y-118444979D01*
X95417674Y-118356353D01*
X95217056Y-118278633D01*
X95005573Y-118239100D01*
X94790427Y-118239100D01*
X94790426Y-118239100D01*
X94712511Y-118253664D01*
X94642996Y-118246632D01*
X94602047Y-118219456D01*
X93857819Y-117475228D01*
X93824334Y-117413905D01*
X93821500Y-117387547D01*
X93821500Y-110647189D01*
X93841185Y-110580150D01*
X93880221Y-110541763D01*
X93898595Y-110530387D01*
X94057591Y-110385444D01*
X94187245Y-110213753D01*
X94283144Y-110021162D01*
X94342022Y-109814229D01*
X94361873Y-109600000D01*
X94343389Y-109400529D01*
X94356804Y-109331962D01*
X94379176Y-109301412D01*
X94429786Y-109250802D01*
X94442048Y-109240980D01*
X94441865Y-109240759D01*
X94447867Y-109235792D01*
X94447877Y-109235786D01*
X94495241Y-109185348D01*
X94516120Y-109164470D01*
X94520373Y-109158986D01*
X94524150Y-109154563D01*
X94556062Y-109120582D01*
X94565714Y-109103023D01*
X94576389Y-109086772D01*
X94588674Y-109070936D01*
X94607186Y-109028152D01*
X94609742Y-109022935D01*
X94627383Y-108990848D01*
X94632194Y-108982098D01*
X94632194Y-108982097D01*
X94632197Y-108982092D01*
X94637180Y-108962680D01*
X94643477Y-108944291D01*
X94651438Y-108925895D01*
X94658729Y-108879853D01*
X94659908Y-108874162D01*
X94671500Y-108829019D01*
X94671500Y-108808982D01*
X94673027Y-108789582D01*
X94673097Y-108789141D01*
X94676160Y-108769804D01*
X94671775Y-108723415D01*
X94671500Y-108717577D01*
X94671500Y-102460670D01*
X99634700Y-102460670D01*
X99634701Y-102460676D01*
X99641108Y-102520283D01*
X99691402Y-102655128D01*
X99691406Y-102655135D01*
X99777652Y-102770344D01*
X99777655Y-102770347D01*
X99892864Y-102856593D01*
X99892871Y-102856597D01*
X100027717Y-102906891D01*
X100027716Y-102906891D01*
X100034644Y-102907635D01*
X100087327Y-102913300D01*
X101808672Y-102913299D01*
X101868283Y-102906891D01*
X102003131Y-102856596D01*
X102118346Y-102770346D01*
X102204596Y-102655131D01*
X102254891Y-102520283D01*
X102261300Y-102460673D01*
X102261299Y-100739328D01*
X102254891Y-100679717D01*
X102244149Y-100650917D01*
X102204597Y-100544871D01*
X102204593Y-100544864D01*
X102118347Y-100429655D01*
X102118344Y-100429652D01*
X102003135Y-100343406D01*
X102003128Y-100343402D01*
X101868282Y-100293108D01*
X101868283Y-100293108D01*
X101808683Y-100286701D01*
X101808681Y-100286700D01*
X101808673Y-100286700D01*
X101808664Y-100286700D01*
X100087329Y-100286700D01*
X100087323Y-100286701D01*
X100027716Y-100293108D01*
X99892871Y-100343402D01*
X99892864Y-100343406D01*
X99777655Y-100429652D01*
X99777652Y-100429655D01*
X99691406Y-100544864D01*
X99691402Y-100544871D01*
X99641108Y-100679717D01*
X99634701Y-100739316D01*
X99634701Y-100739323D01*
X99634700Y-100739335D01*
X99634700Y-102460670D01*
X94671500Y-102460670D01*
X94671500Y-98790045D01*
X94671500Y-96460670D01*
X99782700Y-96460670D01*
X99782701Y-96460676D01*
X99789108Y-96520283D01*
X99839402Y-96655128D01*
X99839406Y-96655135D01*
X99925652Y-96770344D01*
X99925655Y-96770347D01*
X100040864Y-96856593D01*
X100040871Y-96856597D01*
X100175717Y-96906891D01*
X100175716Y-96906891D01*
X100182644Y-96907635D01*
X100235327Y-96913300D01*
X101956672Y-96913299D01*
X102016283Y-96906891D01*
X102151131Y-96856596D01*
X102266346Y-96770346D01*
X102352596Y-96655131D01*
X102402891Y-96520283D01*
X102409300Y-96460673D01*
X102409299Y-94739328D01*
X102402891Y-94679717D01*
X102372138Y-94597265D01*
X102352597Y-94544871D01*
X102352593Y-94544864D01*
X102266347Y-94429655D01*
X102266344Y-94429652D01*
X102151135Y-94343406D01*
X102151128Y-94343402D01*
X102016282Y-94293108D01*
X102016283Y-94293108D01*
X101956683Y-94286701D01*
X101956681Y-94286700D01*
X101956673Y-94286700D01*
X101956664Y-94286700D01*
X100235329Y-94286700D01*
X100235323Y-94286701D01*
X100175716Y-94293108D01*
X100040871Y-94343402D01*
X100040864Y-94343406D01*
X99925655Y-94429652D01*
X99925652Y-94429655D01*
X99839406Y-94544864D01*
X99839402Y-94544871D01*
X99789108Y-94679717D01*
X99782701Y-94739316D01*
X99782701Y-94739323D01*
X99782700Y-94739335D01*
X99782700Y-96460670D01*
X94671500Y-96460670D01*
X94671500Y-88847185D01*
X94691184Y-88780150D01*
X94730224Y-88741761D01*
X94748595Y-88730387D01*
X94907591Y-88585444D01*
X95037245Y-88413753D01*
X95133144Y-88221162D01*
X95192022Y-88014229D01*
X95211873Y-87800000D01*
X95192022Y-87585771D01*
X95133144Y-87378838D01*
X95037245Y-87186247D01*
X94907591Y-87014556D01*
X94907587Y-87014552D01*
X94907585Y-87014550D01*
X94748597Y-86869614D01*
X94565672Y-86756352D01*
X94565671Y-86756351D01*
X94428489Y-86703207D01*
X94365056Y-86678633D01*
X94365052Y-86678632D01*
X94365044Y-86678630D01*
X94364701Y-86678566D01*
X94364551Y-86678490D01*
X94359540Y-86677064D01*
X94359819Y-86676083D01*
X94302424Y-86646891D01*
X94267158Y-86586575D01*
X94263500Y-86556680D01*
X94263500Y-79380889D01*
X94283185Y-79313850D01*
X94322221Y-79275463D01*
X94340595Y-79264087D01*
X94499591Y-79119144D01*
X94629245Y-78947453D01*
X94725144Y-78754862D01*
X94784022Y-78547929D01*
X94803873Y-78333700D01*
X94784022Y-78119471D01*
X94725144Y-77912538D01*
X94684902Y-77831722D01*
X94629248Y-77719953D01*
X94629247Y-77719952D01*
X94629245Y-77719947D01*
X94499591Y-77548256D01*
X94499587Y-77548252D01*
X94499585Y-77548250D01*
X94340596Y-77403314D01*
X94340595Y-77403313D01*
X94322221Y-77391936D01*
X94275587Y-77339909D01*
X94263500Y-77286510D01*
X94263500Y-72444370D01*
X99676700Y-72444370D01*
X99676701Y-72444376D01*
X99683108Y-72503983D01*
X99733402Y-72638828D01*
X99733406Y-72638835D01*
X99819652Y-72754044D01*
X99819655Y-72754047D01*
X99934864Y-72840293D01*
X99934871Y-72840297D01*
X100069717Y-72890591D01*
X100069716Y-72890591D01*
X100076644Y-72891335D01*
X100129327Y-72897000D01*
X101850672Y-72896999D01*
X101910283Y-72890591D01*
X102045131Y-72840296D01*
X102160346Y-72754046D01*
X102246596Y-72638831D01*
X102296891Y-72503983D01*
X102303300Y-72444373D01*
X102303299Y-70723028D01*
X102296891Y-70663417D01*
X102272782Y-70598778D01*
X102246597Y-70528571D01*
X102246593Y-70528564D01*
X102160347Y-70413355D01*
X102160344Y-70413352D01*
X102045135Y-70327106D01*
X102045128Y-70327102D01*
X101910282Y-70276808D01*
X101910283Y-70276808D01*
X101850683Y-70270401D01*
X101850681Y-70270400D01*
X101850673Y-70270400D01*
X101850664Y-70270400D01*
X100129329Y-70270400D01*
X100129323Y-70270401D01*
X100069716Y-70276808D01*
X99934871Y-70327102D01*
X99934864Y-70327106D01*
X99819655Y-70413352D01*
X99819652Y-70413355D01*
X99733406Y-70528564D01*
X99733402Y-70528571D01*
X99683108Y-70663417D01*
X99676701Y-70723016D01*
X99676701Y-70723023D01*
X99676700Y-70723035D01*
X99676700Y-72444370D01*
X94263500Y-72444370D01*
X94263500Y-60256442D01*
X94265224Y-60240822D01*
X94264939Y-60240795D01*
X94265673Y-60233033D01*
X94263500Y-60163872D01*
X94263500Y-60134356D01*
X94263500Y-60134350D01*
X94262631Y-60127479D01*
X94262173Y-60121652D01*
X94260710Y-60075073D01*
X94255119Y-60055830D01*
X94251173Y-60036778D01*
X94248664Y-60016908D01*
X94231504Y-59973567D01*
X94229624Y-59968079D01*
X94216618Y-59923310D01*
X94206422Y-59906070D01*
X94197861Y-59888594D01*
X94190487Y-59869970D01*
X94190486Y-59869968D01*
X94163079Y-59832245D01*
X94159888Y-59827386D01*
X94136172Y-59787283D01*
X94136165Y-59787274D01*
X94122006Y-59773115D01*
X94109368Y-59758319D01*
X94097594Y-59742113D01*
X94061688Y-59712409D01*
X94057376Y-59708486D01*
X93671179Y-59322288D01*
X93637694Y-59260966D01*
X93635389Y-59223172D01*
X93653873Y-59023700D01*
X93634022Y-58809471D01*
X93575144Y-58602538D01*
X93479245Y-58409947D01*
X93349591Y-58238256D01*
X93349587Y-58238252D01*
X93349585Y-58238250D01*
X93190597Y-58093314D01*
X93190592Y-58093310D01*
X93128600Y-58054927D01*
X93081964Y-58002899D01*
X93070860Y-57933918D01*
X93098813Y-57869883D01*
X93156948Y-57831127D01*
X93193877Y-57825500D01*
X95889548Y-57825500D01*
X95956587Y-57845185D01*
X95977229Y-57861819D01*
X102023670Y-63908260D01*
X102057155Y-63969583D01*
X102052171Y-64039275D01*
X102010299Y-64095208D01*
X101944835Y-64119625D01*
X101916031Y-64117306D01*
X101915996Y-64117638D01*
X101848683Y-64110401D01*
X101848681Y-64110400D01*
X101848673Y-64110400D01*
X101848664Y-64110400D01*
X100127329Y-64110400D01*
X100127323Y-64110401D01*
X100067716Y-64116808D01*
X99932871Y-64167102D01*
X99932864Y-64167106D01*
X99817655Y-64253352D01*
X99817652Y-64253355D01*
X99731406Y-64368564D01*
X99731402Y-64368571D01*
X99681108Y-64503417D01*
X99674701Y-64563016D01*
X99674701Y-64563023D01*
X99674700Y-64563035D01*
X99674700Y-66284370D01*
X99674701Y-66284376D01*
X99681108Y-66343983D01*
X99731402Y-66478828D01*
X99731406Y-66478835D01*
X99817652Y-66594044D01*
X99817655Y-66594047D01*
X99932864Y-66680293D01*
X99932871Y-66680297D01*
X100067717Y-66730591D01*
X100067716Y-66730591D01*
X100074644Y-66731335D01*
X100127327Y-66737000D01*
X101848672Y-66736999D01*
X101908283Y-66730591D01*
X102043131Y-66680296D01*
X102158346Y-66594046D01*
X102244596Y-66478831D01*
X102294891Y-66343983D01*
X102301300Y-66284373D01*
X102301299Y-64563028D01*
X102294891Y-64503417D01*
X102294062Y-64495704D01*
X102295549Y-64495544D01*
X102298821Y-64434463D01*
X102339685Y-64377789D01*
X102404702Y-64352205D01*
X102473229Y-64365833D01*
X102503440Y-64388030D01*
X117593181Y-79477771D01*
X117626666Y-79539094D01*
X117629500Y-79565452D01*
X117629500Y-101662255D01*
X117627775Y-101677872D01*
X117628061Y-101677899D01*
X117627326Y-101685665D01*
X117629500Y-101754814D01*
X117629500Y-101784343D01*
X117629501Y-101784360D01*
X117630368Y-101791231D01*
X117630826Y-101797050D01*
X117632290Y-101843624D01*
X117632291Y-101843627D01*
X117637880Y-101862867D01*
X117641824Y-101881911D01*
X117644336Y-101901791D01*
X117661490Y-101945119D01*
X117663382Y-101950647D01*
X117676381Y-101995388D01*
X117686580Y-102012634D01*
X117695138Y-102030103D01*
X117702514Y-102048732D01*
X117729898Y-102086423D01*
X117733106Y-102091307D01*
X117756827Y-102131416D01*
X117756833Y-102131424D01*
X117770990Y-102145580D01*
X117783628Y-102160376D01*
X117795405Y-102176586D01*
X117795406Y-102176587D01*
X117831309Y-102206288D01*
X117835620Y-102210210D01*
X118032227Y-102406818D01*
X118080586Y-102455177D01*
X118114071Y-102516500D01*
X118112680Y-102574949D01*
X118094367Y-102643296D01*
X118094364Y-102643313D01*
X118074532Y-102869999D01*
X118074532Y-102870001D01*
X118094364Y-103096686D01*
X118094366Y-103096697D01*
X118153258Y-103316488D01*
X118153261Y-103316497D01*
X118249431Y-103522732D01*
X118249432Y-103522734D01*
X118379954Y-103709141D01*
X118540858Y-103870045D01*
X118540861Y-103870047D01*
X118727266Y-104000568D01*
X118785278Y-104027619D01*
X118837713Y-104073788D01*
X118856866Y-104140982D01*
X118836651Y-104207863D01*
X118785277Y-104252380D01*
X118727268Y-104279430D01*
X118727265Y-104279432D01*
X118540858Y-104409954D01*
X118379954Y-104570858D01*
X118249432Y-104757265D01*
X118249431Y-104757267D01*
X118153261Y-104963502D01*
X118153258Y-104963511D01*
X118094366Y-105183302D01*
X118094364Y-105183313D01*
X118074532Y-105409998D01*
X118074532Y-105410001D01*
X118094364Y-105636686D01*
X118094366Y-105636697D01*
X118153258Y-105856488D01*
X118153261Y-105856497D01*
X118249431Y-106062732D01*
X118249432Y-106062734D01*
X118379954Y-106249141D01*
X118540858Y-106410045D01*
X118700517Y-106521838D01*
X118727266Y-106540568D01*
X118785278Y-106567619D01*
X118837713Y-106613788D01*
X118856866Y-106680982D01*
X118836651Y-106747863D01*
X118785277Y-106792380D01*
X118727268Y-106819430D01*
X118727265Y-106819432D01*
X118540858Y-106949954D01*
X118379954Y-107110858D01*
X118249432Y-107297265D01*
X118249431Y-107297267D01*
X118153261Y-107503502D01*
X118153258Y-107503511D01*
X118094366Y-107723302D01*
X118094364Y-107723313D01*
X118074532Y-107949998D01*
X118074532Y-107950001D01*
X118094364Y-108176686D01*
X118094366Y-108176697D01*
X118153258Y-108396488D01*
X118153261Y-108396497D01*
X118249431Y-108602732D01*
X118249432Y-108602734D01*
X118379954Y-108789141D01*
X118540858Y-108950045D01*
X118540861Y-108950047D01*
X118727266Y-109080568D01*
X118757094Y-109094477D01*
X118785275Y-109107618D01*
X118837714Y-109153791D01*
X118856866Y-109220984D01*
X118836650Y-109287865D01*
X118785275Y-109332382D01*
X118727267Y-109359431D01*
X118727265Y-109359432D01*
X118540858Y-109489954D01*
X118379954Y-109650858D01*
X118249432Y-109837265D01*
X118249431Y-109837267D01*
X118153261Y-110043502D01*
X118153258Y-110043511D01*
X118094366Y-110263302D01*
X118094364Y-110263313D01*
X118074532Y-110489998D01*
X118074532Y-110490001D01*
X118094364Y-110716686D01*
X118094366Y-110716697D01*
X118153258Y-110936488D01*
X118153261Y-110936497D01*
X118249431Y-111142732D01*
X118249432Y-111142734D01*
X118379954Y-111329141D01*
X118540858Y-111490045D01*
X118540861Y-111490047D01*
X118727266Y-111620568D01*
X118751186Y-111631722D01*
X118785275Y-111647618D01*
X118837714Y-111693791D01*
X118856866Y-111760984D01*
X118836650Y-111827865D01*
X118785275Y-111872382D01*
X118727267Y-111899431D01*
X118727265Y-111899432D01*
X118540858Y-112029954D01*
X118379954Y-112190858D01*
X118249432Y-112377265D01*
X118249431Y-112377267D01*
X118153261Y-112583502D01*
X118153258Y-112583511D01*
X118094366Y-112803302D01*
X118094364Y-112803313D01*
X118074532Y-113029998D01*
X118074532Y-113030001D01*
X118094364Y-113256686D01*
X118094366Y-113256697D01*
X118153258Y-113476488D01*
X118153261Y-113476497D01*
X118249431Y-113682732D01*
X118249432Y-113682734D01*
X118379954Y-113869141D01*
X118540858Y-114030045D01*
X118540861Y-114030047D01*
X118727266Y-114160568D01*
X118785275Y-114187618D01*
X118837714Y-114233791D01*
X118856866Y-114300984D01*
X118836650Y-114367865D01*
X118785275Y-114412382D01*
X118727267Y-114439431D01*
X118727265Y-114439432D01*
X118540858Y-114569954D01*
X118379954Y-114730858D01*
X118249432Y-114917265D01*
X118249431Y-114917267D01*
X118153261Y-115123502D01*
X118153258Y-115123511D01*
X118094366Y-115343302D01*
X118094364Y-115343313D01*
X118074532Y-115569998D01*
X118074532Y-115570001D01*
X118094364Y-115796686D01*
X118094366Y-115796697D01*
X118153258Y-116016488D01*
X118153261Y-116016497D01*
X118249431Y-116222732D01*
X118249432Y-116222734D01*
X118379954Y-116409141D01*
X118540858Y-116570045D01*
X118540861Y-116570047D01*
X118727266Y-116700568D01*
X118745544Y-116709091D01*
X118785275Y-116727618D01*
X118837714Y-116773791D01*
X118856866Y-116840984D01*
X118836650Y-116907865D01*
X118785275Y-116952382D01*
X118727267Y-116979431D01*
X118727265Y-116979432D01*
X118540858Y-117109954D01*
X118379954Y-117270858D01*
X118249432Y-117457265D01*
X118249431Y-117457267D01*
X118153261Y-117663502D01*
X118153258Y-117663511D01*
X118094366Y-117883302D01*
X118094364Y-117883313D01*
X118074532Y-118109998D01*
X118074532Y-118110001D01*
X118094364Y-118336686D01*
X118094366Y-118336697D01*
X118153258Y-118556488D01*
X118153261Y-118556497D01*
X118249431Y-118762732D01*
X118249432Y-118762734D01*
X118379954Y-118949141D01*
X118540858Y-119110045D01*
X118540861Y-119110047D01*
X118727266Y-119240568D01*
X118785275Y-119267618D01*
X118837714Y-119313791D01*
X118856866Y-119380984D01*
X118836650Y-119447865D01*
X118785275Y-119492382D01*
X118727267Y-119519431D01*
X118727265Y-119519432D01*
X118540858Y-119649954D01*
X118379954Y-119810858D01*
X118249432Y-119997265D01*
X118249431Y-119997267D01*
X118153261Y-120203502D01*
X118153258Y-120203511D01*
X118094366Y-120423302D01*
X118094364Y-120423313D01*
X118074532Y-120649998D01*
X118074532Y-120650001D01*
X118094364Y-120876686D01*
X118094366Y-120876697D01*
X118153258Y-121096488D01*
X118153261Y-121096497D01*
X118249431Y-121302732D01*
X118249432Y-121302734D01*
X118379954Y-121489141D01*
X118540858Y-121650045D01*
X118540861Y-121650047D01*
X118727266Y-121780568D01*
X118785275Y-121807618D01*
X118837714Y-121853791D01*
X118856866Y-121920984D01*
X118836650Y-121987865D01*
X118785275Y-122032382D01*
X118727267Y-122059431D01*
X118727265Y-122059432D01*
X118540858Y-122189954D01*
X118379954Y-122350858D01*
X118249432Y-122537265D01*
X118249431Y-122537267D01*
X118153261Y-122743502D01*
X118153258Y-122743511D01*
X118094366Y-122963302D01*
X118094364Y-122963313D01*
X118074532Y-123189998D01*
X118074532Y-123190001D01*
X118094364Y-123416686D01*
X118094366Y-123416697D01*
X118153258Y-123636488D01*
X118153261Y-123636497D01*
X118249431Y-123842732D01*
X118249432Y-123842734D01*
X118379954Y-124029141D01*
X118540858Y-124190045D01*
X118540861Y-124190047D01*
X118727266Y-124320568D01*
X118785275Y-124347618D01*
X118837714Y-124393791D01*
X118856866Y-124460984D01*
X118836650Y-124527865D01*
X118785275Y-124572382D01*
X118727267Y-124599431D01*
X118727265Y-124599432D01*
X118540858Y-124729954D01*
X118379954Y-124890858D01*
X118249432Y-125077265D01*
X118249431Y-125077267D01*
X118153261Y-125283502D01*
X118153258Y-125283511D01*
X118094366Y-125503302D01*
X118094364Y-125503313D01*
X118074532Y-125729998D01*
X118074532Y-125730001D01*
X118094364Y-125956686D01*
X118094366Y-125956697D01*
X118153258Y-126176488D01*
X118153261Y-126176497D01*
X118249431Y-126382732D01*
X118249432Y-126382734D01*
X118379954Y-126569141D01*
X118540858Y-126730045D01*
X118540861Y-126730047D01*
X118727266Y-126860568D01*
X118933504Y-126956739D01*
X119153308Y-127015635D01*
X119315230Y-127029801D01*
X119379998Y-127035468D01*
X119380000Y-127035468D01*
X119380002Y-127035468D01*
X119436673Y-127030509D01*
X119606692Y-127015635D01*
X119826496Y-126956739D01*
X120032734Y-126860568D01*
X120219139Y-126730047D01*
X120380047Y-126569139D01*
X120510568Y-126382734D01*
X120606739Y-126176496D01*
X120665635Y-125956692D01*
X120682634Y-125762384D01*
X120685468Y-125730001D01*
X120685468Y-125729998D01*
X120669948Y-125552606D01*
X120665635Y-125503308D01*
X120606739Y-125283504D01*
X120510568Y-125077266D01*
X120380047Y-124890861D01*
X120380045Y-124890858D01*
X120219141Y-124729954D01*
X120032734Y-124599432D01*
X120032728Y-124599429D01*
X119974725Y-124572382D01*
X119922285Y-124526210D01*
X119903133Y-124459017D01*
X119923348Y-124392135D01*
X119974725Y-124347618D01*
X120032734Y-124320568D01*
X120219139Y-124190047D01*
X120380047Y-124029139D01*
X120510568Y-123842734D01*
X120606739Y-123636496D01*
X120665635Y-123416692D01*
X120685468Y-123190000D01*
X120665635Y-122963308D01*
X120606739Y-122743504D01*
X120510568Y-122537266D01*
X120380047Y-122350861D01*
X120380045Y-122350858D01*
X120219141Y-122189954D01*
X120032734Y-122059432D01*
X120032728Y-122059429D01*
X119974725Y-122032382D01*
X119922285Y-121986210D01*
X119903133Y-121919017D01*
X119923348Y-121852135D01*
X119974725Y-121807618D01*
X120032734Y-121780568D01*
X120219139Y-121650047D01*
X120380047Y-121489139D01*
X120510568Y-121302734D01*
X120606739Y-121096496D01*
X120665635Y-120876692D01*
X120685468Y-120650000D01*
X120665635Y-120423308D01*
X120606739Y-120203504D01*
X120510568Y-119997266D01*
X120380047Y-119810861D01*
X120380045Y-119810858D01*
X120219141Y-119649954D01*
X120032734Y-119519432D01*
X120032728Y-119519429D01*
X119974725Y-119492382D01*
X119922285Y-119446210D01*
X119903133Y-119379017D01*
X119923348Y-119312135D01*
X119974725Y-119267618D01*
X120032734Y-119240568D01*
X120219139Y-119110047D01*
X120380047Y-118949139D01*
X120510568Y-118762734D01*
X120606739Y-118556496D01*
X120665635Y-118336692D01*
X120685468Y-118110000D01*
X120665635Y-117883308D01*
X120606739Y-117663504D01*
X120510568Y-117457266D01*
X120380047Y-117270861D01*
X120380045Y-117270858D01*
X120219141Y-117109954D01*
X120032734Y-116979432D01*
X120032728Y-116979429D01*
X119974725Y-116952382D01*
X119922285Y-116906210D01*
X119903133Y-116839017D01*
X119923348Y-116772135D01*
X119974725Y-116727618D01*
X120032734Y-116700568D01*
X120219139Y-116570047D01*
X120380047Y-116409139D01*
X120510568Y-116222734D01*
X120606739Y-116016496D01*
X120665635Y-115796692D01*
X120685468Y-115570000D01*
X120665635Y-115343308D01*
X120606739Y-115123504D01*
X120510568Y-114917266D01*
X120380047Y-114730861D01*
X120380045Y-114730858D01*
X120219141Y-114569954D01*
X120032734Y-114439432D01*
X120032728Y-114439429D01*
X119974725Y-114412382D01*
X119922285Y-114366210D01*
X119903133Y-114299017D01*
X119923348Y-114232135D01*
X119974725Y-114187618D01*
X120032734Y-114160568D01*
X120219139Y-114030047D01*
X120380047Y-113869139D01*
X120510568Y-113682734D01*
X120537618Y-113624724D01*
X120583790Y-113572285D01*
X120650983Y-113553133D01*
X120717865Y-113573348D01*
X120762382Y-113624725D01*
X120789429Y-113682728D01*
X120789432Y-113682734D01*
X120919954Y-113869141D01*
X121080858Y-114030045D01*
X121080861Y-114030047D01*
X121267266Y-114160568D01*
X121473504Y-114256739D01*
X121693308Y-114315635D01*
X121855230Y-114329801D01*
X121919998Y-114335468D01*
X121920000Y-114335468D01*
X121920002Y-114335468D01*
X121976673Y-114330509D01*
X122146692Y-114315635D01*
X122366496Y-114256739D01*
X122572734Y-114160568D01*
X122759139Y-114030047D01*
X122920047Y-113869139D01*
X123050568Y-113682734D01*
X123077618Y-113624724D01*
X123123790Y-113572285D01*
X123190983Y-113553133D01*
X123257865Y-113573348D01*
X123302382Y-113624725D01*
X123329429Y-113682728D01*
X123329432Y-113682734D01*
X123459954Y-113869141D01*
X123620858Y-114030045D01*
X123620861Y-114030047D01*
X123807266Y-114160568D01*
X124013504Y-114256739D01*
X124233308Y-114315635D01*
X124395230Y-114329801D01*
X124459998Y-114335468D01*
X124460000Y-114335468D01*
X124460002Y-114335468D01*
X124516673Y-114330509D01*
X124686692Y-114315635D01*
X124906496Y-114256739D01*
X125112734Y-114160568D01*
X125299139Y-114030047D01*
X125460047Y-113869139D01*
X125590568Y-113682734D01*
X125617618Y-113624724D01*
X125663790Y-113572285D01*
X125730983Y-113553133D01*
X125797865Y-113573348D01*
X125842382Y-113624725D01*
X125869429Y-113682728D01*
X125869432Y-113682734D01*
X125999954Y-113869141D01*
X126160858Y-114030045D01*
X126160861Y-114030047D01*
X126347266Y-114160568D01*
X126553504Y-114256739D01*
X126773308Y-114315635D01*
X126935230Y-114329801D01*
X126999998Y-114335468D01*
X127000000Y-114335468D01*
X127000002Y-114335468D01*
X127056672Y-114330509D01*
X127226692Y-114315635D01*
X127446496Y-114256739D01*
X127652734Y-114160568D01*
X127839139Y-114030047D01*
X128000047Y-113869139D01*
X128130568Y-113682734D01*
X128157618Y-113624724D01*
X128203790Y-113572285D01*
X128270983Y-113553133D01*
X128337865Y-113573348D01*
X128382382Y-113624725D01*
X128409429Y-113682728D01*
X128409432Y-113682734D01*
X128539954Y-113869141D01*
X128700858Y-114030045D01*
X128700861Y-114030047D01*
X128887266Y-114160568D01*
X129093504Y-114256739D01*
X129313308Y-114315635D01*
X129475230Y-114329801D01*
X129539998Y-114335468D01*
X129540000Y-114335468D01*
X129540002Y-114335468D01*
X129596673Y-114330509D01*
X129766692Y-114315635D01*
X129986496Y-114256739D01*
X130192734Y-114160568D01*
X130379139Y-114030047D01*
X130540047Y-113869139D01*
X130670568Y-113682734D01*
X130697618Y-113624724D01*
X130743790Y-113572285D01*
X130810983Y-113553133D01*
X130877865Y-113573348D01*
X130922382Y-113624725D01*
X130949429Y-113682728D01*
X130949432Y-113682734D01*
X131079954Y-113869141D01*
X131240858Y-114030045D01*
X131240861Y-114030047D01*
X131427266Y-114160568D01*
X131633504Y-114256739D01*
X131853308Y-114315635D01*
X132015230Y-114329801D01*
X132079998Y-114335468D01*
X132080000Y-114335468D01*
X132080002Y-114335468D01*
X132136673Y-114330509D01*
X132306692Y-114315635D01*
X132526496Y-114256739D01*
X132732734Y-114160568D01*
X132919139Y-114030047D01*
X133080047Y-113869139D01*
X133210568Y-113682734D01*
X133237618Y-113624724D01*
X133283790Y-113572285D01*
X133350983Y-113553133D01*
X133417865Y-113573348D01*
X133462382Y-113624725D01*
X133489429Y-113682728D01*
X133489432Y-113682734D01*
X133619954Y-113869141D01*
X133780858Y-114030045D01*
X133780861Y-114030047D01*
X133967266Y-114160568D01*
X134025275Y-114187618D01*
X134077714Y-114233791D01*
X134096866Y-114300984D01*
X134076650Y-114367865D01*
X134025275Y-114412382D01*
X133967267Y-114439431D01*
X133967265Y-114439432D01*
X133780858Y-114569954D01*
X133619954Y-114730858D01*
X133489432Y-114917265D01*
X133489431Y-114917267D01*
X133393261Y-115123502D01*
X133393258Y-115123511D01*
X133334366Y-115343302D01*
X133334364Y-115343313D01*
X133314532Y-115569998D01*
X133314532Y-115570001D01*
X133334364Y-115796686D01*
X133334366Y-115796697D01*
X133393258Y-116016488D01*
X133393261Y-116016497D01*
X133489431Y-116222732D01*
X133489432Y-116222734D01*
X133619954Y-116409141D01*
X133780858Y-116570045D01*
X133780861Y-116570047D01*
X133967266Y-116700568D01*
X133985544Y-116709091D01*
X134025275Y-116727618D01*
X134077714Y-116773791D01*
X134096866Y-116840984D01*
X134076650Y-116907865D01*
X134025275Y-116952382D01*
X133967267Y-116979431D01*
X133967265Y-116979432D01*
X133780858Y-117109954D01*
X133619954Y-117270858D01*
X133489432Y-117457265D01*
X133489431Y-117457267D01*
X133393261Y-117663502D01*
X133393258Y-117663511D01*
X133334366Y-117883302D01*
X133334364Y-117883313D01*
X133314532Y-118109998D01*
X133314532Y-118110001D01*
X133334364Y-118336686D01*
X133334366Y-118336697D01*
X133393258Y-118556488D01*
X133393261Y-118556497D01*
X133489431Y-118762732D01*
X133489432Y-118762734D01*
X133619954Y-118949141D01*
X133780858Y-119110045D01*
X133780861Y-119110047D01*
X133967266Y-119240568D01*
X134025275Y-119267618D01*
X134077714Y-119313791D01*
X134096866Y-119380984D01*
X134076650Y-119447865D01*
X134025275Y-119492382D01*
X133967267Y-119519431D01*
X133967265Y-119519432D01*
X133780858Y-119649954D01*
X133619954Y-119810858D01*
X133489432Y-119997265D01*
X133489431Y-119997267D01*
X133393261Y-120203502D01*
X133393258Y-120203511D01*
X133334366Y-120423302D01*
X133334364Y-120423313D01*
X133314532Y-120649998D01*
X133314532Y-120650001D01*
X133334364Y-120876686D01*
X133334366Y-120876697D01*
X133393258Y-121096488D01*
X133393261Y-121096497D01*
X133489431Y-121302732D01*
X133489432Y-121302734D01*
X133619954Y-121489141D01*
X133780858Y-121650045D01*
X133780861Y-121650047D01*
X133967266Y-121780568D01*
X134025275Y-121807618D01*
X134077714Y-121853791D01*
X134096866Y-121920984D01*
X134076650Y-121987865D01*
X134025275Y-122032382D01*
X133967267Y-122059431D01*
X133967265Y-122059432D01*
X133780858Y-122189954D01*
X133619954Y-122350858D01*
X133489432Y-122537265D01*
X133489431Y-122537267D01*
X133393261Y-122743502D01*
X133393258Y-122743511D01*
X133334366Y-122963302D01*
X133334364Y-122963313D01*
X133314532Y-123189998D01*
X133314532Y-123190001D01*
X133334364Y-123416686D01*
X133334366Y-123416697D01*
X133393258Y-123636488D01*
X133393261Y-123636497D01*
X133489431Y-123842732D01*
X133489432Y-123842734D01*
X133619954Y-124029141D01*
X133780858Y-124190045D01*
X133780861Y-124190047D01*
X133967266Y-124320568D01*
X134025275Y-124347618D01*
X134077714Y-124393791D01*
X134096866Y-124460984D01*
X134076650Y-124527865D01*
X134025275Y-124572382D01*
X133967267Y-124599431D01*
X133967265Y-124599432D01*
X133780858Y-124729954D01*
X133619954Y-124890858D01*
X133489432Y-125077265D01*
X133489431Y-125077267D01*
X133393261Y-125283502D01*
X133393258Y-125283511D01*
X133334366Y-125503302D01*
X133334364Y-125503313D01*
X133314532Y-125729998D01*
X133314532Y-125730001D01*
X133334364Y-125956686D01*
X133334366Y-125956697D01*
X133393258Y-126176488D01*
X133393261Y-126176497D01*
X133489431Y-126382732D01*
X133489432Y-126382734D01*
X133619954Y-126569141D01*
X133780858Y-126730045D01*
X133780861Y-126730047D01*
X133967266Y-126860568D01*
X134173504Y-126956739D01*
X134393308Y-127015635D01*
X134555230Y-127029801D01*
X134619998Y-127035468D01*
X134620000Y-127035468D01*
X134620002Y-127035468D01*
X134676673Y-127030509D01*
X134846692Y-127015635D01*
X135066496Y-126956739D01*
X135272734Y-126860568D01*
X135459139Y-126730047D01*
X135620047Y-126569139D01*
X135750568Y-126382734D01*
X135846739Y-126176496D01*
X135905635Y-125956692D01*
X135922634Y-125762384D01*
X135925468Y-125730001D01*
X135925468Y-125729998D01*
X135909948Y-125552606D01*
X135905635Y-125503308D01*
X135846739Y-125283504D01*
X135750568Y-125077266D01*
X135620047Y-124890861D01*
X135620045Y-124890858D01*
X135459141Y-124729954D01*
X135272734Y-124599432D01*
X135272728Y-124599429D01*
X135214725Y-124572382D01*
X135162285Y-124526210D01*
X135143133Y-124459017D01*
X135163348Y-124392135D01*
X135214725Y-124347618D01*
X135272734Y-124320568D01*
X135459139Y-124190047D01*
X135620047Y-124029139D01*
X135750568Y-123842734D01*
X135846739Y-123636496D01*
X135905635Y-123416692D01*
X135925468Y-123190000D01*
X135905635Y-122963308D01*
X135846739Y-122743504D01*
X135750568Y-122537266D01*
X135620047Y-122350861D01*
X135620045Y-122350858D01*
X135459141Y-122189954D01*
X135272734Y-122059432D01*
X135272728Y-122059429D01*
X135214725Y-122032382D01*
X135162285Y-121986210D01*
X135143133Y-121919017D01*
X135163348Y-121852135D01*
X135214725Y-121807618D01*
X135272734Y-121780568D01*
X135459139Y-121650047D01*
X135620047Y-121489139D01*
X135750568Y-121302734D01*
X135846739Y-121096496D01*
X135905635Y-120876692D01*
X135925468Y-120650000D01*
X135905635Y-120423308D01*
X135846739Y-120203504D01*
X135750568Y-119997266D01*
X135620047Y-119810861D01*
X135620045Y-119810858D01*
X135459141Y-119649954D01*
X135272734Y-119519432D01*
X135272728Y-119519429D01*
X135214725Y-119492382D01*
X135162285Y-119446210D01*
X135143133Y-119379017D01*
X135163348Y-119312135D01*
X135214725Y-119267618D01*
X135272734Y-119240568D01*
X135459139Y-119110047D01*
X135620047Y-118949139D01*
X135750568Y-118762734D01*
X135846739Y-118556496D01*
X135905635Y-118336692D01*
X135925468Y-118110000D01*
X135905635Y-117883308D01*
X135846739Y-117663504D01*
X135750568Y-117457266D01*
X135620047Y-117270861D01*
X135620045Y-117270858D01*
X135459141Y-117109954D01*
X135272734Y-116979432D01*
X135272728Y-116979429D01*
X135214725Y-116952382D01*
X135162285Y-116906210D01*
X135143133Y-116839017D01*
X135163348Y-116772135D01*
X135214725Y-116727618D01*
X135272734Y-116700568D01*
X135459139Y-116570047D01*
X135620047Y-116409139D01*
X135710470Y-116280000D01*
X159365426Y-116280000D01*
X159384485Y-116497849D01*
X159384487Y-116497859D01*
X159441083Y-116709082D01*
X159441085Y-116709086D01*
X159441086Y-116709090D01*
X159487296Y-116808188D01*
X159533506Y-116907286D01*
X159558593Y-116943114D01*
X159658941Y-117086425D01*
X159813575Y-117241059D01*
X159992713Y-117366493D01*
X160190910Y-117458914D01*
X160402146Y-117515514D01*
X160576429Y-117530761D01*
X160619999Y-117534574D01*
X160620000Y-117534574D01*
X160620001Y-117534574D01*
X160656308Y-117531397D01*
X160837854Y-117515514D01*
X161049090Y-117458914D01*
X161247287Y-117366493D01*
X161426425Y-117241059D01*
X161581059Y-117086425D01*
X161706493Y-116907287D01*
X161798914Y-116709090D01*
X161855514Y-116497854D01*
X161874574Y-116280000D01*
X161855514Y-116062146D01*
X161798914Y-115850910D01*
X161706493Y-115652713D01*
X161581059Y-115473575D01*
X161426425Y-115318941D01*
X161247287Y-115193507D01*
X161137648Y-115142381D01*
X161085209Y-115096210D01*
X161066057Y-115029016D01*
X161086273Y-114962135D01*
X161137649Y-114917618D01*
X161138406Y-114917265D01*
X161247287Y-114866493D01*
X161426425Y-114741059D01*
X161581059Y-114586425D01*
X161706493Y-114407287D01*
X161798914Y-114209090D01*
X161855514Y-113997854D01*
X161874574Y-113780000D01*
X161855514Y-113562146D01*
X161798914Y-113350910D01*
X161706493Y-113152713D01*
X161581059Y-112973575D01*
X161426425Y-112818941D01*
X161247287Y-112693507D01*
X161247288Y-112693507D01*
X161247286Y-112693506D01*
X161114630Y-112631648D01*
X161049090Y-112601086D01*
X161049086Y-112601085D01*
X161049082Y-112601083D01*
X160837859Y-112544487D01*
X160837849Y-112544485D01*
X160620001Y-112525426D01*
X160619999Y-112525426D01*
X160402150Y-112544485D01*
X160402140Y-112544487D01*
X160190917Y-112601083D01*
X160190908Y-112601087D01*
X159992713Y-112693506D01*
X159873201Y-112777190D01*
X159813575Y-112818941D01*
X159813573Y-112818942D01*
X159813570Y-112818945D01*
X159658945Y-112973570D01*
X159533506Y-113152713D01*
X159441087Y-113350908D01*
X159441083Y-113350917D01*
X159384487Y-113562140D01*
X159384485Y-113562150D01*
X159365426Y-113779999D01*
X159365426Y-113780000D01*
X159384485Y-113997849D01*
X159384487Y-113997859D01*
X159441083Y-114209082D01*
X159441085Y-114209086D01*
X159441086Y-114209090D01*
X159463305Y-114256738D01*
X159533506Y-114407286D01*
X159556015Y-114439432D01*
X159658941Y-114586425D01*
X159813575Y-114741059D01*
X159992713Y-114866493D01*
X160102351Y-114917618D01*
X160154790Y-114963789D01*
X160173942Y-115030982D01*
X160153727Y-115097863D01*
X160102352Y-115142381D01*
X159992711Y-115193508D01*
X159912954Y-115249354D01*
X159813575Y-115318941D01*
X159813573Y-115318942D01*
X159813570Y-115318945D01*
X159658945Y-115473570D01*
X159533506Y-115652713D01*
X159441087Y-115850908D01*
X159441083Y-115850917D01*
X159384487Y-116062140D01*
X159384485Y-116062150D01*
X159365426Y-116279999D01*
X159365426Y-116280000D01*
X135710470Y-116280000D01*
X135750568Y-116222734D01*
X135846739Y-116016496D01*
X135905635Y-115796692D01*
X135925468Y-115570000D01*
X135905635Y-115343308D01*
X135846739Y-115123504D01*
X135750568Y-114917266D01*
X135620047Y-114730861D01*
X135620045Y-114730858D01*
X135459141Y-114569954D01*
X135272734Y-114439432D01*
X135272728Y-114439429D01*
X135214725Y-114412382D01*
X135162285Y-114366210D01*
X135143133Y-114299017D01*
X135163348Y-114232135D01*
X135214725Y-114187618D01*
X135272734Y-114160568D01*
X135459139Y-114030047D01*
X135620047Y-113869139D01*
X135750568Y-113682734D01*
X135846739Y-113476496D01*
X135905635Y-113256692D01*
X135925468Y-113030000D01*
X135905635Y-112803308D01*
X135846739Y-112583504D01*
X135750568Y-112377266D01*
X135620047Y-112190861D01*
X135620045Y-112190858D01*
X135459141Y-112029954D01*
X135272734Y-111899432D01*
X135272728Y-111899429D01*
X135214725Y-111872382D01*
X135162285Y-111826210D01*
X135143133Y-111759017D01*
X135163348Y-111692135D01*
X135214725Y-111647618D01*
X135272734Y-111620568D01*
X135459139Y-111490047D01*
X135620047Y-111329139D01*
X135750568Y-111142734D01*
X135846739Y-110936496D01*
X135905635Y-110716692D01*
X135925468Y-110490000D01*
X135905635Y-110263308D01*
X135846739Y-110043504D01*
X135750568Y-109837266D01*
X135620047Y-109650861D01*
X135620045Y-109650858D01*
X135459141Y-109489954D01*
X135272734Y-109359432D01*
X135272728Y-109359429D01*
X135214725Y-109332382D01*
X135162285Y-109286210D01*
X135143133Y-109219017D01*
X135163348Y-109152135D01*
X135214725Y-109107618D01*
X135272734Y-109080568D01*
X135459139Y-108950047D01*
X135620047Y-108789139D01*
X135750568Y-108602734D01*
X135846739Y-108396496D01*
X135905635Y-108176692D01*
X135925468Y-107950000D01*
X135905635Y-107723308D01*
X135846739Y-107503504D01*
X135750568Y-107297266D01*
X135620047Y-107110861D01*
X135620045Y-107110858D01*
X135459141Y-106949954D01*
X135287101Y-106829492D01*
X135272734Y-106819432D01*
X135214722Y-106792380D01*
X135162284Y-106746208D01*
X135143133Y-106679014D01*
X135163349Y-106612133D01*
X135214721Y-106567619D01*
X135272734Y-106540568D01*
X135459139Y-106410047D01*
X135620047Y-106249139D01*
X135750568Y-106062734D01*
X135846739Y-105856496D01*
X135905635Y-105636692D01*
X135925468Y-105410000D01*
X135905635Y-105183308D01*
X135846739Y-104963504D01*
X135750568Y-104757266D01*
X135620047Y-104570861D01*
X135620045Y-104570858D01*
X135459141Y-104409954D01*
X135272734Y-104279432D01*
X135272732Y-104279431D01*
X135066497Y-104183261D01*
X135066488Y-104183258D01*
X134846697Y-104124366D01*
X134846693Y-104124365D01*
X134846692Y-104124365D01*
X134846691Y-104124364D01*
X134846686Y-104124364D01*
X134620002Y-104104532D01*
X134619998Y-104104532D01*
X134393313Y-104124364D01*
X134393302Y-104124366D01*
X134173511Y-104183258D01*
X134173502Y-104183261D01*
X133967267Y-104279431D01*
X133967265Y-104279432D01*
X133780858Y-104409954D01*
X133619954Y-104570858D01*
X133489432Y-104757265D01*
X133489431Y-104757267D01*
X133393261Y-104963502D01*
X133393258Y-104963511D01*
X133334366Y-105183302D01*
X133334364Y-105183313D01*
X133314532Y-105409998D01*
X133314532Y-105410001D01*
X133334364Y-105636686D01*
X133334366Y-105636697D01*
X133393258Y-105856488D01*
X133393261Y-105856497D01*
X133489431Y-106062732D01*
X133489432Y-106062734D01*
X133619954Y-106249141D01*
X133780858Y-106410045D01*
X133940517Y-106521838D01*
X133967266Y-106540568D01*
X134025278Y-106567619D01*
X134077713Y-106613788D01*
X134096866Y-106680982D01*
X134076651Y-106747863D01*
X134025277Y-106792380D01*
X133967268Y-106819430D01*
X133967265Y-106819432D01*
X133780858Y-106949954D01*
X133619954Y-107110858D01*
X133489432Y-107297265D01*
X133489431Y-107297267D01*
X133393261Y-107503502D01*
X133393258Y-107503511D01*
X133334366Y-107723302D01*
X133334364Y-107723313D01*
X133314532Y-107949998D01*
X133314532Y-107950001D01*
X133334364Y-108176686D01*
X133334366Y-108176697D01*
X133393258Y-108396488D01*
X133393261Y-108396497D01*
X133489431Y-108602732D01*
X133489432Y-108602734D01*
X133619954Y-108789141D01*
X133780858Y-108950045D01*
X133780861Y-108950047D01*
X133967266Y-109080568D01*
X133997094Y-109094477D01*
X134025275Y-109107618D01*
X134077714Y-109153791D01*
X134096866Y-109220984D01*
X134076650Y-109287865D01*
X134025275Y-109332382D01*
X133967267Y-109359431D01*
X133967265Y-109359432D01*
X133780858Y-109489954D01*
X133619954Y-109650858D01*
X133489432Y-109837265D01*
X133489431Y-109837267D01*
X133393261Y-110043502D01*
X133393258Y-110043511D01*
X133334366Y-110263302D01*
X133334364Y-110263313D01*
X133314532Y-110489998D01*
X133314532Y-110490001D01*
X133334364Y-110716686D01*
X133334366Y-110716697D01*
X133393258Y-110936488D01*
X133393261Y-110936497D01*
X133489431Y-111142732D01*
X133489432Y-111142734D01*
X133619954Y-111329141D01*
X133780858Y-111490045D01*
X133780861Y-111490047D01*
X133967266Y-111620568D01*
X133991186Y-111631722D01*
X134025275Y-111647618D01*
X134077714Y-111693791D01*
X134096866Y-111760984D01*
X134076650Y-111827865D01*
X134025275Y-111872382D01*
X133967267Y-111899431D01*
X133967265Y-111899432D01*
X133780858Y-112029954D01*
X133619954Y-112190858D01*
X133489432Y-112377265D01*
X133489431Y-112377267D01*
X133462382Y-112435275D01*
X133416209Y-112487714D01*
X133349016Y-112506866D01*
X133282135Y-112486650D01*
X133237618Y-112435275D01*
X133210568Y-112377267D01*
X133210567Y-112377265D01*
X133080045Y-112190858D01*
X132919141Y-112029954D01*
X132732734Y-111899432D01*
X132732732Y-111899431D01*
X132526497Y-111803261D01*
X132526488Y-111803258D01*
X132306697Y-111744366D01*
X132306693Y-111744365D01*
X132306692Y-111744365D01*
X132306691Y-111744364D01*
X132306686Y-111744364D01*
X132080002Y-111724532D01*
X132079998Y-111724532D01*
X131853313Y-111744364D01*
X131853302Y-111744366D01*
X131633511Y-111803258D01*
X131633502Y-111803261D01*
X131427267Y-111899431D01*
X131427265Y-111899432D01*
X131240858Y-112029954D01*
X131079954Y-112190858D01*
X130949432Y-112377265D01*
X130949431Y-112377267D01*
X130922382Y-112435275D01*
X130876209Y-112487714D01*
X130809016Y-112506866D01*
X130742135Y-112486650D01*
X130697618Y-112435275D01*
X130670568Y-112377267D01*
X130670567Y-112377265D01*
X130540045Y-112190858D01*
X130379141Y-112029954D01*
X130192734Y-111899432D01*
X130192732Y-111899431D01*
X129986497Y-111803261D01*
X129986488Y-111803258D01*
X129766697Y-111744366D01*
X129766693Y-111744365D01*
X129766692Y-111744365D01*
X129766691Y-111744364D01*
X129766686Y-111744364D01*
X129540002Y-111724532D01*
X129539998Y-111724532D01*
X129313313Y-111744364D01*
X129313302Y-111744366D01*
X129093511Y-111803258D01*
X129093502Y-111803261D01*
X128887267Y-111899431D01*
X128887265Y-111899432D01*
X128700858Y-112029954D01*
X128539954Y-112190858D01*
X128409432Y-112377265D01*
X128409431Y-112377267D01*
X128382382Y-112435275D01*
X128336209Y-112487714D01*
X128269016Y-112506866D01*
X128202135Y-112486650D01*
X128157618Y-112435275D01*
X128130568Y-112377267D01*
X128130567Y-112377265D01*
X128000045Y-112190858D01*
X127839141Y-112029954D01*
X127652734Y-111899432D01*
X127652732Y-111899431D01*
X127446497Y-111803261D01*
X127446488Y-111803258D01*
X127226697Y-111744366D01*
X127226693Y-111744365D01*
X127226692Y-111744365D01*
X127226691Y-111744364D01*
X127226686Y-111744364D01*
X127000002Y-111724532D01*
X126999998Y-111724532D01*
X126773313Y-111744364D01*
X126773302Y-111744366D01*
X126553511Y-111803258D01*
X126553502Y-111803261D01*
X126347267Y-111899431D01*
X126347265Y-111899432D01*
X126160858Y-112029954D01*
X125999954Y-112190858D01*
X125869432Y-112377265D01*
X125869431Y-112377267D01*
X125842382Y-112435275D01*
X125796209Y-112487714D01*
X125729016Y-112506866D01*
X125662135Y-112486650D01*
X125617618Y-112435275D01*
X125590568Y-112377267D01*
X125590567Y-112377265D01*
X125460045Y-112190858D01*
X125299141Y-112029954D01*
X125112734Y-111899432D01*
X125112732Y-111899431D01*
X124906497Y-111803261D01*
X124906488Y-111803258D01*
X124686697Y-111744366D01*
X124686693Y-111744365D01*
X124686692Y-111744365D01*
X124686691Y-111744364D01*
X124686686Y-111744364D01*
X124460002Y-111724532D01*
X124459998Y-111724532D01*
X124233313Y-111744364D01*
X124233302Y-111744366D01*
X124013511Y-111803258D01*
X124013502Y-111803261D01*
X123807267Y-111899431D01*
X123807265Y-111899432D01*
X123620858Y-112029954D01*
X123459954Y-112190858D01*
X123329432Y-112377265D01*
X123329431Y-112377267D01*
X123302382Y-112435275D01*
X123256209Y-112487714D01*
X123189016Y-112506866D01*
X123122135Y-112486650D01*
X123077618Y-112435275D01*
X123050568Y-112377267D01*
X123050567Y-112377265D01*
X122920045Y-112190858D01*
X122759141Y-112029954D01*
X122572734Y-111899432D01*
X122572732Y-111899431D01*
X122366497Y-111803261D01*
X122366488Y-111803258D01*
X122146697Y-111744366D01*
X122146693Y-111744365D01*
X122146692Y-111744365D01*
X122146691Y-111744364D01*
X122146686Y-111744364D01*
X121920002Y-111724532D01*
X121919998Y-111724532D01*
X121693313Y-111744364D01*
X121693302Y-111744366D01*
X121473511Y-111803258D01*
X121473502Y-111803261D01*
X121267267Y-111899431D01*
X121267265Y-111899432D01*
X121080858Y-112029954D01*
X120919954Y-112190858D01*
X120789432Y-112377265D01*
X120789431Y-112377267D01*
X120762382Y-112435275D01*
X120716209Y-112487714D01*
X120649016Y-112506866D01*
X120582135Y-112486650D01*
X120537618Y-112435275D01*
X120510568Y-112377267D01*
X120510567Y-112377265D01*
X120380045Y-112190858D01*
X120219141Y-112029954D01*
X120032734Y-111899432D01*
X120032728Y-111899429D01*
X119974725Y-111872382D01*
X119922285Y-111826210D01*
X119903133Y-111759017D01*
X119923348Y-111692135D01*
X119974725Y-111647618D01*
X120032734Y-111620568D01*
X120219139Y-111490047D01*
X120380047Y-111329139D01*
X120510568Y-111142734D01*
X120606739Y-110936496D01*
X120665635Y-110716692D01*
X120685468Y-110490000D01*
X120665635Y-110263308D01*
X120606739Y-110043504D01*
X120510568Y-109837266D01*
X120380047Y-109650861D01*
X120380045Y-109650858D01*
X120219141Y-109489954D01*
X120032734Y-109359432D01*
X120032728Y-109359429D01*
X119974725Y-109332382D01*
X119922285Y-109286210D01*
X119903133Y-109219017D01*
X119923348Y-109152135D01*
X119974725Y-109107618D01*
X120032734Y-109080568D01*
X120219139Y-108950047D01*
X120380047Y-108789139D01*
X120510568Y-108602734D01*
X120606739Y-108396496D01*
X120665635Y-108176692D01*
X120685468Y-107950000D01*
X120665635Y-107723308D01*
X120606739Y-107503504D01*
X120510568Y-107297266D01*
X120380047Y-107110861D01*
X120380045Y-107110858D01*
X120219141Y-106949954D01*
X120032734Y-106819432D01*
X120032728Y-106819429D01*
X119974725Y-106792382D01*
X119922285Y-106746210D01*
X119903133Y-106679017D01*
X119923348Y-106612135D01*
X119974725Y-106567618D01*
X120032734Y-106540568D01*
X120219139Y-106410047D01*
X120380047Y-106249139D01*
X120510568Y-106062734D01*
X120606739Y-105856496D01*
X120665635Y-105636692D01*
X120685468Y-105410000D01*
X120665635Y-105183308D01*
X120606739Y-104963504D01*
X120510568Y-104757266D01*
X120380047Y-104570861D01*
X120380045Y-104570858D01*
X120219141Y-104409954D01*
X120032734Y-104279432D01*
X120032728Y-104279429D01*
X119974725Y-104252382D01*
X119922285Y-104206210D01*
X119903133Y-104139017D01*
X119923348Y-104072135D01*
X119974725Y-104027618D01*
X120032734Y-104000568D01*
X120219139Y-103870047D01*
X120380047Y-103709139D01*
X120510568Y-103522734D01*
X120606739Y-103316496D01*
X120665635Y-103096692D01*
X120685468Y-102870000D01*
X120684295Y-102856597D01*
X120674242Y-102741691D01*
X120665635Y-102643308D01*
X120647319Y-102574951D01*
X120648982Y-102505103D01*
X120679414Y-102455177D01*
X120727774Y-102406818D01*
X120789097Y-102373334D01*
X120815454Y-102370500D01*
X134713248Y-102370500D01*
X134728868Y-102372224D01*
X134728895Y-102371939D01*
X134736651Y-102372671D01*
X134736658Y-102372673D01*
X134805805Y-102370500D01*
X134835341Y-102370500D01*
X134842219Y-102369630D01*
X134848032Y-102369172D01*
X134894618Y-102367709D01*
X134913860Y-102362117D01*
X134932903Y-102358174D01*
X134952783Y-102355664D01*
X134996113Y-102338507D01*
X135001637Y-102336617D01*
X135008669Y-102334574D01*
X135046381Y-102323618D01*
X135063620Y-102313422D01*
X135081094Y-102304862D01*
X135099718Y-102297488D01*
X135099718Y-102297487D01*
X135099723Y-102297486D01*
X135137440Y-102270082D01*
X135142296Y-102266892D01*
X135182411Y-102243170D01*
X135196580Y-102228999D01*
X135211370Y-102216368D01*
X135227578Y-102204594D01*
X135257290Y-102168676D01*
X135261203Y-102164376D01*
X136345580Y-101080000D01*
X159215426Y-101080000D01*
X159234485Y-101297849D01*
X159234487Y-101297859D01*
X159291083Y-101509082D01*
X159291085Y-101509086D01*
X159291086Y-101509090D01*
X159325819Y-101583575D01*
X159383506Y-101707286D01*
X159383507Y-101707287D01*
X159508941Y-101886425D01*
X159663575Y-102041059D01*
X159842713Y-102166493D01*
X160040910Y-102258914D01*
X160040916Y-102258915D01*
X160040917Y-102258916D01*
X160076227Y-102268377D01*
X160252146Y-102315514D01*
X160426429Y-102330761D01*
X160469999Y-102334574D01*
X160470000Y-102334574D01*
X160470001Y-102334574D01*
X160506309Y-102331397D01*
X160687854Y-102315514D01*
X160899090Y-102258914D01*
X161097287Y-102166493D01*
X161276425Y-102041059D01*
X161431059Y-101886425D01*
X161556493Y-101707287D01*
X161648914Y-101509090D01*
X161705514Y-101297854D01*
X161724574Y-101080000D01*
X161705514Y-100862146D01*
X161656633Y-100679717D01*
X161648916Y-100650917D01*
X161648915Y-100650916D01*
X161648914Y-100650910D01*
X161556493Y-100452713D01*
X161431059Y-100273575D01*
X161276425Y-100118941D01*
X161097287Y-99993507D01*
X160987648Y-99942381D01*
X160935209Y-99896210D01*
X160916057Y-99829016D01*
X160936273Y-99762135D01*
X160987649Y-99717618D01*
X161008442Y-99707922D01*
X161097287Y-99666493D01*
X161276425Y-99541059D01*
X161431059Y-99386425D01*
X161556493Y-99207287D01*
X161648914Y-99009090D01*
X161705514Y-98797854D01*
X161724574Y-98580000D01*
X161705514Y-98362146D01*
X161648914Y-98150910D01*
X161556493Y-97952713D01*
X161431059Y-97773575D01*
X161276425Y-97618941D01*
X161097287Y-97493507D01*
X161097288Y-97493507D01*
X161097286Y-97493506D01*
X160998188Y-97447296D01*
X160899090Y-97401086D01*
X160899086Y-97401085D01*
X160899082Y-97401083D01*
X160687859Y-97344487D01*
X160687849Y-97344485D01*
X160470001Y-97325426D01*
X160469999Y-97325426D01*
X160252150Y-97344485D01*
X160252140Y-97344487D01*
X160040917Y-97401083D01*
X160040908Y-97401087D01*
X159842713Y-97493506D01*
X159743027Y-97563308D01*
X159663575Y-97618941D01*
X159663573Y-97618942D01*
X159663570Y-97618945D01*
X159508945Y-97773570D01*
X159508942Y-97773573D01*
X159508941Y-97773575D01*
X159471264Y-97827383D01*
X159383506Y-97952713D01*
X159291087Y-98150908D01*
X159291083Y-98150917D01*
X159234487Y-98362140D01*
X159234485Y-98362150D01*
X159215426Y-98579999D01*
X159215426Y-98580000D01*
X159234485Y-98797849D01*
X159234487Y-98797859D01*
X159291083Y-99009082D01*
X159291085Y-99009086D01*
X159291086Y-99009090D01*
X159314826Y-99060000D01*
X159383506Y-99207286D01*
X159383507Y-99207287D01*
X159508941Y-99386425D01*
X159663575Y-99541059D01*
X159842713Y-99666493D01*
X159902883Y-99694551D01*
X159952351Y-99717618D01*
X160004790Y-99763790D01*
X160023942Y-99830984D01*
X160003726Y-99897865D01*
X159952351Y-99942382D01*
X159842713Y-99993506D01*
X159723201Y-100077190D01*
X159663575Y-100118941D01*
X159663573Y-100118942D01*
X159663570Y-100118945D01*
X159508945Y-100273570D01*
X159383506Y-100452713D01*
X159291087Y-100650908D01*
X159291083Y-100650917D01*
X159234487Y-100862140D01*
X159234485Y-100862150D01*
X159215426Y-101079999D01*
X159215426Y-101080000D01*
X136345580Y-101080000D01*
X137963762Y-99461819D01*
X138025086Y-99428334D01*
X138051444Y-99425500D01*
X141496252Y-99425500D01*
X141563291Y-99445185D01*
X141588400Y-99466526D01*
X141594126Y-99472885D01*
X141594130Y-99472889D01*
X141747265Y-99584148D01*
X141747270Y-99584151D01*
X141920192Y-99661142D01*
X141920197Y-99661144D01*
X142105354Y-99700500D01*
X142105355Y-99700500D01*
X142294644Y-99700500D01*
X142294646Y-99700500D01*
X142479803Y-99661144D01*
X142652730Y-99584151D01*
X142805871Y-99472888D01*
X142932533Y-99332216D01*
X143027179Y-99168284D01*
X143085674Y-98988256D01*
X143103321Y-98820345D01*
X143129905Y-98755732D01*
X143138952Y-98745636D01*
X158462167Y-83422422D01*
X158523488Y-83388939D01*
X158593180Y-83393923D01*
X158637527Y-83422424D01*
X158753597Y-83538494D01*
X158910595Y-83648425D01*
X158954220Y-83703002D01*
X158961414Y-83772500D01*
X158929891Y-83834855D01*
X158910595Y-83851575D01*
X158753597Y-83961505D01*
X158586506Y-84128597D01*
X158586501Y-84128604D01*
X158450967Y-84322165D01*
X158450965Y-84322169D01*
X158351098Y-84536335D01*
X158351094Y-84536344D01*
X158289938Y-84764586D01*
X158289936Y-84764596D01*
X158269341Y-84999999D01*
X158269341Y-85000000D01*
X158289936Y-85235403D01*
X158289938Y-85235413D01*
X158351094Y-85463655D01*
X158351096Y-85463659D01*
X158351097Y-85463663D01*
X158385056Y-85536488D01*
X158450964Y-85677828D01*
X158450965Y-85677830D01*
X158586505Y-85871402D01*
X158733704Y-86018601D01*
X158767189Y-86079924D01*
X158762205Y-86149616D01*
X158720333Y-86205549D01*
X158711120Y-86211820D01*
X158556347Y-86307285D01*
X158556343Y-86307288D01*
X158432289Y-86431342D01*
X158340187Y-86580663D01*
X158340185Y-86580668D01*
X158318241Y-86646891D01*
X158285001Y-86747203D01*
X158285001Y-86747204D01*
X158285000Y-86747204D01*
X158274500Y-86849983D01*
X158274500Y-88150001D01*
X158274501Y-88150018D01*
X158285000Y-88252796D01*
X158285001Y-88252799D01*
X158294920Y-88282732D01*
X158340186Y-88419334D01*
X158432288Y-88568656D01*
X158556344Y-88692712D01*
X158705666Y-88784814D01*
X158872203Y-88839999D01*
X158974991Y-88850500D01*
X160525008Y-88850499D01*
X160627797Y-88839999D01*
X160794334Y-88784814D01*
X160943656Y-88692712D01*
X161067712Y-88568656D01*
X161159814Y-88419334D01*
X161214999Y-88252797D01*
X161225500Y-88150009D01*
X161225499Y-86849992D01*
X161214999Y-86747203D01*
X161159814Y-86580666D01*
X161067712Y-86431344D01*
X160943656Y-86307288D01*
X160803058Y-86220567D01*
X160788879Y-86211821D01*
X160742155Y-86159873D01*
X160730932Y-86090910D01*
X160758776Y-86026828D01*
X160766295Y-86018601D01*
X160766294Y-86018601D01*
X160913495Y-85871401D01*
X161049035Y-85677830D01*
X161148903Y-85463663D01*
X161210063Y-85235408D01*
X161230659Y-85000000D01*
X161210063Y-84764592D01*
X161148903Y-84536337D01*
X161049035Y-84322171D01*
X161049034Y-84322169D01*
X160913494Y-84128597D01*
X160746403Y-83961506D01*
X160690187Y-83922144D01*
X160589401Y-83851573D01*
X160545778Y-83796999D01*
X160538584Y-83727500D01*
X160570106Y-83665145D01*
X160589398Y-83648428D01*
X160746401Y-83538495D01*
X160913495Y-83371401D01*
X161049035Y-83177830D01*
X161148903Y-82963663D01*
X161210063Y-82735408D01*
X161230659Y-82500000D01*
X161210063Y-82264592D01*
X161148903Y-82036337D01*
X161049035Y-81822171D01*
X161049034Y-81822169D01*
X160913494Y-81628597D01*
X160746402Y-81461505D01*
X160552830Y-81325965D01*
X160552828Y-81325964D01*
X160445745Y-81276031D01*
X160338663Y-81226097D01*
X160338659Y-81226096D01*
X160338655Y-81226094D01*
X160110413Y-81164938D01*
X160110403Y-81164936D01*
X159933966Y-81149500D01*
X159566034Y-81149500D01*
X159389596Y-81164936D01*
X159389586Y-81164938D01*
X159161344Y-81226094D01*
X159161335Y-81226098D01*
X158947171Y-81325964D01*
X158947169Y-81325965D01*
X158753597Y-81461505D01*
X158586506Y-81628597D01*
X158586501Y-81628603D01*
X158451348Y-81821623D01*
X158396771Y-81865248D01*
X158349773Y-81874500D01*
X157610452Y-81874500D01*
X157543413Y-81854815D01*
X157522771Y-81838181D01*
X151338960Y-75654369D01*
X151305475Y-75593046D01*
X151303323Y-75579668D01*
X151285674Y-75411744D01*
X151227179Y-75231716D01*
X151132533Y-75067784D01*
X151005871Y-74927112D01*
X151005870Y-74927111D01*
X150852734Y-74815851D01*
X150852729Y-74815848D01*
X150679807Y-74738857D01*
X150679802Y-74738855D01*
X150534000Y-74707865D01*
X150494646Y-74699500D01*
X150305354Y-74699500D01*
X150272897Y-74706398D01*
X150120197Y-74738855D01*
X150120192Y-74738857D01*
X149947270Y-74815848D01*
X149947265Y-74815851D01*
X149794129Y-74927111D01*
X149667466Y-75067785D01*
X149572821Y-75231715D01*
X149572818Y-75231722D01*
X149514327Y-75411740D01*
X149514326Y-75411744D01*
X149494540Y-75600000D01*
X149514326Y-75788256D01*
X149514327Y-75788259D01*
X149572818Y-75968277D01*
X149572821Y-75968284D01*
X149667467Y-76132216D01*
X149767453Y-76243261D01*
X149794129Y-76272888D01*
X149947265Y-76384148D01*
X149947270Y-76384151D01*
X150120192Y-76461142D01*
X150120197Y-76461144D01*
X150305354Y-76500500D01*
X150364548Y-76500500D01*
X150431587Y-76520185D01*
X150452229Y-76536819D01*
X156799194Y-82883784D01*
X156809019Y-82896048D01*
X156809240Y-82895866D01*
X156814210Y-82901873D01*
X156814213Y-82901876D01*
X156814214Y-82901877D01*
X156864651Y-82949241D01*
X156885530Y-82970120D01*
X156891017Y-82974376D01*
X156895440Y-82978155D01*
X156914966Y-82996491D01*
X156926868Y-83007667D01*
X156962264Y-83067907D01*
X156959472Y-83137721D01*
X156929667Y-83185741D01*
X142252228Y-97863181D01*
X142190905Y-97896666D01*
X142164547Y-97899500D01*
X142105354Y-97899500D01*
X142072897Y-97906398D01*
X141920197Y-97938855D01*
X141920192Y-97938857D01*
X141747270Y-98015848D01*
X141747265Y-98015851D01*
X141594130Y-98127110D01*
X141594126Y-98127114D01*
X141588400Y-98133474D01*
X141528913Y-98170121D01*
X141496252Y-98174500D01*
X137823734Y-98174500D01*
X137808113Y-98172775D01*
X137808087Y-98173061D01*
X137800325Y-98172327D01*
X137800324Y-98172327D01*
X137731177Y-98174500D01*
X137701640Y-98174500D01*
X137694757Y-98175369D01*
X137688940Y-98175826D01*
X137642364Y-98177290D01*
X137623120Y-98182881D01*
X137604070Y-98186825D01*
X137584202Y-98189334D01*
X137540875Y-98206488D01*
X137535349Y-98208379D01*
X137490605Y-98221379D01*
X137490601Y-98221381D01*
X137473357Y-98231579D01*
X137455896Y-98240133D01*
X137437265Y-98247510D01*
X137437253Y-98247517D01*
X137399561Y-98274902D01*
X137394678Y-98278109D01*
X137354571Y-98301829D01*
X137340405Y-98315995D01*
X137325615Y-98328627D01*
X137309405Y-98340404D01*
X137309402Y-98340407D01*
X137279701Y-98376309D01*
X137275768Y-98380631D01*
X135948476Y-99707922D01*
X135887153Y-99741407D01*
X135817461Y-99736423D01*
X135761528Y-99694551D01*
X135753811Y-99681647D01*
X135753276Y-99681957D01*
X135750567Y-99677265D01*
X135743024Y-99666493D01*
X135620047Y-99490861D01*
X135620045Y-99490858D01*
X135459141Y-99329954D01*
X135272734Y-99199432D01*
X135272728Y-99199429D01*
X135214725Y-99172382D01*
X135162285Y-99126210D01*
X135143133Y-99059017D01*
X135163348Y-98992135D01*
X135214725Y-98947618D01*
X135232535Y-98939313D01*
X135272734Y-98920568D01*
X135459139Y-98790047D01*
X135620047Y-98629139D01*
X135750568Y-98442734D01*
X135846739Y-98236496D01*
X135905635Y-98016692D01*
X135925468Y-97790000D01*
X135905635Y-97563308D01*
X135860916Y-97396415D01*
X135846741Y-97343511D01*
X135846738Y-97343502D01*
X135750568Y-97137267D01*
X135750567Y-97137265D01*
X135620045Y-96950858D01*
X135459141Y-96789954D01*
X135272734Y-96659432D01*
X135272728Y-96659429D01*
X135214725Y-96632382D01*
X135162285Y-96586210D01*
X135143133Y-96519017D01*
X135163348Y-96452135D01*
X135214725Y-96407618D01*
X135272734Y-96380568D01*
X135459139Y-96250047D01*
X135620047Y-96089139D01*
X135750568Y-95902734D01*
X135846739Y-95696496D01*
X135905635Y-95476692D01*
X135925468Y-95250000D01*
X135905635Y-95023308D01*
X135846739Y-94803504D01*
X135750568Y-94597266D01*
X135633206Y-94429654D01*
X135620045Y-94410858D01*
X135459141Y-94249954D01*
X135272734Y-94119432D01*
X135272728Y-94119429D01*
X135214725Y-94092382D01*
X135162285Y-94046210D01*
X135143133Y-93979017D01*
X135163348Y-93912135D01*
X135214725Y-93867618D01*
X135272734Y-93840568D01*
X135459139Y-93710047D01*
X135620047Y-93549139D01*
X135750568Y-93362734D01*
X135846739Y-93156496D01*
X135905635Y-92936692D01*
X135923718Y-92730000D01*
X138870863Y-92730000D01*
X138891365Y-92951259D01*
X138891366Y-92951261D01*
X138952174Y-93164979D01*
X138952180Y-93164994D01*
X139051222Y-93363896D01*
X139185133Y-93541224D01*
X139349344Y-93690921D01*
X139349346Y-93690923D01*
X139538266Y-93807897D01*
X139538272Y-93807900D01*
X139567206Y-93819109D01*
X139745472Y-93888170D01*
X139963896Y-93929000D01*
X139963899Y-93929000D01*
X140186101Y-93929000D01*
X140186104Y-93929000D01*
X140404528Y-93888170D01*
X140611730Y-93807899D01*
X140800655Y-93690922D01*
X140956181Y-93549141D01*
X140964866Y-93541224D01*
X140964868Y-93541222D01*
X141098778Y-93363896D01*
X141197824Y-93164984D01*
X141258634Y-92951260D01*
X141279137Y-92730000D01*
X141258634Y-92508740D01*
X141197824Y-92295016D01*
X141182136Y-92263511D01*
X141100064Y-92098687D01*
X141098778Y-92096104D01*
X140975016Y-91932216D01*
X140964866Y-91918775D01*
X140800655Y-91769078D01*
X140800653Y-91769076D01*
X140611733Y-91652102D01*
X140611727Y-91652099D01*
X140504080Y-91610397D01*
X140404528Y-91571830D01*
X140186104Y-91531000D01*
X139963896Y-91531000D01*
X139745472Y-91571830D01*
X139703072Y-91588256D01*
X139538272Y-91652099D01*
X139538266Y-91652102D01*
X139349346Y-91769076D01*
X139349344Y-91769078D01*
X139185133Y-91918775D01*
X139051222Y-92096103D01*
X138952180Y-92295005D01*
X138952174Y-92295020D01*
X138891366Y-92508738D01*
X138891365Y-92508740D01*
X138870863Y-92729999D01*
X138870863Y-92730000D01*
X135923718Y-92730000D01*
X135925468Y-92710000D01*
X135905635Y-92483308D01*
X135846739Y-92263504D01*
X135750568Y-92057266D01*
X135620047Y-91870861D01*
X135620045Y-91870858D01*
X135459141Y-91709954D01*
X135272734Y-91579432D01*
X135272728Y-91579429D01*
X135214725Y-91552382D01*
X135162285Y-91506210D01*
X135143133Y-91439017D01*
X135163348Y-91372135D01*
X135214725Y-91327618D01*
X135272734Y-91300568D01*
X135459139Y-91170047D01*
X135620047Y-91009139D01*
X135750568Y-90822734D01*
X135846739Y-90616496D01*
X135905635Y-90396692D01*
X135925468Y-90170000D01*
X135905635Y-89943308D01*
X135846739Y-89723504D01*
X135750568Y-89517266D01*
X135620047Y-89330861D01*
X135620045Y-89330858D01*
X135459141Y-89169954D01*
X135272734Y-89039432D01*
X135272728Y-89039429D01*
X135214725Y-89012382D01*
X135162285Y-88966210D01*
X135143133Y-88899017D01*
X135163348Y-88832135D01*
X135214725Y-88787618D01*
X135272734Y-88760568D01*
X135459139Y-88630047D01*
X135620047Y-88469139D01*
X135750568Y-88282734D01*
X135846739Y-88076496D01*
X135905635Y-87856692D01*
X135925468Y-87630000D01*
X135921598Y-87585771D01*
X135905635Y-87403313D01*
X135905635Y-87403308D01*
X135846739Y-87183504D01*
X135750568Y-86977266D01*
X135620047Y-86790861D01*
X135620045Y-86790858D01*
X135459141Y-86629954D01*
X135272734Y-86499432D01*
X135272728Y-86499429D01*
X135214725Y-86472382D01*
X135162285Y-86426210D01*
X135143133Y-86359017D01*
X135163348Y-86292135D01*
X135214725Y-86247618D01*
X135272734Y-86220568D01*
X135459139Y-86090047D01*
X135620047Y-85929139D01*
X135750568Y-85742734D01*
X135846739Y-85536496D01*
X135905635Y-85316692D01*
X135925468Y-85090000D01*
X135922391Y-85054835D01*
X135908825Y-84899768D01*
X135905635Y-84863308D01*
X135846739Y-84643504D01*
X135750568Y-84437266D01*
X135620047Y-84250861D01*
X135620045Y-84250858D01*
X135459141Y-84089954D01*
X135272734Y-83959432D01*
X135272728Y-83959429D01*
X135214725Y-83932382D01*
X135162285Y-83886210D01*
X135143133Y-83819017D01*
X135163348Y-83752135D01*
X135214725Y-83707618D01*
X135224624Y-83703002D01*
X135272734Y-83680568D01*
X135459139Y-83550047D01*
X135620047Y-83389139D01*
X135750568Y-83202734D01*
X135846739Y-82996496D01*
X135905635Y-82776692D01*
X135925468Y-82550000D01*
X135924808Y-82542461D01*
X135908825Y-82359768D01*
X135905635Y-82323308D01*
X135846739Y-82103504D01*
X135750568Y-81897266D01*
X135620047Y-81710861D01*
X135620045Y-81710858D01*
X135459141Y-81549954D01*
X135272734Y-81419432D01*
X135272728Y-81419429D01*
X135214725Y-81392382D01*
X135162285Y-81346210D01*
X135143133Y-81279017D01*
X135163348Y-81212135D01*
X135214725Y-81167618D01*
X135272734Y-81140568D01*
X135459139Y-81010047D01*
X135620047Y-80849139D01*
X135750568Y-80662734D01*
X135846739Y-80456496D01*
X135905635Y-80236692D01*
X135925468Y-80010000D01*
X135924808Y-80002461D01*
X135912573Y-79862607D01*
X135905635Y-79783308D01*
X135846739Y-79563504D01*
X135750568Y-79357266D01*
X135620047Y-79170861D01*
X135620045Y-79170858D01*
X135459141Y-79009954D01*
X135272734Y-78879432D01*
X135272728Y-78879429D01*
X135214725Y-78852382D01*
X135162285Y-78806210D01*
X135143133Y-78739017D01*
X135163348Y-78672135D01*
X135214725Y-78627618D01*
X135272734Y-78600568D01*
X135459139Y-78470047D01*
X135620047Y-78309139D01*
X135750568Y-78122734D01*
X135846739Y-77916496D01*
X135905635Y-77696692D01*
X135925468Y-77470000D01*
X135924808Y-77462461D01*
X135915086Y-77351333D01*
X135905635Y-77243308D01*
X135846739Y-77023504D01*
X135750568Y-76817266D01*
X135620047Y-76630861D01*
X135620045Y-76630858D01*
X135459141Y-76469954D01*
X135272734Y-76339432D01*
X135272728Y-76339429D01*
X135214725Y-76312382D01*
X135162285Y-76266210D01*
X135143133Y-76199017D01*
X135163348Y-76132135D01*
X135214725Y-76087618D01*
X135272734Y-76060568D01*
X135459139Y-75930047D01*
X135620047Y-75769139D01*
X135750568Y-75582734D01*
X135846739Y-75376496D01*
X135905635Y-75156692D01*
X135925468Y-74930000D01*
X135924808Y-74922461D01*
X135911185Y-74766744D01*
X135905635Y-74703308D01*
X135846739Y-74483504D01*
X135750568Y-74277266D01*
X135620047Y-74090861D01*
X135620045Y-74090858D01*
X135459141Y-73929954D01*
X135272734Y-73799432D01*
X135272728Y-73799429D01*
X135214725Y-73772382D01*
X135162285Y-73726210D01*
X135143133Y-73659017D01*
X135163348Y-73592135D01*
X135214725Y-73547618D01*
X135272734Y-73520568D01*
X135459139Y-73390047D01*
X135620047Y-73229139D01*
X135750568Y-73042734D01*
X135846739Y-72836496D01*
X135905635Y-72616692D01*
X135925468Y-72390000D01*
X135905635Y-72163308D01*
X135846739Y-71943504D01*
X135750568Y-71737266D01*
X135620047Y-71550861D01*
X135620045Y-71550858D01*
X135479187Y-71410000D01*
X141420863Y-71410000D01*
X141441365Y-71631259D01*
X141441366Y-71631261D01*
X141502174Y-71844979D01*
X141502180Y-71844994D01*
X141601222Y-72043896D01*
X141735133Y-72221224D01*
X141899344Y-72370921D01*
X141899346Y-72370923D01*
X142088266Y-72487897D01*
X142088272Y-72487900D01*
X142117206Y-72499109D01*
X142295472Y-72568170D01*
X142513896Y-72609000D01*
X142513899Y-72609000D01*
X142736101Y-72609000D01*
X142736104Y-72609000D01*
X142954528Y-72568170D01*
X143161730Y-72487899D01*
X143350655Y-72370922D01*
X143514868Y-72221222D01*
X143648778Y-72043896D01*
X143747824Y-71844984D01*
X143808634Y-71631260D01*
X143829137Y-71410000D01*
X143827279Y-71389954D01*
X143808634Y-71188740D01*
X143808633Y-71188738D01*
X143801384Y-71163261D01*
X143747824Y-70975016D01*
X143648778Y-70776104D01*
X143514868Y-70598778D01*
X143514866Y-70598775D01*
X143350655Y-70449078D01*
X143350653Y-70449076D01*
X143161733Y-70332102D01*
X143161727Y-70332099D01*
X143054080Y-70290397D01*
X142954528Y-70251830D01*
X142736104Y-70211000D01*
X142513896Y-70211000D01*
X142295472Y-70251830D01*
X142247538Y-70270400D01*
X142088272Y-70332099D01*
X142088266Y-70332102D01*
X141899346Y-70449076D01*
X141899344Y-70449078D01*
X141735133Y-70598775D01*
X141601222Y-70776103D01*
X141502180Y-70975005D01*
X141502174Y-70975020D01*
X141441366Y-71188738D01*
X141441365Y-71188740D01*
X141420863Y-71409999D01*
X141420863Y-71410000D01*
X135479187Y-71410000D01*
X135459141Y-71389954D01*
X135272734Y-71259432D01*
X135272728Y-71259429D01*
X135214725Y-71232382D01*
X135162285Y-71186210D01*
X135143133Y-71119017D01*
X135163348Y-71052135D01*
X135214725Y-71007618D01*
X135272734Y-70980568D01*
X135459139Y-70850047D01*
X135620047Y-70689139D01*
X135750568Y-70502734D01*
X135846739Y-70296496D01*
X135905635Y-70076692D01*
X135925468Y-69850000D01*
X135905635Y-69623308D01*
X135846739Y-69403504D01*
X135750568Y-69197266D01*
X135620047Y-69010861D01*
X135620045Y-69010858D01*
X135459141Y-68849954D01*
X135272734Y-68719432D01*
X135272732Y-68719431D01*
X135066497Y-68623261D01*
X135066488Y-68623258D01*
X134846697Y-68564366D01*
X134846693Y-68564365D01*
X134846692Y-68564365D01*
X134846691Y-68564364D01*
X134846686Y-68564364D01*
X134620002Y-68544532D01*
X134619998Y-68544532D01*
X134393313Y-68564364D01*
X134393302Y-68564366D01*
X134173511Y-68623258D01*
X134173502Y-68623261D01*
X133967267Y-68719431D01*
X133967265Y-68719432D01*
X133780858Y-68849954D01*
X133619954Y-69010858D01*
X133489432Y-69197265D01*
X133489431Y-69197267D01*
X133462382Y-69255275D01*
X133416209Y-69307714D01*
X133349016Y-69326866D01*
X133282135Y-69306650D01*
X133237618Y-69255275D01*
X133210568Y-69197267D01*
X133210567Y-69197265D01*
X133080045Y-69010858D01*
X132919141Y-68849954D01*
X132732734Y-68719432D01*
X132732732Y-68719431D01*
X132526497Y-68623261D01*
X132526488Y-68623258D01*
X132306697Y-68564366D01*
X132306693Y-68564365D01*
X132306692Y-68564365D01*
X132306691Y-68564364D01*
X132306686Y-68564364D01*
X132080002Y-68544532D01*
X132079998Y-68544532D01*
X131853313Y-68564364D01*
X131853302Y-68564366D01*
X131633511Y-68623258D01*
X131633502Y-68623261D01*
X131427267Y-68719431D01*
X131427265Y-68719432D01*
X131240858Y-68849954D01*
X131079954Y-69010858D01*
X130949432Y-69197265D01*
X130949431Y-69197267D01*
X130853261Y-69403502D01*
X130853258Y-69403511D01*
X130794366Y-69623302D01*
X130794364Y-69623313D01*
X130774532Y-69849998D01*
X130774532Y-69850001D01*
X130794364Y-70076686D01*
X130794366Y-70076697D01*
X130853258Y-70296488D01*
X130853261Y-70296497D01*
X130949431Y-70502732D01*
X130949432Y-70502734D01*
X131079954Y-70689141D01*
X131240858Y-70850045D01*
X131240861Y-70850047D01*
X131427266Y-70980568D01*
X131633504Y-71076739D01*
X131853308Y-71135635D01*
X132015230Y-71149801D01*
X132079998Y-71155468D01*
X132080000Y-71155468D01*
X132080002Y-71155468D01*
X132136672Y-71150509D01*
X132306692Y-71135635D01*
X132526496Y-71076739D01*
X132732734Y-70980568D01*
X132919139Y-70850047D01*
X133080047Y-70689139D01*
X133210568Y-70502734D01*
X133237618Y-70444724D01*
X133283790Y-70392285D01*
X133350983Y-70373133D01*
X133417865Y-70393348D01*
X133462382Y-70444725D01*
X133489429Y-70502728D01*
X133489432Y-70502734D01*
X133619954Y-70689141D01*
X133780858Y-70850045D01*
X133780861Y-70850047D01*
X133967266Y-70980568D01*
X134025275Y-71007618D01*
X134077714Y-71053791D01*
X134096866Y-71120984D01*
X134076650Y-71187865D01*
X134025275Y-71232382D01*
X133967267Y-71259431D01*
X133967265Y-71259432D01*
X133780858Y-71389954D01*
X133619954Y-71550858D01*
X133489432Y-71737265D01*
X133489431Y-71737267D01*
X133393261Y-71943502D01*
X133393258Y-71943511D01*
X133334366Y-72163302D01*
X133334364Y-72163313D01*
X133314532Y-72389998D01*
X133314532Y-72390001D01*
X133334364Y-72616686D01*
X133334366Y-72616697D01*
X133393258Y-72836488D01*
X133393261Y-72836497D01*
X133489431Y-73042732D01*
X133489432Y-73042734D01*
X133619954Y-73229141D01*
X133780858Y-73390045D01*
X133780861Y-73390047D01*
X133967266Y-73520568D01*
X134025275Y-73547618D01*
X134077714Y-73593791D01*
X134096866Y-73660984D01*
X134076650Y-73727865D01*
X134025275Y-73772382D01*
X133967267Y-73799431D01*
X133967265Y-73799432D01*
X133780858Y-73929954D01*
X133619954Y-74090858D01*
X133489432Y-74277265D01*
X133489431Y-74277267D01*
X133393261Y-74483502D01*
X133393258Y-74483511D01*
X133334366Y-74703302D01*
X133334364Y-74703313D01*
X133314532Y-74929998D01*
X133314532Y-74930001D01*
X133334364Y-75156686D01*
X133334366Y-75156697D01*
X133393258Y-75376488D01*
X133393261Y-75376497D01*
X133489431Y-75582732D01*
X133489432Y-75582734D01*
X133619954Y-75769141D01*
X133780858Y-75930045D01*
X133780861Y-75930047D01*
X133967266Y-76060568D01*
X134025275Y-76087618D01*
X134077714Y-76133791D01*
X134096866Y-76200984D01*
X134076650Y-76267865D01*
X134025275Y-76312382D01*
X133967267Y-76339431D01*
X133967265Y-76339432D01*
X133780858Y-76469954D01*
X133619954Y-76630858D01*
X133489432Y-76817265D01*
X133489431Y-76817267D01*
X133393261Y-77023502D01*
X133393258Y-77023511D01*
X133334366Y-77243302D01*
X133334364Y-77243313D01*
X133314532Y-77469998D01*
X133314532Y-77470001D01*
X133334364Y-77696686D01*
X133334366Y-77696697D01*
X133393258Y-77916488D01*
X133393261Y-77916497D01*
X133489431Y-78122732D01*
X133489432Y-78122734D01*
X133619954Y-78309141D01*
X133780858Y-78470045D01*
X133780861Y-78470047D01*
X133967266Y-78600568D01*
X134025275Y-78627618D01*
X134077714Y-78673791D01*
X134096866Y-78740984D01*
X134076650Y-78807865D01*
X134025275Y-78852382D01*
X133967267Y-78879431D01*
X133967265Y-78879432D01*
X133780858Y-79009954D01*
X133619954Y-79170858D01*
X133489432Y-79357265D01*
X133489428Y-79357272D01*
X133486071Y-79364472D01*
X133439896Y-79416909D01*
X133372701Y-79436057D01*
X133305821Y-79415837D01*
X133274426Y-79386372D01*
X133189147Y-79272455D01*
X133189144Y-79272452D01*
X133073935Y-79186206D01*
X133073928Y-79186202D01*
X132939082Y-79135908D01*
X132939083Y-79135908D01*
X132879483Y-79129501D01*
X132879481Y-79129500D01*
X132879473Y-79129500D01*
X132879464Y-79129500D01*
X131483729Y-79129500D01*
X131483723Y-79129501D01*
X131424116Y-79135908D01*
X131289271Y-79186202D01*
X131289264Y-79186206D01*
X131174055Y-79272452D01*
X131097745Y-79374388D01*
X131041811Y-79416258D01*
X130972119Y-79421242D01*
X130914941Y-79391713D01*
X130877903Y-79357949D01*
X130877902Y-79357948D01*
X130696619Y-79245702D01*
X130696617Y-79245701D01*
X130597208Y-79207190D01*
X130497798Y-79168679D01*
X130288210Y-79129500D01*
X130074990Y-79129500D01*
X129865402Y-79168679D01*
X129865399Y-79168679D01*
X129865399Y-79168680D01*
X129666582Y-79245701D01*
X129666580Y-79245702D01*
X129485299Y-79357947D01*
X129327726Y-79501594D01*
X129280553Y-79564061D01*
X129224444Y-79605696D01*
X129154732Y-79610387D01*
X129093550Y-79576644D01*
X129082647Y-79564061D01*
X129035473Y-79501594D01*
X129035472Y-79501593D01*
X128877902Y-79357948D01*
X128696619Y-79245702D01*
X128696617Y-79245701D01*
X128597208Y-79207190D01*
X128497798Y-79168679D01*
X128288210Y-79129500D01*
X128074990Y-79129500D01*
X127865402Y-79168679D01*
X127865399Y-79168679D01*
X127865399Y-79168680D01*
X127666582Y-79245701D01*
X127666580Y-79245702D01*
X127485299Y-79357947D01*
X127327727Y-79501593D01*
X127199232Y-79671746D01*
X127104196Y-79862605D01*
X127104196Y-79862607D01*
X127045844Y-80067689D01*
X127026170Y-80279999D01*
X127026170Y-80280000D01*
X127045844Y-80492310D01*
X127104196Y-80697392D01*
X127104196Y-80697394D01*
X127199232Y-80888253D01*
X127327727Y-81058406D01*
X127470282Y-81188363D01*
X127506563Y-81248075D01*
X127504802Y-81317922D01*
X127470282Y-81371637D01*
X127327727Y-81501593D01*
X127199232Y-81671746D01*
X127104196Y-81862605D01*
X127104196Y-81862607D01*
X127045844Y-82067689D01*
X127026170Y-82279999D01*
X127026170Y-82280000D01*
X127040194Y-82431335D01*
X127045844Y-82492310D01*
X127062258Y-82550000D01*
X127104196Y-82697392D01*
X127104196Y-82697394D01*
X127199232Y-82888253D01*
X127315847Y-83042674D01*
X127327728Y-83058407D01*
X127485298Y-83202052D01*
X127666581Y-83314298D01*
X127865402Y-83391321D01*
X128074990Y-83430500D01*
X128074992Y-83430500D01*
X128288208Y-83430500D01*
X128288210Y-83430500D01*
X128497798Y-83391321D01*
X128696619Y-83314298D01*
X128877902Y-83202052D01*
X129035472Y-83058407D01*
X129082646Y-82995938D01*
X129138755Y-82954303D01*
X129208467Y-82949612D01*
X129269649Y-82983354D01*
X129280553Y-82995938D01*
X129327728Y-83058407D01*
X129485298Y-83202052D01*
X129666581Y-83314298D01*
X129865402Y-83391321D01*
X130074990Y-83430500D01*
X130074992Y-83430500D01*
X130288208Y-83430500D01*
X130288210Y-83430500D01*
X130497798Y-83391321D01*
X130696619Y-83314298D01*
X130877902Y-83202052D01*
X131035472Y-83058407D01*
X131082646Y-82995938D01*
X131138755Y-82954303D01*
X131208467Y-82949612D01*
X131269649Y-82983354D01*
X131280553Y-82995938D01*
X131327728Y-83058407D01*
X131485298Y-83202052D01*
X131666581Y-83314298D01*
X131865402Y-83391321D01*
X132074990Y-83430500D01*
X132074992Y-83430500D01*
X132288208Y-83430500D01*
X132288210Y-83430500D01*
X132497798Y-83391321D01*
X132696619Y-83314298D01*
X132877902Y-83202052D01*
X133035472Y-83058407D01*
X133158789Y-82895109D01*
X133214898Y-82853474D01*
X133284610Y-82848783D01*
X133345792Y-82882525D01*
X133377518Y-82937743D01*
X133393259Y-82996491D01*
X133393261Y-82996497D01*
X133489431Y-83202732D01*
X133489432Y-83202734D01*
X133619954Y-83389141D01*
X133780858Y-83550045D01*
X133780861Y-83550047D01*
X133967266Y-83680568D01*
X134015376Y-83703002D01*
X134025275Y-83707618D01*
X134077714Y-83753791D01*
X134096866Y-83820984D01*
X134076650Y-83887865D01*
X134025275Y-83932382D01*
X133967267Y-83959431D01*
X133967265Y-83959432D01*
X133780858Y-84089954D01*
X133619954Y-84250858D01*
X133489432Y-84437265D01*
X133489431Y-84437267D01*
X133393261Y-84643502D01*
X133393258Y-84643511D01*
X133334366Y-84863302D01*
X133334364Y-84863313D01*
X133314532Y-85089998D01*
X133314532Y-85090001D01*
X133334364Y-85316686D01*
X133334366Y-85316697D01*
X133393258Y-85536488D01*
X133393261Y-85536497D01*
X133489431Y-85742732D01*
X133489432Y-85742734D01*
X133619954Y-85929141D01*
X133780858Y-86090045D01*
X133959580Y-86215186D01*
X133967266Y-86220568D01*
X134025278Y-86247619D01*
X134077713Y-86293788D01*
X134096866Y-86360982D01*
X134076651Y-86427863D01*
X134025277Y-86472380D01*
X133967268Y-86499430D01*
X133967265Y-86499432D01*
X133780858Y-86629954D01*
X133619954Y-86790858D01*
X133489432Y-86977265D01*
X133489431Y-86977267D01*
X133393261Y-87183502D01*
X133393258Y-87183511D01*
X133334366Y-87403302D01*
X133334364Y-87403313D01*
X133314532Y-87629998D01*
X133314532Y-87630001D01*
X133334364Y-87856686D01*
X133334366Y-87856697D01*
X133393258Y-88076488D01*
X133393261Y-88076497D01*
X133489431Y-88282732D01*
X133489432Y-88282734D01*
X133619954Y-88469141D01*
X133780858Y-88630045D01*
X133780861Y-88630047D01*
X133967266Y-88760568D01*
X134025275Y-88787618D01*
X134077714Y-88833791D01*
X134096866Y-88900984D01*
X134076650Y-88967865D01*
X134025275Y-89012382D01*
X133967267Y-89039431D01*
X133967265Y-89039432D01*
X133780858Y-89169954D01*
X133619954Y-89330858D01*
X133489432Y-89517265D01*
X133489431Y-89517267D01*
X133393261Y-89723502D01*
X133393258Y-89723511D01*
X133334366Y-89943302D01*
X133334364Y-89943313D01*
X133314532Y-90169998D01*
X133314532Y-90170001D01*
X133334364Y-90396686D01*
X133334366Y-90396697D01*
X133393258Y-90616488D01*
X133393261Y-90616497D01*
X133489431Y-90822732D01*
X133489432Y-90822734D01*
X133619954Y-91009141D01*
X133780858Y-91170045D01*
X133780861Y-91170047D01*
X133967266Y-91300568D01*
X134025275Y-91327618D01*
X134077714Y-91373791D01*
X134096866Y-91440984D01*
X134076650Y-91507865D01*
X134025275Y-91552382D01*
X133967267Y-91579431D01*
X133967265Y-91579432D01*
X133780858Y-91709954D01*
X133619954Y-91870858D01*
X133489432Y-92057265D01*
X133489431Y-92057267D01*
X133393261Y-92263502D01*
X133393258Y-92263511D01*
X133334366Y-92483302D01*
X133334364Y-92483313D01*
X133314532Y-92709998D01*
X133314532Y-92710001D01*
X133334364Y-92936686D01*
X133334366Y-92936697D01*
X133393258Y-93156488D01*
X133393261Y-93156497D01*
X133489431Y-93362732D01*
X133489432Y-93362734D01*
X133619954Y-93549141D01*
X133780858Y-93710045D01*
X133780861Y-93710047D01*
X133967266Y-93840568D01*
X134025275Y-93867618D01*
X134077714Y-93913791D01*
X134096866Y-93980984D01*
X134076650Y-94047865D01*
X134025275Y-94092382D01*
X133967267Y-94119431D01*
X133967265Y-94119432D01*
X133780858Y-94249954D01*
X133619954Y-94410858D01*
X133489432Y-94597265D01*
X133489431Y-94597267D01*
X133393261Y-94803502D01*
X133393258Y-94803511D01*
X133334366Y-95023302D01*
X133334364Y-95023313D01*
X133314532Y-95249998D01*
X133314532Y-95250001D01*
X133334364Y-95476686D01*
X133334366Y-95476697D01*
X133393258Y-95696488D01*
X133393261Y-95696497D01*
X133489431Y-95902732D01*
X133489432Y-95902734D01*
X133619954Y-96089141D01*
X133780858Y-96250045D01*
X133780861Y-96250047D01*
X133967266Y-96380568D01*
X134025275Y-96407618D01*
X134077714Y-96453791D01*
X134096866Y-96520984D01*
X134076650Y-96587865D01*
X134025275Y-96632382D01*
X133967267Y-96659431D01*
X133967265Y-96659432D01*
X133780858Y-96789954D01*
X133619954Y-96950858D01*
X133489432Y-97137265D01*
X133489431Y-97137267D01*
X133393261Y-97343502D01*
X133393258Y-97343511D01*
X133334366Y-97563302D01*
X133334364Y-97563313D01*
X133314532Y-97789998D01*
X133314532Y-97790001D01*
X133334364Y-98016686D01*
X133334366Y-98016697D01*
X133393258Y-98236488D01*
X133393261Y-98236497D01*
X133489431Y-98442732D01*
X133489432Y-98442734D01*
X133619954Y-98629141D01*
X133780858Y-98790045D01*
X133792011Y-98797854D01*
X133967266Y-98920568D01*
X134007465Y-98939313D01*
X134025275Y-98947618D01*
X134077714Y-98993791D01*
X134096866Y-99060984D01*
X134076650Y-99127865D01*
X134025275Y-99172382D01*
X133967267Y-99199431D01*
X133967265Y-99199432D01*
X133780858Y-99329954D01*
X133619954Y-99490858D01*
X133489432Y-99677265D01*
X133489431Y-99677267D01*
X133393261Y-99883502D01*
X133393258Y-99883511D01*
X133334366Y-100103302D01*
X133334364Y-100103313D01*
X133314532Y-100329998D01*
X133314532Y-100330001D01*
X133334364Y-100556686D01*
X133334366Y-100556697D01*
X133393258Y-100776488D01*
X133393260Y-100776492D01*
X133393261Y-100776496D01*
X133469896Y-100940840D01*
X133470948Y-100943095D01*
X133481440Y-101012173D01*
X133452920Y-101075957D01*
X133394444Y-101114196D01*
X133358566Y-101119500D01*
X120641434Y-101119500D01*
X120574395Y-101099815D01*
X120528640Y-101047011D01*
X120518696Y-100977853D01*
X120529052Y-100943095D01*
X120530104Y-100940840D01*
X120606739Y-100776496D01*
X120665635Y-100556692D01*
X120684295Y-100343404D01*
X120685468Y-100330001D01*
X120685468Y-100329998D01*
X120667003Y-100118945D01*
X120665635Y-100103308D01*
X120606739Y-99883504D01*
X120510568Y-99677266D01*
X120380047Y-99490861D01*
X120380045Y-99490858D01*
X120219141Y-99329954D01*
X120032734Y-99199432D01*
X120032728Y-99199429D01*
X119974725Y-99172382D01*
X119922285Y-99126210D01*
X119903133Y-99059017D01*
X119923348Y-98992135D01*
X119974725Y-98947618D01*
X119992535Y-98939313D01*
X120032734Y-98920568D01*
X120219139Y-98790047D01*
X120380047Y-98629139D01*
X120510568Y-98442734D01*
X120606739Y-98236496D01*
X120665635Y-98016692D01*
X120685468Y-97790000D01*
X120665635Y-97563308D01*
X120620916Y-97396415D01*
X120606741Y-97343511D01*
X120606738Y-97343502D01*
X120510568Y-97137267D01*
X120510567Y-97137265D01*
X120380045Y-96950858D01*
X120219141Y-96789954D01*
X120032734Y-96659432D01*
X120032728Y-96659429D01*
X119974725Y-96632382D01*
X119922285Y-96586210D01*
X119903133Y-96519017D01*
X119923348Y-96452135D01*
X119974725Y-96407618D01*
X120032734Y-96380568D01*
X120219139Y-96250047D01*
X120380047Y-96089139D01*
X120510568Y-95902734D01*
X120606739Y-95696496D01*
X120665635Y-95476692D01*
X120685468Y-95250000D01*
X120665635Y-95023308D01*
X120606739Y-94803504D01*
X120510568Y-94597266D01*
X120393206Y-94429654D01*
X120380045Y-94410858D01*
X120219141Y-94249954D01*
X120032734Y-94119432D01*
X120032728Y-94119429D01*
X119974725Y-94092382D01*
X119922285Y-94046210D01*
X119903133Y-93979017D01*
X119923348Y-93912135D01*
X119974725Y-93867618D01*
X120032734Y-93840568D01*
X120219139Y-93710047D01*
X120380047Y-93549139D01*
X120510568Y-93362734D01*
X120606739Y-93156496D01*
X120665635Y-92936692D01*
X120685468Y-92710000D01*
X120665635Y-92483308D01*
X120606739Y-92263504D01*
X120510568Y-92057266D01*
X120380047Y-91870861D01*
X120380045Y-91870858D01*
X120219141Y-91709954D01*
X120032734Y-91579432D01*
X120032728Y-91579429D01*
X119974725Y-91552382D01*
X119922285Y-91506210D01*
X119903133Y-91439017D01*
X119923348Y-91372135D01*
X119974725Y-91327618D01*
X120032734Y-91300568D01*
X120219139Y-91170047D01*
X120380047Y-91009139D01*
X120510568Y-90822734D01*
X120606739Y-90616496D01*
X120665635Y-90396692D01*
X120685468Y-90170000D01*
X120665635Y-89943308D01*
X120606739Y-89723504D01*
X120510568Y-89517266D01*
X120380047Y-89330861D01*
X120380045Y-89330858D01*
X120219141Y-89169954D01*
X120032734Y-89039432D01*
X120032728Y-89039429D01*
X119974725Y-89012382D01*
X119922285Y-88966210D01*
X119903133Y-88899017D01*
X119923348Y-88832135D01*
X119974725Y-88787618D01*
X120032734Y-88760568D01*
X120219139Y-88630047D01*
X120380047Y-88469139D01*
X120510568Y-88282734D01*
X120606739Y-88076496D01*
X120665635Y-87856692D01*
X120685468Y-87630000D01*
X120681598Y-87585771D01*
X120665635Y-87403313D01*
X120665635Y-87403308D01*
X120606739Y-87183504D01*
X120510568Y-86977266D01*
X120380047Y-86790861D01*
X120380045Y-86790858D01*
X120219141Y-86629954D01*
X120032734Y-86499432D01*
X120032728Y-86499429D01*
X119974725Y-86472382D01*
X119922285Y-86426210D01*
X119903133Y-86359017D01*
X119923348Y-86292135D01*
X119974725Y-86247618D01*
X120032734Y-86220568D01*
X120219139Y-86090047D01*
X120380047Y-85929139D01*
X120510568Y-85742734D01*
X120606739Y-85536496D01*
X120665635Y-85316692D01*
X120685468Y-85090000D01*
X120682391Y-85054835D01*
X120668825Y-84899768D01*
X120665635Y-84863308D01*
X120606739Y-84643504D01*
X120510568Y-84437266D01*
X120380047Y-84250861D01*
X120380045Y-84250858D01*
X120219141Y-84089954D01*
X120032734Y-83959432D01*
X120032728Y-83959429D01*
X119974725Y-83932382D01*
X119922285Y-83886210D01*
X119903133Y-83819017D01*
X119918190Y-83769201D01*
X121125332Y-83769201D01*
X121145164Y-83995886D01*
X121145166Y-83995897D01*
X121204058Y-84215688D01*
X121204061Y-84215697D01*
X121300231Y-84421932D01*
X121300232Y-84421934D01*
X121430754Y-84608341D01*
X121591658Y-84769245D01*
X121591661Y-84769247D01*
X121778066Y-84899768D01*
X121984304Y-84995939D01*
X122204108Y-85054835D01*
X122366030Y-85069001D01*
X122430798Y-85074668D01*
X122430800Y-85074668D01*
X122430802Y-85074668D01*
X122487472Y-85069709D01*
X122657492Y-85054835D01*
X122877296Y-84995939D01*
X123083534Y-84899768D01*
X123269939Y-84769247D01*
X123430847Y-84608339D01*
X123561368Y-84421934D01*
X123657539Y-84215696D01*
X123716435Y-83995892D01*
X123736268Y-83769200D01*
X123716435Y-83542508D01*
X123657539Y-83322704D01*
X123561368Y-83116466D01*
X123430847Y-82930061D01*
X123430845Y-82930058D01*
X123269941Y-82769154D01*
X123083534Y-82638632D01*
X123083528Y-82638629D01*
X123025525Y-82611582D01*
X122973085Y-82565410D01*
X122953933Y-82498217D01*
X122974148Y-82431335D01*
X123025525Y-82386818D01*
X123083534Y-82359768D01*
X123269939Y-82229247D01*
X123430847Y-82068339D01*
X123561368Y-81881934D01*
X123657539Y-81675696D01*
X123716435Y-81455892D01*
X123736268Y-81229200D01*
X123732454Y-81185611D01*
X123728260Y-81137668D01*
X123716435Y-81002508D01*
X123657539Y-80782704D01*
X123561368Y-80576466D01*
X123430847Y-80390061D01*
X123430845Y-80390058D01*
X123269941Y-80229154D01*
X123083534Y-80098632D01*
X123083528Y-80098629D01*
X123025525Y-80071582D01*
X122973085Y-80025410D01*
X122953933Y-79958217D01*
X122974148Y-79891335D01*
X123025525Y-79846818D01*
X123083534Y-79819768D01*
X123269939Y-79689247D01*
X123430847Y-79528339D01*
X123561368Y-79341934D01*
X123657539Y-79135696D01*
X123716435Y-78915892D01*
X123736268Y-78689200D01*
X123716435Y-78462508D01*
X123657539Y-78242704D01*
X123561368Y-78036466D01*
X123430847Y-77850061D01*
X123430845Y-77850058D01*
X123269941Y-77689154D01*
X123083535Y-77558633D01*
X123083536Y-77558633D01*
X123083534Y-77558632D01*
X123025522Y-77531580D01*
X122973084Y-77485408D01*
X122953933Y-77418214D01*
X122974149Y-77351333D01*
X123025521Y-77306819D01*
X123083534Y-77279768D01*
X123269939Y-77149247D01*
X123430847Y-76988339D01*
X123561368Y-76801934D01*
X123657539Y-76595696D01*
X123716435Y-76375892D01*
X123736268Y-76149200D01*
X123716435Y-75922508D01*
X123657539Y-75702704D01*
X123561368Y-75496466D01*
X123430847Y-75310061D01*
X123430845Y-75310058D01*
X123269943Y-75149156D01*
X123245336Y-75131926D01*
X123201712Y-75077349D01*
X123194519Y-75007850D01*
X123226041Y-74945496D01*
X123286271Y-74910082D01*
X123303204Y-74907061D01*
X123338283Y-74903291D01*
X123473131Y-74852996D01*
X123588346Y-74766746D01*
X123674596Y-74651531D01*
X123724891Y-74516683D01*
X123731300Y-74457073D01*
X123731299Y-72761328D01*
X123724891Y-72701717D01*
X123674596Y-72566869D01*
X123674595Y-72566868D01*
X123674593Y-72566864D01*
X123588347Y-72451655D01*
X123588344Y-72451652D01*
X123473135Y-72365406D01*
X123473128Y-72365402D01*
X123338282Y-72315108D01*
X123338283Y-72315108D01*
X123278683Y-72308701D01*
X123278681Y-72308700D01*
X123278673Y-72308700D01*
X123278664Y-72308700D01*
X121582929Y-72308700D01*
X121582923Y-72308701D01*
X121523316Y-72315108D01*
X121388471Y-72365402D01*
X121388464Y-72365406D01*
X121273255Y-72451652D01*
X121273252Y-72451655D01*
X121187006Y-72566864D01*
X121187002Y-72566871D01*
X121136708Y-72701717D01*
X121130301Y-72761316D01*
X121130301Y-72761323D01*
X121130300Y-72761335D01*
X121130300Y-74457070D01*
X121130301Y-74457076D01*
X121136708Y-74516683D01*
X121187002Y-74651528D01*
X121187006Y-74651535D01*
X121273252Y-74766744D01*
X121273255Y-74766747D01*
X121388464Y-74852993D01*
X121388471Y-74852997D01*
X121433418Y-74869761D01*
X121523317Y-74903291D01*
X121558396Y-74907062D01*
X121622944Y-74933799D01*
X121662793Y-74991191D01*
X121665288Y-75061016D01*
X121629636Y-75121105D01*
X121616264Y-75131925D01*
X121591658Y-75149154D01*
X121430754Y-75310058D01*
X121300232Y-75496465D01*
X121300231Y-75496467D01*
X121204061Y-75702702D01*
X121204058Y-75702711D01*
X121145166Y-75922502D01*
X121145164Y-75922513D01*
X121125332Y-76149198D01*
X121125332Y-76149201D01*
X121145164Y-76375886D01*
X121145166Y-76375897D01*
X121204058Y-76595688D01*
X121204061Y-76595697D01*
X121300231Y-76801932D01*
X121300232Y-76801934D01*
X121430754Y-76988341D01*
X121591658Y-77149245D01*
X121591661Y-77149247D01*
X121778066Y-77279768D01*
X121836075Y-77306818D01*
X121888514Y-77352991D01*
X121907666Y-77420184D01*
X121887450Y-77487065D01*
X121836075Y-77531582D01*
X121778067Y-77558631D01*
X121778065Y-77558632D01*
X121591658Y-77689154D01*
X121430754Y-77850058D01*
X121300232Y-78036465D01*
X121300231Y-78036467D01*
X121204061Y-78242702D01*
X121204058Y-78242711D01*
X121145166Y-78462502D01*
X121145164Y-78462513D01*
X121125332Y-78689198D01*
X121125332Y-78689201D01*
X121145164Y-78915886D01*
X121145166Y-78915897D01*
X121204058Y-79135688D01*
X121204061Y-79135697D01*
X121300231Y-79341932D01*
X121300232Y-79341934D01*
X121430754Y-79528341D01*
X121591658Y-79689245D01*
X121591661Y-79689247D01*
X121778066Y-79819768D01*
X121836075Y-79846818D01*
X121888514Y-79892991D01*
X121907666Y-79960184D01*
X121887450Y-80027065D01*
X121836075Y-80071582D01*
X121778067Y-80098631D01*
X121778065Y-80098632D01*
X121591658Y-80229154D01*
X121430754Y-80390058D01*
X121300232Y-80576465D01*
X121300231Y-80576467D01*
X121204061Y-80782702D01*
X121204058Y-80782711D01*
X121145166Y-81002502D01*
X121145164Y-81002513D01*
X121125332Y-81229198D01*
X121125332Y-81229201D01*
X121145164Y-81455886D01*
X121145166Y-81455897D01*
X121204058Y-81675688D01*
X121204061Y-81675697D01*
X121300231Y-81881932D01*
X121300232Y-81881934D01*
X121430754Y-82068341D01*
X121591658Y-82229245D01*
X121591661Y-82229247D01*
X121778066Y-82359768D01*
X121836075Y-82386818D01*
X121888514Y-82432991D01*
X121907666Y-82500184D01*
X121887450Y-82567065D01*
X121836075Y-82611582D01*
X121778067Y-82638631D01*
X121778065Y-82638632D01*
X121591658Y-82769154D01*
X121430754Y-82930058D01*
X121300232Y-83116465D01*
X121300231Y-83116467D01*
X121204061Y-83322702D01*
X121204058Y-83322711D01*
X121145166Y-83542502D01*
X121145164Y-83542513D01*
X121125332Y-83769198D01*
X121125332Y-83769201D01*
X119918190Y-83769201D01*
X119923348Y-83752135D01*
X119974725Y-83707618D01*
X119984624Y-83703002D01*
X120032734Y-83680568D01*
X120219139Y-83550047D01*
X120380047Y-83389139D01*
X120510568Y-83202734D01*
X120606739Y-82996496D01*
X120665635Y-82776692D01*
X120685468Y-82550000D01*
X120684808Y-82542461D01*
X120668825Y-82359768D01*
X120665635Y-82323308D01*
X120606739Y-82103504D01*
X120510568Y-81897266D01*
X120380047Y-81710861D01*
X120380045Y-81710858D01*
X120219141Y-81549954D01*
X120032734Y-81419432D01*
X120032728Y-81419429D01*
X119974725Y-81392382D01*
X119922285Y-81346210D01*
X119903133Y-81279017D01*
X119923348Y-81212135D01*
X119974725Y-81167618D01*
X120032734Y-81140568D01*
X120219139Y-81010047D01*
X120380047Y-80849139D01*
X120510568Y-80662734D01*
X120606739Y-80456496D01*
X120665635Y-80236692D01*
X120685468Y-80010000D01*
X120684808Y-80002461D01*
X120672573Y-79862607D01*
X120665635Y-79783308D01*
X120606739Y-79563504D01*
X120510568Y-79357266D01*
X120380047Y-79170861D01*
X120380045Y-79170858D01*
X120219141Y-79009954D01*
X120032734Y-78879432D01*
X120032728Y-78879429D01*
X119974725Y-78852382D01*
X119922285Y-78806210D01*
X119903133Y-78739017D01*
X119923348Y-78672135D01*
X119974725Y-78627618D01*
X120032734Y-78600568D01*
X120219139Y-78470047D01*
X120380047Y-78309139D01*
X120510568Y-78122734D01*
X120606739Y-77916496D01*
X120665635Y-77696692D01*
X120685468Y-77470000D01*
X120684808Y-77462461D01*
X120675086Y-77351333D01*
X120665635Y-77243308D01*
X120606739Y-77023504D01*
X120510568Y-76817266D01*
X120380047Y-76630861D01*
X120380045Y-76630858D01*
X120219141Y-76469954D01*
X120032734Y-76339432D01*
X120032728Y-76339429D01*
X119974725Y-76312382D01*
X119922285Y-76266210D01*
X119903133Y-76199017D01*
X119923348Y-76132135D01*
X119974725Y-76087618D01*
X120032734Y-76060568D01*
X120219139Y-75930047D01*
X120380047Y-75769139D01*
X120510568Y-75582734D01*
X120606739Y-75376496D01*
X120665635Y-75156692D01*
X120685468Y-74930000D01*
X120684808Y-74922461D01*
X120671185Y-74766744D01*
X120665635Y-74703308D01*
X120606739Y-74483504D01*
X120510568Y-74277266D01*
X120380047Y-74090861D01*
X120380045Y-74090858D01*
X120219141Y-73929954D01*
X120032734Y-73799432D01*
X120032728Y-73799429D01*
X119974725Y-73772382D01*
X119922285Y-73726210D01*
X119903133Y-73659017D01*
X119923348Y-73592135D01*
X119974725Y-73547618D01*
X120032734Y-73520568D01*
X120219139Y-73390047D01*
X120380047Y-73229139D01*
X120510568Y-73042734D01*
X120606739Y-72836496D01*
X120665635Y-72616692D01*
X120685468Y-72390000D01*
X120665635Y-72163308D01*
X120606739Y-71943504D01*
X120510568Y-71737266D01*
X120380047Y-71550861D01*
X120380045Y-71550858D01*
X120219141Y-71389954D01*
X120032734Y-71259432D01*
X120032728Y-71259429D01*
X119974725Y-71232382D01*
X119922285Y-71186210D01*
X119903133Y-71119017D01*
X119923348Y-71052135D01*
X119974725Y-71007618D01*
X120032734Y-70980568D01*
X120219139Y-70850047D01*
X120380047Y-70689139D01*
X120510568Y-70502734D01*
X120606739Y-70296496D01*
X120665635Y-70076692D01*
X120685468Y-69850000D01*
X120665635Y-69623308D01*
X120606739Y-69403504D01*
X120510568Y-69197266D01*
X120380047Y-69010861D01*
X120380045Y-69010858D01*
X120219141Y-68849954D01*
X120032734Y-68719432D01*
X120032732Y-68719431D01*
X119826497Y-68623261D01*
X119826488Y-68623258D01*
X119606697Y-68564366D01*
X119606693Y-68564365D01*
X119606692Y-68564365D01*
X119606691Y-68564364D01*
X119606686Y-68564364D01*
X119380002Y-68544532D01*
X119379998Y-68544532D01*
X119153313Y-68564364D01*
X119153302Y-68564366D01*
X118933511Y-68623258D01*
X118933502Y-68623261D01*
X118727267Y-68719431D01*
X118727265Y-68719432D01*
X118540858Y-68849954D01*
X118379954Y-69010858D01*
X118249432Y-69197265D01*
X118249431Y-69197267D01*
X118153261Y-69403502D01*
X118153258Y-69403511D01*
X118094366Y-69623302D01*
X118094364Y-69623313D01*
X118074532Y-69849998D01*
X118074532Y-69850001D01*
X118094364Y-70076686D01*
X118094366Y-70076697D01*
X118153258Y-70296488D01*
X118153261Y-70296497D01*
X118249431Y-70502732D01*
X118249432Y-70502734D01*
X118379954Y-70689141D01*
X118540858Y-70850045D01*
X118540861Y-70850047D01*
X118727266Y-70980568D01*
X118785275Y-71007618D01*
X118837714Y-71053791D01*
X118856866Y-71120984D01*
X118836650Y-71187865D01*
X118785275Y-71232382D01*
X118727267Y-71259431D01*
X118727265Y-71259432D01*
X118540858Y-71389954D01*
X118379954Y-71550858D01*
X118249432Y-71737265D01*
X118249431Y-71737267D01*
X118153261Y-71943502D01*
X118153258Y-71943511D01*
X118094366Y-72163302D01*
X118094364Y-72163313D01*
X118074532Y-72389998D01*
X118074532Y-72390001D01*
X118094364Y-72616686D01*
X118094366Y-72616697D01*
X118153258Y-72836488D01*
X118153261Y-72836497D01*
X118249431Y-73042732D01*
X118249432Y-73042734D01*
X118379954Y-73229141D01*
X118540858Y-73390045D01*
X118540861Y-73390047D01*
X118727266Y-73520568D01*
X118785275Y-73547618D01*
X118837714Y-73593791D01*
X118856866Y-73660984D01*
X118836650Y-73727865D01*
X118785275Y-73772382D01*
X118727267Y-73799431D01*
X118727265Y-73799432D01*
X118540858Y-73929954D01*
X118379954Y-74090858D01*
X118249432Y-74277265D01*
X118249431Y-74277267D01*
X118153261Y-74483502D01*
X118153258Y-74483511D01*
X118094366Y-74703302D01*
X118094364Y-74703313D01*
X118074532Y-74929998D01*
X118074532Y-74930001D01*
X118094364Y-75156686D01*
X118094366Y-75156697D01*
X118153258Y-75376488D01*
X118153261Y-75376497D01*
X118249431Y-75582732D01*
X118249432Y-75582734D01*
X118379954Y-75769141D01*
X118540858Y-75930045D01*
X118540861Y-75930047D01*
X118727266Y-76060568D01*
X118785275Y-76087618D01*
X118837714Y-76133791D01*
X118856866Y-76200984D01*
X118836650Y-76267865D01*
X118785275Y-76312382D01*
X118727267Y-76339431D01*
X118727265Y-76339432D01*
X118540858Y-76469954D01*
X118379954Y-76630858D01*
X118249432Y-76817265D01*
X118249431Y-76817267D01*
X118153261Y-77023502D01*
X118153258Y-77023511D01*
X118094366Y-77243302D01*
X118094364Y-77243313D01*
X118074532Y-77469998D01*
X118074532Y-77470001D01*
X118094364Y-77696686D01*
X118094366Y-77696697D01*
X118153258Y-77916488D01*
X118153260Y-77916492D01*
X118153261Y-77916496D01*
X118163768Y-77939028D01*
X118174260Y-78008106D01*
X118145740Y-78071890D01*
X118087264Y-78110129D01*
X118017396Y-78110684D01*
X117963705Y-78079114D01*
X107924591Y-68040000D01*
X124574570Y-68040000D01*
X124594243Y-68252309D01*
X124594244Y-68252310D01*
X124643009Y-68423700D01*
X124652596Y-68457392D01*
X124652596Y-68457394D01*
X124747632Y-68648253D01*
X124876127Y-68818406D01*
X124876128Y-68818407D01*
X125033698Y-68962052D01*
X125214981Y-69074298D01*
X125413802Y-69151321D01*
X125623390Y-69190500D01*
X125623392Y-69190500D01*
X125836608Y-69190500D01*
X125836610Y-69190500D01*
X126046198Y-69151321D01*
X126245019Y-69074298D01*
X126426302Y-68962052D01*
X126583872Y-68818407D01*
X126712366Y-68648255D01*
X126724813Y-68623258D01*
X126807403Y-68457394D01*
X126807403Y-68457393D01*
X126807405Y-68457389D01*
X126865756Y-68252310D01*
X126876529Y-68136047D01*
X126902315Y-68071111D01*
X126944622Y-68040804D01*
X127053130Y-68040804D01*
X127089503Y-68061668D01*
X127121693Y-68123681D01*
X127123470Y-68136047D01*
X127134244Y-68252310D01*
X127183009Y-68423700D01*
X127192596Y-68457392D01*
X127192596Y-68457394D01*
X127287632Y-68648253D01*
X127416127Y-68818406D01*
X127416128Y-68818407D01*
X127573698Y-68962052D01*
X127754981Y-69074298D01*
X127953802Y-69151321D01*
X128163390Y-69190500D01*
X128163392Y-69190500D01*
X128376608Y-69190500D01*
X128376610Y-69190500D01*
X128586198Y-69151321D01*
X128785019Y-69074298D01*
X128966302Y-68962052D01*
X129123872Y-68818407D01*
X129252366Y-68648255D01*
X129264813Y-68623258D01*
X129347403Y-68457394D01*
X129347403Y-68457393D01*
X129347405Y-68457389D01*
X129405756Y-68252310D01*
X129425429Y-68040000D01*
X129405756Y-67827690D01*
X129347405Y-67622611D01*
X129347403Y-67622606D01*
X129347403Y-67622605D01*
X129252367Y-67431746D01*
X129123872Y-67261593D01*
X129058864Y-67202330D01*
X128966302Y-67117948D01*
X128785019Y-67005702D01*
X128785017Y-67005701D01*
X128615723Y-66940117D01*
X128586198Y-66928679D01*
X128376610Y-66889500D01*
X128163390Y-66889500D01*
X127953802Y-66928679D01*
X127953799Y-66928679D01*
X127953799Y-66928680D01*
X127754982Y-67005701D01*
X127754980Y-67005702D01*
X127573699Y-67117947D01*
X127416127Y-67261593D01*
X127287632Y-67431746D01*
X127192596Y-67622605D01*
X127192596Y-67622607D01*
X127134244Y-67827689D01*
X127123471Y-67943951D01*
X127097685Y-68008888D01*
X127053130Y-68040804D01*
X126944622Y-68040804D01*
X126946869Y-68039194D01*
X126910497Y-68018331D01*
X126878307Y-67956318D01*
X126876529Y-67943951D01*
X126875849Y-67936613D01*
X126865756Y-67827690D01*
X126807405Y-67622611D01*
X126807403Y-67622606D01*
X126807403Y-67622605D01*
X126712367Y-67431746D01*
X126583872Y-67261593D01*
X126518864Y-67202330D01*
X126426302Y-67117948D01*
X126245019Y-67005702D01*
X126245017Y-67005701D01*
X126075723Y-66940117D01*
X126046198Y-66928679D01*
X125836610Y-66889500D01*
X125623390Y-66889500D01*
X125413802Y-66928679D01*
X125413799Y-66928679D01*
X125413799Y-66928680D01*
X125214982Y-67005701D01*
X125214980Y-67005702D01*
X125033699Y-67117947D01*
X124876127Y-67261593D01*
X124747632Y-67431746D01*
X124652596Y-67622605D01*
X124652596Y-67622607D01*
X124594244Y-67827689D01*
X124574570Y-68039999D01*
X124574570Y-68040000D01*
X107924591Y-68040000D01*
X100684591Y-60800000D01*
X107545426Y-60800000D01*
X107564485Y-61017849D01*
X107564487Y-61017859D01*
X107621083Y-61229082D01*
X107621085Y-61229086D01*
X107621086Y-61229090D01*
X107639130Y-61267785D01*
X107713506Y-61427286D01*
X107716608Y-61431716D01*
X107838941Y-61606425D01*
X107993575Y-61761059D01*
X108172713Y-61886493D01*
X108370910Y-61978914D01*
X108582146Y-62035514D01*
X108756429Y-62050761D01*
X108799999Y-62054574D01*
X108800000Y-62054574D01*
X108800001Y-62054574D01*
X108836309Y-62051397D01*
X109017854Y-62035514D01*
X109229090Y-61978914D01*
X109427287Y-61886493D01*
X109606425Y-61761059D01*
X109761059Y-61606425D01*
X109886493Y-61427287D01*
X109937620Y-61317643D01*
X109983788Y-61265210D01*
X110050982Y-61246057D01*
X110117863Y-61266272D01*
X110162381Y-61317648D01*
X110213506Y-61427286D01*
X110216608Y-61431716D01*
X110338941Y-61606425D01*
X110493575Y-61761059D01*
X110672713Y-61886493D01*
X110870910Y-61978914D01*
X111082146Y-62035514D01*
X111256429Y-62050761D01*
X111299999Y-62054574D01*
X111300000Y-62054574D01*
X111300001Y-62054574D01*
X111336308Y-62051397D01*
X111517854Y-62035514D01*
X111729090Y-61978914D01*
X111927287Y-61886493D01*
X112106425Y-61761059D01*
X112261059Y-61606425D01*
X112386493Y-61427287D01*
X112437618Y-61317648D01*
X112483790Y-61265209D01*
X112550984Y-61246057D01*
X112617865Y-61266273D01*
X112662381Y-61317648D01*
X112713507Y-61427287D01*
X112838941Y-61606425D01*
X112993575Y-61761059D01*
X113172713Y-61886493D01*
X113370910Y-61978914D01*
X113582146Y-62035514D01*
X113756429Y-62050761D01*
X113799999Y-62054574D01*
X113800000Y-62054574D01*
X113800001Y-62054574D01*
X113836309Y-62051397D01*
X114017854Y-62035514D01*
X114229090Y-61978914D01*
X114427287Y-61886493D01*
X114606425Y-61761059D01*
X114761059Y-61606425D01*
X114886493Y-61427287D01*
X114978914Y-61229090D01*
X115035514Y-61017854D01*
X115054574Y-60800000D01*
X115035514Y-60582146D01*
X114978914Y-60370910D01*
X114886493Y-60172713D01*
X114761059Y-59993575D01*
X114606425Y-59838941D01*
X114427287Y-59713507D01*
X114427288Y-59713507D01*
X114427286Y-59713506D01*
X114328188Y-59667296D01*
X114229090Y-59621086D01*
X114229086Y-59621085D01*
X114229082Y-59621083D01*
X114017859Y-59564487D01*
X114017849Y-59564485D01*
X113800001Y-59545426D01*
X113799999Y-59545426D01*
X113582150Y-59564485D01*
X113582140Y-59564487D01*
X113370917Y-59621083D01*
X113370908Y-59621087D01*
X113172713Y-59713506D01*
X113097438Y-59766215D01*
X112993575Y-59838941D01*
X112993573Y-59838942D01*
X112993570Y-59838945D01*
X112838945Y-59993570D01*
X112838942Y-59993573D01*
X112838941Y-59993575D01*
X112822602Y-60016910D01*
X112713506Y-60172713D01*
X112662382Y-60282351D01*
X112616210Y-60334790D01*
X112549016Y-60353942D01*
X112482135Y-60333726D01*
X112437618Y-60282351D01*
X112425536Y-60256442D01*
X112386493Y-60172713D01*
X112261059Y-59993575D01*
X112106425Y-59838941D01*
X111927287Y-59713507D01*
X111927288Y-59713507D01*
X111927286Y-59713506D01*
X111828188Y-59667296D01*
X111729090Y-59621086D01*
X111729086Y-59621085D01*
X111729082Y-59621083D01*
X111517859Y-59564487D01*
X111517849Y-59564485D01*
X111300001Y-59545426D01*
X111299999Y-59545426D01*
X111082150Y-59564485D01*
X111082140Y-59564487D01*
X110870917Y-59621083D01*
X110870908Y-59621087D01*
X110672713Y-59713506D01*
X110597438Y-59766215D01*
X110493575Y-59838941D01*
X110493573Y-59838942D01*
X110493570Y-59838945D01*
X110338945Y-59993570D01*
X110338942Y-59993573D01*
X110338941Y-59993575D01*
X110322602Y-60016910D01*
X110213506Y-60172713D01*
X110162382Y-60282351D01*
X110116210Y-60334790D01*
X110049016Y-60353942D01*
X109982135Y-60333726D01*
X109937618Y-60282351D01*
X109925536Y-60256442D01*
X109886493Y-60172713D01*
X109761059Y-59993575D01*
X109606425Y-59838941D01*
X109427287Y-59713507D01*
X109427288Y-59713507D01*
X109427286Y-59713506D01*
X109328188Y-59667296D01*
X109229090Y-59621086D01*
X109229086Y-59621085D01*
X109229082Y-59621083D01*
X109017859Y-59564487D01*
X109017849Y-59564485D01*
X108800001Y-59545426D01*
X108799999Y-59545426D01*
X108582150Y-59564485D01*
X108582140Y-59564487D01*
X108370917Y-59621083D01*
X108370908Y-59621087D01*
X108172713Y-59713506D01*
X108097438Y-59766215D01*
X107993575Y-59838941D01*
X107993573Y-59838942D01*
X107993570Y-59838945D01*
X107838945Y-59993570D01*
X107838942Y-59993573D01*
X107838941Y-59993575D01*
X107822602Y-60016910D01*
X107713506Y-60172713D01*
X107621087Y-60370908D01*
X107621083Y-60370917D01*
X107564487Y-60582140D01*
X107564485Y-60582150D01*
X107545426Y-60799999D01*
X107545426Y-60800000D01*
X100684591Y-60800000D01*
X96700803Y-56816212D01*
X96690980Y-56803950D01*
X96690759Y-56804134D01*
X96685786Y-56798123D01*
X96667159Y-56780631D01*
X96635364Y-56750773D01*
X96624919Y-56740328D01*
X96614475Y-56729883D01*
X96608986Y-56725625D01*
X96604561Y-56721847D01*
X96570582Y-56689938D01*
X96570580Y-56689936D01*
X96570577Y-56689935D01*
X96553029Y-56680288D01*
X96536763Y-56669604D01*
X96520933Y-56657325D01*
X96478168Y-56638818D01*
X96472922Y-56636248D01*
X96432093Y-56613803D01*
X96432092Y-56613802D01*
X96412693Y-56608822D01*
X96394281Y-56602518D01*
X96375898Y-56594562D01*
X96375892Y-56594560D01*
X96329874Y-56587272D01*
X96324152Y-56586087D01*
X96279021Y-56574500D01*
X96279019Y-56574500D01*
X96258984Y-56574500D01*
X96239586Y-56572973D01*
X96232162Y-56571797D01*
X96219805Y-56569840D01*
X96219804Y-56569840D01*
X96173416Y-56574225D01*
X96167578Y-56574500D01*
X92282737Y-56574500D01*
X92267120Y-56572776D01*
X92267093Y-56573062D01*
X92259331Y-56572327D01*
X92190203Y-56574500D01*
X92160650Y-56574500D01*
X92159929Y-56574590D01*
X92153757Y-56575369D01*
X92147945Y-56575826D01*
X92101372Y-56577290D01*
X92101369Y-56577291D01*
X92082126Y-56582881D01*
X92063083Y-56586825D01*
X92043204Y-56589336D01*
X92043203Y-56589337D01*
X91999878Y-56606490D01*
X91994352Y-56608382D01*
X91949608Y-56621383D01*
X91949604Y-56621385D01*
X91932365Y-56631580D01*
X91914898Y-56640137D01*
X91896269Y-56647512D01*
X91896267Y-56647513D01*
X91858564Y-56674906D01*
X91853682Y-56678112D01*
X91813580Y-56701828D01*
X91799408Y-56716000D01*
X91784623Y-56728628D01*
X91768412Y-56740407D01*
X91738709Y-56776310D01*
X91734777Y-56780631D01*
X87652228Y-60863181D01*
X87590905Y-60896666D01*
X87564547Y-60899500D01*
X87505354Y-60899500D01*
X87472897Y-60906398D01*
X87320197Y-60938855D01*
X87320192Y-60938857D01*
X87147270Y-61015848D01*
X87147265Y-61015851D01*
X86994129Y-61127111D01*
X86867466Y-61267785D01*
X86772821Y-61431715D01*
X86772818Y-61431722D01*
X86716054Y-61606425D01*
X86714326Y-61611744D01*
X86694540Y-61800000D01*
X86714326Y-61988256D01*
X86714327Y-61988259D01*
X86772818Y-62168277D01*
X86772821Y-62168284D01*
X86867467Y-62332216D01*
X86994128Y-62472887D01*
X86994129Y-62472888D01*
X87147265Y-62584148D01*
X87147270Y-62584151D01*
X87320192Y-62661142D01*
X87320197Y-62661144D01*
X87505354Y-62700500D01*
X87564548Y-62700500D01*
X87631587Y-62720185D01*
X87652228Y-62736819D01*
X89538182Y-64622772D01*
X89571666Y-64684093D01*
X89574500Y-64710451D01*
X89574500Y-77501312D01*
X89554815Y-77568351D01*
X89542650Y-77584284D01*
X89467466Y-77667784D01*
X89372821Y-77831715D01*
X89372818Y-77831722D01*
X89315508Y-78008106D01*
X89314326Y-78011744D01*
X89294540Y-78200000D01*
X89314326Y-78388256D01*
X89314327Y-78388259D01*
X89372818Y-78568277D01*
X89372821Y-78568284D01*
X89467467Y-78732216D01*
X89473591Y-78739017D01*
X89542650Y-78815715D01*
X89572880Y-78878706D01*
X89574500Y-78898687D01*
X89574500Y-90289546D01*
X89554815Y-90356585D01*
X89538182Y-90377227D01*
X89452229Y-90463181D01*
X89390906Y-90496666D01*
X89364547Y-90499500D01*
X89305354Y-90499500D01*
X89272897Y-90506398D01*
X89120197Y-90538855D01*
X89120192Y-90538857D01*
X88947270Y-90615848D01*
X88947265Y-90615851D01*
X88794129Y-90727111D01*
X88667466Y-90867785D01*
X88572821Y-91031715D01*
X88572818Y-91031722D01*
X88527874Y-91170047D01*
X88514326Y-91211744D01*
X88494540Y-91400000D01*
X88514326Y-91588256D01*
X88514327Y-91588259D01*
X88572818Y-91768277D01*
X88572821Y-91768284D01*
X88667467Y-91932216D01*
X88710772Y-91980310D01*
X88742650Y-92015715D01*
X88772880Y-92078706D01*
X88774500Y-92098687D01*
X88774500Y-103089546D01*
X88754815Y-103156585D01*
X88738181Y-103177227D01*
X85616208Y-106299199D01*
X85603951Y-106309020D01*
X85604134Y-106309241D01*
X85598123Y-106314213D01*
X85550772Y-106364636D01*
X85529889Y-106385519D01*
X85529877Y-106385532D01*
X85525621Y-106391017D01*
X85521837Y-106395447D01*
X85489937Y-106429418D01*
X85489936Y-106429420D01*
X85480284Y-106446976D01*
X85469610Y-106463226D01*
X85457329Y-106479061D01*
X85457324Y-106479068D01*
X85438815Y-106521838D01*
X85436245Y-106527084D01*
X85413803Y-106567906D01*
X85408822Y-106587307D01*
X85402521Y-106605710D01*
X85394562Y-106624102D01*
X85394561Y-106624105D01*
X85387271Y-106670127D01*
X85386087Y-106675846D01*
X85374501Y-106720972D01*
X85374500Y-106720982D01*
X85374500Y-106741016D01*
X85372973Y-106760415D01*
X85369840Y-106780194D01*
X85369840Y-106780195D01*
X85374225Y-106826583D01*
X85374500Y-106832421D01*
X85374500Y-111301312D01*
X85354815Y-111368351D01*
X85342650Y-111384284D01*
X85267466Y-111467784D01*
X85172821Y-111631715D01*
X85172818Y-111631722D01*
X85130819Y-111760984D01*
X85114326Y-111811744D01*
X85094540Y-112000000D01*
X65960500Y-112000000D01*
X65960500Y-102600005D01*
X70786481Y-102600005D01*
X70805321Y-102827383D01*
X70805323Y-102827391D01*
X70861335Y-103048577D01*
X70952989Y-103257529D01*
X71077787Y-103448548D01*
X71211937Y-103594272D01*
X71232323Y-103616417D01*
X71412381Y-103756561D01*
X71613050Y-103865158D01*
X71828857Y-103939245D01*
X72053915Y-103976800D01*
X72282085Y-103976800D01*
X72507143Y-103939245D01*
X72722950Y-103865158D01*
X72923619Y-103756561D01*
X73103677Y-103616417D01*
X73258213Y-103448547D01*
X73383010Y-103257530D01*
X73474664Y-103048578D01*
X73530677Y-102827391D01*
X73537778Y-102741695D01*
X73549519Y-102600005D01*
X73549519Y-102599994D01*
X73530678Y-102372616D01*
X73530677Y-102372613D01*
X73530677Y-102372609D01*
X73474664Y-102151422D01*
X73383010Y-101942470D01*
X73308830Y-101828928D01*
X73258212Y-101751451D01*
X73118791Y-101600001D01*
X80325683Y-101600001D01*
X80345710Y-101828917D01*
X80345712Y-101828928D01*
X80405184Y-102050883D01*
X80405186Y-102050887D01*
X80405187Y-102050891D01*
X80488247Y-102229013D01*
X80502304Y-102259159D01*
X80502308Y-102259165D01*
X80529141Y-102297486D01*
X80634111Y-102447398D01*
X80796602Y-102609889D01*
X80984841Y-102741696D01*
X81193109Y-102838813D01*
X81415077Y-102898289D01*
X81578593Y-102912594D01*
X81643998Y-102918317D01*
X81644000Y-102918317D01*
X81644002Y-102918317D01*
X81701368Y-102913298D01*
X81872923Y-102898289D01*
X82094891Y-102838813D01*
X82303159Y-102741696D01*
X82491398Y-102609889D01*
X82653889Y-102447398D01*
X82785696Y-102259159D01*
X82882813Y-102050891D01*
X82942289Y-101828923D01*
X82962317Y-101600000D01*
X82942289Y-101371077D01*
X82882813Y-101149109D01*
X82785696Y-100940842D01*
X82730595Y-100862150D01*
X82653892Y-100752606D01*
X82653887Y-100752600D01*
X82491398Y-100590111D01*
X82303165Y-100458308D01*
X82303159Y-100458304D01*
X82241719Y-100429654D01*
X82094891Y-100361187D01*
X82094887Y-100361186D01*
X82094883Y-100361184D01*
X81872928Y-100301712D01*
X81872924Y-100301711D01*
X81872923Y-100301711D01*
X81872922Y-100301710D01*
X81872917Y-100301710D01*
X81644002Y-100281683D01*
X81643998Y-100281683D01*
X81415082Y-100301710D01*
X81415071Y-100301712D01*
X81193116Y-100361184D01*
X81193107Y-100361188D01*
X80984842Y-100458303D01*
X80984840Y-100458304D01*
X80796606Y-100590107D01*
X80796600Y-100590112D01*
X80634112Y-100752600D01*
X80634107Y-100752606D01*
X80502304Y-100940840D01*
X80502303Y-100940842D01*
X80405188Y-101149107D01*
X80405184Y-101149116D01*
X80345712Y-101371071D01*
X80345710Y-101371082D01*
X80325683Y-101599998D01*
X80325683Y-101600001D01*
X73118791Y-101600001D01*
X73103680Y-101583586D01*
X73103676Y-101583582D01*
X73007968Y-101509090D01*
X72929290Y-101447853D01*
X72888478Y-101391143D01*
X72884803Y-101321370D01*
X72919434Y-101260687D01*
X72929291Y-101252146D01*
X73103677Y-101116417D01*
X73258213Y-100948547D01*
X73383010Y-100757530D01*
X73474664Y-100548578D01*
X73530677Y-100327391D01*
X73534049Y-100286700D01*
X73549519Y-100100005D01*
X73549519Y-100099994D01*
X73530678Y-99872616D01*
X73530677Y-99872613D01*
X73530677Y-99872609D01*
X73474664Y-99651422D01*
X73383010Y-99442470D01*
X73309500Y-99329954D01*
X73258212Y-99251451D01*
X73103680Y-99083586D01*
X73103676Y-99083582D01*
X73007968Y-99009090D01*
X72929290Y-98947853D01*
X72888478Y-98891143D01*
X72884803Y-98821370D01*
X72919434Y-98760687D01*
X72929291Y-98752146D01*
X72937667Y-98745627D01*
X73103677Y-98616417D01*
X73258213Y-98448547D01*
X73383010Y-98257530D01*
X73474664Y-98048578D01*
X73530677Y-97827391D01*
X73530678Y-97827383D01*
X73549519Y-97600005D01*
X73549519Y-97599994D01*
X73530678Y-97372616D01*
X73530677Y-97372613D01*
X73530677Y-97372609D01*
X73474664Y-97151422D01*
X73383010Y-96942470D01*
X73270557Y-96770347D01*
X73258212Y-96751451D01*
X73103680Y-96583586D01*
X73103676Y-96583582D01*
X72945760Y-96460672D01*
X72929290Y-96447853D01*
X72888478Y-96391143D01*
X72884803Y-96321370D01*
X72919434Y-96260687D01*
X72929291Y-96252146D01*
X72931988Y-96250047D01*
X73103677Y-96116417D01*
X73258213Y-95948547D01*
X73383010Y-95757530D01*
X73452108Y-95600001D01*
X80473683Y-95600001D01*
X80493710Y-95828917D01*
X80493712Y-95828928D01*
X80553184Y-96050883D01*
X80553186Y-96050887D01*
X80553187Y-96050891D01*
X80650304Y-96259159D01*
X80782111Y-96447398D01*
X80944602Y-96609889D01*
X81132841Y-96741696D01*
X81341109Y-96838813D01*
X81563077Y-96898289D01*
X81726593Y-96912594D01*
X81791998Y-96918317D01*
X81792000Y-96918317D01*
X81792002Y-96918317D01*
X81849368Y-96913298D01*
X82020923Y-96898289D01*
X82242891Y-96838813D01*
X82451159Y-96741696D01*
X82639398Y-96609889D01*
X82801889Y-96447398D01*
X82933696Y-96259159D01*
X83030813Y-96050891D01*
X83090289Y-95828923D01*
X83110317Y-95600000D01*
X83090289Y-95371077D01*
X83030813Y-95149109D01*
X82933696Y-94940842D01*
X82801889Y-94752602D01*
X82639398Y-94590111D01*
X82451159Y-94458304D01*
X82242891Y-94361187D01*
X82242887Y-94361186D01*
X82242883Y-94361184D01*
X82020928Y-94301712D01*
X82020924Y-94301711D01*
X82020923Y-94301711D01*
X82020922Y-94301710D01*
X82020917Y-94301710D01*
X81792002Y-94281683D01*
X81791998Y-94281683D01*
X81563082Y-94301710D01*
X81563071Y-94301712D01*
X81341116Y-94361184D01*
X81341107Y-94361188D01*
X81132842Y-94458303D01*
X81132840Y-94458304D01*
X80944606Y-94590107D01*
X80944600Y-94590112D01*
X80782112Y-94752600D01*
X80782107Y-94752606D01*
X80650304Y-94940840D01*
X80650303Y-94940842D01*
X80553188Y-95149107D01*
X80553184Y-95149116D01*
X80493712Y-95371071D01*
X80493710Y-95371082D01*
X80473683Y-95599998D01*
X80473683Y-95600001D01*
X73452108Y-95600001D01*
X73474664Y-95548578D01*
X73530677Y-95327391D01*
X73537090Y-95249998D01*
X73549519Y-95100005D01*
X73549519Y-95099994D01*
X73530678Y-94872616D01*
X73530677Y-94872613D01*
X73530677Y-94872609D01*
X73474664Y-94651422D01*
X73383010Y-94442470D01*
X73329906Y-94361188D01*
X73258212Y-94251451D01*
X73103680Y-94083586D01*
X73103676Y-94083582D01*
X72923620Y-93943440D01*
X72923619Y-93943439D01*
X72722950Y-93834842D01*
X72722942Y-93834839D01*
X72507145Y-93760755D01*
X72282085Y-93723200D01*
X72053915Y-93723200D01*
X71828854Y-93760755D01*
X71613057Y-93834839D01*
X71613049Y-93834842D01*
X71412379Y-93943440D01*
X71232323Y-94083582D01*
X71232319Y-94083586D01*
X71077787Y-94251451D01*
X70952989Y-94442470D01*
X70861335Y-94651422D01*
X70805323Y-94872608D01*
X70805321Y-94872616D01*
X70786481Y-95099994D01*
X70786481Y-95100005D01*
X70805321Y-95327383D01*
X70805323Y-95327391D01*
X70861335Y-95548577D01*
X70952989Y-95757529D01*
X71077787Y-95948548D01*
X71232319Y-96116413D01*
X71232330Y-96116424D01*
X71406708Y-96252147D01*
X71447521Y-96308857D01*
X71451196Y-96378630D01*
X71416564Y-96439313D01*
X71406708Y-96447853D01*
X71232330Y-96583575D01*
X71232319Y-96583586D01*
X71077787Y-96751451D01*
X70952989Y-96942470D01*
X70861335Y-97151422D01*
X70805323Y-97372608D01*
X70805321Y-97372616D01*
X70786481Y-97599994D01*
X70786481Y-97600005D01*
X70805321Y-97827383D01*
X70805323Y-97827391D01*
X70861335Y-98048577D01*
X70952989Y-98257529D01*
X71077787Y-98448548D01*
X71232319Y-98616413D01*
X71232330Y-98616424D01*
X71406708Y-98752147D01*
X71447521Y-98808857D01*
X71451196Y-98878630D01*
X71416564Y-98939313D01*
X71406708Y-98947853D01*
X71232330Y-99083575D01*
X71232319Y-99083586D01*
X71077787Y-99251451D01*
X70952989Y-99442470D01*
X70861335Y-99651422D01*
X70805323Y-99872608D01*
X70805321Y-99872616D01*
X70786481Y-100099994D01*
X70786481Y-100100005D01*
X70805321Y-100327383D01*
X70805323Y-100327391D01*
X70861335Y-100548577D01*
X70952989Y-100757529D01*
X71077787Y-100948548D01*
X71232319Y-101116413D01*
X71232330Y-101116424D01*
X71406708Y-101252147D01*
X71447521Y-101308857D01*
X71451196Y-101378630D01*
X71416564Y-101439313D01*
X71406708Y-101447853D01*
X71232330Y-101583575D01*
X71232319Y-101583586D01*
X71077787Y-101751451D01*
X70952989Y-101942470D01*
X70861335Y-102151422D01*
X70805323Y-102372608D01*
X70805321Y-102372616D01*
X70786481Y-102599994D01*
X70786481Y-102600005D01*
X65960500Y-102600005D01*
X65960500Y-73423705D01*
X72426481Y-73423705D01*
X72445321Y-73651083D01*
X72445323Y-73651091D01*
X72501335Y-73872277D01*
X72592989Y-74081229D01*
X72717787Y-74272248D01*
X72872319Y-74440113D01*
X72872323Y-74440117D01*
X73052381Y-74580261D01*
X73253050Y-74688858D01*
X73468857Y-74762945D01*
X73693915Y-74800500D01*
X73922085Y-74800500D01*
X74147143Y-74762945D01*
X74362950Y-74688858D01*
X74563619Y-74580261D01*
X74743677Y-74440117D01*
X74898213Y-74272247D01*
X75023010Y-74081230D01*
X75114664Y-73872278D01*
X75170677Y-73651091D01*
X75170678Y-73651083D01*
X75189519Y-73423705D01*
X75189519Y-73423694D01*
X75170678Y-73196316D01*
X75170677Y-73196313D01*
X75170677Y-73196309D01*
X75114664Y-72975122D01*
X75023010Y-72766170D01*
X74996371Y-72725396D01*
X74898212Y-72575151D01*
X74743680Y-72407286D01*
X74743676Y-72407282D01*
X74569291Y-72271554D01*
X74528478Y-72214843D01*
X74524803Y-72145070D01*
X74559434Y-72084387D01*
X74569291Y-72075846D01*
X74743677Y-71940117D01*
X74898213Y-71772247D01*
X75021396Y-71583701D01*
X80367683Y-71583701D01*
X80387710Y-71812617D01*
X80387712Y-71812628D01*
X80447184Y-72034583D01*
X80447186Y-72034587D01*
X80447187Y-72034591D01*
X80534215Y-72221224D01*
X80544304Y-72242859D01*
X80544308Y-72242865D01*
X80594894Y-72315109D01*
X80676111Y-72431098D01*
X80838602Y-72593589D01*
X81026841Y-72725396D01*
X81235109Y-72822513D01*
X81457077Y-72881989D01*
X81620593Y-72896294D01*
X81685998Y-72902017D01*
X81686000Y-72902017D01*
X81686002Y-72902017D01*
X81743368Y-72896998D01*
X81914923Y-72881989D01*
X82136891Y-72822513D01*
X82345159Y-72725396D01*
X82533398Y-72593589D01*
X82695889Y-72431098D01*
X82827696Y-72242859D01*
X82924813Y-72034591D01*
X82984289Y-71812623D01*
X83004317Y-71583700D01*
X82984289Y-71354777D01*
X82932973Y-71163261D01*
X82924815Y-71132816D01*
X82924814Y-71132815D01*
X82924813Y-71132809D01*
X82827696Y-70924542D01*
X82827106Y-70923700D01*
X82695892Y-70736306D01*
X82695887Y-70736300D01*
X82533398Y-70573811D01*
X82345165Y-70442008D01*
X82345159Y-70442004D01*
X82283719Y-70413354D01*
X82136891Y-70344887D01*
X82136887Y-70344886D01*
X82136883Y-70344884D01*
X81914928Y-70285412D01*
X81914924Y-70285411D01*
X81914923Y-70285411D01*
X81914922Y-70285410D01*
X81914917Y-70285410D01*
X81686002Y-70265383D01*
X81685998Y-70265383D01*
X81457082Y-70285410D01*
X81457071Y-70285412D01*
X81235116Y-70344884D01*
X81235107Y-70344888D01*
X81026842Y-70442003D01*
X81026840Y-70442004D01*
X80838606Y-70573807D01*
X80838600Y-70573812D01*
X80676112Y-70736300D01*
X80676107Y-70736306D01*
X80544304Y-70924540D01*
X80544303Y-70924542D01*
X80447188Y-71132807D01*
X80447184Y-71132816D01*
X80387712Y-71354771D01*
X80387710Y-71354782D01*
X80367683Y-71583698D01*
X80367683Y-71583701D01*
X75021396Y-71583701D01*
X75023010Y-71581230D01*
X75114664Y-71372278D01*
X75170677Y-71151091D01*
X75171958Y-71135633D01*
X75189519Y-70923705D01*
X75189519Y-70923694D01*
X75170678Y-70696316D01*
X75170677Y-70696313D01*
X75170677Y-70696309D01*
X75114664Y-70475122D01*
X75023010Y-70266170D01*
X74899222Y-70076697D01*
X74898212Y-70075151D01*
X74743680Y-69907286D01*
X74743676Y-69907282D01*
X74569291Y-69771554D01*
X74528478Y-69714843D01*
X74524803Y-69645070D01*
X74559434Y-69584387D01*
X74569291Y-69575846D01*
X74743677Y-69440117D01*
X74898213Y-69272247D01*
X75023010Y-69081230D01*
X75114664Y-68872278D01*
X75170677Y-68651091D01*
X75172983Y-68623261D01*
X75189519Y-68423705D01*
X75189519Y-68423694D01*
X75170678Y-68196316D01*
X75170677Y-68196313D01*
X75170677Y-68196309D01*
X75114664Y-67975122D01*
X75023010Y-67766170D01*
X74898213Y-67575153D01*
X74898212Y-67575151D01*
X74743680Y-67407286D01*
X74743676Y-67407282D01*
X74569291Y-67271554D01*
X74528478Y-67214843D01*
X74524803Y-67145070D01*
X74559434Y-67084387D01*
X74569291Y-67075846D01*
X74743677Y-66940117D01*
X74898213Y-66772247D01*
X75023010Y-66581230D01*
X75114664Y-66372278D01*
X75170677Y-66151091D01*
X75170678Y-66151083D01*
X75189519Y-65923705D01*
X75189519Y-65923694D01*
X75170678Y-65696316D01*
X75170677Y-65696313D01*
X75170677Y-65696309D01*
X75114664Y-65475122D01*
X75092109Y-65423701D01*
X80365683Y-65423701D01*
X80385710Y-65652617D01*
X80385712Y-65652628D01*
X80445184Y-65874583D01*
X80445186Y-65874587D01*
X80445187Y-65874591D01*
X80542304Y-66082859D01*
X80674111Y-66271098D01*
X80836602Y-66433589D01*
X81024841Y-66565396D01*
X81233109Y-66662513D01*
X81455077Y-66721989D01*
X81618593Y-66736294D01*
X81683998Y-66742017D01*
X81684000Y-66742017D01*
X81684002Y-66742017D01*
X81741368Y-66736998D01*
X81912923Y-66721989D01*
X82134891Y-66662513D01*
X82343159Y-66565396D01*
X82531398Y-66433589D01*
X82693889Y-66271098D01*
X82825696Y-66082859D01*
X82922813Y-65874591D01*
X82982289Y-65652623D01*
X83002317Y-65423700D01*
X82982289Y-65194777D01*
X82922813Y-64972809D01*
X82825696Y-64764542D01*
X82693889Y-64576302D01*
X82531398Y-64413811D01*
X82494579Y-64388030D01*
X82343165Y-64282008D01*
X82343159Y-64282004D01*
X82281719Y-64253354D01*
X82134891Y-64184887D01*
X82134887Y-64184886D01*
X82134883Y-64184884D01*
X81912928Y-64125412D01*
X81912924Y-64125411D01*
X81912923Y-64125411D01*
X81912922Y-64125410D01*
X81912917Y-64125410D01*
X81684002Y-64105383D01*
X81683998Y-64105383D01*
X81455082Y-64125410D01*
X81455071Y-64125412D01*
X81233116Y-64184884D01*
X81233107Y-64184888D01*
X81024842Y-64282003D01*
X81024840Y-64282004D01*
X80836606Y-64413807D01*
X80836600Y-64413812D01*
X80674112Y-64576300D01*
X80674107Y-64576306D01*
X80542304Y-64764540D01*
X80542303Y-64764542D01*
X80445188Y-64972807D01*
X80445184Y-64972816D01*
X80385712Y-65194771D01*
X80385710Y-65194782D01*
X80365683Y-65423698D01*
X80365683Y-65423701D01*
X75092109Y-65423701D01*
X75023010Y-65266170D01*
X74898213Y-65075153D01*
X74898212Y-65075151D01*
X74743680Y-64907286D01*
X74743676Y-64907282D01*
X74563620Y-64767140D01*
X74563619Y-64767139D01*
X74362950Y-64658542D01*
X74362942Y-64658539D01*
X74147145Y-64584455D01*
X73922085Y-64546900D01*
X73693915Y-64546900D01*
X73468854Y-64584455D01*
X73253057Y-64658539D01*
X73253049Y-64658542D01*
X73052379Y-64767140D01*
X72872323Y-64907282D01*
X72872319Y-64907286D01*
X72717787Y-65075151D01*
X72592989Y-65266170D01*
X72501335Y-65475122D01*
X72445323Y-65696308D01*
X72445321Y-65696316D01*
X72426481Y-65923694D01*
X72426481Y-65923705D01*
X72445321Y-66151083D01*
X72445323Y-66151091D01*
X72501335Y-66372277D01*
X72592989Y-66581229D01*
X72717787Y-66772248D01*
X72872319Y-66940113D01*
X72872330Y-66940124D01*
X73046708Y-67075847D01*
X73087521Y-67132557D01*
X73091196Y-67202330D01*
X73056564Y-67263013D01*
X73046708Y-67271553D01*
X72872330Y-67407275D01*
X72872319Y-67407286D01*
X72717787Y-67575151D01*
X72592989Y-67766170D01*
X72501335Y-67975122D01*
X72445323Y-68196308D01*
X72445321Y-68196316D01*
X72426481Y-68423694D01*
X72426481Y-68423705D01*
X72445321Y-68651083D01*
X72445323Y-68651091D01*
X72501335Y-68872277D01*
X72592989Y-69081229D01*
X72717787Y-69272248D01*
X72872319Y-69440113D01*
X72872330Y-69440124D01*
X73046708Y-69575847D01*
X73087521Y-69632557D01*
X73091196Y-69702330D01*
X73056564Y-69763013D01*
X73046708Y-69771553D01*
X72872330Y-69907275D01*
X72872319Y-69907286D01*
X72717787Y-70075151D01*
X72592989Y-70266170D01*
X72501335Y-70475122D01*
X72445323Y-70696308D01*
X72445321Y-70696316D01*
X72426481Y-70923694D01*
X72426481Y-70923705D01*
X72445321Y-71151083D01*
X72445323Y-71151091D01*
X72501335Y-71372277D01*
X72592989Y-71581229D01*
X72717787Y-71772248D01*
X72872319Y-71940113D01*
X72872330Y-71940124D01*
X73046708Y-72075847D01*
X73087521Y-72132557D01*
X73091196Y-72202330D01*
X73056564Y-72263013D01*
X73046708Y-72271553D01*
X72872330Y-72407275D01*
X72872319Y-72407286D01*
X72717787Y-72575151D01*
X72592989Y-72766170D01*
X72501335Y-72975122D01*
X72445323Y-73196308D01*
X72445321Y-73196316D01*
X72426481Y-73423694D01*
X72426481Y-73423705D01*
X65960500Y-73423705D01*
X65960500Y-56873249D01*
X65980185Y-56806210D01*
X66032989Y-56760455D01*
X66102147Y-56750511D01*
X66158365Y-56773650D01*
X66243513Y-56836800D01*
X66597510Y-57048978D01*
X66970600Y-57225436D01*
X66970609Y-57225439D01*
X66970620Y-57225444D01*
X67331738Y-57354654D01*
X67359189Y-57364476D01*
X67759535Y-57464757D01*
X68167782Y-57525315D01*
X68580000Y-57545566D01*
X68992218Y-57525315D01*
X69400465Y-57464757D01*
X69800811Y-57364476D01*
X69981380Y-57299866D01*
X70189379Y-57225444D01*
X70189385Y-57225441D01*
X70189400Y-57225436D01*
X70562490Y-57048978D01*
X70916487Y-56836800D01*
X71247983Y-56590946D01*
X71553784Y-56313784D01*
X71830946Y-56007983D01*
X72076800Y-55676487D01*
X72288978Y-55322490D01*
X72465436Y-54949400D01*
X72604476Y-54560811D01*
X72704757Y-54160465D01*
X72765315Y-53752218D01*
X72785566Y-53340000D01*
X72765315Y-52927782D01*
X72704757Y-52519535D01*
X72604476Y-52119189D01*
X72594654Y-52091738D01*
X72465444Y-51730620D01*
X72465437Y-51730604D01*
X72465436Y-51730600D01*
X72288978Y-51357510D01*
X72076800Y-51003513D01*
X72013650Y-50918366D01*
X71989527Y-50852794D01*
X72004683Y-50784588D01*
X72054308Y-50735404D01*
X72113249Y-50720500D01*
X169186751Y-50720500D01*
X169253790Y-50740185D01*
G37*
%TD.AperFunction*%
%TD*%
M02*
